<svg width="41" height="41" viewBox="0 0 41 41" fill="none" xmlns="http://www.w3.org/2000/svg">
<g clip-path="url(#clip0_2778_82311)">
<path d="M20.5 41C31.8218 41 41 31.8218 41 20.5C41 9.17816 31.8218 0 20.5 0C9.17816 0 0 9.17816 0 20.5C0 31.8218 9.17816 41 20.5 41Z" fill="#D6D6D6"/>
<path d="M20.7911 7C18.8798 6.99932 17.0273 7.65798 15.5494 8.86373C14.0716 10.0695 13.0598 11.7477 12.6864 13.6124C12.3131 15.4771 12.6014 17.4128 13.5022 19.0898C14.4029 20.7667 15.8604 22.0811 17.6262 22.8088C19.3921 23.5366 21.3569 23.6327 23.186 23.0808C25.0151 22.5289 26.5952 21.3632 27.6571 19.7823C28.7189 18.2013 29.1967 16.3031 29.0092 14.4109C28.8216 12.5188 27.9802 10.7499 26.6284 9.40574C25.8622 8.64269 24.9523 8.03744 23.9506 7.62463C22.949 7.21182 21.8754 6.99956 20.7911 7Z" fill="white"/>
<path d="M20.7889 37.9999C24.6778 37.9975 28.4746 36.8223 31.6784 34.6294C32.3414 34.1748 32.9757 33.6801 33.5777 33.1481C33.5095 31.0855 32.6388 29.1297 31.1492 27.6932C29.6597 26.2566 27.6676 25.4514 25.5929 25.4473H15.9873C13.9122 25.4494 11.9192 26.2536 10.4289 27.69C8.93856 29.1263 8.06766 31.0825 8 33.1456C8.59864 33.6782 9.22956 34.1737 9.88921 34.6294C13.0958 36.8242 16.8965 37.9995 20.7889 37.9999Z" fill="white"/>
</g>
<defs>
<clipPath id="clip0_2778_82311">
<rect width="41" height="41" rx="20.5" fill="white"/>
</clipPath>
</defs>
</svg>
