<svg width="24" height="25" viewBox="0 0 24 25" fill="none" xmlns="http://www.w3.org/2000/svg">
<g clip-path="url(#clip0_7703_119938)">
<path d="M11.9982 0.5C6.994 0.5 5.53761 0.5 5.24412 0.529541C4.21597 0.61447 3.58283 0.776944 2.87956 1.12405C2.36319 1.3746 1.89612 1.71607 1.50069 2.13213C0.735397 2.93089 0.247972 3.95518 0.110752 5.05297C0.0295339 5.61424 0 5.72871 0 8.59416C0 9.54685 0 10.8079 0 12.5009C0 17.5025 0 18.963 0.0295339 19.251C0.112598 20.2517 0.269497 20.8813 0.601754 21.5699C0.921959 22.2262 1.38046 22.8053 1.94573 23.2674C2.511 23.7296 3.16963 24.0638 3.87633 24.2471C4.44765 24.3839 5.03159 24.4612 5.61883 24.4778C5.91601 24.4908 8.94139 24.5 11.976 24.5C15.0106 24.5 18.0378 24.5 18.3276 24.4815C18.9363 24.4698 19.5417 24.3906 20.1329 24.2452C20.8413 24.0635 21.5015 23.7293 22.0674 23.2659C22.6333 22.8026 23.0913 22.2213 23.4093 21.5625C23.7476 20.8496 23.9403 20.0763 23.976 19.2879C23.9926 19.0811 23.9982 15.7799 23.9982 12.4917C23.9982 9.20344 23.9982 5.9078 23.976 5.70101C23.9415 4.9041 23.7449 4.1226 23.3982 3.40422C23.1448 2.87608 22.7963 2.39916 22.3701 1.99735C21.5705 1.2351 20.5477 0.749163 19.4518 0.610778C18.898 0.529541 18.778 0.505539 15.9096 0.5H11.9982Z" fill="url(#paint0_radial_7703_119938)"/>
<path d="M11.9982 0.5C6.994 0.5 5.53761 0.5 5.24412 0.529541C4.21597 0.61447 3.58283 0.776944 2.87956 1.12405C2.36319 1.3746 1.89612 1.71607 1.50069 2.13213C0.735397 2.93089 0.247972 3.95518 0.110752 5.05297C0.0295339 5.61424 0 5.72871 0 8.59416C0 9.54685 0 10.8079 0 12.5009C0 17.5025 0 18.963 0.0295339 19.251C0.112598 20.2517 0.269497 20.8813 0.601754 21.5699C0.921959 22.2262 1.38046 22.8053 1.94573 23.2674C2.511 23.7296 3.16963 24.0638 3.87633 24.2471C4.44765 24.3839 5.03159 24.4612 5.61883 24.4778C5.91601 24.4908 8.94139 24.5 11.976 24.5C15.0106 24.5 18.0378 24.5 18.3276 24.4815C18.9363 24.4698 19.5417 24.3906 20.1329 24.2452C20.8413 24.0635 21.5015 23.7293 22.0674 23.2659C22.6333 22.8026 23.0913 22.2213 23.4093 21.5625C23.7476 20.8496 23.9403 20.0763 23.976 19.2879C23.9926 19.0811 23.9982 15.7799 23.9982 12.4917C23.9982 9.20344 23.9982 5.9078 23.976 5.70101C23.9415 4.9041 23.7449 4.1226 23.3982 3.40422C23.1448 2.87608 22.7963 2.39916 22.3701 1.99735C21.5705 1.2351 20.5477 0.749163 19.4518 0.610778C18.898 0.529541 18.778 0.505539 15.9096 0.5H11.9982Z" fill="url(#paint1_radial_7703_119938)"/>
<path d="M11.9969 3.63867C9.59726 3.63867 9.289 3.64975 8.34392 3.69221C7.60891 3.70608 6.88165 3.84532 6.19348 4.10394C5.60716 4.33212 5.07466 4.67973 4.62979 5.1247C4.18492 5.56968 3.83739 6.10229 3.60926 6.68875C3.3507 7.37708 3.21149 8.10451 3.19763 8.83969C3.14779 9.79238 3.13672 10.1007 3.13672 12.5009C3.13672 14.9011 3.14779 15.2094 3.19025 16.1547C3.20411 16.8899 3.34332 17.6173 3.60188 18.3056C3.83001 18.8921 4.17754 19.4247 4.62241 19.8697C5.06728 20.3147 5.59977 20.6623 6.1861 20.8905C6.87427 21.1491 7.60152 21.2883 8.33653 21.3022C9.28162 21.3446 9.5825 21.3557 11.9895 21.3557C14.3965 21.3557 14.6974 21.3446 15.6425 21.3022C16.3775 21.2883 17.1048 21.1491 17.7929 20.8905C18.3792 20.6623 18.9117 20.3147 19.3566 19.8697C19.8015 19.4247 20.149 18.8921 20.3771 18.3056C20.6338 17.6168 20.773 16.8897 20.7888 16.1547C20.8312 15.2094 20.8423 14.9085 20.8423 12.5009C20.8423 10.0933 20.8312 9.79238 20.7888 8.84707C20.773 8.1121 20.6338 7.385 20.3771 6.69614C20.1545 6.10431 19.8055 5.56814 19.3545 5.12494C18.9125 4.67389 18.3769 4.32536 17.7855 4.10394C17.0966 3.84564 16.3688 3.70641 15.6333 3.69221C14.7029 3.64975 14.3965 3.63867 11.9969 3.63867ZM11.2032 5.23572H11.9969C14.3633 5.23572 14.6439 5.24495 15.5779 5.28741C16.1396 5.29335 16.696 5.39642 17.2226 5.59205C17.6047 5.73943 17.9518 5.96524 18.2414 6.25493C18.531 6.54462 18.7568 6.89177 18.9041 7.27403C19.0997 7.80071 19.2028 8.35726 19.2087 8.91908C19.2512 9.8533 19.2604 10.1339 19.2604 12.499C19.2604 14.8642 19.2604 15.1448 19.2087 16.079C19.2028 16.6408 19.0997 17.1974 18.9041 17.7241C18.7564 18.1059 18.5305 18.4526 18.2409 18.7419C17.9513 19.0312 17.6044 19.2568 17.2226 19.4042C16.6959 19.5998 16.1396 19.7034 15.5779 19.7107C14.6439 19.7531 14.3633 19.7624 11.9969 19.7624C9.63049 19.7624 9.35176 19.7624 8.41775 19.7107C7.85546 19.7032 7.29858 19.5995 6.77124 19.4042C6.38936 19.2568 6.0425 19.0312 5.75292 18.7419C5.46333 18.4526 5.23741 18.1059 5.08965 17.7241C4.89498 17.1971 4.79197 16.6407 4.78508 16.079C4.74263 15.1448 4.7334 14.8623 4.7334 12.4972C4.7334 10.1321 4.74263 9.85146 4.78508 8.91723C4.79223 8.35494 4.89523 7.79798 5.08965 7.27034C5.23699 6.88808 5.46275 6.54093 5.75237 6.25124C6.04199 5.96154 6.38907 5.73574 6.77124 5.58836C7.29851 5.39298 7.85549 5.28993 8.41775 5.28372C9.23547 5.2468 9.55112 5.23572 11.2032 5.23387V5.23572ZM16.7279 6.71275C16.5176 6.71275 16.312 6.77513 16.1372 6.89198C15.9623 7.00884 15.826 7.17493 15.7456 7.36925C15.6651 7.56357 15.644 7.7774 15.6851 7.98369C15.7261 8.18999 15.8274 8.37948 15.976 8.52821C16.1247 8.67693 16.3142 8.77822 16.5204 8.81925C16.7267 8.86029 16.9405 8.83923 17.1347 8.75874C17.329 8.67824 17.4951 8.54194 17.6119 8.36705C17.7287 8.19216 17.7911 7.98655 17.7911 7.77622C17.7911 7.63656 17.7636 7.49828 17.7101 7.36925C17.6567 7.24022 17.5784 7.12299 17.4797 7.02424C17.3809 6.92548 17.2637 6.84715 17.1347 6.79371C17.0057 6.74026 16.8675 6.71275 16.7279 6.71275ZM11.9969 7.94977C11.097 7.94977 10.2173 8.21669 9.46901 8.71677C8.72076 9.21686 8.13756 9.92765 7.79318 10.7593C7.44879 11.5909 7.35869 12.5059 7.53425 13.3888C7.70982 14.2716 8.14317 15.0825 8.77951 15.719C9.41585 16.3555 10.2266 16.789 11.1092 16.9646C11.9918 17.1402 12.9067 17.05 13.7381 16.7056C14.5695 16.3611 15.2802 15.7778 15.7801 15.0294C16.2801 14.2809 16.547 13.401 16.547 12.5009C16.547 11.2939 16.0676 10.1363 15.2143 9.28276C14.361 8.42926 13.2036 7.94977 11.9969 7.94977ZM11.9969 9.54682C12.581 9.54682 13.152 9.72007 13.6377 10.0447C14.1234 10.3693 14.5019 10.8306 14.7255 11.3704C14.949 11.9102 15.0075 12.5042 14.8935 13.0772C14.7796 13.6502 14.4983 14.1766 14.0853 14.5897C13.6722 15.0029 13.146 15.2842 12.5731 15.3982C12.0002 15.5122 11.4063 15.4537 10.8667 15.2301C10.327 15.0065 9.86576 14.6279 9.54124 14.1421C9.21672 13.6563 9.0435 13.0852 9.0435 12.5009C9.0435 11.7174 9.35466 10.966 9.90853 10.412C10.4624 9.85805 11.2136 9.54682 11.9969 9.54682Z" fill="white"/>
</g>
<defs>
<radialGradient id="paint0_radial_7703_119938" cx="0" cy="0" r="1" gradientUnits="userSpaceOnUse" gradientTransform="translate(4.37685 25.2147) rotate(-90) scale(23.7618 22.0766)">
<stop stop-color="#FFDD55"/>
<stop offset="0.1" stop-color="#FFDD55"/>
<stop offset="0.5" stop-color="#FF543E"/>
<stop offset="1" stop-color="#C837AB"/>
</radialGradient>
<radialGradient id="paint1_radial_7703_119938" cx="0" cy="0" r="1" gradientUnits="userSpaceOnUse" gradientTransform="translate(-3.9102 2.72137) rotate(78.9461) scale(10.6382 43.8132)">
<stop stop-color="#3771C8"/>
<stop offset="0.13" stop-color="#3771C8"/>
<stop offset="1" stop-color="#6600FF" stop-opacity="0"/>
</radialGradient>
<clipPath id="clip0_7703_119938">
<rect width="24" height="24" fill="white" transform="translate(0 0.5)"/>
</clipPath>
</defs>
</svg>
