<svg width="11" height="17" viewBox="0 0 11 17" fill="none" xmlns="http://www.w3.org/2000/svg">
<g id="Frame 336973">
<g id="Group 1585">
<circle id="Ellipse 180" cx="5.5" cy="5" r="2" fill="#E5E8EB"/>
<g id="YAJdI8">
<path id="Vector" d="M5.50463 14C5.1785 14 4.89173 13.8077 4.65416 13.4307L3.74466 11.9954C2.91809 10.6897 2.05778 9.34087 1.23683 8.00246C0.891185 7.42477 0.660521 6.77829 0.558994 6.10269C0.457467 5.42709 0.48722 4.73662 0.646426 4.07365C0.805869 3.36586 1.1001 2.70009 1.51106 2.11726C1.92201 1.53442 2.44101 1.04681 3.03617 0.684381C3.83462 0.205949 4.67947 -0.0086747 5.76891 0.000267959C8.15022 0.0390195 10.166 2.04665 10.457 4.66834C10.6116 5.86933 10.3461 7.08876 9.71058 8.09635L8.58599 9.88489C7.84283 11.0653 7.0992 12.2457 6.3551 13.4262C6.0613 13.8927 5.73236 13.9911 5.51166 13.9911L5.50463 14ZM5.71408 1.19262C4.84394 1.19262 4.20574 1.3521 3.58862 1.72322C3.12732 2.00507 2.72525 2.38396 2.40712 2.8366C2.08899 3.28924 1.86152 3.80608 1.73868 4.35534C1.61591 4.85991 1.59161 5.38575 1.66727 5.90063C1.74293 6.41551 1.91695 6.90858 2.17867 7.34964C2.99962 8.6821 3.8529 10.0324 4.67806 11.3291L5.50463 12.6348C6.21968 11.5 6.93379 10.3658 7.64696 9.23207L8.77155 7.44354C9.25551 6.66826 9.45549 5.73214 9.33384 4.81142C9.11736 2.81273 7.54153 1.22392 5.75204 1.19262H5.71408Z" fill="#E5E8EB"/>
</g>
<ellipse id="Ellipse 181" cx="5.5" cy="16" rx="3" ry="1" fill="#E5E8EB"/>
</g>
</g>
</svg>
