<?xml version="1.0" encoding="utf-8"?>
<!-- Generator: Adobe Illustrator 17.0.0, SVG Export Plug-In . SVG Version: 6.00 Build 0)  -->
<!DOCTYPE svg PUBLIC "-//W3C//DTD SVG 1.1//EN" "http://www.w3.org/Graphics/SVG/1.1/DTD/svg11.dtd">
<svg version="1.1" id="Слой_1" xmlns="http://www.w3.org/2000/svg" xmlns:xlink="http://www.w3.org/1999/xlink" x="0px" y="0px"
	 width="302px" height="605px" viewBox="0 0 302 605" enable-background="new 0 0 302 605" xml:space="preserve">
<path fill="currentColor" d="M140.042,1.325c0,0-34.684,0-38.171,0s-12.04,2.813-12.04,2.813s-31.672,14.89-42.124,23.119
	c-8.619,6.794-12.068,18.976-13.018,23.034c-0.2,0.836-0.713,1.549-1.387,2.091c-6.69,5.359-8.4,23.652-8.4,23.652
	s-3.088,93.76-3.088,99.462c0,3.905,2.423,8.277,3.943,10.643c0.789,1.226,1.207,2.642,1.197,4.096l-0.466,217.834
	c-6.205,5.103-4.903,106.779-4.694,120.367c0.019,0.988,0.219,1.967,0.589,2.879l6.68,16.268c0.466,1.14,0.722,2.357,0.751,3.592
	c0.124,6.234,1.596,27.471,15.679,39.378c16.629,14.064,94.549,13.113,94.549,13.113h21.856c-1.188,0.19,75.886,1.273,94.549-13.113
	c14.605-11.26,15.555-33.144,15.679-39.378c0.029-1.235,0.276-2.442,0.751-3.592l6.68-16.268c0.38-0.922,0.58-1.891,0.589-2.879
	c0.2-13.589,1.511-115.274-4.694-120.367l-0.466-217.834c0-1.454,0.409-2.879,1.197-4.096c1.52-2.366,3.943-6.737,3.943-10.643
	c0-5.701-3.088-99.462-3.088-99.462s-1.72-18.292-8.4-23.652c-0.675-0.542-1.188-1.254-1.387-2.091
	c-0.941-4.058-4.39-16.24-13.018-23.034C243.78,19.018,211.387,3.9,211.387,3.9s-7.83-2.575-11.317-2.575
	c-3.487,0-38.171,0-38.171,0H140.042z"/>
<path opacity="0.24" fill="#FFFFF8" enable-background="new    " d="M248.731,164.891c0,0,4.457-34.294-7.06-74.927
	c0,0,1.853,32.536-5.777,41.877c0,0-1.938-63.248-10.415-67.904c-8.476-4.656-15.403-14.301-15.926-20.278
	c-0.523-5.996-18.15,42.675-11.926,64.132c0,0-20.696-25.638-15.993-44.082c4.704-18.444-19.109-15.536-23.129-7.269
	c-4.029,8.277-16.876,57.347-23.252,43.236c-6.376-14.111-5.587-46.79,2.461-50.6c0,0-27.025,0.418-25.752,25.638
	c0,0-9.987-15.65-5.369-27.538c4.618-11.888-17.256-9.293-18.387,5.464l-0.608-17.342c0,0-4.713,2.984-10.139,1.805
	c-5.426-1.178,14.795-11.412,69.985-10.766s57.946-1.197,57.946-1.197l0.067-2.319c0,0-1.767-2.67-5.321-2.67
	s-98.987,0.542-100.574,0c-1.587-0.542-2.784-3.601-2.271-5.264c0.513-1.653-1.901-10.671-3.212-9.683
	c-1.311,0.988-3.972-0.409-5.502-0.076C87.047,5.461,50.634,25.14,50.634,25.14l-8.039,7.44L36.57,44.03l-1.264,3.906l-2.29,4.694
	l-3.848,4.732l-4.276,19.413l-3.041,97.248l0.504,4.884l4.628,9.056v23.224l-0.466,1.625l-17.513,9.711l-6.633,4.827l-1.748,3.126
	l0.437,5.036l1.672,3.117l3.763-0.352l20.259-5.93l0.228,56.977l-1.102,2.214l-1.359,3.221l-0.029,20.212
	c0,0,0.447,2.651,0.542,2.851c0.104,0.2,1.948,3.022,1.948,3.022l-0.475,86.862l-1.14,2.594l-1.216,6.281l-0.865,3.022
	l-0.542,13.855l-0.333,7.193l-0.703,28.754l-0.133,59.533l8.077,20.44l0.694,8.647c0,0,5.103,4.058,8.714-0.57
	c3.601-4.628,17.636-33.62,24.355-39.844c6.718-6.215,7.925-8.666,8.153-14.254c0.228-5.587,0-200.853,0-200.853
	s0.228-19.917-3.126-42.343c-3.354-22.426,61.937-86.102,61.937-86.102L248.731,164.891z"/>
<path opacity="0.5" fill="#FFFFF8" enable-background="new    " d="M28.808,406.471c0,0-5.92,1.33-6.547,38.732
	c-0.618,37.402-0.722,83.764-0.722,83.764L29.882,548c0,0,0.333-15.907,0-28.251c-0.333-12.334-1.074-78.576-1.074-78.576
	S24.722,422.568,28.808,406.471z"/>
<path opacity="0.5" fill="#FFFFF8" enable-background="new    " d="M70.086,507.976l-0.371-220.304l-3.012-24.725l-20.791-79.725
	l-1.834-8.742l1.501-3.221c0,0-1.121-40.404-0.675-71.572c0.447-31.168-0.038-44.88,8.818-56.026s32.346-15.042,41.393-16.002
	c0,0-8.182-0.418-14.14,0.209c-5.949,0.627-17.351,4.162-17.351,4.162l-9.654,5.977l-5.084,5.587l-4.742,7.678l-1.691,7.241
	l-2.176,47.959v57.518v18.283c0,0,4.162,9.056,6.775,17.608c2.613,8.552,15.565,54.591,17.532,65.899
	c4.476,25.657,3.107,58.155,3.107,74.604s0.95,146.584,0.95,146.584L70.086,507.976z"/>
<path opacity="0.51" fill="#FFFFF8" enable-background="new    " d="M65.762,263.935l13.18-6.205l67.315-9.768L214,253.7
	l13.855,4.865l-1.292,3.117c0,0-16.914-2.946-33.344-4.295c-16.43-1.34-34.579-2.623-55.228-2.129
	c-20.649,0.504-52.187,4.419-62.203,7.545C65.772,265.929,65.762,263.935,65.762,263.935z"/>
<path opacity="0.5" fill="#FFFFF8" enable-background="new    " d="M33.52,51.584c0,0-9.312,11.973-8.685,26.531
	c0.627,14.558-3.003,95.918-3.003,95.918l1.938,7.687l3.193,6.253c0,0,1.197-13.341,2.708-19.622
	c7.412-30.683,7.84-92.563,7.84-92.563s0-13.417-3.164-21.466v-1.691L33.52,51.584z"/>
<path opacity="0.51" fill="#FFFEF3" enable-background="new    " d="M38.186,151.673c0,0-3.573,42.789-3.839,93.703
	C34.081,296.29,34.1,521.279,34.1,521.279s0.941,17.77,4.428,27.728l0.352-25.913l0.77-368.428l0.409-10.852L38.186,151.673z"/>
<path d="M168.255,604.73c-2.974,0-5.169-0.048-6.215-0.133v0.019v-0.019c-0.047,0-0.104-0.01-0.143-0.01v0.047h-21.856
	c-3.183,0.038-78.452,0.789-95.167-13.341c-14.368-12.154-15.888-33.753-16.012-40.081c-0.019-1.112-0.247-2.205-0.675-3.25
	l-6.68-16.268c-0.428-1.036-0.646-2.119-0.665-3.231c-0.399-26.597-1.207-112.642,4.694-120.738l0.466-217.473
	c0-1.273-0.361-2.509-1.045-3.582c-1.53-2.376-4.096-6.975-4.096-11.156c0-5.654,2.965-95.661,3.088-99.49
	c0.076-0.817,1.834-18.815,8.761-24.364c0.39-0.314,0.884-0.836,1.055-1.568c1.121-4.799,4.656-16.705,13.351-23.566
	C57.531,18.316,88.129,3.901,89.43,3.293l0.105-0.038c0.352-0.114,8.742-2.86,12.334-2.86h98.189c3.592,0,11.289,2.518,11.612,2.623
	l0.104,0.038c1.33,0.618,32.612,15.261,43.036,23.471c8.695,6.851,12.239,18.758,13.351,23.566c0.171,0.732,0.665,1.254,1.055,1.568
	c6.927,5.549,8.685,23.547,8.761,24.307c0.133,3.886,3.098,93.894,3.098,99.547c0,4.181-2.566,8.78-4.096,11.156
	c-0.694,1.074-1.055,2.309-1.055,3.582l0.466,217.416c1.349,1.473,4,7.906,4.751,57.404c0.418,27.367,0.067,55.447-0.057,63.4
	c-0.019,1.112-0.238,2.195-0.665,3.231l-6.68,16.268c-0.428,1.036-0.656,2.129-0.675,3.25c-0.209,10.519-2.566,29.714-16.05,40.11
	c-7.84,6.044-26.208,10.139-54.601,12.173C189.94,604.378,176.247,604.73,168.255,604.73z M161.889,602.725l0.047,0.57l0.086-0.551
	c0.675,0.066,75.582,1.131,93.836-12.933c12.857-9.911,15.109-28.469,15.308-38.646c0.029-1.349,0.304-2.67,0.817-3.934l6.68-16.268
	c0.333-0.808,0.513-1.663,0.523-2.537c0.827-55.219-0.19-116.205-4.352-119.626l-0.342-0.285l-0.475-218.28
	c0-1.644,0.466-3.231,1.349-4.618c1.416-2.195,3.792-6.433,3.792-10.13c0-5.625-3.06-98.493-3.088-99.424
	c-0.01-0.124-1.748-17.903-8.049-22.948c-0.893-0.713-1.482-1.615-1.72-2.623c-0.836-3.592-4.219-15.841-12.676-22.502
	c-10.054-7.925-41.136-22.521-42.609-23.214c-0.684-0.219-7.821-2.518-10.966-2.518h-98.179c-3.155,0-10.956,2.509-11.688,2.746
	C88.71,5.698,58.34,20.075,48.296,27.99c-8.457,6.661-11.84,18.91-12.676,22.502c-0.238,0.998-0.827,1.9-1.72,2.623
	c-6.3,5.046-8.039,22.825-8.049,23.005c-0.029,0.884-3.088,93.751-3.088,99.367c0,3.696,2.376,7.935,3.791,10.13
	c0.893,1.378,1.359,2.974,1.349,4.618l-0.475,218.28l-0.342,0.285c-4.162,3.421-5.169,64.407-4.352,119.626
	c0.009,0.874,0.19,1.72,0.523,2.537l6.68,16.268c0.513,1.254,0.789,2.585,0.817,3.934c0.124,6.129,1.577,27.034,15.346,38.675
	c16.173,13.674,93.152,12.895,93.922,12.895h21.865v-0.01H161.889z"/>
<path fill="#606060" d="M242.422,268.657c-1.254,6.88-2.414,22.597-2.414,58.744c0,36.138,0.656,105.734,0.656,105.734
	l10.396,10.244V237.366C247.23,250.479,243.087,264.97,242.422,268.657z"/>
<path fill="#1C1D1E" d="M263.802,208.602c0-0.779-0.418-1.311-1.368-1.454c-1.958-0.285-3.592,4.172-4.533,7.184
	c-0.437,1.397-3.506,11.631-6.804,22.929c-0.019,0.076-0.029,0.143-0.029,0.219v205.576c0,0.209,0.086,0.409,0.238,0.561
	l11.175,11.013c0.494,0.485,1.33,0.133,1.33-0.561V208.602H263.802z"/>
<path fill="#0B0B0B" d="M263.623,208.041l-0.466-0.608c-0.143-0.19-0.371-0.285-0.608-0.257l-0.703,0.095
	c-0.152,0.019-0.304,0.095-0.409,0.209l-1.302,1.435c-0.067,0.067-0.104,0.152-0.133,0.238l-6.186,18.919
	c-0.133,0.418,0.162,0.846,0.599,0.865l5.93,0.219h0.561v89.655c0,0.276-0.171,0.513-0.418,0.618l-20.06,7.792
	c-0.257,0.095-0.418,0.342-0.418,0.618v20.886c0,0.371,0.304,0.675,0.675,0.665l19.547-0.551c0.371-0.01,0.675,0.285,0.675,0.665
	v63.685c0,0.352-0.276,0.637-0.618,0.656l-19.005,1.14c-0.352,0.019-0.618,0.314-0.618,0.656v4.979c0,0.371,0.314,0.675,0.684,0.656
	l18.872-0.722c0.371-0.019,0.684,0.285,0.684,0.656v31.596c0,0.181,0.067,0.342,0.2,0.475l1.568,1.539
	c0.418,0.409,1.121,0.114,1.121-0.475v-242.15l-0.038-3.763C263.756,208.288,263.708,208.155,263.623,208.041z"/>
<path d="M263.127,455.475c-0.295,0-0.589-0.114-0.808-0.333l-21.78-21.475c-0.219-0.219-0.342-0.504-0.342-0.808
	c-0.01-0.694-0.656-69.558-0.656-105.458c0-30.199,0.817-49.992,2.423-58.83c1.273-7.013,14.824-52.235,15.489-54.382
	c1.672-5.388,3.288-7.782,5.055-7.516c1.131,0.171,1.777,0.865,1.777,1.919v245.723c0,0.466-0.276,0.884-0.703,1.064
	C263.422,455.447,263.27,455.475,263.127,455.475z M262.253,207.604c-0.703,0-2.072,0.979-3.896,6.87
	c-1.178,3.791-14.244,47.522-15.47,54.268c-1.596,8.78-2.404,28.507-2.404,58.659c0,35.9,0.646,104.764,0.656,105.448
	c0,0.057,0.019,0.104,0.057,0.143l21.78,21.476c0.086,0.086,0.171,0.066,0.219,0.038c0.048-0.019,0.124-0.067,0.124-0.19V208.602
	c0-0.39-0.114-0.855-0.96-0.979C262.329,207.614,262.291,207.604,262.253,207.604z"/>
<path fill="#606060" d="M251.306,526.43c0-11.84,0-52.938,0-66.802l-10.348-10.909c0,0,0,32.042,0,63.229
	c0,29.657-7.773,35.273-17.009,35.729c-24.193,1.216-64.617,1.321-64.617,1.321h-8.334v18.235
	c35.245-0.161,63.372-0.038,80.448-2.271C248.152,562.776,251.306,540.74,251.306,526.43z"/>
<path fill="#1C1D1E" d="M262.644,471.572l-11.327-11.945c0,13.855,0,54.962,0,66.802c0,14.311-3.155,36.347-19.851,38.532
	c-17.085,2.233-45.203,2.109-80.448,2.271v19.337c0,0,80.647-1.691,89.95-4.362c11.574-3.316,15.023-12.021,17.066-17.247
	c3.516-8.999,5.046-20.649,5.046-33.895c0-8.239,0.333-50.049,0.39-57.537C263.461,472.788,263.166,472.085,262.644,471.572z"/>
<path d="M151.019,587.046l-0.019-0.95c0.808-0.019,80.695-1.729,89.836-4.343c11.412-3.269,14.757-11.84,16.753-16.962
	c3.326-8.514,5.008-19.86,5.008-33.724c0-8.191,0.323-49.375,0.39-57.547c0.01-0.608-0.238-1.178-0.675-1.606l-20.867-21.998v62.041
	c0,31.139-8.828,35.777-17.465,36.204c-23.927,1.197-64.236,1.321-64.635,1.321h-8.334v-0.95h8.334
	c0.399,0,40.689-0.124,64.588-1.321c8.6-0.428,16.563-4.998,16.563-35.263v-64.426l22.502,23.718c0.608,0.589,0.96,1.425,0.95,2.29
	c-0.067,8.172-0.39,49.346-0.39,57.537c0,13.978-1.71,25.448-5.074,34.066c-2.062,5.283-5.521,14.14-17.38,17.532
	C231.837,585.316,154.307,586.979,151.019,587.046z"/>
<path fill="#0B0B0B" d="M225.574,547.839l16.439,34.057c0,0,7.896-1.853,11.764-8.524c3.867-6.671,6.11-13.655,6.585-15.879
	c0.475-2.233,1.729-7.763,2.138-12.277l-21.751-25.457c0,0-0.114,8.286-2.109,14.415c-1.996,6.129-4.542,9.826-7.184,11.384
	C228.814,547.107,225.574,547.839,225.574,547.839z"/>
<path d="M150.971,549.483v-0.95c17.047,0,62.963-0.485,74.509-1.425c10.386-0.846,15.014-12.22,15.014-36.85
	c0-9.493-0.276-67.876-0.295-72.123l-3.364-2.471V303.398c0-21.295,1.473-31.254,3.858-40.414
	c1.349-5.179,6.025-21.628,9.787-34.845c2.756-9.702,5.141-18.083,5.492-19.49c0.789-3.145,4.827-6.509,5.749-7.231
	c0.067-1.853,0.466-15.099-0.485-27.814c0.01-1.121,1.444-107.872-3.297-120.804c-4.761-12.99-16.61-21.533-33.354-24.051
	c-16.62-2.499-72.998-1.843-73.568-1.834l-0.01-0.95c0.57-0.01,57.024-0.665,73.72,1.853c17.104,2.575,29.22,11.336,34.114,24.668
	c4.799,13.104,3.411,116.699,3.354,121.099c1.017,13.655,0.485,27.956,0.475,28.099l-0.009,0.219l-0.181,0.133
	c-0.047,0.038-4.789,3.696-5.578,6.851c-0.352,1.425-2.737,9.807-5.502,19.518c-3.763,13.218-8.438,29.657-9.778,34.826
	c-2.366,9.094-3.83,18.986-3.83,40.176v131.77l3.364,2.471v0.238c0,0.627,0.295,62.555,0.295,72.37
	c0,25.248-4.903,36.898-15.888,37.801C213.991,548.988,168.028,549.483,150.971,549.483z"/>
<path d="M257.993,174.93l3.81-0.903l-0.219-0.925l-3.81,0.903L257.993,174.93z"/>
<path d="M259.83,57.57l-0.855-0.409c0.095-0.19,2.328-4.694,5.293-4.504c2.338,0.171,2.927-1.53,2.927-1.549l0.903,0.304
	c-0.285,0.827-1.463,2.347-3.896,2.186C262.244,53.446,260.381,56.421,259.83,57.57z"/>
<path d="M211.758,27.657c0-0.086-0.095-8.21-1.625-13.674c-1.539-5.511-3.696-11.64-3.715-11.707l0.893-0.314
	c0.019,0.057,2.186,6.224,3.734,11.764c1.568,5.587,1.663,13.588,1.663,13.921L211.758,27.657z"/>
<path fill="#3C3C3B" d="M151.008,22.962c0,0,52.102,0.086,53.689,0c1.596-0.086,2.015-3.022,1.977-5.369
	c-0.038-2.347-3.193-15.099-3.193-15.099s-2.138-0.219-5.321-0.333c-3.183-0.114-47.189,0-47.189,0"/>
<path d="M189.949,23.476c-15.422,0-37.544-0.038-38.95-0.038v-0.95c0.523,0,52.102,0.086,53.66,0
	c1.112-0.057,1.568-2.499,1.52-4.884c-0.038-2.062-2.604-12.657-3.098-14.662c-0.713-0.067-2.537-0.209-4.96-0.295
	c-3.145-0.114-46.733,0-47.17,0v-0.95c1.796,0,44.044-0.114,47.208,0c3.164,0.114,5.331,0.333,5.35,0.333l0.333,0.038l0.076,0.323
	c0.133,0.523,3.164,12.828,3.202,15.204c0.029,1.72-0.152,5.73-2.423,5.854C204.174,23.466,197.969,23.476,189.949,23.476z"/>
<path fill="#9C9B9B" d="M272.648,193.227c0.238-1.843,0.2-8.144,0.095-9.483c-0.114-1.444-4.333-31.063-8.02-28.973
	c-1.083,0.618-0.456,29.229-0.361,32.698c0.095,3.44-0.181,8.695,1.064,9.094C266.566,196.933,272.505,194.339,272.648,193.227z"/>
<path d="M265.692,197.075c-0.162,0-0.304-0.019-0.409-0.057c-1.235-0.399-1.34-3.05-1.368-7.364c0-0.76-0.009-1.501-0.029-2.176
	c-0.152-5.388-0.817-32.318,0.599-33.125c0.39-0.219,0.817-0.228,1.226-0.009c3.877,2.053,7.488,29.087,7.507,29.353
	c0.104,1.283,0.143,7.678-0.095,9.578c-0.038,0.304-0.228,0.741-1.397,1.482C270.13,195.783,267.098,197.075,265.692,197.075z
	 M265.046,155.151c-0.77,2.005-0.418,24.621-0.2,32.308c0.019,0.675,0.019,1.425,0.029,2.195c0.01,2.024,0.038,6.253,0.703,6.462
	c0.96,0.314,6.31-2.1,6.604-2.965c0.238-1.872,0.19-8.125,0.095-9.379c-0.19-2.366-3.896-26.939-7.003-28.593
	C265.179,155.141,265.112,155.132,265.046,155.151z"/>
<path fill="#3C3C3B" d="M235.257,263.098c0,0-3.364,17.456-3.364,35.387s0,212.94,0,212.94c0,13.265-1.986,22.939-8.847,24.716
	V298.647c0-12.581-0.19-26.55,4-38.456L235.257,263.098z"/>
<path opacity="0.25" fill="#FFFFF8" enable-background="new    " d="M232.796,262.234l-0.399,2.851c0,0-2.794-1.596-3.915-0.922
	c-1.121,0.675-2.128,11.964-2.68,20.345c-0.561,8.381-0.893,234.767-0.893,234.767l-1.007,13.303l-0.988-0.893l0.276-246.617
	c0,0,0.532-9.921,1.093-13.218c0.561-3.297,2.784-11.65,2.784-11.65L232.796,262.234z"/>
<path d="M222.571,536.749V297.06c-0.01-11.973-0.019-25.543,4.029-37.031l0.162-0.447l9.037,3.202l-0.076,0.399
	c-0.038,0.171-3.354,17.618-3.354,35.292v212.94c0,15.765-2.841,23.528-9.208,25.172L222.571,536.749z M227.341,260.799
	c-3.839,11.241-3.829,24.526-3.82,36.261v1.587v236.858c5.388-1.863,7.896-9.55,7.896-24.07v-212.95
	c0-16.278,2.803-32.356,3.297-35.073L227.341,260.799z"/>
<path d="M232.91,598.952l-0.808-0.494l7.44-12.325l1.939-4.238l-16.439-34.227l-2.376-11.052h-71.658v-0.95h72.428l2.527,11.755
	l16.573,34.465l-2.157,4.685L232.91,598.952z"/>
<path d="M262.396,202.074l-0.437-0.846c0.285-0.143,7.013-3.592,9.569-4.485c1.729-0.608,3.421-0.618,3.497-0.618v0.95
	c-0.019,0-1.606,0.019-3.183,0.57C269.352,198.52,262.472,202.045,262.396,202.074z"/>
<path d="M237.462,338.852l-0.323-0.893c0.181-0.067,17.874-6.5,37.829-9.132l0.124,0.941
	C255.232,332.39,237.643,338.795,237.462,338.852z"/>
<path d="M273.685,466.327c-3.25,0-6.234-2.205-11.678-7.136c-5.34-4.837-21.513-20.81-21.675-20.972l0.665-0.675
	c0.161,0.161,16.325,16.116,21.646,20.943c5.255,4.761,8.096,6.889,11.042,6.889c2.832,0,6.11-3.117,6.139-3.145l0.656,0.684
	C280.346,463.058,276.906,466.327,273.685,466.327z"/>
<path opacity="0.47" fill="#1D1D1B" enable-background="new    " d="M269.949,324.484c1.318,0,2.385-8.334,2.385-18.615
	c0-10.281-1.067-18.615-2.385-18.615c-1.317,0-2.385,8.334-2.385,18.615C267.564,316.15,268.632,324.484,269.949,324.484z"/>
<path fill="#3C3C3B" d="M270.739,288.327c-1.254,0.285-1.397,4.067-0.618,5.35c0.779,1.273,0.96,1.036,2.052,3.43
	c1.083,2.395,0.95,15.042,0.171,16.8c-0.779,1.758-2.062,3.801-2.214,4.913c-0.152,1.121-0.152,3.516,0.152,4.466
	c0.304,0.95,6.395-3.193,7.022-6.386c0.618-3.193,1.083-21.789-0.314-24.184C275.576,290.323,272.136,288.004,270.739,288.327z"/>
<path d="M270.52,323.904c-0.513,0-0.665-0.352-0.703-0.466c-0.333-1.036-0.333-3.516-0.171-4.685
	c0.114-0.798,0.694-1.929,1.311-3.136c0.333-0.637,0.665-1.292,0.941-1.91c0.779-1.758,0.836-14.187-0.171-16.411
	c-0.694-1.539-0.998-1.939-1.349-2.404c-0.19-0.257-0.399-0.523-0.665-0.979c-0.656-1.083-0.732-3.601-0.152-4.989
	c0.314-0.751,0.76-0.998,1.074-1.064c1.672-0.38,5.274,2.072,6.756,4.618c1.482,2.537,0.988,21.323,0.371,24.516
	c-0.599,3.069-5.73,6.823-7.165,6.908C270.568,323.904,270.549,323.904,270.52,323.904z M270.843,288.793
	c-0.133,0.029-0.285,0.219-0.409,0.513c-0.466,1.102-0.418,3.297,0.086,4.124c0.247,0.418,0.437,0.665,0.618,0.893
	c0.371,0.494,0.722,0.95,1.463,2.585c1.093,2.414,1.017,15.27,0.171,17.18c-0.285,0.637-0.627,1.311-0.96,1.958
	c-0.551,1.074-1.131,2.195-1.216,2.832c-0.133,0.988-0.143,3.069,0.076,4.048c1.112-0.276,5.644-3.525,6.158-6.12
	c0.637-3.288,1.007-21.694-0.257-23.861C275.167,290.56,271.898,288.555,270.843,288.793z"/>
<path opacity="0.47" fill="#1D1D1B" enable-background="new    " d="M270.785,449.992c1.318,0,2.385-8.334,2.385-18.615
	c0-10.281-1.067-18.615-2.385-18.615c-1.317,0-2.385,8.334-2.385,18.615C268.4,441.658,269.468,449.992,270.785,449.992z"/>
<path fill="#3C3C3B" d="M271.577,413.835c-1.254,0.285-1.397,4.067-0.618,5.35c0.779,1.273,0.96,1.036,2.053,3.43
	c1.083,2.395,0.95,15.042,0.171,16.8c-0.779,1.758-2.062,3.801-2.214,4.913s-0.152,3.516,0.152,4.466
	c0.304,0.95,6.395-3.193,7.022-6.386c0.618-3.193,1.083-21.789-0.314-24.184S272.974,413.522,271.577,413.835z"/>
<path d="M271.358,449.412c-0.513,0-0.665-0.352-0.703-0.466c-0.333-1.036-0.333-3.516-0.171-4.685
	c0.114-0.798,0.694-1.938,1.321-3.136c0.333-0.637,0.665-1.292,0.941-1.9c0.779-1.767,0.836-14.187-0.171-16.411
	c-0.703-1.539-0.998-1.938-1.349-2.414c-0.19-0.257-0.399-0.523-0.665-0.969c-0.656-1.083-0.732-3.601-0.152-4.989
	c0.314-0.751,0.76-0.998,1.074-1.064c1.672-0.38,5.274,2.072,6.756,4.618c1.473,2.528,0.988,21.323,0.371,24.516
	c-0.599,3.069-5.73,6.823-7.165,6.908C271.405,449.412,271.386,449.412,271.358,449.412z M271.681,414.301
	c-0.133,0.029-0.285,0.219-0.409,0.513c-0.466,1.102-0.418,3.297,0.086,4.124c0.247,0.409,0.437,0.665,0.618,0.893
	c0.371,0.494,0.722,0.95,1.463,2.585c1.093,2.414,1.017,15.27,0.171,17.18c-0.285,0.637-0.627,1.311-0.96,1.957
	c-0.551,1.083-1.131,2.195-1.216,2.832c-0.133,0.988-0.143,3.069,0.086,4.058c1.159-0.247,5.644-3.497,6.158-6.129
	c0.637-3.288,1.007-21.694-0.257-23.861C276.014,416.068,272.726,414.063,271.681,414.301z"/>
<path d="M269.561,541.215c-2.053,0-2.157-10.814-2.157-12.98s0.104-12.98,2.157-12.98s2.157,10.814,2.157,12.98
	S271.613,541.215,269.561,541.215z M269.561,516.329c-0.532,0.931-1.207,5.331-1.207,11.907c0,6.576,0.675,10.975,1.207,11.907
	c0.532-0.931,1.207-5.321,1.207-11.907C270.767,521.65,270.093,517.26,269.561,516.329z"/>
<path d="M268.032,563.489l-9.065-0.779l0.086-0.95l8.676,0.751c3.098-2.737,3.896-10.51,3.905-10.586l0.95,0.095
	c-0.038,0.342-0.874,8.476-4.39,11.355L268.032,563.489z"/>
<path d="M151.008,598.677v-0.95c57.642,0,84.942-5.739,85.208-5.796l0.2,0.931C236.15,592.909,208.745,598.677,151.008,598.677z"/>
<path fill="#DAEFF7" d="M264.952,562.805l-3.155-0.209c-5.787,20.43-21.846,23.785-21.846,23.785l-2.756,4.675
	C257.654,586.609,263.536,568.782,264.952,562.805z"/>
<path fill="#E20613" d="M264.952,562.805c-0.038,0.181-2.974-0.409-3.031-0.2c-0.143,0.551-0.76,1.901-0.941,2.575l2.822,1.568
	c-2.67,7.697-9.616,20.62-26.616,24.307l-2.452,4.153c30.379-3.364,33.144-32.204,33.144-32.204L264.952,562.805z"/>
<path d="M233.842,595.778l5.796-9.826l0.209-0.047c0.162-0.038,15.85-3.554,21.485-23.452l0.104-0.371l6.965,0.466l-0.047,0.485
	c-0.029,0.295-3.155,29.267-33.563,32.631L233.842,595.778z M240.256,586.789l-4.618,7.82c26.626-3.487,31.168-27.443,31.71-31.177
	l-5.198-0.352C256.629,581.971,242.176,586.295,240.256,586.789z"/>
<path fill="#181919" d="M273.903,212.194c-5.445-1.72-12.98-0.722-12.98-0.722s-0.542,0.561-0.884,1.235
	c-0.333,0.675,0.304,14.254,0.884,15.261c0.58,1.007,1.52,0.95,1.52,0.95l6.576-2.556C269,226.362,268.23,216.803,273.903,212.194z"
	/>
<path d="M262.405,229.393c-0.247,0-1.264-0.066-1.91-1.188c-0.57-0.988-1.359-14.786-0.893-15.708
	c0.361-0.732,0.941-1.33,0.969-1.349l0.114-0.114l0.162-0.019c0.314-0.038,7.706-0.998,13.189,0.741l0.836,0.266l-0.684,0.551
	c-5.407,4.4-4.732,13.665-4.723,13.76l0.029,0.352l-7.041,2.708C262.453,229.384,262.434,229.393,262.405,229.393z M261.151,211.928
	c-0.162,0.19-0.475,0.57-0.694,0.998c-0.228,0.874,0.342,13.731,0.874,14.814c0.342,0.599,0.846,0.684,1.017,0.703l6.167-2.395
	c-0.076-1.739-0.143-9.255,4.428-13.626C268.192,211.196,262.225,211.795,261.151,211.928z"/>
<path fill="#4A4C4F" d="M300.197,228.053c-1.425-2.765-19.708-13.161-25.172-15.441c-0.361-0.152-0.741-0.285-1.131-0.409
	c-5.663,4.609-4.894,14.159-4.894,14.159c0.333,2.414,2.262,4.286,3.82,5.046c1.558,0.76,22.502,6.709,23.68,7.212
	c1.178,0.503,3.772-0.171,4.447-3.098C301.623,232.577,301.623,230.819,300.197,228.053z"/>
<path fill="#9D9FA3" d="M274.625,214.132c-0.675-0.836-1.881-1.15-2.737,0.247c-0.855,1.397-4.162,9.046-2.879,11.983
	s4.314,5.283,6.956,6.091s19.613,6.015,20.544,6.167c0.931,0.152,3.525-0.627,3.982-1.862c0.456-1.235,0.456-1.986-0.931-1.739
	c-1.387,0.247-22.169-5.283-23.68-6.794c-1.511-1.511-0.361-12.41-0.855-13.75L274.625,214.132z"/>
<path d="M297.328,239.238c-0.371,0-0.714-0.067-1.008-0.19c-0.466-0.2-4.637-1.425-9.046-2.727
	c-6.424-1.891-13.712-4.039-14.643-4.495c-1.777-0.865-3.734-2.87-4.086-5.407c-0.038-0.428-0.722-9.892,5.065-14.596l0.2-0.162
	l0.247,0.076c0.399,0.124,0.789,0.266,1.169,0.418c5.236,2.186,23.889,12.724,25.409,15.669c1.52,2.946,1.463,4.856,0.798,7.782
	c-0.333,1.454-1.169,2.594-2.347,3.193C298.505,239.095,297.898,239.238,297.328,239.238z M273.998,212.735
	c-5.198,4.457-4.533,13.503-4.523,13.588c0.304,2.157,2.054,3.924,3.564,4.656c0.865,0.418,8.428,2.651,14.5,4.438
	c5.35,1.577,8.657,2.556,9.151,2.765c0.409,0.181,1.17,0.181,1.94-0.209c0.656-0.333,1.51-1.045,1.852-2.556
	c0.627-2.756,0.675-4.438-0.713-7.136c-1.33-2.585-19.252-12.857-24.925-15.223C274.568,212.935,274.293,212.831,273.998,212.735z"
	/>
<path fill="#606060" d="M59.566,268.667c1.254,6.88,2.414,22.597,2.414,58.744c0,36.138-0.656,105.734-0.656,105.734l-10.396,10.244
	V237.375C54.758,250.489,58.892,264.98,59.566,268.667z"/>
<path fill="#1C1D1E" d="M38.187,208.611c0-0.779,0.418-1.311,1.368-1.454c1.958-0.285,3.592,4.172,4.533,7.184
	c0.437,1.397,3.506,11.631,6.804,22.929c0.019,0.076,0.029,0.143,0.029,0.219v205.576c0,0.209-0.086,0.409-0.238,0.561
	l-11.175,11.013c-0.494,0.485-1.33,0.133-1.33-0.561V208.611H38.187z"/>
<path fill="#0B0B0B" d="M38.367,208.051l0.466-0.608c0.143-0.19,0.371-0.285,0.608-0.257l0.703,0.095
	c0.152,0.019,0.304,0.095,0.409,0.209l1.302,1.435c0.067,0.067,0.105,0.152,0.133,0.238l6.186,18.919
	c0.133,0.418-0.162,0.846-0.599,0.865l-5.93,0.219h-0.561v89.655c0,0.276,0.171,0.513,0.418,0.618l20.06,7.792
	c0.257,0.095,0.418,0.342,0.418,0.618v20.886c0,0.371-0.304,0.675-0.675,0.665l-19.547-0.551c-0.371-0.01-0.675,0.285-0.675,0.665
	v63.685c0,0.352,0.276,0.637,0.618,0.656l19.005,1.14c0.352,0.019,0.618,0.314,0.618,0.656v4.979c0,0.371-0.314,0.675-0.684,0.656
	l-18.872-0.722c-0.371-0.019-0.684,0.285-0.684,0.656v31.596c0,0.181-0.067,0.342-0.2,0.475l-1.568,1.539
	c-0.418,0.409-1.121,0.114-1.121-0.475v-242.15l0.038-3.763C38.233,208.298,38.281,208.165,38.367,208.051z"/>
<path d="M38.861,455.484c-0.152,0-0.304-0.029-0.447-0.086c-0.428-0.181-0.703-0.599-0.703-1.064V208.611
	c0-1.055,0.646-1.758,1.777-1.919c1.777-0.257,3.383,2.129,5.055,7.516c0.665,2.157,14.225,47.427,15.489,54.382
	c1.606,8.837,2.423,28.631,2.423,58.83c0,35.149-0.627,102.607-0.656,105.458c0,0.304-0.124,0.589-0.342,0.808l-21.78,21.475
	C39.45,455.37,39.155,455.484,38.861,455.484z M39.735,207.614c-0.038,0-0.076,0-0.105,0.01c-0.855,0.124-0.96,0.589-0.96,0.979
	v245.723c0,0.114,0.076,0.161,0.124,0.19c0.048,0.019,0.133,0.038,0.219-0.038l21.78-21.475c0.038-0.038,0.057-0.086,0.057-0.143
	c0.029-2.851,0.656-70.299,0.656-105.448c0-30.142-0.808-49.878-2.404-58.658c-1.216-6.699-14.282-50.467-15.47-54.268
	C41.806,208.602,40.438,207.614,39.735,207.614z"/>
<path fill="#606060" d="M50.672,526.439c0-11.84,0-52.938,0-66.802l10.348-10.909c0,0,0,32.042,0,63.229
	c0,29.657,7.773,35.273,17.009,35.729c24.193,1.216,64.617,1.321,64.617,1.321h8.334v18.235
	c-35.245-0.161-63.372-0.038-80.448-2.271C53.836,562.786,50.672,540.75,50.672,526.439z"/>
<path fill="#1C1D1E" d="M39.346,471.582l11.327-11.945c0,13.855,0,54.962,0,66.802c0,14.311,3.155,36.347,19.851,38.532
	c17.085,2.233,45.203,2.109,80.448,2.271v19.337c0,0-80.647-1.691-89.951-4.362c-11.574-3.316-15.023-12.021-17.066-17.247
	c-3.516-8.999-5.046-20.649-5.046-33.895c0-8.239-0.333-50.049-0.39-57.537C38.52,472.798,38.824,472.095,39.346,471.582z"/>
<path d="M150.971,587.055c-3.297-0.067-80.818-1.729-90.074-4.381c-11.859-3.402-15.318-12.249-17.38-17.532
	c-3.364-8.628-5.074-20.088-5.074-34.066c0-8.191-0.323-49.365-0.39-57.537c-0.01-0.865,0.342-1.701,0.969-2.3l22.483-23.699v64.427
	c0,30.256,7.963,34.826,16.563,35.263c23.899,1.197,64.189,1.321,64.588,1.321h8.324v0.95h-8.334
	c-0.409,0-40.718-0.124-64.635-1.321c-8.638-0.437-17.466-5.074-17.466-36.204v-62.041l-20.858,21.989
	c-0.447,0.437-0.694,1.026-0.694,1.625c0.067,8.172,0.39,49.346,0.39,57.547c0,13.864,1.682,25.21,5.008,33.724
	c1.996,5.122,5.35,13.693,16.753,16.962c9.141,2.613,89.028,4.324,89.836,4.343L150.971,587.055z"/>
<path fill="#0B0B0B" d="M76.414,547.848l-16.439,34.057c0,0-7.897-1.853-11.764-8.524c-3.867-6.671-6.11-13.655-6.585-15.879
	c-0.475-2.233-1.729-7.763-2.138-12.277l21.751-25.457c0,0,0.114,8.286,2.11,14.415c1.996,6.129,4.542,9.826,7.184,11.384
	C73.174,547.116,76.414,547.848,76.414,547.848z"/>
<path fill="#FFFFF8" d="M89.586,27.22l0.171-12.315c0,0-31.111,3.886-41.06,14.843S37.521,51.281,37.521,51.281
	s3.915-0.2,6.101,1.368c0,0,3.772-7.013,8.837-13.284C57.914,32.588,72.671,27.666,89.586,27.22z"/>
<path d="M43.764,53.351l-0.437-0.323c-2.015-1.454-5.758-1.283-5.797-1.283l-0.561,0.029l0.066-0.561
	c0.01-0.105,1.359-10.852,11.298-21.799c9.949-10.956,40.072-14.833,41.355-14.995l0.542-0.067l-0.181,13.322l-0.456,0.01
	c-16.572,0.437-31.358,5.245-36.784,11.964c-4.979,6.167-8.752,13.142-8.79,13.218L43.764,53.351z M38.072,50.786
	c1.112,0.01,3.582,0.152,5.369,1.178c0.922-1.653,4.333-7.583,8.638-12.914c5.54-6.861,20.383-11.783,37.04-12.306l0.152-11.308
	c-4.172,0.58-31.225,4.704-40.224,14.615C40.581,39.373,38.481,48.505,38.072,50.786z"/>
<path d="M151.019,549.492c-17.066,0-63.02-0.485-74.585-1.435c-10.985-0.893-15.888-12.553-15.888-37.801
	c0-9.807,0.285-71.743,0.295-72.371v-0.238l3.364-2.471v-131.77c0-21.19-1.463-31.082-3.829-40.176
	c-1.34-5.169-6.025-21.628-9.788-34.864c-2.756-9.692-5.141-18.064-5.492-19.48c-0.789-3.155-5.53-6.813-5.578-6.851l-0.181-0.133
	l-0.009-0.219c-0.01-0.143-0.542-14.444,0.475-28.137c-0.067-4.362-1.454-107.957,3.354-121.061
	c4.884-13.332,17-22.093,34.114-24.668c16.696-2.509,73.15-1.853,73.72-1.843l-0.01,0.95c-0.57-0.009-56.948-0.665-73.568,1.834
	C60.66,31.276,48.82,39.819,44.059,52.809c-4.742,12.933-3.307,119.683-3.297,120.766c-0.95,12.752-0.551,25.999-0.485,27.852
	c0.922,0.732,4.96,4.096,5.749,7.231c0.352,1.406,2.727,9.768,5.483,19.451c3.763,13.237,8.448,29.705,9.797,34.883
	c2.385,9.16,3.858,19.119,3.858,40.414v132.255l-3.364,2.471c-0.019,4.248-0.295,62.63-0.295,72.123
	c0,24.64,4.628,36.005,15.014,36.85c11.536,0.941,57.452,1.425,74.509,1.425v0.96h-0.009V549.492z"/>
<path d="M43.981,174.956l0.22-0.924l-3.809-0.906l-0.22,0.925L43.981,174.956z"/>
<path d="M42.158,57.58c-0.551-1.15-2.404-4.124-4.371-3.963c-2.423,0.171-3.611-1.359-3.896-2.186l0.903-0.314
	c0.029,0.067,0.646,1.72,2.927,1.549c2.984-0.19,5.198,4.314,5.283,4.504L42.158,57.58z"/>
<path d="M90.221,27.666l-0.95-0.01c0-0.342,0.095-8.334,1.663-13.921c1.549-5.54,3.715-11.697,3.734-11.764l0.893,0.314
	c-0.019,0.057-2.176,6.196-3.715,11.707C90.326,19.456,90.221,27.59,90.221,27.666z"/>
<path fill="#3C3C3B" d="M150.981,22.972c0,0-52.102,0.086-53.689,0c-1.596-0.086-2.015-3.022-1.977-5.369
	c0.038-2.347,3.193-15.099,3.193-15.099s2.138-0.219,5.321-0.333c3.183-0.114,47.189,0,47.189,0"/>
<path d="M112.03,23.485c-8.02,0-14.225-0.01-14.767-0.038c-2.271-0.124-2.452-4.134-2.423-5.844
	c0.038-2.376,3.079-14.681,3.202-15.204l0.076-0.323l0.333-0.038c0.019,0,2.186-0.219,5.35-0.333c3.164-0.114,45.412-0.01,47.208,0
	v0.95c-0.437,0-44.025-0.105-47.17,0c-2.414,0.086-4.237,0.228-4.959,0.295c-0.494,2.005-3.06,12.61-3.098,14.672
	c-0.038,2.385,0.418,4.827,1.52,4.884c1.558,0.086,53.146,0,53.66,0v0.95C149.584,23.457,127.462,23.485,112.03,23.485z"/>
<path fill="#DDDDDD" d="M29.339,193.237c-0.238-1.843-0.2-8.144-0.095-9.483c0.114-1.444,4.333-31.063,8.02-28.973
	c1.083,0.618,0.456,29.229,0.361,32.698c-0.095,3.44,0.181,8.695-1.064,9.094C35.421,196.942,29.482,194.348,29.339,193.237z"/>
<path d="M36.295,197.085c-1.397,0-4.438-1.292-6.034-2.309c-1.169-0.741-1.359-1.178-1.397-1.482c-0.247-1.91-0.2-8.305-0.095-9.578
	c0.019-0.266,3.62-27.291,7.507-29.353c0.409-0.219,0.836-0.209,1.226,0.01c1.378,0.779,0.808,25.552,0.608,33.125
	c-0.019,0.675-0.019,1.416-0.029,2.176c-0.029,4.314-0.133,6.965-1.368,7.364C36.59,197.066,36.447,197.085,36.295,197.085z
	 M29.805,193.16c0.304,0.865,5.663,3.259,6.604,2.965c0.675-0.219,0.694-4.438,0.703-6.462c0-0.77,0.01-1.52,0.029-2.195
	c0.276-10.13,0.504-30.436-0.209-32.308c-0.067-0.019-0.133-0.01-0.228,0.038c-3.041,1.615-6.823,26.312-7.003,28.593
	C29.615,185.036,29.567,191.288,29.805,193.16z"/>
<path fill="#3C3C3B" d="M66.732,263.117c0,0,3.364,17.456,3.364,35.387s0,212.94,0,212.94c0,13.265,1.986,22.939,8.847,24.716
	V298.656c0-12.581,0.19-26.55-4.001-38.456L66.732,263.117z"/>
<path opacity="0.47" fill="#FFFFF3" enable-background="new    " d="M74.096,260.808l-7.364,2.309c0,0,3.088,15.926,3.221,28.887
	c0.143,12.961,0.19,222.917,0.19,222.917s1.064,12.268,2.395,14.843c0,0-0.903-11.051-0.903-15.071
	c0-4.02-0.428-205.804-0.323-222.689c0.105-16.886-1.9-24.25-1.9-24.25s1.501-3.525,5.559-4.675L74.096,260.808z"/>
<path d="M79.417,536.759l-0.599-0.152c-6.367-1.644-9.208-9.407-9.208-25.172v-212.94c0-17.675-3.316-35.121-3.354-35.292
	l-0.076-0.399l9.037-3.202l0.162,0.447c4.048,11.488,4.039,25.058,4.029,37.031v1.577v238.102H79.417z M67.273,263.421
	c0.494,2.727,3.297,18.796,3.297,35.073v212.94c0,14.529,2.518,22.207,7.896,24.07V297.07c0.01-11.736,0.019-25.029-3.82-36.271
	L67.273,263.421z"/>
<path d="M69.07,598.962l-7.431-12.334l-2.186-4.733l16.573-34.465l2.527-11.754h72.428v0.95H79.323l-2.414,11.165l-16.41,34.114
	l1.976,4.285l7.412,12.278L69.07,598.962z"/>
<path d="M39.593,202.083c-0.067-0.038-6.956-3.563-9.445-4.428c-1.577-0.551-3.164-0.57-3.183-0.57v-0.95
	c0.067,0,1.758,0.01,3.497,0.618c2.556,0.893,9.284,4.343,9.569,4.485L39.593,202.083z"/>
<path d="M64.528,338.861c-0.171-0.067-17.779-6.471-37.63-9.084l0.124-0.941c19.955,2.632,37.649,9.065,37.829,9.132L64.528,338.861
	z"/>
<path d="M28.304,466.336c-3.221,0-6.652-3.269-6.804-3.411l0.656-0.684c0.029,0.029,3.307,3.145,6.139,3.145
	c2.936,0,5.777-2.129,11.042-6.889c5.321-4.827,21.485-20.791,21.647-20.943l0.665,0.675c-0.162,0.161-16.344,16.135-21.675,20.972
	C34.529,464.141,31.554,466.336,28.304,466.336z"/>
<path opacity="0.47" fill="#1D1D1B" enable-background="new    " d="M32.039,324.493c1.317,0,2.385-8.334,2.385-18.615
	s-1.068-18.615-2.385-18.615s-2.385,8.334-2.385,18.615S30.722,324.493,32.039,324.493z"/>
<path fill="#3C3C3B" d="M31.249,288.337c1.254,0.285,1.397,4.067,0.618,5.35c-0.779,1.283-0.96,1.036-2.052,3.43
	c-1.083,2.395-0.95,15.042-0.171,16.8c0.779,1.758,2.062,3.801,2.214,4.913c0.152,1.121,0.152,3.516-0.152,4.466
	c-0.314,0.96-6.395-3.193-7.022-6.386c-0.618-3.193-1.083-21.789,0.314-24.184C26.403,290.332,29.852,288.014,31.249,288.337z"/>
<path d="M31.468,323.914c-0.019,0-0.048,0-0.067,0c-1.435-0.086-6.566-3.839-7.165-6.908c-0.618-3.202-1.112-21.989,0.371-24.516
	c1.482-2.537,5.084-4.998,6.756-4.618c0.314,0.076,0.751,0.314,1.074,1.064c0.589,1.387,0.513,3.905-0.152,4.989
	c-0.276,0.447-0.475,0.713-0.665,0.969c-0.352,0.466-0.656,0.874-1.359,2.414c-1.007,2.214-0.95,14.643-0.171,16.411
	c0.276,0.618,0.608,1.273,0.941,1.91c0.618,1.197,1.207,2.338,1.311,3.136c0.162,1.169,0.162,3.649-0.171,4.685
	C32.133,323.562,31.971,323.914,31.468,323.914z M30.955,288.783c-1.207,0-4.21,1.919-5.54,4.181
	c-1.264,2.167-0.893,20.563-0.257,23.861c0.513,2.632,4.989,5.882,6.158,6.129c0.228-0.988,0.219-3.069,0.086-4.058
	c-0.086-0.637-0.665-1.748-1.216-2.832c-0.333-0.646-0.684-1.321-0.96-1.957c-0.846-1.91-0.922-14.767,0.171-17.18
	c0.741-1.634,1.093-2.1,1.463-2.585c0.181-0.238,0.361-0.485,0.618-0.893c0.504-0.827,0.551-3.031,0.086-4.134
	c-0.124-0.285-0.276-0.475-0.409-0.513C31.088,288.783,31.021,288.783,30.955,288.783z"/>
<path opacity="0.47" fill="#1D1D1B" enable-background="new    " d="M31.192,450.001c1.317,0,2.385-8.334,2.385-18.615
	c0-10.281-1.068-18.615-2.385-18.615c-1.317,0-2.385,8.334-2.385,18.615C28.807,441.667,29.875,450.001,31.192,450.001z"/>
<path fill="#3C3C3B" d="M30.414,413.845c1.254,0.285,1.397,4.067,0.618,5.35c-0.779,1.273-0.96,1.036-2.053,3.43
	c-1.093,2.395-0.95,15.042-0.171,16.8c0.779,1.758,2.062,3.801,2.214,4.913s0.152,3.516-0.152,4.466
	c-0.314,0.96-6.395-3.193-7.022-6.386c-0.618-3.193-1.083-21.789,0.314-24.184C25.559,415.839,29.017,413.531,30.414,413.845z"/>
<path d="M30.622,449.431c-0.019,0-0.047,0-0.067,0c-1.435-0.086-6.566-3.839-7.165-6.908c-0.618-3.202-1.112-21.989,0.371-24.516
	c1.482-2.537,5.084-4.998,6.756-4.618c0.314,0.076,0.751,0.314,1.074,1.064c0.589,1.387,0.513,3.905-0.152,4.989
	c-0.276,0.447-0.475,0.722-0.665,0.969c-0.352,0.466-0.656,0.874-1.359,2.414c-1.007,2.214-0.95,14.643-0.171,16.411
	c0.276,0.618,0.608,1.273,0.941,1.91c0.618,1.197,1.207,2.338,1.311,3.136c0.162,1.169,0.162,3.649-0.171,4.685
	C31.297,449.07,31.135,449.431,30.622,449.431z M30.118,414.292c-1.207,0-4.21,1.919-5.54,4.191
	c-1.264,2.167-0.893,20.563-0.257,23.861c0.513,2.632,4.989,5.882,6.158,6.129c0.228-0.988,0.219-3.069,0.086-4.058
	c-0.086-0.637-0.665-1.748-1.216-2.832c-0.333-0.646-0.684-1.321-0.96-1.958c-0.846-1.91-0.922-14.767,0.171-17.18
	c0.741-1.634,1.093-2.1,1.463-2.585c0.181-0.238,0.361-0.485,0.618-0.893c0.504-0.827,0.551-3.031,0.086-4.134
	c-0.124-0.285-0.276-0.475-0.409-0.513C30.251,414.301,30.185,414.292,30.118,414.292z"/>
<path d="M33.948,563.499l-0.152-0.124c-3.516-2.87-4.362-11.004-4.39-11.355l0.95-0.095c0.01,0.076,0.808,7.849,3.906,10.586
	l8.676-0.751l0.086,0.95L33.948,563.499z"/>
<path d="M150.98,598.686c-57.737,0-85.142-5.758-85.408-5.815l0.2-0.931c0.266,0.057,27.586,5.796,85.208,5.796V598.686z"/>
<path fill="#DAEFF7" d="M37.037,562.814l3.155-0.209c5.787,20.43,21.846,23.785,21.846,23.785l2.756,4.675
	C44.326,586.618,38.444,568.791,37.037,562.814z"/>
<path fill="#E20613" d="M37.037,562.814c0.038,0.181,2.974-0.409,3.031-0.2c0.143,0.551,0.76,1.901,0.941,2.575l-2.822,1.568
	c2.67,7.697,9.616,20.62,26.616,24.307l2.452,4.153c-30.379-3.364-33.144-32.204-33.144-32.204L37.037,562.814z"/>
<path d="M68.139,595.788l-0.941-0.104c-30.408-3.364-33.534-32.337-33.563-32.631l-0.047-0.485l6.965-0.466l0.105,0.371
	c5.635,19.889,21.333,23.414,21.485,23.452l0.209,0.038L68.139,595.788z M34.643,563.451c0.542,3.734,5.084,27.681,31.71,31.177
	l-4.618-7.82c-1.919-0.494-16.373-4.818-21.894-23.699L34.643,563.451z"/>
<path fill="#181919" d="M28.086,212.203c5.445-1.72,12.98-0.722,12.98-0.722s0.542,0.561,0.884,1.235
	c0.333,0.675-0.304,14.254-0.884,15.261c-0.58,1.007-1.52,0.95-1.52,0.95l-6.576-2.556C32.98,226.371,33.749,216.812,28.086,212.203
	z"/>
<path d="M39.574,229.403c-0.029,0-0.047,0-0.047,0l-0.143-0.029l-6.899-2.68l0.029-0.352c0.01-0.095,0.684-9.36-4.723-13.76
	l-0.684-0.551l0.836-0.266c5.483-1.739,12.876-0.789,13.189-0.741l0.162,0.019l0.114,0.114c0.029,0.029,0.599,0.627,0.969,1.349
	c0.456,0.922-0.323,14.719-0.893,15.708C40.848,229.327,39.821,229.403,39.574,229.403z M33.474,226.048l6.167,2.395
	c0.171-0.01,0.675-0.105,1.017-0.703c0.532-1.074,1.102-13.94,0.855-14.852c-0.2-0.39-0.513-0.77-0.675-0.95
	c-1.074-0.124-7.051-0.732-11.793,0.494C33.616,216.803,33.559,224.309,33.474,226.048z"/>
<path fill="#4A4C4F" d="M1.792,228.063c1.425-2.765,19.708-13.161,25.172-15.441c0.361-0.152,0.741-0.285,1.131-0.409
	c5.663,4.609,4.894,14.159,4.894,14.159c-0.333,2.414-2.262,4.286-3.82,5.046c-1.558,0.76-22.502,6.709-23.68,7.212
	c-1.178,0.504-3.772-0.171-4.447-3.098C0.366,232.586,0.366,230.828,1.792,228.063z"/>
<path fill="#9D9FA3" d="M27.363,214.142c0.675-0.836,1.882-1.15,2.737,0.247c0.855,1.397,4.162,9.046,2.879,11.983
	c-1.283,2.927-4.314,5.283-6.956,6.091S6.41,238.478,5.479,238.63c-0.931,0.143-3.525-0.627-3.982-1.862
	c-0.466-1.235-0.456-1.986,0.931-1.739c1.387,0.247,22.169-5.283,23.68-6.794s0.361-12.41,0.855-13.75L27.363,214.142z"/>
<path d="M4.662,239.247c-0.561,0-1.178-0.143-1.729-0.428c-1.178-0.599-2.014-1.739-2.347-3.193
	c-0.675-2.927-0.722-4.846,0.798-7.783c1.52-2.946,20.174-13.484,25.409-15.669c0.371-0.152,0.77-0.295,1.169-0.418l0.247-0.076
	l0.2,0.162c5.797,4.713,5.103,14.168,5.065,14.567c-0.352,2.566-2.309,4.571-4.096,5.435c-0.941,0.456-8.22,2.594-14.643,4.485
	c-4.419,1.302-8.59,2.528-9.056,2.727C5.375,239.19,5.023,239.247,4.662,239.247z M27.98,212.745c-0.285,0.095-0.57,0.2-0.836,0.314
	c-5.673,2.366-23.595,12.638-24.934,15.223c-1.387,2.699-1.34,4.381-0.713,7.136c0.342,1.511,1.197,2.224,1.853,2.556
	c0.77,0.39,1.53,0.39,1.939,0.209c0.494-0.209,3.801-1.188,9.16-2.765c6.072-1.786,13.627-4.02,14.501-4.438
	c1.501-0.722,3.259-2.499,3.563-4.685C32.514,226.238,33.169,217.192,27.98,212.745z"/>
<path fill="#21211F" d="M147.371,579.596c0,0-27.386-1.34-54.781-0.893c0,0,32.641,1.188,52.767,3.269c0,0,0.171,1.634,2.015,1.634
	c1.843,0,2.176-1.112,2.29-1.634C149.775,581.449,149.556,579.691,147.371,579.596z"/>
<path d="M147.37,584.081c-1.501,0-2.176-0.95-2.404-1.672c-19.908-2.034-52.064-3.221-52.396-3.231l0.01-0.95
	c27.053-0.437,54.458,0.874,54.81,0.893c1.235,0.057,1.9,0.589,2.233,1.026c0.561,0.732,0.57,1.577,0.504,1.92
	C149.774,583.729,148.434,584.081,147.37,584.081z M112.258,579.13c10.557,0.561,23.385,1.359,33.154,2.376l0.38,0.038l0.038,0.38
	c0.019,0.124,0.181,1.207,1.539,1.207c1.378,0,1.701-0.675,1.824-1.254c0.038-0.181,0.01-0.713-0.323-1.14
	c-0.314-0.409-0.827-0.637-1.53-0.665C147.142,580.061,131.52,579.311,112.258,579.13z"/>
<path opacity="0.24" enable-background="new    " d="M183.088,526.135V267.013c0-1.387,1.131-2.518,2.518-2.518h1.929l1.853-1.425
	c-0.39-0.162-0.817-0.247-1.273-0.247h-3.088c-1.882,0-3.402,1.52-3.402,3.402v260.709c0,1.178,0.608,2.224,1.52,2.832l2.167-1.14
	C184.066,528.473,183.088,527.427,183.088,526.135z"/>
<path opacity="0.36" fill="#FFFFF8" enable-background="new    " d="M189.388,263.07l-1.852,1.425c1.387,0,2.518,1.131,2.518,2.518
	v259.122c0,1.387-1.131,2.518-2.518,2.518h-1.929c-0.104,0-0.2-0.019-0.295-0.029l-2.167,1.14c0.542,0.361,1.187,0.57,1.881,0.57
	h3.089c1.881,0,3.402-1.52,3.402-3.402V266.225C191.517,264.799,190.632,263.573,189.388,263.07z"/>
<path opacity="0.24" enable-background="new    " d="M161.707,526.135V267.013c0-1.387,1.131-2.518,2.518-2.518h1.929l1.853-1.425
	c-0.39-0.162-0.817-0.247-1.273-0.247h-3.088c-1.881,0-3.402,1.52-3.402,3.402v260.709c0,1.178,0.608,2.224,1.52,2.832l2.167-1.14
	C162.676,528.473,161.707,527.427,161.707,526.135z"/>
<path opacity="0.36" fill="#FFFFF8" enable-background="new    " d="M167.998,263.07l-1.853,1.425c1.387,0,2.518,1.131,2.518,2.518
	v259.122c0,1.387-1.131,2.518-2.518,2.518h-1.929c-0.104,0-0.2-0.019-0.295-0.029l-2.167,1.14c0.542,0.361,1.188,0.57,1.881,0.57
	h3.088c1.881,0,3.402-1.52,3.402-3.402V266.225C170.126,264.799,169.252,263.573,167.998,263.07z"/>
<path opacity="0.4" enable-background="new    " d="M300.472,228.614l-1.53-1.739l-7.878-5.53l-12.078-6.956l-3.953-1.777v-23.224
	l3.744-8.106l1.625-6.804l-3.06-101.59l-4.105-13.427l-3.839-6.813l-2.015-1.891l-5.055-14.909l-7.801-9.445l-9.693-5.274
	l-10.443-5.768l-10.956-5.606L209.552,3.35l-4.884-1.311c0,0,3.801,10.234,4.048,12.857c0.247,2.623,0.247,7.744-0.418,8.752
	c-0.675,1.007-3.63,3.231-3.63,3.231l13.104,0.637c0,0,9.303,1.587,12.657,3.345s11.27,5.027,14.396,8.22
	c3.126,3.183,7.697,9.635,10.006,15.251c2.3,5.606,2.699,43.445,3.069,62.393c0.37,18.948,1.055,48.453,0.703,51.817
	c-0.352,3.364-6.699,26.825-6.699,26.825s-8.894,31.529-10.909,38.732c-2.015,7.212-6.709,19.366-7.878,26.113
	c-1.178,6.756-4.077,31.234-3.963,51.019c0.114,19.785,0,171.889,0,171.889s1.425,30.351-0.076,37.392
	c-1.501,7.041-2.043,9.198-3.506,12.239c-1.473,3.041-137.595,1.672-137.595,1.672s-6.633-0.057-9.037,0.304
	c-2.404,0.361-11.184,1.71-16.962,8.419c-5.768,6.709-12.98,18.064-15.669,24.288c-2.68,6.224-7.355,7.231-9.379,5.72
	c-2.024-1.501-6.006-10.918-6.006-10.918s2.148,11.336,5.502,16.762c3.354,5.426,9.312,12.638,13.664,14.425
	c4.352,1.786,18.378,6.595,28.84,7.003c10.472,0.409,36.774,3.715,72.076,3.354c35.302-0.361,70.337-2.224,82.339-4.599
	c12.002-2.376,20.402-6.405,26.008-11.184c5.606-4.77,11.384-19.166,12.059-27.595c0.675-8.429,0.665-13.075,2.138-15.584
	c1.473-2.509,6.443-15.052,6.443-15.052l0.39-63.904c0,0-0.703-35.482-2.832-48.025c-2.129-12.534-2.186-10.69-2.186-10.69
	l0.076-59.362l-0.152-26.664l1.52-2.984l1.074-7.744V297.65l-1.169-5.027l-1.178-1.672l-0.513-58.05l0.447-0.589l21.704,6.471
	l1.463-0.551l1.853-1.463l0.855-3.582L300.472,228.614z"/>
<path opacity="0.25" fill="#FFFFF8" enable-background="new    " d="M222.304,424.478c0,0-14.007-1.558-17.969,0.922
	c-3.962,2.48-7.716,5.179-7.716,16.354s0,92.506,0,92.506l3.649-0.171l-0.342-92.335c0,0,0.219-11.298,6.737-13.645
	c6.519-2.347,15.651-1.093,15.651-1.093v-2.537h-0.01V424.478z"/>
<path opacity="0.15" fill="#FFFFF8" enable-background="new    " d="M150.969,35.05h63.381c0,0,4.086,5.103,9.122,6.034
	c5.036,0.922,20.915,0.817,25.086,2.461c4.172,1.644-10.956-13.389-26.531-15.261s-52.301-1.881-52.301-1.881l-17.19,0.428
	l-1.577-0.095v8.315h0.01V35.05z"/>
<path opacity="0.25" fill="#FFFFF8" enable-background="new    " d="M214.351,35.05c0,0-2.708,73.948-2.119,77.074
	c0.589,3.126,6.851,11.175,7.298,17.209c0.447,6.034,1.549,20.288,1.549,20.288l3.563,1.796l1.663-110c0,0-2.689-0.057-5.397-1.178
	C218.009,39.041,214.351,35.05,214.351,35.05z"/>
<path opacity="0.15" fill="#FFFFF8" enable-background="new    " d="M151.017,107.582c0,0,42.932-0.703,61.215,4.542
	c0,0,5.768,9.217,6.994,15.327c1.226,6.11-0.513,3.668-0.513,3.668s-27.861-9.274-67.752-9.274"/>
<path opacity="0.25" fill="#FFFFF8" enable-background="new    " d="M97.606,425.647c-3.963-2.48-17.969-0.922-17.969-0.922v2.537
	c0,0,9.141-1.254,15.651,1.093c1.378,0.494,2.471,1.397,3.345,2.499l2.271-2.803C99.877,427.11,98.746,426.36,97.606,425.647z"/>
<path opacity="0.4" fill="#050505" enable-background="new    " d="M100.902,428.061l-2.271,2.803
	c3.25,4.124,3.392,11.137,3.392,11.137l-0.342,92.335l3.649,0.171c0,0,0-81.331,0-92.506
	C105.321,434.057,103.42,430.398,100.902,428.061z"/>
<path opacity="0.15" fill="#FFFFF8" enable-background="new    " d="M150.969,35.297H87.588c0,0-4.086,5.103-9.122,6.034
	c-5.036,0.922-20.915,0.817-25.086,2.461c-4.172,1.644,10.956-13.389,26.531-15.261c15.574-1.872,52.301-1.881,52.301-1.881
	l17.19,0.428l1.577-0.095v8.315h-0.01V35.297z"/>
<path opacity="0.25" enable-background="new    " d="M87.579,35.297c0,0,2.708,73.948,2.119,77.074
	c-0.589,3.126-6.851,11.175-7.298,17.209c-0.447,6.034-1.549,20.288-1.549,20.288l-3.563,1.796l-1.663-110
	c0,0,2.689-0.057,5.397-1.178C83.92,39.297,87.579,35.297,87.579,35.297z"/>
<path opacity="0.15" fill="#FFFFF8" enable-background="new    " d="M150.912,107.829c0,0-42.932-0.703-61.215,4.542
	c0,0-5.768,9.217-6.994,15.327s0.513,3.668,0.513,3.668s27.861-9.274,67.752-9.274"/>
<path opacity="0.24" enable-background="new    " d="M133.145,526.135V267.013c0-1.387,1.131-2.518,2.518-2.518h1.929l1.853-1.425
	c-0.39-0.162-0.817-0.247-1.273-0.247h-3.088c-1.882,0-3.402,1.52-3.402,3.402v260.709c0,1.178,0.608,2.224,1.52,2.832l2.167-1.14
	C134.114,528.473,133.145,527.427,133.145,526.135z"/>
<path opacity="0.36" fill="#FFFFF8" enable-background="new    " d="M139.443,263.07l-1.853,1.425c1.387,0,2.518,1.131,2.518,2.518
	v259.122c0,1.387-1.131,2.518-2.518,2.518h-1.929c-0.104,0-0.2-0.019-0.295-0.029l-2.167,1.14c0.542,0.361,1.188,0.57,1.882,0.57
	h3.088c1.881,0,3.402-1.52,3.402-3.402V266.225C141.571,264.799,140.688,263.573,139.443,263.07z"/>
<path opacity="0.24" enable-background="new    " d="M111.754,526.135V267.013c0-1.387,1.131-2.518,2.518-2.518h1.929l1.853-1.425
	c-0.39-0.162-0.817-0.247-1.273-0.247h-3.088c-1.881,0-3.402,1.52-3.402,3.402v260.709c0,1.178,0.608,2.224,1.52,2.832l2.167-1.14
	C112.733,528.473,111.754,527.427,111.754,526.135z"/>
<path opacity="0.36" fill="#FFFFF8" enable-background="new    " d="M118.055,263.07l-1.853,1.425c1.387,0,2.518,1.131,2.518,2.518
	v259.122c0,1.387-1.131,2.518-2.518,2.518h-1.929c-0.104,0-0.2-0.019-0.295-0.029l-2.167,1.14c0.542,0.361,1.188,0.57,1.881,0.57
	h3.088c1.881,0,3.402-1.52,3.402-3.402V266.225C120.183,264.799,119.3,263.573,118.055,263.07z"/>
<path fill="#BCDAED" d="M212.403,27.21l-0.171-12.315c0,0,31.111,3.886,41.06,14.843c9.949,10.956,11.175,21.533,11.175,21.533
	s-3.915-0.2-6.101,1.368c0,0-3.772-7.013-8.837-13.284C244.074,32.579,229.317,27.657,212.403,27.21z"/>
<path d="M258.214,53.342l-0.257-0.475c-0.038-0.067-3.81-7.051-8.79-13.218c-5.426-6.718-20.212-11.526-36.784-11.964l-0.456-0.01
	l-0.181-13.322l0.542,0.067c1.273,0.162,31.396,4.029,41.355,14.995c9.94,10.937,11.289,21.694,11.298,21.799l0.067,0.561
	l-0.561-0.029c-0.038,0-3.782-0.181-5.796,1.283L258.214,53.342z M212.868,26.744c16.648,0.523,31.5,5.445,37.04,12.306
	c4.305,5.331,7.716,11.26,8.638,12.914c1.786-1.036,4.257-1.178,5.369-1.178c-0.409-2.281-2.509-11.412-10.975-20.725
	c-9.008-9.911-36.052-14.035-40.224-14.615L212.868,26.744z"/>
<path fill="#121313" d="M121.882,141.828c-55.77,3.81-78.253,32.27-78.253,32.27c1.264,8.239,23.119,89.009,23.119,89.009
	c25.372-11.089,78.234-10.766,78.234-10.766h12.03c0,0,52.862-0.314,78.234,10.766c0,0,21.856-80.771,23.119-89.009
	c0,0-22.492-29.144-78.87-32.308c0,0-22.844-1.587-27.975-1.739c-5.131-0.162-29.448,1.767-29.448,1.767L121.882,141.828z"/>
<path fill="#050606" d="M76.537,190.281h32.137c1.805,0,3.269,1.463,3.269,3.269l-4.001,29.572c0,1.805-1.463,7.944-3.269,7.944
	c0,0-5.264,1.824-11.726,1.824c-6.452,0-11.678-1.824-11.678-1.824c-1.805,0-3.269-6.139-3.269-7.944l-4.742-29.572
	C73.268,191.745,74.731,190.281,76.537,190.281z"/>
<path fill="#050505" d="M92.606,238.801c-13.132,0-23.034-5.331-23.034-12.41c0-7.079,9.901-12.41,23.034-12.41
	c13.133,0,23.034,5.331,23.034,12.41C115.64,233.47,105.739,238.801,92.606,238.801z M92.606,219.682
	c-10.576,0-17.332,3.972-17.332,6.709s6.747,6.709,17.332,6.709c10.585,0,17.332-3.972,17.332-6.709
	C109.939,223.654,103.183,219.682,92.606,219.682z"/>
<path fill="#262828" d="M151.472,143.871c-39.273-0.713-68.655,7.07-82.357,15.536c-9.559,5.911-21.97,17.076-21.97,17.076
	c-1.093,8.229,7.545,31.434,7.545,31.434c4.97,0.019,12.277,0.057,12.277,0.057s16.62,3.487,25.638,3.487
	c9.093,0,30.598-3.487,30.598-3.487s28.08-0.19,28.08-0.2h-0.105c35.786,1.055,79.915,0.447,95.965,0.143
	c0,0,9.198-24.374,8.106-32.612c0,0-12.467-10.443-20.848-15.565C214.464,149.886,189.596,144.812,151.472,143.871z"/>
<path fill="#262828" d="M151.473,213.144c0,0-20.915,0.333-23.5-2.176c-2.585-2.518-8.039-26.835-3.677-31.025
	c4.362-4.191,20.573-6.367,27.186-6.367c6.613,0,22.825,2.176,27.186,6.367c4.362,4.191-1.093,28.507-3.677,31.025
	C172.388,213.477,151.473,213.144,151.473,213.144z"/>
<path fill="#121313" d="M154.305,213.638c-1.397,0-2.423-0.01-2.841-0.019c-2.205,0.038-21.181,0.257-23.832-2.319
	c-2.129-2.062-5.483-15.812-5.454-24.516c0.01-3.639,0.608-6.063,1.777-7.184c4.381-4.21,20.468-6.5,27.51-6.5
	c7.041,0,23.138,2.3,27.519,6.5c1.169,1.131,1.767,3.544,1.786,7.184c0.019,8.704-3.335,22.454-5.454,24.526
	C173.167,213.391,160.291,213.638,154.305,213.638z M151.473,212.669c8.343,0.133,21.38-0.304,23.176-2.043
	c1.767-1.72,5.198-15.204,5.169-23.842c-0.009-3.326-0.523-5.568-1.492-6.5c-4.029-3.867-19.68-6.234-26.854-6.234
	c-7.184,0-22.825,2.366-26.854,6.234c-0.969,0.931-1.482,3.174-1.492,6.509c-0.019,8.638,3.402,22.112,5.169,23.832
	C130.092,212.365,143.13,212.802,151.473,212.669z"/>
<path fill="#313334" d="M78.664,210.17c0,0-2.376-18.273,2.1-37.611c0,0-13.531,8.951-13.864,35.663L78.664,210.17z"/>
<path fill="#1F2020" d="M108.037,210.17c0,0,4.134-18.824-1.463-37.611c0,0,11.783,10.063,16.62,35.549L108.037,210.17z"/>
<path fill="#1D1D1B" d="M151.007,147.615c7.763-0.162,32.479,1.511,32.479,1.511c42.827,4.523,63.647,22.378,68.589,27.785
	c0.751,0.817,1.045,1.939,0.808,3.022c-2.509,11.716-16.002,62.83-19.347,75.221c-0.371,1.368-1.834,2.119-3.164,1.606
	c-23.918-9.084-79.364-8.818-79.364-8.818v4.134c0,0,58.877-0.057,84.249,11.032c0,0,21.856-80.771,23.119-89.009
	c0,0-22.549-29.695-78.927-32.859c0,0-22.967-1.197-28.488-1.197L151.007,147.615z"/>
<path fill="#1D1D1B" d="M71.568,256.751c-1.33,0.504-2.794-0.238-3.164-1.606c-3.345-12.391-16.829-63.505-19.347-75.221
	c-0.228-1.083,0.067-2.205,0.808-3.022c4.941-5.407,25.761-23.252,68.589-27.785c0,0,24.716-1.663,32.479-1.511l0.038-7.573
	c-5.521,0-28.232,1.34-28.232,1.34c-56.378,3.164-79.184,32.717-79.184,32.717c1.264,8.239,23.119,89.009,23.119,89.009
	c25.372-11.089,84.249-11.032,84.249-11.032v-4.134C150.932,247.932,95.486,247.666,71.568,256.751z"/>
<path opacity="0.56" fill="#848484" enable-background="new    " d="M152.652,185.235c-47.056,0-80.334,7.013-100.982,21.333
	l15.08,56.53c16.791-6.424,52.121-11.032,84.249-11.032c32.299,0,62.079,2.889,84.249,11.032c0.266-0.114,0.779-4.761,1.425-5.502
	l13.76-52.51C230.572,191.84,198.311,185.311,152.652,185.235z"/>
<path d="M235.579,263.764l-0.513-0.219c-24.991-10.918-83.479-10.728-84.058-10.728l-0.01-0.95c0.58,0,58.487-0.19,83.935,10.586
	l22.92-88.23c-8.809-10.196-30.569-27.776-78.11-32.47c-7.602-0.751-24.336-1.14-28.745-1.14v-0.95c4.01,0,20.829,0.361,28.83,1.15
	c48.158,4.761,70.109,22.711,78.899,32.992l0.161,0.19l-0.067,0.238L235.579,263.764z"/>
<path d="M66.398,263.764L43.07,173.976l0.162-0.19c8.799-10.282,30.74-28.232,78.899-32.992c8.001-0.789,24.83-1.15,28.83-1.15v0.95
	c-4.409,0-21.143,0.39-28.745,1.14c-47.541,4.694-69.301,22.274-78.11,32.47l22.92,88.23c25.448-10.776,83.355-10.586,83.935-10.586
	l-0.01,0.95c-0.589,0-59.067-0.19-84.058,10.728L66.398,263.764z"/>
</svg>
