<svg width="17" height="36" viewBox="0 0 17 36" fill="none" xmlns="http://www.w3.org/2000/svg">
<g clip-path="url(#clip0_7982_105608)">
<path fill-rule="evenodd" clip-rule="evenodd" d="M4.46056 9.73682H4.57377L5.09963 10.186C5.09963 10.186 5.14902 10.3095 5.14902 10.3768C5.14902 10.4441 5.21502 11.7022 5.5621 12.4157C5.5621 12.4157 6.08708 11.3546 6.23395 11.2137C7.36434 10.1321 9.51322 9.94048 10.7909 11.2146C10.9365 11.3595 11.4851 12.4166 11.4851 12.4166C11.819 11.7035 11.8619 10.4454 11.861 10.3781C11.8597 10.3108 11.9069 10.1869 11.9069 10.1869L12.4026 9.75643L12.5451 9.74885L12.6535 9.74038C12.8685 11.8519 12.7378 13.1327 12.6801 13.5931C12.6224 14.0535 11.9947 14.66 11.9947 14.66C11.7766 15.9743 11.1327 17.5243 11.1327 17.5243C10.6934 19.9955 11.1196 20.3997 11.4073 22.8709C11.6949 25.3421 11.3675 26.7125 11.3675 26.7125L11.4024 26.8052L11.35 27.2544L11.2905 27.3105C11.1209 28.2652 10.5361 30.6298 10.1807 31.371C9.84324 32.0751 8.80115 32.0243 8.69712 32.0176C8.53975 32.0261 7.55405 32.0519 7.21484 31.3705C6.84592 30.6294 6.21778 28.2647 6.03069 27.3101L5.96993 27.2539L5.90917 26.8047L5.94239 26.712C5.94239 26.712 5.58964 25.3416 5.83224 22.8704C6.0744 20.3992 6.49316 19.995 6.0084 17.5238C6.0084 17.5238 5.33654 15.9738 5.09394 14.6596C5.09394 14.6596 4.45487 14.053 4.38887 13.5927C4.32286 13.1323 4.16856 11.8515 4.34472 9.73994L4.46056 9.73726V9.73682Z" fill="currentColor"/>
<path fill-rule="evenodd" clip-rule="evenodd" d="M5.7417 6.06444C5.81076 4.59955 6.16046 4.04827 7.22353 3.82901C7.22353 3.82901 7.41062 1.95322 8.50167 1.51514L8.52265 1.51603C9.61326 1.95411 9.80079 3.8299 9.80079 3.8299C11.1069 4.11824 11.2214 4.76311 11.2826 6.06533C10.616 5.58803 9.94941 5.52608 9.94941 5.52608L9.47557 5.71147L7.54875 5.71058L7.07491 5.52519C7.07491 5.52519 6.40831 5.58714 5.74214 6.06444H5.7417Z" fill="currentColor"/>
<path fill-rule="evenodd" clip-rule="evenodd" d="M4.4603 9.68444H4.59275L5.14308 10.1546L5.14789 10.1671C5.14789 10.1671 5.20122 10.2995 5.20122 10.3774C5.20122 10.4211 5.22919 10.9711 5.34547 11.5446C5.39836 11.8058 5.46961 12.0714 5.56446 12.2951C5.69866 12.0282 6.07327 11.2959 6.19872 11.1756C6.79626 10.6038 7.67313 10.2767 8.5596 10.2767C9.37745 10.2767 10.204 10.5553 10.8274 11.177C10.9511 11.3004 11.3414 12.0313 11.4809 12.296C11.5718 12.0723 11.6378 11.8071 11.6859 11.546C11.7917 10.9715 11.81 10.4225 11.8091 10.3788C11.8078 10.3008 11.8585 10.168 11.8585 10.1675L11.8633 10.1555L12.3826 9.7045L12.5413 9.69603L12.7 9.68355L12.7052 9.7348C12.8128 10.7928 12.8342 11.6431 12.8211 12.2867C12.808 12.9306 12.7608 13.3683 12.7319 13.5996C12.6768 14.0403 12.1322 14.5974 12.0434 14.6861C11.8288 15.9593 11.2243 17.4398 11.1832 17.5392C10.8741 19.2808 10.9983 19.9899 11.1985 21.1348C11.2807 21.6045 11.376 22.1473 11.4595 22.8644C11.7309 25.1943 11.4573 26.5491 11.4223 26.7082L11.456 26.7982L11.4 27.2796L11.3388 27.337C11.2418 27.8772 11.018 28.8456 10.778 29.7236C10.587 30.4219 10.3854 31.0646 10.2276 31.3939C10.1035 31.6533 9.88976 31.8146 9.65983 31.9149C9.24413 32.0958 8.77467 32.0749 8.69686 32.07C8.61206 32.0744 8.32356 32.082 8.01189 32.0036C7.69148 31.9229 7.3466 31.7513 7.16869 31.3934C7.00477 31.0646 6.79146 30.4219 6.58776 29.7236C6.33117 28.8443 6.08988 27.8759 5.98278 27.3366L5.92115 27.2791L5.85602 26.7978L5.88793 26.7082C5.85034 26.55 5.55179 25.1952 5.7804 22.8644C5.85078 22.1478 5.93601 21.6045 6.00945 21.1343C6.18867 19.9899 6.2997 19.2813 5.95831 17.5383C5.91459 17.4363 5.28383 15.9576 5.04604 14.6852C4.95643 14.5974 4.40041 14.0399 4.33747 13.5991C4.30425 13.3683 4.24917 12.9315 4.22425 12.2862C4.19934 11.6422 4.20502 10.7915 4.29288 9.73436L4.29682 9.68712C4.35102 9.68578 4.40653 9.68311 4.46074 9.68311L4.4603 9.68444ZM4.55428 9.79006H4.46117L4.39211 9.79185C4.30774 10.824 4.30294 11.6538 4.32698 12.2835C4.35146 12.9217 4.40653 13.3553 4.43932 13.5853C4.5027 14.0274 5.12691 14.6197 5.12865 14.6215L5.14089 14.6331L5.14395 14.65C5.38524 15.958 6.05316 17.4982 6.05491 17.5027L6.05753 17.5085L6.05841 17.5138C6.40461 19.2782 6.29227 19.9943 6.11086 21.1522C6.03743 21.6206 5.95262 22.162 5.88269 22.876C5.6414 25.3374 5.99065 26.6953 5.99153 26.6993L5.99546 26.7149L5.96137 26.8107L6.01775 27.2279L6.0772 27.2831L6.0807 27.3001C6.18561 27.8344 6.42821 28.8104 6.68655 29.695C6.8885 30.388 7.09962 31.0244 7.26048 31.3471C7.42178 31.6707 7.73957 31.8271 8.03593 31.9019C8.33755 31.9777 8.61687 31.9697 8.6938 31.9652H8.69686H8.69948C8.76549 31.9697 9.21922 31.992 9.61787 31.8186C9.82768 31.7272 10.0218 31.5811 10.1332 31.3484C10.288 31.0258 10.4873 30.3894 10.6766 29.6964C10.9187 28.8108 11.1434 27.8353 11.2383 27.3018L11.2413 27.2845L11.2995 27.2296L11.348 26.8125L11.3121 26.7167L11.3156 26.7011C11.3165 26.6971 11.6409 25.3396 11.3545 22.8778C11.2715 22.1643 11.1766 21.6223 11.0945 21.154C10.8921 19.997 10.7666 19.2813 11.0805 17.5156L11.0813 17.5098L11.0835 17.5044C11.0853 17.5 11.7248 15.9602 11.942 14.6522L11.9451 14.6348L11.9573 14.6228C11.9573 14.6228 12.5719 14.0287 12.6274 13.5871C12.6563 13.358 12.7031 12.9248 12.7162 12.2853C12.7288 11.656 12.7087 10.8276 12.606 9.79764C12.5444 9.80254 12.4836 9.80566 12.4215 9.80878L11.9499 10.2183C11.939 10.2491 11.911 10.3315 11.9114 10.3774C11.9123 10.422 11.8939 10.9835 11.7869 11.566C11.73 11.8744 11.6483 12.1895 11.5311 12.44L11.4866 12.5349L11.438 12.4417C11.4363 12.4386 10.8934 11.3922 10.7535 11.2532C10.1507 10.6524 9.35079 10.3832 8.55829 10.3828C7.6976 10.3828 6.84697 10.6992 6.26866 11.2527C6.12835 11.3869 5.60905 12.4368 5.6073 12.44L5.56053 12.5344L5.51463 12.4395C5.39267 12.1891 5.30525 11.874 5.24274 11.566C5.12472 10.9827 5.09587 10.422 5.09587 10.3774C5.09587 10.3329 5.06658 10.25 5.05478 10.2183L4.55341 9.79006H4.55428Z" fill="#1A1A18"/>
<path fill-rule="evenodd" clip-rule="evenodd" d="M5.68976 6.06202C5.72473 5.32 5.83183 4.80749 6.06656 4.45007C6.29867 4.0971 6.65099 3.89879 7.17641 3.78514C7.21006 3.51418 7.45441 1.87861 8.48252 1.46593L8.49257 1.46191L8.53322 1.4637L8.54109 1.46682C9.56963 1.87994 9.81355 3.51641 9.8472 3.78648C10.4933 3.93488 10.8491 4.17465 11.0528 4.54187C11.2578 4.91177 11.3028 5.40467 11.3334 6.06291L11.3387 6.17076L11.2517 6.10837C10.6476 5.67563 10.0474 5.59051 9.95561 5.57982L9.48483 5.76387C8.83571 5.76298 8.18703 5.76298 7.5379 5.76298L7.06713 5.57893C6.97533 5.58962 6.37517 5.67474 5.77107 6.10748L5.68408 6.16987L5.68933 6.06202H5.68976ZM6.15267 4.50934C5.94067 4.832 5.83795 5.29593 5.79904 5.9613C6.44642 5.53079 7.068 5.4733 7.06975 5.47286L7.08199 5.47152L7.55845 5.65781L9.46516 5.6587L9.94162 5.47241L9.95386 5.47375C9.95386 5.47375 10.5772 5.53168 11.225 5.96219C11.1948 5.37125 11.1459 4.92425 10.9627 4.59357C10.7708 4.24774 10.426 4.02268 9.78907 3.88185L9.75235 3.87383L9.74841 3.8355C9.74798 3.83015 9.56483 2.00027 8.51049 1.56843C7.45791 2.00161 7.27563 3.82926 7.27476 3.83461L7.27082 3.87294L7.23323 3.88051C6.71568 3.98703 6.37298 4.17331 6.15224 4.50845L6.15267 4.50934Z" fill="#1A1A18"/>
<path opacity="0.5" fill-rule="evenodd" clip-rule="evenodd" d="M9.96322 19.7803C9.8299 20.3748 9.77875 20.9679 10.0008 21.4207L10.816 23.9815C10.816 23.9815 11.0805 25.6665 10.5516 27.8454L9.89066 31.0804C9.89066 31.0804 9.75297 31.5158 9.92082 31.6223C9.92082 31.6223 10.1053 31.572 10.3531 30.7716C10.3531 30.7716 10.5105 30.3045 10.6801 29.6913C10.8965 28.9092 11.1452 27.8882 11.2409 27.2883L11.3017 27.2281L11.3519 26.8083L11.3161 26.696C11.3161 26.696 11.6195 25.7026 11.3878 23.1584C11.3878 23.1584 11.2086 21.5526 10.9939 20.553C10.9939 20.553 10.7623 19.3542 11.0324 17.7819L11.098 17.5016C11.3157 17.0452 11.6029 16.2306 11.9517 14.632C11.9517 14.632 12.5226 14.0504 12.6231 13.6145C12.6231 13.6145 12.8692 12.6127 12.6004 9.65039L11.9508 10.2137C11.9508 10.2137 11.9093 10.3318 11.9123 10.3848C11.915 10.4383 11.8271 11.921 11.4853 12.5218C11.4853 12.5218 10.9647 11.4277 10.764 11.2481L10.2836 10.7311L9.55888 10.4129L8.49756 10.0479C9.99994 11.1371 10.5669 11.376 10.8571 13.3516C11.06 14.7305 10.9035 16.3634 10.5634 17.6781C10.5433 15.997 9.39715 14.7906 9.39715 14.7906C10.5118 16.92 9.34295 20.2522 9.34295 20.2522L9.96235 19.7794L9.96322 19.7803Z" fill="#1A1A18"/>
<path opacity="0.3" fill-rule="evenodd" clip-rule="evenodd" d="M8.49339 1.57955L8.53185 3.62959L8.53754 5.65734L7.55664 5.65912L7.08237 5.46749C7.08237 5.46749 6.42581 5.5486 5.79199 5.96663C5.88422 4.66218 6.13557 4.11001 7.27863 3.85375C7.27863 3.85375 7.44955 2.03412 8.49339 1.5791V1.57955Z" fill="white"/>
<path opacity="0.3" fill-rule="evenodd" clip-rule="evenodd" d="M8.49582 10.0645C7.14337 11.024 6.48376 11.827 6.32027 13.5771C6.2499 14.3339 6.18695 15.7502 6.57861 16.502C6.57861 16.502 6.77706 15.5024 7.50399 14.8508C7.50399 14.8508 6.97508 16.3224 7.36062 18.2878L7.73873 20.0584C7.73873 20.0584 7.28806 19.9559 6.75171 19.1363C6.89902 19.3805 7.0542 19.6038 7.19364 19.7339C7.43886 19.9635 7.38947 20.1101 7.40214 20.3356C7.44629 21.1106 6.82908 22.6945 6.57599 23.4467C6.32246 24.1995 6.22367 25.1763 6.53184 26.4906L7.69982 30.961C7.69982 30.961 7.94767 31.7922 8.64181 31.9664C8.64181 31.9664 7.61458 32.0845 7.20675 31.2364C7.20675 31.2364 6.63937 29.8438 6.08292 27.2772L6.01954 27.2184L5.95047 26.8195L5.99375 26.7081C5.99375 26.7081 5.50374 24.6335 6.05538 21.5148C6.2652 20.5161 6.35787 19.1051 6.15942 18.0788C6.14936 18.028 6.15942 17.97 6.14761 17.921V17.9223C6.20706 18.0752 6.26651 18.2174 6.32639 18.3493C6.21974 18.1336 6.15242 17.9829 6.15242 17.9829L6.13144 17.8675C6.10215 17.7579 6.07636 17.5823 6.05844 17.5101C5.72798 16.6901 5.3643 15.748 5.15186 14.6655C5.15186 14.6655 5.17371 13.6431 5.58154 12.5651C5.58154 12.5651 6.03877 11.5463 6.23198 11.2936L6.63107 10.8042L7.16872 10.544L8.49582 10.0649V10.0645Z" fill="white"/>
<path fill-rule="evenodd" clip-rule="evenodd" d="M6.0083 17.524C6.0083 17.524 6.84582 20.2621 8.65287 20.3517C8.65287 20.3517 10.0709 20.5469 11.0693 17.4839C11.0693 17.4839 10.3935 20.5652 8.60872 20.6097C8.60872 20.6097 7.2707 20.7689 6.13026 17.926L6.0083 17.5236V17.524Z" fill="#1A1A18"/>
<path fill-rule="evenodd" clip-rule="evenodd" d="M5.92127 22.0893C5.92127 22.0893 5.009 24.0395 4.81055 26.3757L5.33946 30.8688C5.33946 30.8688 6.12147 32.43 7.45468 32.1492L7.06346 31.1269C7.06346 31.1269 6.24911 28.698 6.03579 27.3387L5.93132 27.2741L5.85832 26.8008L5.88979 26.7041C5.88979 26.7041 5.49333 25.0191 5.92083 22.0889L5.92127 22.0893Z" fill="#1A1A18"/>
<path fill-rule="evenodd" clip-rule="evenodd" d="M5.90052 22.1604C5.74141 22.5196 4.99787 24.2916 4.82084 26.3759L5.34932 30.866C5.37773 30.9217 6.14531 32.404 7.4405 32.1415L7.05364 31.1307C7.05146 31.1236 6.24104 28.7068 6.02641 27.3457L5.92194 27.2811C5.89703 27.1211 5.87211 26.9607 5.84763 26.8007L5.87911 26.7044C5.8625 26.6309 5.49837 24.9864 5.90009 22.1609L5.90052 22.1604ZM4.79986 26.3751C4.99831 24.0367 5.90883 22.0905 5.91145 22.0851L5.94161 22.0205L5.93112 22.0914C5.50362 25.0194 5.89878 26.6977 5.90009 26.7026V26.7053L5.86905 26.8024L5.94074 27.2682L6.04521 27.3328L6.04609 27.3377C6.25896 28.6934 7.06763 31.1075 7.07332 31.1236L7.46891 32.1571L7.45667 32.1597C6.11602 32.4423 5.33227 30.8785 5.33008 30.8736L5.32921 30.8718C5.22518 30.0063 4.75221 27.0177 4.8003 26.3746L4.79986 26.3751Z" fill="#1A1A18"/>
<path fill-rule="evenodd" clip-rule="evenodd" d="M10.2423 31.3493L10.022 32.1582C10.022 32.1582 11.482 32.0067 12.0878 30.7036L12.5669 26.1712C12.5669 26.1712 12.4786 24.4639 11.2778 21.5435C11.2778 21.5435 11.822 24.3819 11.3906 26.599L11.4321 26.7916L11.3521 27.2372L11.3001 27.3616C11.3001 27.3616 10.7301 29.9535 10.317 31.1385L10.2427 31.3493H10.2423Z" fill="#1A1A18"/>
<path fill-rule="evenodd" clip-rule="evenodd" d="M10.2517 31.3523L10.0358 32.1456C10.1914 32.1256 11.5089 31.9206 12.0771 30.7003L12.5562 26.1711C12.5545 26.1381 12.4601 24.4776 11.3056 21.6396C11.3957 22.1566 11.7856 24.6206 11.4013 26.5994L11.4424 26.7919C11.3992 27.0392 11.3983 27.1547 11.3096 27.3655C11.3004 27.4074 10.7365 29.965 10.326 31.1424L10.2517 31.3528V31.3523ZM10.0113 32.155C10.1062 31.8069 10.1866 31.4731 10.3064 31.1349C10.7194 29.9503 11.2877 27.3668 11.2894 27.3592C11.2943 27.3374 11.331 27.2603 11.3419 27.2344L11.4215 26.7919L11.3799 26.5994V26.5971C11.8114 24.3818 11.2689 21.5536 11.2676 21.5456L11.2488 21.4453L11.2877 21.5393C12.4893 24.4615 12.5772 26.1657 12.5776 26.1706C12.6192 27.0606 12.2135 29.6566 12.0981 30.7066L12.0972 30.7084C11.4888 32.0168 10.0275 32.1683 10.0231 32.1688L10.0078 32.1706L10.0117 32.1554L10.0113 32.155Z" fill="#1A1A18"/>
<path fill-rule="evenodd" clip-rule="evenodd" d="M7.45471 32.1497L7.70256 32.7041C7.08141 33.0415 7.09234 33.3142 7.27855 33.9675L6.65479 33.9577V34.5402L7.33013 34.5456C7.37603 34.5402 7.47307 34.5629 7.50061 34.6641C7.60902 34.9917 7.70431 35.2796 7.81228 35.6071C7.98712 36.1268 9.54021 36.1227 9.78456 35.5568L9.99394 34.6467C9.99394 34.6467 10.0381 34.5344 10.181 34.5063C10.3108 34.4809 10.7349 34.5014 10.8131 34.5054V33.8967L10.1867 33.8998C10.4678 33.2081 10.2409 32.9688 9.77363 32.6083L10.0215 32.1577L10.254 31.315C10.254 31.315 9.95591 32.0396 8.69701 32.0178C8.69701 32.0178 7.51547 32.2076 7.0495 31.0854L7.45471 32.1497Z" fill="#1A1A18"/>
<path fill-rule="evenodd" clip-rule="evenodd" d="M7.46418 32.1453L7.71596 32.7086L7.70722 32.7131C7.39949 32.8802 7.24824 33.0308 7.19754 33.2198C7.1464 33.4092 7.19579 33.6396 7.28802 33.9645L7.29196 33.9783L6.66513 33.9685V34.5296L7.32955 34.5349C7.3584 34.5318 7.40517 34.5385 7.44538 34.5661C7.4738 34.5857 7.49871 34.616 7.51095 34.6606L7.82262 35.6036C7.85977 35.7133 7.96075 35.7997 8.09888 35.8617C8.26323 35.9352 8.47917 35.9744 8.70254 35.9784C8.92591 35.9824 9.15627 35.9508 9.3486 35.8835C9.55055 35.8131 9.7101 35.703 9.77523 35.5533C9.81938 35.3607 9.92385 34.7858 9.98505 34.6428C9.98505 34.6428 10.0314 34.5251 10.18 34.4962C10.2456 34.4832 10.385 34.4819 10.5175 34.4846C10.6394 34.4868 10.7553 34.4921 10.8038 34.4948V33.9074L10.1721 33.9106L10.1783 33.8958C10.3177 33.5531 10.3312 33.3227 10.2521 33.1342C10.173 32.9453 10.0008 32.796 9.76824 32.6168L9.7608 32.611L10.0126 32.1538L10.2207 31.3984C10.1013 31.5869 9.70616 32.0455 8.69817 32.0285C8.67587 32.0321 7.65302 32.1872 7.13984 31.2927L7.46418 32.1453ZM7.68886 32.6992C7.44451 32.152 7.25567 31.656 7.04017 31.0891L7.05941 31.0811C7.52188 32.1957 8.69249 32.0076 8.69554 32.0071H8.69729C9.9492 32.0285 10.2438 31.3128 10.2447 31.3106L10.3046 31.172C10.2137 31.5018 10.1236 31.832 10.0318 32.1618L9.78747 32.6052C10.0187 32.7844 10.1905 32.9341 10.2705 33.1257C10.3505 33.3169 10.3387 33.5482 10.2023 33.8892L10.8239 33.886V34.5167H10.813C10.7736 34.514 10.6482 34.5077 10.5166 34.5055C10.385 34.5028 10.2473 34.5042 10.1835 34.5167C10.0532 34.5421 10.0087 34.6392 10.0043 34.6499C9.95838 34.8487 9.85785 35.4098 9.79446 35.5608C9.72715 35.7173 9.56279 35.8314 9.35516 35.9035C9.16064 35.9717 8.92766 36.0034 8.7021 35.9994C8.47611 35.9954 8.25711 35.9557 8.09057 35.8808C7.9472 35.8166 7.84229 35.7262 7.80339 35.6103L7.49128 34.6664C7.48079 34.6272 7.45894 34.6004 7.43402 34.5831C7.39861 34.5585 7.35709 34.5523 7.33217 34.5554C7.15339 34.5737 6.83866 34.5514 6.64502 34.5501V33.9467L7.26529 33.9565C7.17437 33.6351 7.12716 33.4061 7.17874 33.214C7.23076 33.0206 7.38244 32.8673 7.69017 32.6988L7.68886 32.6992Z" fill="#1A1A18"/>
<path fill-rule="evenodd" clip-rule="evenodd" d="M7.42134 31.8163C7.42134 31.8163 7.90042 33.3944 8.74318 33.3944C8.74318 33.3944 9.54748 33.4844 10.0266 31.749C10.0266 31.749 8.9412 32.6194 7.5092 31.8555L7.4209 31.8163H7.42134Z" fill="#E3000F"/>
<path d="M13.4879 21.667H11.4947C11.4027 21.667 11.3281 21.743 11.3281 21.8368V22.1581C11.3281 22.2519 11.4027 22.3279 11.4947 22.3279H13.4879C13.5799 22.3279 13.6545 22.2519 13.6545 22.1581V21.8368C13.6545 21.743 13.5799 21.667 13.4879 21.667Z" fill="#1A1A18"/>
<path fill-rule="evenodd" clip-rule="evenodd" d="M11.4944 21.6562H13.4877C13.5362 21.6562 13.5808 21.6768 13.6127 21.7093C13.6446 21.7418 13.6647 21.7873 13.6647 21.8367V22.1581C13.6647 22.2075 13.6446 22.253 13.6127 22.2855C13.5808 22.3181 13.5362 22.3386 13.4877 22.3386H11.4944C11.4459 22.3386 11.4013 22.3181 11.3694 22.2855C11.3375 22.253 11.3174 22.2075 11.3174 22.1581V21.8367C11.3174 21.7873 11.3375 21.7418 11.3694 21.7093C11.4013 21.6768 11.4459 21.6562 11.4944 21.6562ZM13.4877 21.6776H11.4944C11.4516 21.6776 11.4122 21.6955 11.3843 21.7244C11.3558 21.7534 11.3384 21.7931 11.3384 21.8367V22.1581C11.3384 22.2017 11.3558 22.2418 11.3843 22.2704C11.4127 22.2993 11.4516 22.3172 11.4944 22.3172H13.4877C13.5305 22.3172 13.5699 22.2993 13.5978 22.2704C13.6258 22.2414 13.6437 22.2017 13.6437 22.1581V21.8367C13.6437 21.7931 13.6262 21.753 13.5978 21.7244C13.5694 21.6955 13.5305 21.6776 13.4877 21.6776Z" fill="#1A1A18"/>
<path d="M5.73207 21.8013H3.73881C3.64683 21.8013 3.57227 21.8773 3.57227 21.9711V22.2924C3.57227 22.3862 3.64683 22.4622 3.73881 22.4622H5.73207C5.82405 22.4622 5.89861 22.3862 5.89861 22.2924V21.9711C5.89861 21.8773 5.82405 21.8013 5.73207 21.8013Z" fill="#1A1A18"/>
<path fill-rule="evenodd" clip-rule="evenodd" d="M3.73856 21.791H5.73182C5.78034 21.791 5.82493 21.8115 5.85684 21.844C5.88875 21.8766 5.90885 21.922 5.90885 21.9715V22.2928C5.90885 22.3423 5.88875 22.3878 5.85684 22.4203C5.82493 22.4528 5.78034 22.4733 5.73182 22.4733H3.73856C3.69004 22.4733 3.64545 22.4528 3.61354 22.4203C3.58163 22.3878 3.56152 22.3423 3.56152 22.2928V21.9715C3.56152 21.922 3.58163 21.8766 3.61354 21.844C3.64545 21.8115 3.69004 21.791 3.73856 21.791ZM5.73182 21.8124H3.73856C3.69572 21.8124 3.65638 21.8302 3.6284 21.8592C3.59999 21.8882 3.5825 21.9278 3.5825 21.9715V22.2928C3.5825 22.3365 3.59999 22.3766 3.6284 22.4051C3.65682 22.4337 3.69572 22.4519 3.73856 22.4519H5.73182C5.77466 22.4519 5.814 22.4341 5.84197 22.4051C5.87039 22.3762 5.88787 22.3365 5.88787 22.2928V21.9715C5.88787 21.9278 5.87039 21.8877 5.84197 21.8592C5.81356 21.8302 5.77466 21.8124 5.73182 21.8124Z" fill="#1A1A18"/>
<path fill-rule="evenodd" clip-rule="evenodd" d="M5.7415 6.06464C5.7415 6.06464 6.48504 5.586 7.07428 5.52539L7.54812 5.71079L9.4238 5.70187L9.94878 5.52628C9.94878 5.52628 10.6307 5.55926 11.2816 6.06553L11.1229 6.91986H11.6103V7.51749L10.9463 7.52061L10.952 8.1891C10.952 8.1891 11.1557 8.35221 11.073 8.76178L12.4098 9.74981L11.9062 10.187C11.9062 10.187 11.8642 10.2592 11.8603 10.3777C11.8564 10.4967 11.8078 11.6572 11.4844 12.4162C11.4844 12.4162 10.9651 11.5926 10.7435 11.3355C9.70574 10.3492 7.98218 9.82468 6.39063 11.2334C6.39063 11.2334 5.76817 11.8801 5.56141 12.4153C5.56141 12.4153 5.19423 11.7192 5.14221 10.3274L5.0985 10.1857L4.62598 9.78189L6.0488 8.91286C6.0488 8.91286 5.82849 8.57594 6.09295 8.13785L6.1148 7.57632L5.30001 7.56919V6.94749L5.81188 6.95284L5.74063 6.06419L5.7415 6.06464Z" fill="#1A1A18"/>
<path fill-rule="evenodd" clip-rule="evenodd" d="M5.73578 6.05572C5.73578 6.05572 6.4815 5.57575 7.07336 5.51514H7.07599L7.55026 5.70053L9.42244 5.69162L9.94742 5.51603H9.94917C9.94917 5.51603 10.6341 5.54945 11.2881 6.05751L11.2933 6.06152L11.1359 6.90961H11.6216V7.52863L10.9576 7.53175L10.9628 8.18464C10.9908 8.2096 11.1591 8.3794 11.0852 8.75776L12.4272 9.7498L11.9149 10.1946C11.9092 10.2053 11.8747 10.2726 11.8712 10.3791C11.8686 10.4566 11.8471 10.9745 11.7435 11.5365C11.6876 11.8395 11.608 12.155 11.4944 12.4215L11.4865 12.4398L11.476 12.4233C11.4747 12.4211 10.9576 11.6011 10.7364 11.3444C10.1686 10.8047 9.3949 10.404 8.55039 10.384C7.85624 10.3675 7.11358 10.609 6.39801 11.2423C6.38796 11.2526 5.77556 11.8908 5.57142 12.4206L5.56312 12.442L5.55263 12.4215C5.55263 12.4215 5.18457 11.7241 5.13256 10.3305L5.09015 10.1932L4.60889 9.78189L6.03521 8.91062C6.00242 8.85313 5.84287 8.53671 6.08329 8.13607L6.10471 7.5879L5.29036 7.58077V6.93768L5.80135 6.94303L5.73053 6.05929L5.73578 6.05572ZM7.07293 5.53653C6.51473 5.59491 5.81971 6.02765 5.75239 6.07043L5.82408 6.96442L5.31134 6.95908V7.55983L6.12656 7.56696C6.11913 7.75859 6.11083 7.95067 6.10383 8.1423L6.10252 8.14453C5.84156 8.57682 6.05794 8.9075 6.05837 8.90839L6.06406 8.91775L4.64429 9.78456L5.10808 10.1808C5.12294 10.2293 5.1378 10.2779 5.1531 10.3265V10.3278C5.19987 11.581 5.50105 12.2664 5.56049 12.3908C5.77556 11.8578 6.3814 11.2289 6.38315 11.2272H6.38359C7.10396 10.589 7.85144 10.3465 8.55039 10.363C9.40059 10.3831 10.1791 10.7864 10.7504 11.3292L10.7513 11.3301C10.955 11.5663 11.4078 12.2776 11.4826 12.3952C11.5914 12.1341 11.6684 11.8275 11.7226 11.5329C11.8257 10.9722 11.8471 10.4562 11.8498 10.3791C11.8537 10.2574 11.897 10.1834 11.8974 10.183L11.8983 10.1816L12.3931 9.75203L11.0616 8.76757L11.0629 8.76088C11.1443 8.35711 10.9458 8.1989 10.9454 8.19846L10.9414 8.19534C10.9397 7.96716 10.9379 7.73943 10.9357 7.51125L11.5997 7.50813V6.93189H11.1102L11.2697 6.07132C10.642 5.586 9.98982 5.54054 9.94961 5.53831L9.42506 5.7139C8.79911 5.7139 8.17184 5.7188 7.54545 5.72281L7.07249 5.53787L7.07293 5.53653Z" fill="#1A1A18"/>
<path fill-rule="evenodd" clip-rule="evenodd" d="M7.34149 7.56306C7.81183 7.56306 8.19518 7.23773 8.19518 6.83841C8.19518 6.4391 7.81183 6.11377 7.34149 6.11377C6.87115 6.11377 6.48779 6.4391 6.48779 6.83841C6.48779 7.23773 6.87115 7.56306 7.34149 7.56306Z" fill="#B1B2B3"/>
<path d="M9.47039 7.54939C9.94187 7.54939 10.3241 7.22495 10.3241 6.82474C10.3241 6.42453 9.94187 6.1001 9.47039 6.1001C8.99891 6.1001 8.6167 6.42453 8.6167 6.82474C8.6167 7.22495 8.99891 7.54939 9.47039 7.54939Z" fill="#B1B2B3"/>
<path opacity="0.5" d="M8.54234 17.4665C9.10749 17.4665 9.56564 16.9994 9.56564 16.4232C9.56564 15.847 9.10749 15.3799 8.54234 15.3799C7.97719 15.3799 7.51904 15.847 7.51904 16.4232C7.51904 16.9994 7.97719 17.4665 8.54234 17.4665Z" fill="white"/>
<path d="M9.40373 16.7294C9.60633 16.2307 9.37406 15.659 8.88494 15.4524C8.39582 15.2459 7.83507 15.4827 7.63247 15.9813C7.42987 16.48 7.66214 17.0517 8.15126 17.2583C8.64038 17.4648 9.20113 17.228 9.40373 16.7294Z" fill="#1A1A18"/>
<path fill-rule="evenodd" clip-rule="evenodd" d="M8.51748 15.3677C8.785 15.3677 9.02717 15.4782 9.20245 15.6569C9.37773 15.8356 9.48614 16.0825 9.48614 16.3553C9.48614 16.628 9.37773 16.8749 9.20245 17.0536C9.02717 17.2323 8.785 17.3428 8.51748 17.3428C8.24997 17.3428 8.0078 17.2323 7.83252 17.0536C7.65723 16.8749 7.54883 16.628 7.54883 16.3553C7.54883 16.0825 7.65723 15.8356 7.83252 15.6569C8.0078 15.4782 8.24997 15.3677 8.51748 15.3677ZM9.18802 15.6721C9.01667 15.4974 8.77932 15.3891 8.51748 15.3891C8.25565 15.3891 8.01873 15.4974 7.84694 15.6721C7.67516 15.8468 7.56937 16.0888 7.56937 16.3557C7.56937 16.6227 7.67559 16.8642 7.84694 17.0393C8.01829 17.2145 8.25565 17.3223 8.51748 17.3223C8.77932 17.3223 9.01624 17.214 9.18802 17.0393C9.35938 16.8646 9.4656 16.6227 9.4656 16.3557C9.4656 16.0888 9.35938 15.8472 9.18802 15.6721Z" fill="#1A1A18"/>
<path fill-rule="evenodd" clip-rule="evenodd" d="M0.589793 11.2307C0.589793 11.2307 0.630882 11.5788 0.812723 11.7107L3.05208 10.7419C3.05208 10.7419 3.26146 10.8684 3.27807 10.8684C3.29469 10.8684 3.35807 10.86 3.35807 10.86L3.85376 10.6211L3.80961 10.3737L3.51193 9.73912L3.42101 9.64062L2.94543 9.85187L2.91701 9.88485L2.82872 10.2048C2.82872 10.2048 0.977954 10.9237 0.589355 11.2298L0.589793 11.2307Z" fill="#1A1A18"/>
<path fill-rule="evenodd" clip-rule="evenodd" d="M0.600418 11.2355C0.606975 11.2814 0.65331 11.5773 0.813732 11.699L3.05222 10.7306L3.05659 10.7333C3.05659 10.7333 3.26335 10.858 3.27734 10.858C3.29176 10.858 3.34421 10.8514 3.35427 10.85L3.84122 10.6156L3.79882 10.3781L3.50245 9.74611L3.41765 9.65431L2.95081 9.86199L2.92545 9.8914L2.83672 10.2145L2.83191 10.2163C2.82667 10.2185 0.996885 10.9289 0.599981 11.236L0.600418 11.2355ZM0.806301 11.7195C0.620963 11.5849 0.578999 11.2328 0.578999 11.2319L0.578125 11.2262L0.582933 11.2226C0.961479 10.924 2.71739 10.2381 2.82011 10.198L2.90753 9.8807L2.93944 9.84416C3.10074 9.77196 3.26204 9.70021 3.42377 9.62891L3.52081 9.73364C3.62004 9.94622 3.72057 10.1584 3.8198 10.3709L3.8657 10.6276C3.69741 10.7083 3.52912 10.7894 3.36126 10.8705H3.35951C3.35951 10.8705 3.29526 10.8794 3.27821 10.8794C3.26116 10.8794 3.08238 10.7729 3.05178 10.7542L0.811984 11.7231L0.807175 11.7195H0.806301Z" fill="#1A1A18"/>
<path fill-rule="evenodd" clip-rule="evenodd" d="M16.3852 11.2251C16.3852 11.2251 16.3442 11.5731 16.1623 11.705L13.923 10.7362C13.923 10.7362 13.7136 10.8627 13.697 10.8627C13.6804 10.8627 13.617 10.8543 13.617 10.8543L13.1104 10.582L13.1654 10.3685L13.4631 9.73389L13.5567 9.62158L14.0292 9.84709L14.0576 9.88007L14.1459 10.2C14.1459 10.2 15.9966 10.9189 16.3852 11.2251Z" fill="#1A1A18"/>
<path fill-rule="evenodd" clip-rule="evenodd" d="M16.3953 11.2262C16.3953 11.2262 16.3534 11.5792 16.168 11.7138L16.1632 11.7173L13.9234 10.7485C13.8928 10.7668 13.7145 10.8737 13.697 10.8737C13.6795 10.8737 13.6161 10.8652 13.6157 10.8652H13.6139C13.443 10.7717 13.2699 10.6799 13.0981 10.588C13.1891 10.236 13.2883 10.088 13.454 9.72881C13.4872 9.68915 13.5204 9.64904 13.5536 9.60938C13.714 9.68603 13.8753 9.76179 14.0353 9.83934L14.0668 9.87543L14.1542 10.1927C14.2565 10.2329 16.0124 10.9187 16.3914 11.2173L16.3962 11.2209L16.3953 11.2267V11.2262ZM16.1606 11.6928C16.321 11.5712 16.3678 11.2757 16.3739 11.2294C15.977 10.9223 14.1472 10.2115 14.142 10.2097L14.1372 10.2079L14.0484 9.88479L14.0227 9.85538L13.5593 9.63433L13.4714 9.73951L13.1751 10.3719L13.1222 10.5765L13.6201 10.8439C13.6306 10.8452 13.6821 10.8519 13.6966 10.8519C13.7101 10.8519 13.9164 10.7275 13.9173 10.7271L13.9217 10.7244L16.1602 11.6928H16.1606Z" fill="#1A1A18"/>
<path fill-rule="evenodd" clip-rule="evenodd" d="M3.80938 10.3744L3.58252 9.89038C3.58252 9.89038 5.32968 9.06724 6.22184 8.88764C6.22184 8.88764 7.26437 8.79227 8.43367 8.81767V8.81455C9.64536 8.78068 10.7526 8.88185 10.7526 8.88185C11.6452 9.06145 13.3919 9.88458 13.3919 9.88458L13.165 10.3686L11.452 9.62566C11.0332 9.51335 10.6918 9.46566 10.6918 9.46566C10.1612 9.41352 8.91406 9.42333 8.54076 9.42778V9.43491C8.54076 9.43491 6.91031 9.40951 6.28217 9.47146C6.28217 9.47146 5.94078 9.51914 5.52202 9.63145L3.80895 10.3744H3.80938Z" fill="#6F6F6E"/>
<path fill-rule="evenodd" clip-rule="evenodd" d="M3.76278 10.3969L3.51318 9.86438L3.56127 9.8421C3.56651 9.83987 5.31411 9.01629 6.21239 8.83535H6.21808C6.22114 8.83446 7.23219 8.74221 8.38225 8.7636L8.43296 8.76182C9.64728 8.72795 10.7545 8.82911 10.7576 8.82956H10.7632C11.6615 9.01094 13.4091 9.83452 13.4144 9.83675L13.4625 9.85903L13.1914 10.4371L11.4364 9.67587C11.0299 9.56713 10.6999 9.51989 10.6867 9.5181C10.4874 9.4985 10.1862 9.4878 9.86933 9.48245C9.37976 9.47398 8.85128 9.47755 8.59426 9.48022V9.48869L8.54136 9.4878C8.53656 9.4878 6.91659 9.4624 6.2902 9.5239C6.27578 9.52613 5.94619 9.57292 5.54054 9.68166L3.78551 10.4428L3.76409 10.3969H3.76278ZM3.65219 9.91563L3.8349 10.3056L5.50557 9.58094L5.50907 9.58005C5.93045 9.46685 6.27447 9.41872 6.27578 9.41872H6.27796C6.84185 9.36301 8.20478 9.37728 8.48935 9.38129V9.37549H8.54093C8.77347 9.37237 9.34391 9.36747 9.87021 9.37638C10.1911 9.38218 10.4957 9.39287 10.6972 9.41293H10.6994C10.6994 9.41293 11.0443 9.46151 11.4661 9.57426L11.4696 9.57515L13.1403 10.2998L13.323 9.90984C13.0376 9.77748 11.5452 9.09517 10.744 8.9334C10.6701 8.92671 9.63329 8.83669 8.48585 8.86521V8.87056L8.43296 8.86922C7.30781 8.84516 6.30331 8.93206 6.23119 8.93875C5.42995 9.10052 3.93763 9.78283 3.65262 9.91519L3.65219 9.91563Z" fill="#1A1A18"/>
<path d="M10.0184 8.52539H6.96516C6.85604 8.52539 6.76758 8.61558 6.76758 8.72683V9.60433C6.76758 9.71559 6.85604 9.80577 6.96516 9.80577H10.0184C10.1276 9.80577 10.216 9.71559 10.216 9.60433V8.72683C10.216 8.61558 10.1276 8.52539 10.0184 8.52539Z" fill="#6F6F6E"/>
<path fill-rule="evenodd" clip-rule="evenodd" d="M6.96488 8.47217H10.0177C10.0863 8.47217 10.1489 8.50069 10.1943 8.54704C10.2398 8.59339 10.2677 8.65667 10.2677 8.72709V9.60415C10.2677 9.67411 10.2398 9.73784 10.1943 9.78419C10.1489 9.83054 10.0868 9.85906 10.0177 9.85906H6.96488C6.89625 9.85906 6.83374 9.83054 6.78828 9.78419C6.74282 9.73784 6.71484 9.67456 6.71484 9.60415V8.72709C6.71484 8.65712 6.74282 8.59339 6.78828 8.54704C6.83374 8.50069 6.89581 8.47217 6.96488 8.47217ZM10.0177 8.57823H6.96488C6.92466 8.57823 6.88838 8.59517 6.86215 8.62191C6.83593 8.64865 6.81932 8.68608 6.81932 8.72664V9.6037C6.81932 9.6447 6.83593 9.68169 6.86215 9.70843C6.88838 9.73517 6.9251 9.7521 6.96488 9.7521H10.0177C10.0579 9.7521 10.0942 9.73517 10.1204 9.70843C10.1467 9.68169 10.1633 9.64425 10.1633 9.6037V8.72664C10.1633 8.68564 10.1467 8.64865 10.1204 8.62191C10.0942 8.59517 10.0575 8.57823 10.0177 8.57823Z" fill="#1A1A18"/>
<path fill-rule="evenodd" clip-rule="evenodd" d="M7.22362 3.82926L7.20264 1.17892C7.20264 1.17892 7.24679 0.0558538 8.50263 0.0108421C8.50263 0.0108421 9.78077 -0.023028 9.79169 1.15663L9.80044 3.83015C9.80044 3.83015 9.63389 1.87994 8.51137 1.46459C8.51137 1.46459 7.49376 1.79794 7.25902 3.44421L7.22406 3.82881L7.22362 3.82926Z" fill="#1A1A18"/>
<path fill-rule="evenodd" clip-rule="evenodd" d="M7.21288 3.82921L7.19189 1.17842C7.19189 1.1753 7.23648 0.0455556 8.50194 9.82632e-05C8.50544 9.82632e-05 9.79057 -0.0337719 9.8015 1.15614L9.81024 3.86041L9.78926 3.83055C9.78882 3.82476 9.62359 1.89104 8.51025 1.47568C8.44512 1.49885 7.49482 1.85984 7.26839 3.4455L7.2426 3.82966L7.21244 3.82877L7.21288 3.82921ZM7.21288 1.17932L7.23211 3.61931L7.24828 3.44282C7.48433 1.79032 8.505 1.45563 8.50762 1.45473L8.51112 1.4534L8.51462 1.45473C9.43956 1.797 9.71844 3.16874 9.78926 3.65585L9.78139 1.15614C9.77002 -0.00926056 8.51199 0.0210443 8.50282 0.02149C7.25877 0.066056 7.21331 1.17263 7.21288 1.17932Z" fill="#1A1A18"/>
<path fill-rule="evenodd" clip-rule="evenodd" d="M8.48187 0.109375L8.48493 0.38925L8.48624 0.513143L8.4963 1.46106C8.4963 1.46106 7.66009 1.62106 7.31651 3.13006L7.30908 1.1852C7.30908 1.1852 7.43585 0.216334 8.48231 0.109821L8.48187 0.109375Z" fill="#878786"/>
<path fill-rule="evenodd" clip-rule="evenodd" d="M5.40803 23.9585C5.40803 23.9585 5.21089 25.7073 5.40803 26.636C5.60517 27.5648 6.72857 31.9287 6.72857 31.9287C6.72857 31.9287 5.98459 31.7972 5.44956 30.8105L4.91846 26.3343C4.91846 26.3343 5.03036 24.8569 5.40803 23.9589V23.9585Z" fill="#9C9D9D"/>
<path fill-rule="evenodd" clip-rule="evenodd" d="M3.64571 22.1553H5.80508C5.80508 22.1553 5.76355 22.3563 5.70629 22.3719C5.64946 22.3875 3.72177 22.4066 3.72177 22.4066C3.72177 22.4066 3.61161 22.3638 3.64571 22.1553Z" fill="#9C9D9D"/>
<path fill-rule="evenodd" clip-rule="evenodd" d="M3.64561 22.145H5.81765L5.81503 22.1575C5.81503 22.1575 5.77219 22.3647 5.70881 22.3821C5.65067 22.3977 3.72691 22.4173 3.72167 22.4173H3.71948L3.71773 22.4164C3.71773 22.4164 3.60015 22.3709 3.63555 22.1534L3.63686 22.1445H3.64561V22.145ZM5.79186 22.1659H3.65435C3.62812 22.3442 3.71074 22.3905 3.72341 22.3968C3.79335 22.3959 5.64849 22.3772 5.70356 22.3625C5.7464 22.3509 5.78225 22.2096 5.79186 22.1664V22.1659Z" fill="#1A1A18"/>
<path fill-rule="evenodd" clip-rule="evenodd" d="M3.73802 10.1091C3.73802 10.1091 5.04326 9.52487 5.40388 9.409C5.40388 9.409 5.93148 9.18438 6.71305 9.13447L6.7148 8.89649C6.7148 8.89649 6.25932 8.87732 5.69019 9.07832C5.69019 9.07832 4.70362 9.43039 3.65234 9.91794L3.73758 10.1096L3.73802 10.1091Z" fill="white"/>
<path fill-rule="evenodd" clip-rule="evenodd" d="M10.271 9.38713C10.271 9.38713 11.1697 9.28507 11.8687 9.52662L13.2347 10.0989L13.1398 10.2998L11.4779 9.58411C11.4779 9.58411 11.0303 9.42947 10.271 9.38668V9.38713Z" fill="white"/>
<path fill-rule="evenodd" clip-rule="evenodd" d="M8.49845 0.404297C8.49845 0.404297 7.96517 0.423906 7.55908 1.18955C7.55908 1.18955 8.04909 0.713585 8.50064 0.616877L8.49845 0.404297Z" fill="#1A1A18"/>
<path fill-rule="evenodd" clip-rule="evenodd" d="M8.48829 0.41588C8.41442 0.423011 7.96418 0.492534 7.59875 1.13963C7.73076 1.02109 8.12155 0.691744 8.49048 0.609297L8.48829 0.41588ZM7.55023 1.18509C7.95894 0.413652 8.49659 0.394043 8.49791 0.394043H8.5084L8.51102 0.625786L8.50271 0.627569C8.05423 0.723832 7.56772 1.19623 7.56641 1.19757L7.52051 1.24169L7.55023 1.18509Z" fill="#1A1A18"/>
<path fill-rule="evenodd" clip-rule="evenodd" d="M8.51359 1.01221C8.51359 1.01221 7.9803 1.03137 7.57422 1.79746C7.57422 1.79746 8.06423 1.3215 8.51577 1.22479L8.51359 1.01221Z" fill="#1A1A18"/>
<path fill-rule="evenodd" clip-rule="evenodd" d="M8.50391 1.0233C8.43004 1.03043 7.97981 1.09996 7.61438 1.74705C7.74639 1.62851 8.13717 1.29917 8.5061 1.21672L8.50391 1.0233ZM7.56586 1.79251C7.97456 1.02107 8.51178 1.00191 8.51353 1.00146H8.52402L8.52665 1.23321L8.51834 1.23499C8.06986 1.33081 7.58334 1.80365 7.58203 1.80499L7.53613 1.84911L7.56586 1.79251Z" fill="#1A1A18"/>
<path fill-rule="evenodd" clip-rule="evenodd" d="M12.3374 26.3579L11.123 31.5115C11.123 31.5115 11.6183 31.2735 11.8898 30.6527C11.8898 30.6527 12.2836 27.3339 12.406 26.4934L12.4401 26.271L12.3374 26.3579Z" fill="#575656"/>
<path d="M9.49256 3.87012H7.52815C7.43979 3.87012 7.36816 3.94314 7.36816 4.03323V4.21862C7.36816 4.30871 7.43979 4.38174 7.52815 4.38174H9.49256C9.58092 4.38174 9.65255 4.30871 9.65255 4.21862V4.03323C9.65255 3.94314 9.58092 3.87012 9.49256 3.87012Z" fill="#B1B2B3"/>
<path fill-rule="evenodd" clip-rule="evenodd" d="M7.52753 3.81787H9.49239C9.55052 3.81787 9.60298 3.84194 9.64144 3.88115C9.67947 3.91993 9.70351 3.97385 9.70351 4.03312V4.21897C9.70351 4.27824 9.67991 4.33172 9.64144 4.37094C9.60298 4.41015 9.55052 4.43422 9.49239 4.43422H7.52753C7.4694 4.43422 7.41694 4.41015 7.37848 4.37094C7.34001 4.33172 7.31641 4.27824 7.31641 4.21897V4.03312C7.31641 3.9743 7.34001 3.92037 7.37848 3.88115C7.41651 3.84194 7.4694 3.81787 7.52753 3.81787ZM9.49239 3.92216H7.52753C7.49781 3.92216 7.47071 3.93463 7.45104 3.95469C7.43137 3.97474 7.41913 4.00237 7.41913 4.03268V4.21852C7.41913 4.24882 7.43137 4.27646 7.45104 4.29651C7.47071 4.31657 7.49781 4.32904 7.52753 4.32904H9.49239C9.52211 4.32904 9.54921 4.31657 9.56888 4.29651C9.58855 4.27646 9.60079 4.24882 9.60079 4.21852V4.03268C9.60079 4.00237 9.58855 3.97474 9.56888 3.95469C9.54921 3.93463 9.52211 3.92216 9.49239 3.92216Z" fill="#1A1A18"/>
<path fill-rule="evenodd" clip-rule="evenodd" d="M11.4556 6.64209H12.6074C12.6122 8.22418 11.4573 8.3463 11.4556 6.64209Z" fill="#1A1A18"/>
<path fill-rule="evenodd" clip-rule="evenodd" d="M11.4558 6.63135H12.6177V6.6416C12.6194 7.22452 12.4642 7.61091 12.2662 7.78249C12.1897 7.84889 12.1062 7.88365 12.0232 7.88499C11.9397 7.88633 11.8571 7.85469 11.781 7.78873C11.5922 7.62472 11.4462 7.2477 11.4453 6.64204V6.63179H11.4554L11.4558 6.63135ZM12.5976 6.65229H11.4663C11.4685 7.24502 11.611 7.61314 11.7946 7.77268C11.8667 7.83508 11.9449 7.86538 12.0232 7.86404C12.1014 7.86271 12.1805 7.82973 12.2535 7.76644C12.4463 7.59932 12.5976 7.22229 12.5976 6.65185V6.65229Z" fill="#1A1A18"/>
<path fill-rule="evenodd" clip-rule="evenodd" d="M5.65381 34.8065H6.80562C6.81043 33.2244 5.65556 33.1023 5.65381 34.8065Z" fill="#1A1A18"/>
<path fill-rule="evenodd" clip-rule="evenodd" d="M5.66415 34.7958H6.79542C6.79542 34.2253 6.64373 33.8483 6.4514 33.6812C6.3784 33.6179 6.29929 33.5849 6.22104 33.5836C6.1428 33.5822 6.06455 33.6125 5.99243 33.6749C5.80884 33.8345 5.66634 34.2026 5.66415 34.7953V34.7958ZM6.80591 34.8167H5.64404V34.8065C5.64448 34.2008 5.79092 33.8238 5.97975 33.6598C6.05581 33.5938 6.13842 33.5622 6.22191 33.5635C6.30497 33.5649 6.38846 33.5992 6.46495 33.666C6.66253 33.8376 6.81815 34.224 6.8164 34.8069V34.8172H6.80634L6.80591 34.8167Z" fill="#1A1A18"/>
<path fill-rule="evenodd" clip-rule="evenodd" d="M10.6611 34.7924H11.8129C11.8177 33.2103 10.6629 33.0882 10.6611 34.7924Z" fill="#1A1A18"/>
<path fill-rule="evenodd" clip-rule="evenodd" d="M10.6714 34.7816H11.8027C11.8027 34.2112 11.651 33.8342 11.4587 33.667C11.3857 33.6038 11.3066 33.5708 11.2283 33.5694C11.1501 33.5681 11.0718 33.5984 10.9997 33.6608C10.8161 33.8203 10.6736 34.1885 10.6714 34.7812V34.7816ZM11.8132 34.8026H10.6509V34.7923C10.6513 34.1867 10.7978 33.8097 10.9866 33.6457C11.0626 33.5797 11.1453 33.5476 11.2288 33.5494C11.3118 33.5507 11.3953 33.585 11.4718 33.6519C11.6694 33.8235 11.825 34.2099 11.8232 34.7928V34.803H11.8132V34.8026Z" fill="#1A1A18"/>
<path d="M12.5613 6.37158H11.5039V6.63898H12.5613V6.37158Z" fill="#EF7C00"/>
<path fill-rule="evenodd" clip-rule="evenodd" d="M11.5554 6.58722H12.5105V6.42411H11.5554V6.58722ZM12.5617 6.6915H11.4531V6.31982H12.6128V6.6915H12.5617Z" fill="#1A1A18"/>
<path d="M6.76003 34.8091H5.70264V35.0765H6.76003V34.8091Z" fill="#EF7C00"/>
<path fill-rule="evenodd" clip-rule="evenodd" d="M5.70251 34.7568H6.81104V35.1285H5.65137V34.7568H5.70251ZM6.70876 34.8611H5.75365V35.0242H6.70876V34.8611Z" fill="#1A1A18"/>
<path d="M11.7674 34.7949H10.71V35.0623H11.7674V34.7949Z" fill="#EF7C00"/>
<path fill-rule="evenodd" clip-rule="evenodd" d="M10.7098 34.7432H11.8184V35.1148H10.6587V34.7432H10.7098ZM11.7161 34.8474H10.761V35.0106H11.7161V34.8474Z" fill="#1A1A18"/>
<path fill-rule="evenodd" clip-rule="evenodd" d="M4.34814 6.65137H5.49995C5.50476 8.23346 4.34989 8.35557 4.34814 6.65137Z" fill="#1A1A18"/>
<path fill-rule="evenodd" clip-rule="evenodd" d="M4.34789 6.64111H5.50976V6.65136C5.5115 7.23429 5.35633 7.62067 5.15831 7.79225C5.08182 7.85866 4.99833 7.89342 4.91527 7.89476C4.83178 7.89609 4.74917 7.86445 4.67311 7.79849C4.48427 7.63449 4.33828 7.25746 4.3374 6.65181V6.64156H4.34746L4.34789 6.64111ZM5.48965 6.66206H4.35838C4.36057 7.25479 4.50307 7.6229 4.68666 7.78245C4.75879 7.84484 4.83703 7.87515 4.91527 7.87381C4.99352 7.87247 5.07264 7.83949 5.14564 7.77621C5.33841 7.60909 5.48965 7.23206 5.48965 6.66161V6.66206Z" fill="#1A1A18"/>
<path d="M5.45436 6.38135H4.39697V6.64874H5.45436V6.38135Z" fill="#EF7C00"/>
<path fill-rule="evenodd" clip-rule="evenodd" d="M4.44799 6.5965H5.40309V6.43339H4.44799V6.5965ZM5.45424 6.70078H4.3457V6.3291H5.50538V6.70078H5.45424Z" fill="#1A1A18"/>
<path d="M12.206 10.0152L12.5054 9.3092C12.5255 9.26174 12.5797 9.23951 12.6267 9.2602L13.4368 9.61726C13.4833 9.63777 13.5051 9.69303 13.4848 9.74089L13.1854 10.4469C13.1653 10.4944 13.1111 10.5166 13.0642 10.4959L12.2541 10.1389C12.2076 10.1184 12.1857 10.0631 12.206 10.0152Z" fill="#575656"/>
<path fill-rule="evenodd" clip-rule="evenodd" d="M12.6462 9.21184L13.4562 9.56882C13.4925 9.58486 13.5187 9.61427 13.5323 9.64904C13.5441 9.67979 13.5458 9.71499 13.5349 9.74886V9.7502L13.2311 10.4668C13.2154 10.5038 13.1865 10.5306 13.1524 10.5444C13.1183 10.5582 13.079 10.5586 13.0431 10.543L12.2331 10.1856C12.1969 10.1696 12.1706 10.1402 12.1571 10.1054C12.1435 10.0706 12.1431 10.0305 12.1588 9.99398L12.4583 9.28805C12.474 9.25106 12.5028 9.22432 12.5369 9.21051C12.5706 9.19669 12.6099 9.19625 12.6462 9.21229V9.21184ZM13.416 9.66419L12.606 9.30721C12.596 9.30276 12.5846 9.3032 12.5745 9.30721C12.5649 9.31123 12.5566 9.3188 12.5518 9.32905L12.2524 10.035C12.248 10.0457 12.248 10.0573 12.2524 10.0671C12.2563 10.0773 12.2637 10.0858 12.2742 10.0902L13.0842 10.4472C13.0947 10.4517 13.1061 10.4517 13.1157 10.4472C13.1253 10.4432 13.134 10.4356 13.1384 10.4249L13.4378 9.71901C13.4422 9.70876 13.4418 9.69717 13.4378 9.68692C13.4339 9.67711 13.4265 9.66865 13.4169 9.66419H13.4164H13.416Z" fill="#1A1A18"/>
<path d="M4.35479 9.28891L3.54511 9.64579C3.49835 9.6664 3.47684 9.72175 3.49705 9.76942L3.79627 10.4751C3.81648 10.5227 3.87077 10.5447 3.91753 10.5241L4.72721 10.1672C4.77396 10.1466 4.79548 10.0912 4.77527 10.0435L4.47605 9.3379C4.45583 9.29023 4.40154 9.2683 4.35479 9.28891Z" fill="#575656"/>
<path fill-rule="evenodd" clip-rule="evenodd" d="M4.37474 9.33745L3.56476 9.69442C3.55471 9.69932 3.54684 9.70734 3.54334 9.71759C3.53941 9.72784 3.53897 9.73943 3.54334 9.74968L3.84277 10.4565C3.84714 10.4667 3.85545 10.4743 3.86506 10.4779C3.87512 10.4819 3.88648 10.4819 3.89654 10.4779L4.70652 10.1209C4.71657 10.116 4.72444 10.108 4.72794 10.0977C4.73187 10.0879 4.73187 10.0764 4.7275 10.0657L4.42807 9.35973C4.4237 9.34948 4.4154 9.34146 4.40534 9.33745C4.39529 9.33344 4.38392 9.33344 4.37387 9.33745H4.37474ZM3.52455 9.59905L4.33453 9.24207C4.37081 9.22603 4.41015 9.22648 4.44381 9.24029C4.4779 9.25411 4.50675 9.28129 4.52249 9.31828L4.82192 10.0242C4.83765 10.0608 4.83678 10.1009 4.82323 10.1356C4.80968 10.1704 4.78301 10.2002 4.74673 10.2158L3.9267 10.5773H3.92539C3.8926 10.5884 3.85807 10.5866 3.82747 10.5746C3.79337 10.5608 3.76453 10.5336 3.74879 10.4966L3.44936 9.79068C3.43363 9.75369 3.43406 9.71358 3.44761 9.67927C3.46116 9.64451 3.48783 9.61509 3.52411 9.59905H3.52455Z" fill="#1A1A18"/>
<path fill-rule="evenodd" clip-rule="evenodd" d="M12.8506 9.35854C12.8506 9.35854 13.418 8.65974 13.7427 8.52738C14.0675 8.39502 16.0695 8.39502 16.0695 8.39502C16.0695 8.39502 16.2212 8.41151 16.2697 8.52203C16.2697 8.52203 16.7676 8.60493 16.8218 8.715L16.9245 9.00201L14.7223 8.80324C14.7223 8.80324 14.7494 8.66242 14.8063 8.6379C14.8631 8.61295 14.9632 8.56081 14.9632 8.56081C14.9632 8.56081 14.0378 8.59378 13.8866 8.66554C13.8866 8.66554 13.6199 8.78497 13.2095 9.51675L12.851 9.35898L12.8506 9.35854Z" fill="#575656"/>
<path fill-rule="evenodd" clip-rule="evenodd" d="M12.8113 9.32497C12.8113 9.32497 13.387 8.61592 13.7236 8.47866C14.0575 8.34229 16.0635 8.34229 16.0691 8.34229H16.0748C16.0748 8.34229 16.2322 8.35967 16.3026 8.4742C16.4075 8.49336 16.8096 8.57403 16.8669 8.69079L16.8686 8.69391C16.9128 8.81558 16.9561 8.93769 16.9998 9.0598L14.6616 8.849L14.6721 8.7924C14.6721 8.7924 14.6935 8.68188 14.7451 8.62082C14.4649 8.63508 14.0051 8.66494 13.9076 8.71129C13.9067 8.71129 13.6558 8.82404 13.2532 9.54111L13.2305 9.58122L12.7676 9.37711L12.8109 9.32363L12.8113 9.32497ZM13.7616 8.57492C13.5015 8.68099 13.0714 9.17433 12.9337 9.33834L13.1872 9.4502C13.5933 8.73937 13.8639 8.61815 13.8647 8.6177C14.0256 8.5415 14.9584 8.50852 14.961 8.50807L15.1866 8.4996L14.9864 8.60612C14.9864 8.60612 14.8832 8.66004 14.826 8.685C14.8094 8.69213 14.7958 8.72555 14.7862 8.7563L16.849 8.94214L16.7751 8.73536C16.7266 8.64979 16.2628 8.57269 16.2615 8.57225L16.2344 8.56779L16.223 8.54239C16.1898 8.46707 16.0862 8.44924 16.067 8.44612C15.9905 8.44612 14.0711 8.44835 13.7616 8.57447V8.57492Z" fill="#1A1A18"/>
<path fill-rule="evenodd" clip-rule="evenodd" d="M16.8486 8.94382L14.7788 8.76466C14.7788 8.76466 14.7871 8.69692 14.8072 8.68756C14.8273 8.67776 14.986 8.60779 14.986 8.60779L14.9615 8.51554L15.6093 8.50439C15.6093 8.50439 15.6526 8.73346 15.685 8.74149L16.8486 8.94426V8.94382Z" fill="white"/>
<path fill-rule="evenodd" clip-rule="evenodd" d="M4.14963 9.38588C4.14963 9.38588 3.58225 8.68709 3.25747 8.55472C2.93269 8.42236 0.930689 8.42236 0.930689 8.42236C0.930689 8.42236 0.779008 8.43885 0.730488 8.54938C0.730488 8.54938 0.232609 8.63227 0.178407 8.74235L0.0756836 9.02935L2.27789 8.83059C2.27789 8.83059 2.25079 8.68976 2.19396 8.66525C2.13714 8.64029 2.03704 8.58815 2.03704 8.58815C2.03704 8.58815 2.96242 8.62113 3.11366 8.69288C3.11366 8.69288 3.3803 8.81232 3.79076 9.54409L4.1492 9.38633L4.14963 9.38588Z" fill="#575656"/>
<path fill-rule="evenodd" clip-rule="evenodd" d="M4.06608 9.36572C3.92839 9.20216 3.49826 8.70882 3.23818 8.60231C2.92914 8.47618 1.01062 8.47396 0.932812 8.47396C0.913579 8.47663 0.809545 8.4949 0.776324 8.57022L0.764959 8.59562L0.737857 8.60008C0.737857 8.60008 0.273199 8.67762 0.224242 8.76319L0.150369 8.96998L2.21313 8.78414C2.20352 8.75339 2.18997 8.72041 2.17336 8.71283C2.11566 8.68787 2.01293 8.63395 2.01293 8.63395L1.81273 8.52744L2.03829 8.5359C2.04091 8.5359 2.97372 8.56933 3.13458 8.64554C3.13546 8.64554 3.40603 8.7672 3.81212 9.47803L4.06565 9.36617L4.06608 9.36572ZM3.27621 8.50604C3.61279 8.64331 4.18716 9.35057 4.18848 9.35235L4.23175 9.40583L3.76884 9.60994L3.74611 9.56983C3.34396 8.85232 3.09262 8.74002 3.09174 8.74002C2.99427 8.69367 2.53442 8.66381 2.25422 8.64955C2.3058 8.71016 2.32722 8.82068 2.32722 8.82113L2.33771 8.87772L0 9.08763C0.0437119 8.96552 0.0869867 8.84341 0.131136 8.72174L0.132884 8.71862C0.190147 8.60186 0.592296 8.5212 0.697205 8.50203C0.767144 8.3875 0.924507 8.37056 0.924944 8.37012H0.928441H0.930627C0.936309 8.37012 2.94225 8.37012 3.27621 8.50649V8.50604Z" fill="#1A1A18"/>
<path fill-rule="evenodd" clip-rule="evenodd" d="M1.09303 8.47244C1.09303 8.47244 0.978066 8.52681 0.996425 8.73538C0.996425 8.73538 1.00998 8.79867 1.0668 8.79867L2.21118 8.7902L0.144043 8.97649L0.225347 8.76836C0.225347 8.76836 0.260317 8.67477 0.766501 8.59455C0.766501 8.59455 0.788357 8.48136 0.955773 8.47021L1.09303 8.47244Z" fill="white"/>
<path fill-rule="evenodd" clip-rule="evenodd" d="M5.99445 26.708L11.3269 26.7281L11.3522 26.8087L11.3024 27.2285L11.2412 27.2887L6.07182 27.2785L6.01587 27.2303L5.95117 26.819L5.99445 26.708Z" fill="#1A1A18"/>
<path fill-rule="evenodd" clip-rule="evenodd" d="M10.9028 19.1666C10.9028 19.1666 11.7972 18.5199 11.9917 18.101C12.1867 17.6816 12.2811 14.3423 12.2811 14.3423L11.9939 14.6605C11.9939 14.6605 11.6757 16.3781 11.1319 17.5247C11.1319 17.5247 10.968 18.4691 10.9557 18.9223L10.9028 19.167V19.1666Z" fill="#1A1A18"/>
<path fill-rule="evenodd" clip-rule="evenodd" d="M10.9187 19.1427C11.056 19.0416 11.807 18.4756 11.9827 18.0968C12.1667 17.701 12.2607 14.6893 12.2703 14.3697L12.0037 14.6652C11.9897 14.7409 11.6745 16.4046 11.1421 17.5277C11.1355 17.5655 10.9782 18.4787 10.9659 18.9221C10.9646 18.9609 10.9288 19.0946 10.9183 19.1423L10.9187 19.1427ZM12.0015 18.1057C11.8056 18.5273 10.9117 19.1735 10.9091 19.1753L10.8877 19.1909L10.9463 18.9208C10.9589 18.4662 11.1224 17.5254 11.1229 17.5228V17.5214L11.1237 17.5201C11.6666 16.3747 11.984 14.6634 11.9849 14.6585V14.6554L12.293 14.3145L12.2922 14.3421C12.2922 14.3514 12.1973 17.6841 12.0019 18.1052L12.0015 18.1057Z" fill="#1A1A18"/>
<path fill-rule="evenodd" clip-rule="evenodd" d="M6.2132 19.1612C6.2132 19.1612 5.31885 18.5145 5.12433 18.0956C4.92938 17.6762 4.83496 14.3369 4.83496 14.3369L5.12215 14.6551C5.12215 14.6551 5.44037 16.3727 5.98415 17.5194C5.98415 17.5194 6.14807 18.4637 6.16031 18.917L6.2132 19.1616V19.1612Z" fill="#1A1A18"/>
<path fill-rule="evenodd" clip-rule="evenodd" d="M6.2077 19.1699C6.20508 19.1682 5.31117 18.522 5.11534 18.1004C4.91951 17.6792 4.82509 14.347 4.82509 14.3372L4.82422 14.3096L5.13195 14.6505V14.6536C5.13326 14.6585 5.45061 16.3699 5.99351 17.5152V17.5165L5.99439 17.5179C5.99482 17.5206 6.15787 18.4613 6.17098 18.9159L6.22956 19.186L6.20814 19.1704L6.2077 19.1699ZM5.1337 18.0914C5.30986 18.4703 6.06083 19.0362 6.19765 19.1374C6.18759 19.0902 6.15175 18.956 6.15 18.9173C6.13776 18.4738 5.9804 17.5607 5.97384 17.5228C5.44187 16.3997 5.12671 14.7361 5.11228 14.6603L4.84564 14.3648C4.85525 14.6844 4.94967 17.6961 5.13326 18.0919L5.1337 18.0914Z" fill="#1A1A18"/>
<path fill-rule="evenodd" clip-rule="evenodd" d="M4.93647 14.6504C4.93647 14.6504 5.28267 17.0779 5.54232 17.795C5.54232 17.795 5.7399 18.0802 6.04544 18.2585C6.04544 18.2585 6.13724 18.6555 6.14292 18.992C6.14292 18.992 5.21229 18.2968 5.17427 17.9826C5.17427 17.9826 5.08772 17.5467 5.07679 17.2325L4.93604 14.6508L4.93647 14.6504Z" fill="#6F6F6E"/>
<path fill-rule="evenodd" clip-rule="evenodd" d="M9.79968 3.82998L9.79443 2.1543C9.79443 2.1543 10.2066 2.27017 10.2281 2.35262C10.2495 2.43506 10.2438 3.95788 10.2438 3.95788L9.79968 3.82953V3.82998Z" fill="#575656"/>
<path fill-rule="evenodd" clip-rule="evenodd" d="M9.74885 3.83034L9.74316 2.08691L9.80786 2.10474C9.80786 2.10474 10.2485 2.22863 10.2778 2.34005C10.3014 2.42963 10.2948 3.95423 10.2948 3.95869V4.02732L9.74885 3.86956V3.83034ZM9.84545 2.22373L9.8507 3.79067L10.1934 3.88961C10.1943 3.5928 10.1965 2.43275 10.179 2.36634C10.1685 2.32623 9.9556 2.25716 9.84545 2.22373Z" fill="#1A1A18"/>
<path fill-rule="evenodd" clip-rule="evenodd" d="M7.21237 3.78457L7.21762 2.10889C7.21762 2.10889 6.80542 2.22476 6.784 2.30721C6.76258 2.38965 6.76826 3.91247 6.76826 3.91247L7.21237 3.78412V3.78457Z" fill="#575656"/>
<path fill-rule="evenodd" clip-rule="evenodd" d="M7.16175 3.74575L7.16699 2.17881C7.05684 2.21223 6.84396 2.28131 6.83347 2.32142C6.81599 2.38782 6.81817 3.54788 6.81904 3.84469L7.16175 3.74575ZM7.26884 2.10973L7.26316 3.82463L6.71763 3.9824V3.91377C6.71763 3.90931 6.71108 2.38471 6.73468 2.29513C6.76397 2.18371 7.20327 2.06026 7.20458 2.05982L7.26928 2.04199V2.11018L7.26884 2.10973Z" fill="#1A1A18"/>
<path fill-rule="evenodd" clip-rule="evenodd" d="M9.84424 2.21582L10.0256 2.28757L10.0388 3.47615L9.84686 3.10402L9.84424 2.21582Z" fill="white"/>
<path fill-rule="evenodd" clip-rule="evenodd" d="M6.9802 2.24605L6.98544 3.79338L6.81497 3.85667C6.81497 3.85667 6.81366 2.49963 6.82983 2.32582C6.82983 2.32582 6.8495 2.29463 6.96053 2.25184L6.9802 2.24561V2.24605Z" fill="white"/>
<path opacity="0.5" fill-rule="evenodd" clip-rule="evenodd" d="M6.49493 11.5415C6.49493 11.5415 4.88197 13.5202 6.41625 16.8894C6.41625 16.8894 6.82277 18.6944 6.86211 18.7746C6.90146 18.8548 6.15398 16.9563 6.15398 16.9563C6.15398 16.9563 4.20006 13.8545 6.49493 11.5415Z" fill="white"/>
<path opacity="0.5" fill-rule="evenodd" clip-rule="evenodd" d="M6.52116 19.3496C6.52116 19.3496 7.06276 19.9802 6.98014 20.4994C6.89752 21.0186 6.14087 23.7082 6.14087 24.0558C6.14087 24.0558 5.99662 23.6948 6.46871 20.5796C6.46871 20.5796 6.59985 19.9713 6.54084 19.5502L6.52116 19.3496Z" fill="white"/>
<path opacity="0.5" fill-rule="evenodd" clip-rule="evenodd" d="M4.43855 10.5254C4.43855 10.5254 4.60596 12.7399 4.96309 13.0924C4.96309 13.0924 5.19914 13.313 5.20569 13.4133C5.21225 13.5135 5.10078 14.4561 5.10078 14.4561C5.10078 14.4561 4.60902 14.1219 4.48445 13.5336C4.48445 13.5336 4.28774 12.1766 4.37298 10.6524L4.43855 10.5254Z" fill="white"/>
<path opacity="0.5" fill-rule="evenodd" clip-rule="evenodd" d="M12.6229 10.582C12.6229 10.582 12.4555 12.7965 12.0983 13.149C12.0983 13.149 11.8623 13.3696 11.8557 13.4699C11.8492 13.5702 11.9607 14.5128 11.9607 14.5128C11.9607 14.5128 12.4524 14.1785 12.577 13.5902C12.577 13.5902 12.7737 12.2332 12.6885 10.709L12.6229 10.582Z" fill="#1A1A18"/>
<path opacity="0.5" fill-rule="evenodd" clip-rule="evenodd" d="M9.46414 32.0577C9.46414 32.0577 9.18875 32.9267 9.01172 33.2008C9.01172 33.2008 9.5297 33.1273 9.96245 31.8438C9.96245 31.8438 9.69188 31.9725 9.50697 32.0425L9.46414 32.0577Z" fill="#1A1A18"/>
<path opacity="0.5" fill-rule="evenodd" clip-rule="evenodd" d="M7.38379 3.73369C7.38379 3.73369 7.46903 2.26301 8.42632 1.71484V2.49029C8.42632 2.49029 7.84932 2.61731 7.38379 3.73369Z" fill="white"/>
</g>
<defs>
<clipPath id="clip0_7982_105608">
<rect width="17" height="36" fill="white"/>
</clipPath>
</defs>
</svg>
