<?xml version="1.0" encoding="utf-8"?>
<!-- Generator: Adobe Illustrator 17.0.0, SVG Export Plug-In . SVG Version: 6.00 Build 0)  -->
<!DOCTYPE svg PUBLIC "-//W3C//DTD SVG 1.1//EN" "http://www.w3.org/Graphics/SVG/1.1/DTD/svg11.dtd">
<svg version="1.1" id="Слой_1" xmlns="http://www.w3.org/2000/svg" xmlns:xlink="http://www.w3.org/1999/xlink" x="0px" y="0px"
	 width="242px" height="661px" viewBox="0 0 242 661" enable-background="new 0 0 242 661" xml:space="preserve">
<g>
	<defs>
		<rect id="SVGID_1_" width="242" height="661"/>
	</defs>
	<clipPath id="SVGID_2_">
		<use xlink:href="#SVGID_1_"  overflow="visible"/>
	</clipPath>
	<g clip-path="url(#SVGID_2_)">
		<path fill="currentColor" d="M224.857,195.832V71.422c0-0.487-0.395-0.882-0.882-0.882h-7.408c-0.487,0-0.882,0.395-0.882,0.882v1.482
			h-5.143c0,0,1.743-35.362-17.759-53.347C176.633,4.663,164.674,1.756,159.297,0.62c-1.037-0.219-2.004,0.571-2.004,1.623v1.009
			c0,0-15.776-3.154-36.604-2.992C99.854,0.091,84.085,3.252,84.085,3.252V2.243c0-1.058-0.967-1.841-2.004-1.623
			c-5.376,1.136-17.328,4.043-33.486,18.937C29.086,37.542,30.836,72.904,30.836,72.904h-5.143v-1.482
			c0-0.487-0.395-0.882-0.882-0.882h-7.408c-0.487,0-0.882,0.395-0.882,0.882v124.417l-3.697-0.028v463.521
			c0,0.332,0.268,0.6,0.6,0.6h107.272h107.273c0.332,0,0.6-0.268,0.6-0.6V195.811L224.857,195.832z M27.64,657.476l-2.265,0.205
			V151.657v506.031L27.64,657.476V140.389V657.476z"/>
		<path opacity="0.25" fill="#FFFEF8" enable-background="new    " d="M224.857,138.893l-8.855-0.155v1.482H25.375v-1.581
			l-8.615,0.085V70.751l8.615-0.007v2.159h190.627v-2.152l8.855,0.078V138.893z"/>
		<path opacity="0.25" fill="#FFFEF8" enable-background="new    " d="M224.857,98.472l-8.855-0.162v1.489H25.375v-1.581
			l-8.615,0.085V70.751l8.615-0.007v2.159h190.627v-2.152l8.855,0.078V98.472z"/>
		<path opacity="0.18" fill="#01061C" enable-background="new    " d="M224.858,182.751l-8.855,0.402v-1.679H25.376v1.926
			l-7.105-0.184l-0.091,82.332l7.196,0.007v-2.406h190.627v2.399l8.855-0.219V182.751z"/>
		<path opacity="0.17" fill="#01061C" enable-background="new    " d="M224.858,192.494l-8.855,0.177v-0.741H25.376v0.847
			l-7.105-0.078l-0.091,36.04l7.196,0.007v-1.059h190.627v1.052l8.855-0.092V192.494z"/>
		<path opacity="0.42" fill="#01061C" enable-background="new    " d="M25.375,72.903l2.343,1.905v581.631l-2.343-0.106V72.903z"/>
		<path opacity="0.46" fill="#FAFBFF" enable-background="new    " d="M25.087,70.744h-7.966v585.688l0.889-0.579l0.261-581.899
			c0,0-0.155-0.931,0.402-1.404c0.557-0.466,5.475-0.903,5.475-0.903S24.621,71.703,25.087,70.744z"/>
		<path opacity="0.46" fill="#FAFBFF" enable-background="new    " d="M224.216,70.744h-7.966v585.688l0.889-0.579L217.4,73.954
			c0,0-0.155-0.931,0.402-1.404c0.557-0.466,5.475-0.903,5.475-0.903S223.75,71.703,224.216,70.744z"/>
		<path opacity="0.4" fill="#000619" enable-background="new    " d="M224.61,195.832h2.413l1.531,0.959v1.806V658.76l-0.6,1.164
			h-0.769H13.416l5.92-0.289l-2.576-3.196l207.85-0.106V195.832z"/>
		<path opacity="0.5" fill="#FAFBFF" enable-background="new    " d="M16.43,196.128h-2.074l-1.538,0.621v3.528l0.6,459.648
			l1.207-2.201V199.839c0,0,0.748-1.87,1.058-1.933C15.999,197.85,16.43,196.128,16.43,196.128z"/>
		<path opacity="0.22" fill="#FAFBFF" enable-background="new    " d="M16.76,196.128h-3.189l-0.486,0.508l-0.269,462.371
			l0.833,0.903l5.355-0.261l-2.244-3.21V196.128z"/>
		<path opacity="0.54" fill="#FDFEFF" enable-background="new    " d="M27.718,77.009l187.014,1.122c0,0-3.852,1.912-11.522,3.238
			c-7.669,1.326-175.493,7.719-175.493,7.719L27.718,77.009L27.718,77.009z"/>
		<path opacity="0.4" fill="#010014" enable-background="new    " d="M166.113,2.489c0,0,1.305,1.164,3.281,3.577
			c28.737,17.406,30.727,30.311,30.727,30.311s-9.038-13.794-24.85-21.83c6.576,11.127,14.104,30.226,13.102,58.476l22.204-0.127
			c0,0,0.085-17.604-4.149-30.339c-4.233-12.742-11.529-23.932-23.304-30.932C171.348,4.626,166.113,2.489,166.113,2.489z"/>
		<path opacity="0.46" fill="#010014" enable-background="new    " d="M207.846,72.903c0,0,0.974-22.507-14.852-38.742
			c0,0,10.865,19.727,11.613,38.742H207.846L207.846,72.903z"/>
		<path opacity="0.25" fill="#FAFAFF" enable-background="new    " d="M30.787,72.903c0,0,0.48-30.593,10.929-45.113
			S72.782,0.993,82.455,0.591c0,0,1.291-0.099,1.453,0.938c0.169,1.03,0.466,1.679,0.466,1.679s17.279-2.596,37.267-2.618
			c19.981-0.021,35.652,2.674,35.652,2.674l0.169-2.258l2.469-0.416l5.108,1.425c0,0,3.048,4.96,4.417,5.644
			c1.369,0.684,4.791,4.106,4.05,4.791c0,0-6.597-3.154-9.708-3.133c-3.111,0.021-7.408,2.321-7.408,2.321l4.106,1.122l1.178,1.926
			l13.822,11.867c0,0,5.376,8.015,4.381,11.204s-12.453-2.462-15.607-7.105c-3.154-4.643-8.135-9.793-12.785-11.79
			c0,0,6.145,5.644,2.159,12.947c0,0-8.135-11.62-20.087-11.952c0,0,3.986,8.467-2.653,11.289c0,0-3.168-8.826-12.121-10.957
			c-7.966,8.467-13.384,10.957-13.384,10.957s-4.551-7.056-12.841-9.793c0,0-3.323,6.477-8.636,11.79c0,0-9.793-4.981-8.467-9.299
			c1.326-4.318-11.289,13.243-10.428,20.983S46.901,69.38,46.901,69.38l-2.822,3.648L30.787,72.903z"/>
		<path opacity="0.5" fill="#FAFAFF" enable-background="new    " d="M32.827,72.903c0,0-3.034-55.781,48.055-70.407
			c0,0,3.027-0.48,0.233,2.025c0,0-45.551,10.985-45.424,68.389"/>
		<path opacity="0.5" fill="#FAFAFF" enable-background="new    " d="M42.619,62.256c0,0,10.922-30.572,39.68-48.747
			c0,0-21.294,17.851-31.63,40.718L42.619,62.256z"/>
		<path opacity="0.16" fill="#FAFAFF" enable-background="new    " d="M18.18,275.517v379.899c0,0,2.78-0.148,7.19-0.586V270.035
			C22.399,271.594,19.901,273.541,18.18,275.517z"/>
		<path opacity="0.16" fill="#FAFAFF" enable-background="new    " d="M208.926,293.283c-4.445-11.12-47.808-24.405-82.677-19.424
			c-34.861,4.981-66.237,1.75-77.696-4.48c-6.992-3.803-14.711-3.02-20.92-0.409v385.635c10.082-1.08,26.275-3.443,38.679-8.213
			c19.424-7.472-1.827-36.689,32.371-49.967c34.198-13.279,64.742,49.142,81.012,30.212c16.27-18.923,0.332-137.125-68.396-127.169
			c-68.728,9.962-12.756-50.8,19.77-55.28c32.526-4.48,86.811-21.414,65.398-56.275s-59.93-8.798-22.909-51.964
			C191.45,315.099,218.218,316.524,208.926,293.283z"/>
		<path opacity="0.39" fill="#00071C" enable-background="new    " d="M153.194,298.469c0,0,5.235,1.037,6.357,6.209
			c1.122,5.165,0.642,104.281,0.642,104.281s0.162,4.762-3.443,8.728c-3.923,4.318-11.987,4.77-11.987,4.77l-49.368-0.028
			c0,0-9.433-0.628-11.395-11.585c0,0,0.84,3.295,2.815,4.981c1.969,1.679,3.26,3.154,7.867,3.549
			c4.607,0.395,7.437,0.113,7.437,0.113l36.738-0.113h8.756c0,0,5.207-0.847,7.408-4.05c2.201-3.203,2.512-7.034,2.512-7.034
			l-0.127-102.348c0,0-0.437-2.928-1.849-4.713C154.146,299.442,153.194,298.469,153.194,298.469z"/>
		<path fill="#121313" d="M142.307,410.49H99.064c-3.231,0-5.849-2.618-5.849-5.849v-93.549c0-3.231,2.618-5.856,5.849-5.856h43.243
			c3.231,0,5.849,2.618,5.849,5.856v93.549C148.163,407.872,145.545,410.49,142.307,410.49z"/>
		<path opacity="0.4" enable-background="new    " d="M152.701,302.497c1.214,1.545,1.94,3.485,1.94,5.602v99.526
			c0,5.016-4.072,9.088-9.089,9.088h-49.72c-2.766,0-5.242-1.242-6.907-3.196c-1.468-0.706-3.26-1.778-4.904-3.316
			c0.91,5.207,5.44,9.165,10.908,9.165h51.548c6.117,0,11.084-4.96,11.084-11.084V307.436c0-0.056-0.006-0.113-0.006-0.169
			C156.334,305.658,154.754,303.986,152.701,302.497z"/>
		<path opacity="0.25" fill="#FCFCF5" enable-background="new    " d="M86.738,407.625V308.1c0-5.016,4.071-9.088,9.088-9.088h49.72
			c2.907,0,5.489,1.369,7.147,3.492c2.053,1.482,3.634,3.161,4.833,4.77c-0.092-6.04-5.009-10.915-11.07-10.915H94.908
			c-6.117,0-11.084,4.96-11.084,11.084v100.852c0,0.656,0.071,1.291,0.176,1.912c1.644,1.538,3.443,2.611,4.904,3.316
			C87.557,411.936,86.738,409.876,86.738,407.625z"/>
		<path opacity="0.5" fill="#F5F5F5" enable-background="new    " d="M147.168,332.258v-19.297c0,0,0-2.491-1.743-4.607
			c-1.743-2.117-7.966-1.87-7.966-1.87l-38.347-0.007c0,0-1.242-0.487-3.239,2.124c-1.99,2.618-1.496,5.475-1.496,5.475v86.91
			c0,0,0,3.239,2.491,5.729c2.491,2.491,12.7,2.244,12.7,2.244s-8.841-3.859-9.215-14.69c-0.374-10.83,3.986-24.941,3.986-24.941
			s2.992,14.944,12.947,18.923c9.962,3.986,17.434-8.798,20.588-21.414c3.154-12.615,3.485-34.861-9.461-38.516
			C115.46,324.659,139.033,314.118,147.168,332.258z"/>
		<path opacity="0.71" fill="#F5F5F5" enable-background="new    " d="M136.543,307.563h-33.034c0,0-4.106-1.326-6.639,1.99
			c-2.533,3.316-1.496,84.667-1.496,84.667s1.658-38.347,2.159-51.964c0.501-13.61,0.995-26.233,3.655-29.386
			C103.841,309.722,120.605,308.389,136.543,307.563z"/>
		<path d="M146.464,419.725H94.915c-6.308,0-11.437-5.129-11.437-11.437V307.436c0-6.308,5.129-11.437,11.437-11.437h51.549
			c6.308,0,11.437,5.129,11.437,11.437v100.852C157.894,414.596,152.764,419.725,146.464,419.725z M94.915,296.712
			c-5.913,0-10.732,4.812-10.732,10.732v100.852c0,5.913,4.812,10.731,10.732,10.731h51.549c5.913,0,10.731-4.812,10.731-10.731
			v-100.86c0-5.913-4.811-10.731-10.731-10.731H94.915V296.712z"/>
		<path d="M142.308,410.842H99.065c-3.422,0-6.202-2.787-6.202-6.202v-93.549c0-3.422,2.787-6.202,6.202-6.202h43.243
			c3.422,0,6.202,2.787,6.202,6.202v93.549C148.517,408.062,145.73,410.842,142.308,410.842z M99.064,305.588
			c-3.034,0-5.496,2.469-5.496,5.496v93.549c0,3.034,2.469,5.496,5.496,5.496h43.243c3.034,0,5.496-2.469,5.496-5.496v-93.542
			c0-3.034-2.469-5.496-5.496-5.496H99.064V305.588z"/>
		<path opacity="0.38" fill="#FFFEF8" enable-background="new    " d="M146.174,341.43v53.791c0,0,0.833,6.308-1.658,9.962
			c-2.491,3.655-9.673,3.09-9.673,3.09l-18.986-0.423c0,0,10.647-0.423,16.87-1.834c6.223-1.411,7.056-1.743,8.297-2.653
			c1.242-0.91,2.738-6.308,3.154-12.453C144.594,384.758,146.174,341.43,146.174,341.43z"/>
		<path fill="#121313" d="M197.946,62.821c-0.028-0.028-0.056-0.063-0.085-0.099c-11.437-16.312-36.689-28.794-77.188-28.871
			c-40.195,0-65.842,12.481-78.408,28.85c-0.021,0.028-0.035,0.049-0.063,0.071c-0.494,0.487-0.706,4.438-0.219,10.132h156.203
			C198.666,67.258,198.44,63.3,197.946,62.821z"/>
		<path fill="#262828" d="M198.3,63.237c0,0-6.597-8.537-13.349-12.347c-16.058-7.317-33.45-16.341-64.156-17.039h-0.12
			c-31.624-0.529-53.651,11.183-64.686,17.47c-7.698,4.389-13.758,11.903-13.758,11.903c-0.303,2.11-0.092,5.778,0.31,9.673H197.87
			C198.349,69.008,198.603,65.346,198.3,63.237z"/>
		<path fill="#2B2A2A" d="M143.908,67.738c-3.768-3.112-17.78-4.734-23.495-4.734c-5.715,0-19.72,1.616-23.488,4.727
			c-1.016,0.84-1.411,2.766-1.411,5.165h49.798C145.32,70.504,144.924,68.578,143.908,67.738z"/>
		<path fill="#121313" d="M145.664,73.256H95.16v-0.353c0-2.766,0.515-4.593,1.538-5.44c3.768-3.112,17.639-4.812,23.714-4.812
			c6.075,0,19.953,1.7,23.721,4.812c1.023,0.847,1.538,2.674,1.538,5.44v0.353H145.664z M95.866,72.55h49.092
			c-0.035-2.314-0.48-3.881-1.277-4.544c-3.492-2.886-17.053-4.65-23.269-4.65c-6.216,0-19.77,1.764-23.262,4.65
			C96.346,68.67,95.909,70.236,95.866,72.55z"/>
		<path fill="#313334" d="M62.662,62.256c0,0-4.163,2.921-7.041,10.647h5.475C61.378,69.544,61.865,65.932,62.662,62.256z"/>
		<path fill="#1F2020" d="M80.797,62.256c1.023,3.627,1.58,7.26,1.849,10.647h5.066C84.317,65.438,80.797,62.256,80.797,62.256z"/>
		<path opacity="0.56" fill="#848484" enable-background="new    " d="M121.224,71.668c-9.109,0-17.462,0.409-25.097,1.235h49.89
			C138.496,72.099,130.241,71.682,121.224,71.668z"/>
		<path fill="#1D1D1B" d="M42.457,63.025l-0.494-0.508l0.021-0.028l0.571,0.416C42.527,62.948,42.492,62.99,42.457,63.025z"/>
		<path fill="#0D0E0E" d="M42.271,62.701c12.566-16.369,38.213-28.85,78.409-28.85c40.499,0.078,65.75,12.566,77.187,28.871
			c0.021,0.035,0.049,0.071,0.085,0.099c0.452,0.437,0.677,2.328,0.346,5.934c-0.028-0.028-0.055-0.063-0.084-0.099
			c-11.437-16.312-36.69-24.278-77.189-24.356c-40.195,0-66.52,8.699-79.086,25.068"/>
		<path d="M198.517,73.256H41.666l-0.028-0.325c-0.381-4.48-0.445-9.652,0.325-10.414c14.379-18.725,42.326-29.019,78.719-29.019
			c49.77,0.092,69.906,18.224,77.477,29.027l0.042,0.049c0.769,0.755,0.72,5.898,0.346,10.358L198.517,73.256z M42.315,72.55
			h155.554c0.473-5.898,0.12-9.123-0.169-9.476c-0.049-0.042-0.092-0.099-0.127-0.148c-7.493-10.682-27.446-28.624-76.898-28.716
			c-36.167,0-63.916,10.195-78.126,28.709c-0.028,0.035-0.056,0.071-0.099,0.106C42.174,63.364,41.828,66.602,42.315,72.55z"/>
		<path fill="#B1C9DD" d="M160.488,12.761c0,0,6.971,0.748,16.933,7.345c9.962,6.597,22.535,20.546,25.647,29.386
			c3.111,8.841-1.369,6.025-3.239,3.881c-1.87-2.138-7.966-11.232-18.055-20.941c-10.082-9.708-19.424-17.18-19.925-17.554
			C161.356,14.504,160.488,12.761,160.488,12.761z"/>
		<path d="M203.174,55.913c-1.157,0-2.709-1.277-3.612-2.307c-0.437-0.501-1.079-1.348-1.969-2.519
			c-2.907-3.824-8.311-10.936-16.058-18.401c-9.659-9.306-18.979-16.849-19.89-17.526c-0.536-0.402-1.319-1.94-1.475-2.244
			l-0.289-0.579l0.642,0.071c0.289,0.028,7.176,0.833,17.089,7.401c9.469,6.272,22.507,20.249,25.788,29.563
			c1.298,3.69,1.432,5.778,0.402,6.378C203.611,55.864,203.4,55.913,203.174,55.913z M161.13,13.227
			c0.325,0.579,0.713,1.206,0.938,1.376c0.91,0.684,10.266,8.255,19.953,17.582c7.789,7.5,13.215,14.64,16.136,18.478
			c0.882,1.164,1.517,1.997,1.94,2.484c1.079,1.235,2.738,2.357,3.351,1.997c0.24-0.141,0.903-0.953-0.713-5.532
			c-2.956-8.403-15.12-22.324-25.513-29.21C169.223,15.104,163.113,13.601,161.13,13.227z"/>
		<path fill="#3C3C3B" d="M240.681,105.196c0.071-0.007,0.487,0,0.487,0s1.037-3.662-2.618-8.968
			c-3.655-5.313-13.695-4.981-13.695-4.981v6.378c2.441,0.289,7.909,1.065,10.167,2.462
			C237.097,101.372,239.461,103.841,240.681,105.196z"/>
		<path fill="#A3ABB2" d="M235.03,100.088c-2.258-1.397-7.726-2.173-10.167-2.462v3.831c0,0,4.318,1.496,6.724,2.822
			c2.23,1.228,8.234,0.967,9.102,0.917C239.461,103.841,237.097,101.372,235.03,100.088z"/>
		<path d="M238.381,105.605c-2.251,0-5.426-0.169-6.971-1.023c-2.349-1.298-6.625-2.78-6.668-2.801l-0.24-0.085v-4.48l0.395,0.049
			c2.886,0.339,8.064,1.122,10.315,2.512c2.11,1.305,4.494,3.803,5.729,5.172l0.494,0.55l-0.741,0.042
			C240.329,105.57,239.461,105.605,238.381,105.605z M225.208,101.203c0.945,0.339,4.431,1.602,6.541,2.766
			c1.799,0.995,6.308,0.967,8.156,0.91c-1.284-1.383-3.288-3.387-5.066-4.487c-2.096-1.298-7.161-2.06-9.631-2.364V101.203z"/>
		<path fill="#9C9B9B" d="M240.675,104.342c0.106,0.198,0.409,0.12,0.409-0.106c0.014-1.559-0.233-5.08-2.505-7.747
			c-3.006-3.528-6.703-4.734-10.873-5.024c-4.17-0.289-2.843,0.127-2.843,0.127l0.247,2.653c0.014,0.12,0.113,0.205,0.226,0.198
			c1.221-0.085,6.83,0.452,10.252,2.589C239.412,99.425,239.892,102.903,240.675,104.342z"/>
		<path d="M240.534,105.556l-0.113-0.127c-1.207-1.341-3.542-3.789-5.581-5.045c-2.215-1.369-7.747-2.145-10.026-2.413l-0.31-0.035
			v-7.034l0.339-0.014c0.416-0.014,10.28-0.275,13.998,5.136c3.704,5.39,2.709,9.109,2.667,9.264l-0.071,0.261h-0.268
			c0,0-0.402-0.007-0.466,0L240.534,105.556z M240.852,104.843c0.014,0,0.021,0,0.035,0c0.141-0.903,0.346-4.106-2.618-8.417
			c-3.133-4.551-11.282-4.826-13.053-4.833v5.715c2.935,0.36,7.832,1.129,10.005,2.476c2.046,1.27,4.36,3.662,5.623,5.059
			C240.845,104.843,240.845,104.843,240.852,104.843z"/>
		<path fill="#292B2D" d="M120.688,6.722c-19.664,0-34.53,2.596-34.53,2.596l-2.244-3.655c20.419-3.817,36.773-3.655,36.773-3.655
			s16.355-0.169,36.773,3.655l-2.244,3.655C155.218,9.318,140.351,6.722,120.688,6.722z"/>
		<path d="M155.394,9.706l-0.233-0.042c-0.148-0.028-15.064-2.589-34.473-2.589c-19.41,0-34.325,2.561-34.473,2.589l-0.233,0.042
			l-2.632-4.29l0.501-0.092c20.214-3.782,36.682-3.655,36.844-3.655c0.155,0,16.609-0.12,36.837,3.655l0.501,0.092L155.394,9.706z
			 M120.688,6.369c18.133,0,32.364,2.23,34.353,2.561l1.849-3.013c-19.918-3.669-36.033-3.549-36.202-3.556
			c-0.169,0-16.291-0.12-36.209,3.556l1.849,3.013C88.317,8.606,102.555,6.369,120.688,6.369z"/>
		<path fill="#FFFEF8" d="M80.88,12.761c0,0-6.971,0.748-16.933,7.345S41.412,40.652,38.3,49.492
			c-3.111,8.841,1.369,6.025,3.239,3.881c1.87-2.138,7.966-11.232,18.055-20.941s19.424-17.18,19.925-17.554
			C80.012,14.504,80.88,12.761,80.88,12.761z"/>
		<path d="M38.194,55.913c-0.226,0-0.437-0.049-0.628-0.162c-1.03-0.6-0.896-2.688,0.402-6.378
			c3.281-9.313,16.32-23.29,25.788-29.563c9.92-6.569,16.799-7.373,17.089-7.401l0.642-0.071l-0.289,0.579
			c-0.155,0.303-0.938,1.841-1.475,2.244c-0.91,0.677-10.224,8.22-19.89,17.526c-7.747,7.458-13.152,14.577-16.058,18.401
			c-0.889,1.171-1.538,2.018-1.976,2.519C40.904,54.636,39.351,55.913,38.194,55.913z M80.238,13.227
			c-1.976,0.374-8.093,1.877-16.094,7.175c-10.393,6.886-22.557,20.807-25.513,29.21c-1.616,4.579-0.952,5.39-0.713,5.532
			c0.607,0.353,2.272-0.762,3.351-1.997c0.423-0.487,1.058-1.319,1.94-2.484c2.914-3.838,8.347-10.978,16.129-18.478
			c9.687-9.327,19.043-16.898,19.953-17.582C79.519,14.434,79.907,13.82,80.238,13.227z"/>
		<path fill="#3C3C3B" d="M0.687,105.196c-0.071-0.007-0.487,0-0.487,0s-1.037-3.662,2.618-8.968
			c3.655-5.313,13.695-4.981,13.695-4.981v6.378c-2.441,0.289-7.909,1.065-10.167,2.462C4.271,101.372,1.908,103.841,0.687,105.196z
			"/>
		<path fill="#A3ABB2" d="M6.345,100.088c2.258-1.397,7.726-2.173,10.167-2.462v3.831c0,0-4.318,1.496-6.724,2.822
			c-2.23,1.228-8.234,0.967-9.102,0.917C1.908,103.841,4.271,101.372,6.345,100.088z"/>
		<path d="M2.987,105.605c-1.079,0-1.94-0.035-2.314-0.056l-0.741-0.042l0.494-0.55c1.235-1.369,3.62-3.866,5.729-5.172
			c2.251-1.397,7.429-2.173,10.315-2.512l0.395-0.049v4.48l-0.24,0.085c-0.042,0.014-4.318,1.503-6.667,2.801
			C8.413,105.443,5.238,105.605,2.987,105.605z M1.463,104.879c1.856,0.056,6.357,0.085,8.156-0.91
			c2.11-1.164,5.595-2.427,6.541-2.766v-3.182c-2.469,0.303-7.535,1.065-9.631,2.364C4.751,101.485,2.747,103.489,1.463,104.879z"/>
		<path fill="#9C9B9B" d="M0.695,104.342c-0.106,0.198-0.409,0.12-0.409-0.106c-0.014-1.559,0.233-5.08,2.505-7.747
			c3.006-3.528,6.703-4.734,10.873-5.024c4.17-0.289,2.843,0.127,2.843,0.127l-0.247,2.653c-0.014,0.12-0.113,0.205-0.226,0.198
			c-1.221-0.085-6.83,0.452-10.252,2.589C1.958,99.425,1.478,102.903,0.695,104.342z"/>
		<path d="M0.836,105.556l-0.169-0.007c-0.071-0.007-0.466,0-0.466,0h-0.268l-0.071-0.261c-0.042-0.155-1.037-3.881,2.66-9.264
			c3.718-5.412,13.575-5.151,13.998-5.136l0.339,0.014v7.034l-0.31,0.035c-2.279,0.268-7.81,1.037-10.026,2.413
			c-2.032,1.263-4.367,3.704-5.581,5.045L0.836,105.556z M16.16,91.593c-1.771,0.007-9.927,0.282-13.053,4.833
			c-2.963,4.304-2.752,7.514-2.618,8.417c0.014,0,0.028,0,0.042,0c1.263-1.39,3.577-3.789,5.623-5.059
			c2.173-1.348,7.07-2.117,10.005-2.477L16.16,91.593L16.16,91.593z"/>
		<path fill="#E20613" d="M120.688,6.432c3.726,0,6.745-1.216,6.745-2.716c0-1.5-3.019-2.716-6.745-2.716
			c-3.725,0-6.745,1.216-6.745,2.716C113.943,5.216,116.963,6.432,120.688,6.432z"/>
		<path d="M120.688,6.778c-3.979,0-7.098-1.348-7.098-3.069c0-1.722,3.119-3.069,7.098-3.069c3.979,0,7.098,1.348,7.098,3.069
			C127.785,5.431,124.667,6.778,120.688,6.778z M120.688,1.353c-3.768,0-6.392,1.242-6.392,2.364s2.625,2.364,6.392,2.364
			c3.768,0,6.392-1.242,6.392-2.364C127.08,2.594,124.455,1.353,120.688,1.353z"/>
		<path d="M41.899,62.926c-1.968-3.923-2.886-7.613-2.893-7.648l0.684-0.169c0.007,0.035,0.903,3.648,2.836,7.5L41.899,62.926z"/>
		<path d="M80.979,13.1l-0.19-0.677c0.141-0.042,14.577-4.057,39.899-4.057v0.706C95.464,9.071,81.12,13.065,80.979,13.1z"/>
		<path d="M37.285,73.065l-0.621-0.332c1.714-3.238,4.762-4.812,4.897-4.882l0.318,0.628C41.85,68.5,38.894,70.031,37.285,73.065z"
			/>
		<path d="M198.292,62.926l-0.628-0.317c1.94-3.852,3.034-8.121,3.041-8.163l0.684,0.176
			C201.375,54.664,200.26,59.003,198.292,62.926z"/>
		<path d="M160.389,13.1c-0.141-0.042-14.492-4.036-39.709-4.036V8.358c25.322,0,39.758,4.022,39.899,4.057L160.389,13.1z"/>
		<path d="M202.9,73.065c-1.609-3.041-4.558-4.565-4.593-4.579l0.318-0.628c0.127,0.063,3.182,1.644,4.897,4.882L202.9,73.065z"/>
		<path fill="#C0C5C9" d="M86.858,146.655H62.7c-3.507,0-6.35-2.843-6.35-6.35v-33.119c0-3.507,2.843-6.35,6.35-6.35h24.158
			c3.507,0,6.35,2.843,6.35,6.35v33.119C93.208,143.811,90.372,146.655,86.858,146.655z"/>
		<path opacity="0.26" fill="#000214" enable-background="new    " d="M90.64,108.265v30.96c0,2.681-2.173,4.854-4.854,4.854H63.787
			c-0.409,0-0.804-0.056-1.185-0.148c1.178,0.896,2.801,1.827,5.038,2.723h19.226c3.507,0,6.35-2.843,6.35-6.35v-32.025
			c-1.178-1.115-2.342-1.997-3.358-2.667C90.343,106.381,90.64,107.292,90.64,108.265z"/>
		<path opacity="0.35" fill="#FFFFFA" enable-background="new    " d="M86.858,100.836H62.7c-3.507,0-6.35,2.843-6.35,6.35v33.119
			c0,3.507,2.843,6.35,6.35,6.35h4.932c-2.23-0.903-3.852-1.834-5.038-2.723c-2.11-0.529-3.669-2.434-3.669-4.706v-30.96
			c0-2.681,2.173-4.854,4.854-4.854h21.999c1.707,0,3.203,0.882,4.071,2.208c1.016,0.67,2.187,1.545,3.358,2.667v-1.094
			C93.208,103.679,90.372,100.836,86.858,100.836z"/>
		<path d="M86.857,147.007H62.699c-3.697,0-6.703-3.006-6.703-6.703v-33.119c0-3.697,3.006-6.703,6.703-6.703h24.158
			c3.697,0,6.703,3.006,6.703,6.703v33.119C93.56,144.002,90.554,147.007,86.857,147.007z M62.706,101.189
			c-3.309,0-5.997,2.688-5.997,5.997v33.119c0,3.309,2.688,5.997,5.997,5.997h24.158c3.309,0,5.997-2.688,5.997-5.997v-33.119
			c0-3.309-2.688-5.997-5.997-5.997H62.706L62.706,101.189z"/>
		<path fill="#C0C5C9" d="M178.664,146.655h-24.158c-3.507,0-6.35-2.843-6.35-6.35v-33.119c0-3.507,2.843-6.35,6.35-6.35h24.158
			c3.507,0,6.35,2.843,6.35,6.35v33.119C185.014,143.811,182.171,146.655,178.664,146.655z"/>
		<path opacity="0.26" fill="#000214" enable-background="new    " d="M182.446,108.265v30.96c0,2.681-2.173,4.854-4.854,4.854
			h-21.999c-0.409,0-0.804-0.056-1.185-0.148c1.178,0.896,2.801,1.827,5.038,2.723h19.226c3.507,0,6.35-2.843,6.35-6.35v-32.025
			c-1.178-1.115-2.342-1.997-3.358-2.667C182.149,106.381,182.446,107.292,182.446,108.265z"/>
		<path opacity="0.35" fill="#FFFFFA" enable-background="new    " d="M178.664,100.836h-24.158c-3.507,0-6.35,2.843-6.35,6.35
			v33.119c0,3.507,2.843,6.35,6.35,6.35h4.932c-2.23-0.903-3.852-1.834-5.038-2.723c-2.11-0.529-3.669-2.434-3.669-4.706v-30.96
			c0-2.681,2.173-4.854,4.854-4.854h21.999c1.707,0,3.203,0.882,4.071,2.208c1.016,0.67,2.187,1.545,3.358,2.667v-1.094
			C185.014,103.679,182.171,100.836,178.664,100.836z"/>
		<path d="M178.664,147.007h-24.158c-3.697,0-6.703-3.006-6.703-6.703v-33.119c0-3.697,3.006-6.703,6.703-6.703h24.158
			c3.697,0,6.703,3.006,6.703,6.703v33.119C185.367,144.002,182.361,147.007,178.664,147.007z M154.513,101.189
			c-3.309,0-5.997,2.688-5.997,5.997v33.119c0,3.309,2.688,5.997,5.997,5.997h24.158c3.309,0,5.997-2.688,5.997-5.997v-33.119
			c0-3.309-2.688-5.997-5.997-5.997H154.513L154.513,101.189z"/>
		<path fill="#C0C5C9" d="M86.858,627.469H62.7c-3.507,0-6.35-2.843-6.35-6.35v-18.182c0-3.507,2.843-6.35,6.35-6.35h24.158
			c3.507,0,6.35,2.843,6.35,6.35v18.182C93.208,624.625,90.372,627.469,86.858,627.469z"/>
		<path opacity="0.26" fill="#000214" enable-background="new    " d="M90.64,604.016v16.023c0,2.681-2.173,4.854-4.854,4.854
			H63.787c-0.409,0-0.804-0.056-1.185-0.148c1.178,0.896,2.801,1.827,5.038,2.723h19.226c3.507,0,6.35-2.843,6.35-6.35V604.03
			c-1.178-1.115-2.342-1.997-3.358-2.667C90.343,602.132,90.64,603.042,90.64,604.016z"/>
		<path opacity="0.35" fill="#FFFFFA" enable-background="new    " d="M86.858,596.587H62.7c-3.507,0-6.35,2.843-6.35,6.35v18.182
			c0,3.507,2.843,6.35,6.35,6.35h4.932c-2.23-0.903-3.852-1.834-5.038-2.723c-2.11-0.529-3.669-2.434-3.669-4.706v-16.023
			c0-2.681,2.173-4.854,4.854-4.854h21.999c1.707,0,3.203,0.882,4.071,2.208c1.016,0.67,2.187,1.545,3.358,2.667v-1.094
			C93.208,599.43,90.372,596.587,86.858,596.587z"/>
		<path d="M86.857,627.822H62.699c-3.697,0-6.703-3.006-6.703-6.703v-18.182c0-3.697,3.006-6.703,6.703-6.703h24.158
			c3.697,0,6.703,3.006,6.703,6.703v18.182C93.56,624.816,90.554,627.822,86.857,627.822z M62.706,596.939
			c-3.309,0-5.997,2.688-5.997,5.997v18.182c0,3.309,2.688,5.997,5.997,5.997h24.158c3.309,0,5.997-2.688,5.997-5.997v-18.182
			c0-3.309-2.688-5.997-5.997-5.997H62.706z"/>
		<path fill="#C0C5C9" d="M178.664,627.469h-24.158c-3.507,0-6.35-2.843-6.35-6.35v-18.182c0-3.507,2.843-6.35,6.35-6.35h24.158
			c3.507,0,6.35,2.843,6.35,6.35v18.182C185.014,624.625,182.171,627.469,178.664,627.469z"/>
		<path opacity="0.26" fill="#000214" enable-background="new    " d="M182.446,604.016v16.023c0,2.681-2.173,4.854-4.854,4.854
			h-21.999c-0.409,0-0.804-0.056-1.185-0.148c1.178,0.896,2.801,1.827,5.038,2.723h19.226c3.507,0,6.35-2.843,6.35-6.35V604.03
			c-1.178-1.115-2.342-1.997-3.358-2.667C182.149,602.132,182.446,603.042,182.446,604.016z"/>
		<path opacity="0.35" fill="#FFFFFA" enable-background="new    " d="M178.664,596.587h-24.158c-3.507,0-6.35,2.843-6.35,6.35
			v18.182c0,3.507,2.843,6.35,6.35,6.35h4.932c-2.23-0.903-3.852-1.834-5.038-2.723c-2.11-0.529-3.669-2.434-3.669-4.706v-16.023
			c0-2.681,2.173-4.854,4.854-4.854h21.999c1.707,0,3.203,0.882,4.071,2.208c1.016,0.67,2.187,1.545,3.358,2.667v-1.094
			C185.014,599.43,182.171,596.587,178.664,596.587z"/>
		<path d="M178.664,627.822h-24.158c-3.697,0-6.703-3.006-6.703-6.703v-18.182c0-3.697,3.006-6.703,6.703-6.703h24.158
			c3.697,0,6.703,3.006,6.703,6.703v18.182C185.367,624.816,182.361,627.822,178.664,627.822z M154.513,596.939
			c-3.309,0-5.997,2.688-5.997,5.997v18.182c0,3.309,2.688,5.997,5.997,5.997h24.158c3.309,0,5.997-2.688,5.997-5.997v-18.182
			c0-3.309-2.688-5.997-5.997-5.997H154.513z"/>
		<path fill="#C0C5C9" d="M120.689,569.035c5.685,0,10.293-4.609,10.293-10.294s-4.608-10.294-10.293-10.294
			c-5.686,0-10.294,4.609-10.294,10.294S115.003,569.035,120.689,569.035z"/>
		<path opacity="0.26" fill="#000214" enable-background="new    " d="M130.975,558.741c0-0.063-0.007-0.134-0.007-0.198
			c-1.157-1.58-2.378-2.886-3.464-3.909c0.727,1.199,1.15,2.604,1.15,4.106c0,4.403-3.57,7.966-7.966,7.966
			c-1.122,0-2.194-0.233-3.161-0.656c0.861,0.903,1.983,1.912,3.429,2.963C126.508,568.88,130.975,564.336,130.975,558.741z"/>
		<path opacity="0.35" fill="#FFFFFA" enable-background="new    " d="M117.521,566.05c-2.829-1.221-4.805-4.036-4.805-7.317
			c0-4.403,3.57-7.966,7.966-7.966c2.9,0,5.426,1.552,6.823,3.859c1.087,1.023,2.307,2.328,3.464,3.909
			c-0.106-5.595-4.664-10.096-10.28-10.096c-5.687,0-10.294,4.607-10.294,10.294c0,5.687,4.607,10.294,10.294,10.294
			c0.092,0,0.176-0.014,0.261-0.014C119.51,567.962,118.389,566.953,117.521,566.05z"/>
		<path d="M120.69,569.38c-5.87,0-10.647-4.777-10.647-10.647c0-5.87,4.777-10.647,10.647-10.647c5.87,0,10.647,4.777,10.647,10.647
			C131.329,564.611,126.56,569.38,120.69,569.38z M120.69,548.799c-5.482,0-9.941,4.459-9.941,9.941s4.459,9.941,9.941,9.941
			c5.482,0,9.941-4.459,9.941-9.941S126.165,548.799,120.69,548.799z"/>
		<path d="M216.354,72.903h-0.706v583.43h0.706V72.903z"/>
		<path d="M227.954,660.63H13.416c-0.72,0-1.305-0.586-1.305-1.305V197.56c0-0.656,0.254-1.27,0.72-1.736
			c0.466-0.466,1.065-0.698,1.743-0.713l1.228,0.007V71.421c0-0.875,0.713-1.588,1.588-1.588h7.408c0.875,0,1.587,0.713,1.587,1.588
			v0.776H214.98v-0.776c0-0.875,0.713-1.588,1.588-1.588h7.408c0.875,0,1.587,0.713,1.587,1.588v123.705l1.235-0.007
			c0.007,0,0.014,0,0.021,0c0.649,0,1.263,0.254,1.722,0.713c0.466,0.466,0.72,1.079,0.72,1.736v461.764
			C229.259,660.044,228.674,660.63,227.954,660.63z M13.522,659.219h214.326V197.56c0-0.275-0.106-0.536-0.303-0.734
			c-0.198-0.19-0.452-0.303-0.727-0.303h-0.007l-2.653,0.021V71.421c0-0.099-0.078-0.176-0.176-0.176h-7.408
			c-0.099,0-0.176,0.078-0.176,0.176v2.187H24.98v-2.187c0-0.099-0.078-0.176-0.176-0.176h-7.408c-0.099,0-0.176,0.078-0.176,0.176
			v125.123l-2.653-0.021c-0.268,0.021-0.536,0.106-0.734,0.303c-0.198,0.198-0.303,0.459-0.303,0.734v461.658L13.522,659.219
			L13.522,659.219z"/>
		<path d="M224.963,656.792H16.408v-460.96h0.705v460.254h207.144V195.832h0.706V656.792z"/>
		<path d="M25.729,72.903h-0.706v583.43h0.706V72.903z"/>
		<path d="M211.247,72.938l-1.411-0.071c0.014-0.353,1.496-35.242-17.533-52.79c-16.552-15.261-28.61-17.801-33.147-18.761
			c-0.282-0.056-0.571,0.007-0.797,0.19c-0.226,0.183-0.353,0.452-0.353,0.741v1.87l-0.847-0.169
			c-0.155-0.028-15.946-3.133-36.463-2.977c-20.51-0.162-36.315,2.942-36.477,2.977l-0.847,0.169v-1.87
			c0-0.289-0.127-0.557-0.353-0.741c-0.226-0.183-0.515-0.254-0.797-0.19c-4.537,0.96-16.602,3.5-33.154,18.761
			c-19.043,17.554-17.554,52.437-17.533,52.79l-1.411,0.071c-0.021-0.36-1.531-35.899,17.992-53.897
			C64.951,3.519,77.291,0.915,81.933-0.065c0.706-0.148,1.425,0.028,1.976,0.48c0.557,0.452,0.875,1.122,0.875,1.841v0.162
			c3.556-0.635,17.914-2.992,35.906-2.843c17.978-0.141,32.343,2.208,35.899,2.843V2.256c0-0.72,0.318-1.39,0.875-1.841
			c0.557-0.452,1.277-0.621,1.983-0.48c4.643,0.981,16.976,3.584,33.817,19.106C212.778,37.04,211.261,72.578,211.247,72.938z"/>
	</g>
</g>
</svg>
