<?xml version="1.0" encoding="utf-8"?>
<!-- Generator: Adobe Illustrator 17.0.0, SVG Export Plug-In . SVG Version: 6.00 Build 0)  -->
<!DOCTYPE svg PUBLIC "-//W3C//DTD SVG 1.1//EN" "http://www.w3.org/Graphics/SVG/1.1/DTD/svg11.dtd">
<svg version="1.1" id="Слой_1" xmlns="http://www.w3.org/2000/svg" xmlns:xlink="http://www.w3.org/1999/xlink" x="0px" y="0px"
	 width="279px" height="646px" viewBox="0 0 279 646" enable-background="new 0 0 279 646" xml:space="preserve">
<g>
	<defs>
		<rect id="SVGID_1_" width="279" height="646"/>
	</defs>
	<clipPath id="SVGID_2_">
		<use xlink:href="#SVGID_1_"  overflow="visible"/>
	</clipPath>
	<g clip-path="url(#SVGID_2_)">
		<path fill="currentColor" d="M20.698,493.9c-2.803,39.511,2.1,75.174,6.357,97.077c4.419,22.758,4.818,29.819,28.203,40.3
			c33.62,15.033,85.759,13.95,85.759,13.95s52.121,1.074,85.74-13.95c23.376-10.481,23.785-17.532,28.203-40.3
			c4.257-21.903,9.16-57.566,6.386-97.077c0,0,3.687-33.049,2.233-51.693c-1.378-17.503-2.936-294.138-2.395-338.581
			c0.323-25.666,2.29-43.692-17.427-66.127c-12.334-14.007-32.726-25.723-66.232-32.213c-24.858-4.818-41.564-5.283-66.451-1.188
			c-37.44,6.167-59.694,18.501-72.808,33.401C18.548,59.934,20.515,77.96,20.839,103.626c0.57,44.443-0.998,321.078-2.366,338.581
			C16.973,460.85,20.698,493.9,20.698,493.9z"/>
		<path opacity="0.4" enable-background="new    " d="M216.05,17.334c0,0,9.921,22.635,11.422,52.824s6.481,40.841,3.658,60.673
			s-9.398,45.08-7.117,58.944c2.281,13.874-5.093,65.909-6.101,75.269c-1.007,9.369-8.419,75.326-9.949,127.304
			c-1.026,34.94-2.271,52.814-1.786,61.519c0.19,3.402-0.542,7.488-3.934,7.802c-65.605,5.977-113.345-4.514-125.993,4.542
			c-9.217,6.604-10.51,75.269-10.51,75.269s-16.012,7.003-14.795,14.757c1.207,7.754,33.344,25.276,90.045,22.473
			c56.692-2.794,76.951-3.905,81.132,0c4.181,3.906,7.079,31.225,0,38.779c-7.079,7.554-64.322,9.73-81.132,9.73
			s-62.878-3.022-84.201-10.567c-21.323-7.545-26.892-24.697-25.115-5.891c0,0,3.772,12.429,24.298,20.81
			c20.525,8.381,53.081,13.636,85.037,13.636c31.957,0,70.194-3.934,91.831-16.325c21.628-12.391,20.658-30.332,21.656-35.558
			c0.998-5.226,6.243-31.672,6.946-53.299c0.703-21.628,0-47.104,0-47.104s1.853-26.141,2.471-36.052
			c0.618-9.911-0.827-30.693-0.827-30.693l-0.827-65.909l-0.998-151.592l-0.19-83.507l0.2-42.257
			C261.272,82.91,264.161,39.456,216.05,17.334z"/>
		<path opacity="0.25" fill="#FFFEF5" enable-background="new    " d="M225.087,161.296c-2.974-6.785-21.59-32.099-16.886-58.259
			c4.694-26.16,2.347-48.633-21.133-49.299c-23.48-0.675-15.46,24.478-35.235,25.828c-19.775,1.34-26.797-35.881-16.24-47.284
			c0,0-17.789-6.376-33.297,20.459C86.788,79.576,74.71,62.804,77.4,53.074s20.753-29.781,63.619-34.427
			c0,0,32.565,1.558,68.988,16.487c0,0-4.666-6.88-24.45-12.914s-32.403-8.723-44.538-8.723c-12.135,0-53.052,9.73-68.142,18.948
			c0,0,0.903-10.225,9.426-18.444c0,0-23.766,4.932-44.3,28.336c-8.381,9.559-14.197,21.799-13.218,29.686
			c0,0,7.535-6.376,6.604,8.381c-0.931,14.757-2.927,57.186,0,77.141s0.504,29.096,0.798,31.985
			c0.285,2.889-1.15,75.525-1.15,75.525l0.352,177.391l0.732,48.633c0,0-2.651,25.153-0.732,39.578s-1.264,36.983,0,44.272
			c1.264,7.288,1.919,28.859,16.259,36.736c14.339,7.868,31.101,2.67,33.62-2.186c2.518-4.865,15.594-18.777,22.977-9.73
			c7.374,9.056,6.538,16.601,4.865,18.444c0,0,23.642-6.025,19.622-19.86c0,0,15.594-2.604,19.955,7.954
			c0,0,10.766,0.171,15.023-5.872l16.496,10.899l10.063-15.09c0,0,15.479,9.654,10.567,18.777c0,0,20.126-10.396,14.928-23.984
			c-5.198-13.588-28.422-11.403-28.422-11.403s-56.254,1.093-64.978,0.675c-24.896-1.207-44.338-4.675-46.115-5.027
			c-5.027-1.017-18.397-6.519-23.699-11.831c-4.172-4.181-7.497-7.564-0.95-19.185c5.939-10.557,26.331-68.589,25.153-72.779
			c-1.178-4.191-4.191-113.193-4.191-113.193s-1.843-47.455-4.523-65.396c-2.68-17.941-3.354-23.48-0.171-24.649
			s40.461-4.191,72.713-4.191c32.251,0,73.815,3.022,75.706,1.036C218.15,263.057,225.087,161.296,225.087,161.296z"/>
		<path opacity="0.5" fill="#FFFEFA" enable-background="new    " d="M59.382,164.318c0,0-14.51-7.155-9.141-97.485
			c0,0-20.126,77.806,1.121,104.641C72.61,198.308,59.382,164.318,59.382,164.318z"/>
		<path opacity="0.5" fill="#FFFEFA" enable-background="new    " d="M24.775,73.351c0,0,4.542-34.313,38.675-50.467
			c0,0-26.645,15.917-34.646,47.275L24.775,73.351z"/>
		<path opacity="0.5" fill="#FFFEFA" enable-background="new    " d="M23.274,78.131c0,0,0.513,12.163,1.492,20.554
			c0.979,8.381,0.979,78.642,0.808,85.693c-0.171,7.041-3.592,41.288-3.592,41.288l-1.131-34.313l-0.124-92.155L23.274,78.131z"/>
		<path opacity="0.5" fill="#FFFEFA" enable-background="new    " d="M35.969,153.124c0,0,3.677,12.971,2.537,21.238
			c-1.131,8.277-2.528,16.772-1.159,22.359c0,0,1.15-3.126,3.155-4.029c2.015-0.893,0.162,10.918,7.127,37.326
			c6.956,26.398,19.299,86.178,20.202,103.13c0,0-3.183-46.799-6.766-72.608c-3.583-25.809-12.619-55.19-11.897-63.752
			C49.9,188.226,40.379,164.299,35.969,153.124z"/>
		<path opacity="0.5" fill="#FFFEFA" enable-background="new    " d="M68.866,353.454c0,0-5.492,85.636-23.975,124.092
			s-9.217,58.136-8.932,71.097c0,0,7.649-12.771,6.205-25.162c-1.444-12.391-3.563-20.839,3.088-34.057
			C51.904,476.206,71.451,426.186,68.866,353.454z"/>
		<path opacity="0.5" fill="#FFFEFA" enable-background="new    " d="M35.618,561.168c-0.143-0.333-2.224,20.791,9.474,44.044
			c5.806,11.536,34.684,14.976,34.684,14.976s-23.832-3.459-29.648-16.154C44.303,591.347,40.341,583.08,35.618,561.168z"/>
		<path opacity="0.5" fill="#FFFEFA" enable-background="new    " d="M20.29,438.415c0,0,3.221,13.189,2.547,20.126
			c-0.675,6.927,2.841,47.845,2.765,66.184c-0.076,18.33-1.425,49.508-1.425,49.508l-3.601-34.085l-0.285-26.939l1.036-19.604
			l-2.604-23.119l-0.58-21.418l0.637-15.346L20.29,438.415z"/>
		<path opacity="0.5" fill="#FFFEFA" enable-background="new    " d="M31.342,248.367c0,0,1.881,43.293,2.053,101.353
			c0.171,58.06,0,111.055,0,111.055s-2.167-91.328-2.214-115.084C31.133,321.934,31.342,248.367,31.342,248.367z"/>
		<path opacity="0.13" fill="#FFFFF8" enable-background="new    " d="M157.885,379.728c-3.487,5.616,10.206,53.679-12.059,58.05
			c-20.164,3.953-34.161-8.666-42.932-0.333c-6.443,6.129-2.889,16.572-7.374,18.112c-5.682,1.948-11.441,0.161-17.294-12.828
			c-11.023-24.488-7.374-53.071-9.36-89.266c-3.117-56.682-17.722-79.991-5.255-95.803c13.446-17.057,51.589-13.256,110.038-6.604
			c31.89,3.63,37.506,5.074,40.243,8.961c10.092,14.339-33.201,71.278-17.76,111.026
			C201.814,385.648,164.992,368.278,157.885,379.728z"/>
		<path d="M138.995,646.186c-9.921,0-54.439-0.779-84.125-14.045c-22.834-10.234-24.184-17.266-28.203-38.152l-0.542-2.832
			c-4.438-22.815-9.132-58.193-6.376-97.238c-0.209-1.9-3.668-33.734-2.233-51.788c1.34-17.066,2.965-291.782,2.366-338.496
			c-0.029-1.938-0.057-3.839-0.095-5.692c-0.399-22.378-0.713-40.062,17.76-61.072C52.532,19.852,76.535,8.82,110.915,3.156
			c24.535-4.039,41.393-3.734,66.783,1.188c30.93,5.996,52.767,16.629,66.764,32.517c18.473,21.019,18.159,38.703,17.76,61.082
			c-0.029,1.853-0.068,3.753-0.096,5.682c-0.57,46.98,1.084,321.771,2.396,338.496c1.406,18.045-2.024,49.878-2.233,51.779
			c2.737,39.064-1.977,74.442-6.405,97.238l-0.542,2.822c-4.01,20.886-5.369,27.918-28.203,38.152
			c-33.42,14.947-85.626,14.045-86.149,14.035C140.943,646.176,140.24,646.186,138.995,646.186z M141.37,2.273
			c-9.483,0-19.014,0.931-30.142,2.756C77.77,10.54,53.463,21.677,38.98,38.116C21.001,58.584,21.288,75.071,21.695,97.905
			c0.029,1.862,0.067,3.763,0.095,5.701c0.599,46.733-1.036,321.581-2.376,338.676c-1.454,18.34,2.195,51.18,2.233,51.513
			l0.009,0.086l-0.009,0.086c-2.756,38.874,1.929,74.109,6.338,96.83l0.551,2.832c3.982,20.706,5.179,26.949,27.11,36.784
			c33.03,14.767,84.839,13.883,85.361,13.874c0.561,0.019,52.338,0.903,85.369-13.874c21.932-9.826,23.13-16.078,27.111-36.784
			l0.542-2.832c4.409-22.711,9.103-57.936,6.367-96.83l-0.01-0.086l0.01-0.086c0.038-0.333,3.668-33.173,2.233-51.513
			c-1.311-16.753-2.974-291.677-2.404-338.676c0.029-1.938,0.056-3.839,0.094-5.701c0.409-22.834,0.704-39.331-17.284-59.789
			c-13.703-15.565-35.197-25.999-65.7-31.909C163.711,3.575,152.574,2.273,141.37,2.273z"/>
		<path opacity="0.51" enable-background="new    " d="M253.953,306.407c-1.663,2.005-2.879,8.581-2.879,16.42
			c0,8.087,1.302,14.843,3.041,16.601C256.661,326.99,254.219,308.308,253.953,306.407z"/>
		<path opacity="0.19" fill="#EBF3FF" enable-background="new    " d="M256.101,304.127c0,0-0.247,0.817,0,3.155
			c0.247,2.338,1.245,4.419,1.463,16.211c0.219,11.793-1.853,15.945-1.796,16.382c0.057,0.437,0.371,1.302,0.371,1.302
			s-0.561,0.865-1.026,0.646c-0.466-0.219-1.026-1.786-0.57-3.744c0.447-1.957,0.96-8.666,1.064-15.926
			c0.104-7.26-1.663-15.204-1.663-15.983c0-0.779-0.257-3.05,1.825-2.727C256.025,303.481,256.101,304.127,256.101,304.127z"/>
		<path d="M255.142,342.308c-0.019,0-0.047,0-0.067,0c-0.333-0.019-0.627-0.152-0.836-0.409c-0.675-0.798-0.447-2.651-0.152-4.998
			l0.057-0.494c1.539-12.581,0.114-24.393-0.361-27.709c-0.437-3.079-0.513-4.59,0.171-5.388c0.304-0.352,0.732-0.523,1.292-0.523
			c1.52,0,2.091,2.604,2.689,5.369c0.124,0.57,0.247,1.131,0.371,1.644c1.853,7.516,1.91,19.936,0.124,26.578
			C257.442,340.122,256.567,342.308,255.142,342.308z M255.256,303.737c-0.361,0-0.504,0.114-0.57,0.2
			c-0.485,0.561-0.257,2.509,0.047,4.628c0.475,3.345,1.91,15.261,0.361,27.956l-0.057,0.504c-0.219,1.777-0.466,3.782-0.066,4.267
			c0.038,0.038,0.076,0.067,0.152,0.067c0.009,0,0.009,0,0.019,0c0.988,0,2.043-3.924,2.395-5.226
			c1.748-6.519,1.691-18.72-0.133-26.103c-0.133-0.523-0.257-1.093-0.38-1.672C256.643,306.626,256.007,303.737,255.256,303.737z"/>
		<path opacity="0.51" enable-background="new    " d="M252.871,456.878c-1.663,2.005-2.879,8.581-2.879,16.42
			c0,8.087,1.302,14.843,3.041,16.601C255.579,477.461,253.137,458.779,252.871,456.878z"/>
		<path opacity="0.19" fill="#EBF3FF" enable-background="new    " d="M255.019,454.598c0,0-0.247,0.817,0,3.155
			c0.247,2.347,1.245,4.419,1.463,16.211c0.218,11.792-1.853,15.945-1.796,16.382c0.057,0.437,0.371,1.302,0.371,1.302
			s-0.561,0.865-1.026,0.646c-0.466-0.219-1.026-1.786-0.57-3.744c0.456-1.957,0.96-8.666,1.064-15.926
			c0.104-7.26-1.663-15.204-1.663-15.983c0-0.779-0.257-3.05,1.825-2.727C254.943,453.952,255.019,454.598,255.019,454.598z"/>
		<path d="M254.06,492.779c-0.019,0-0.038,0-0.067,0c-0.333-0.019-0.627-0.152-0.836-0.409c-0.675-0.798-0.447-2.651-0.152-4.989
			l0.067-0.504c1.539-12.591,0.114-24.393-0.361-27.709c-0.437-3.079-0.513-4.59,0.171-5.388c0.304-0.352,0.732-0.523,1.292-0.523
			c1.52,0,2.091,2.613,2.689,5.369c0.124,0.57,0.247,1.131,0.371,1.644c1.853,7.516,1.91,19.936,0.124,26.578
			C256.359,490.593,255.485,492.779,254.06,492.779z M254.174,454.208c-0.361,0-0.504,0.114-0.57,0.2
			c-0.485,0.561-0.257,2.509,0.048,4.628c0.475,3.345,1.91,15.261,0.361,27.956l-0.067,0.513c-0.219,1.767-0.466,3.772-0.057,4.257
			c0.038,0.038,0.076,0.067,0.152,0.067c0.01,0,0.01,0,0.019,0c0.988,0,2.043-3.924,2.395-5.226
			c1.758-6.519,1.691-18.72-0.133-26.103c-0.133-0.523-0.257-1.093-0.38-1.672C255.561,457.097,254.924,454.208,254.174,454.208z"/>
		<path opacity="0.51" enable-background="new    " d="M28.137,306.407c1.663,2.005,2.879,8.581,2.879,16.42
			c0,8.087-1.302,14.843-3.041,16.601C25.429,326.99,27.871,308.308,28.137,306.407z"/>
		<path opacity="0.19" fill="#EBF3FF" enable-background="new    " d="M25.991,304.127c0,0,0.247,0.817,0,3.155
			c-0.247,2.338-1.245,4.419-1.463,16.211c-0.219,11.793,1.853,15.945,1.796,16.382c-0.057,0.437-0.371,1.302-0.371,1.302
			s0.561,0.865,1.026,0.646c0.466-0.219,1.026-1.786,0.57-3.744c-0.456-1.958-0.96-8.666-1.064-15.926
			c-0.114-7.269,1.663-15.204,1.663-15.983c0-0.779,0.257-3.05-1.824-2.727C26.067,303.481,25.991,304.127,25.991,304.127z"/>
		<path d="M26.95,342.308c-1.425,0-2.3-2.176-3.307-5.93c-1.786-6.642-1.729-19.062,0.124-26.578
			c0.124-0.513,0.247-1.074,0.371-1.644c0.599-2.765,1.169-5.369,2.689-5.369c0.551,0,0.988,0.181,1.292,0.523
			c0.694,0.798,0.618,2.309,0.171,5.388c-0.475,3.316-1.891,15.128-0.361,27.709l0.067,0.504c0.295,2.338,0.523,4.191-0.152,4.989
			c-0.209,0.247-0.504,0.39-0.836,0.409C26.988,342.308,26.969,342.308,26.95,342.308z M26.836,303.737
			c-0.751,0-1.387,2.889-1.767,4.618c-0.124,0.58-0.247,1.14-0.38,1.672c-1.824,7.383-1.881,19.585-0.133,26.103
			c0.352,1.292,1.406,5.226,2.395,5.226c0.009,0,0.009,0,0.019,0c0.086,0,0.124-0.029,0.152-0.067
			c0.409-0.485,0.162-2.49-0.067-4.257l-0.057-0.504c-1.549-12.695-0.114-24.611,0.361-27.956c0.304-2.119,0.532-4.067,0.048-4.628
			C27.339,303.842,27.197,303.737,26.836,303.737z"/>
		<path opacity="0.51" enable-background="new    " d="M29.221,456.878c1.663,2.005,2.879,8.581,2.879,16.42
			c0,8.087-1.302,14.843-3.041,16.601C26.513,477.461,28.955,458.779,29.221,456.878z"/>
		<path opacity="0.19" fill="#EBF3FF" enable-background="new    " d="M27.073,454.598c0,0,0.247,0.817,0,3.155
			c-0.247,2.347-1.245,4.419-1.463,16.211c-0.219,11.792,1.853,15.945,1.796,16.382c-0.057,0.437-0.371,1.302-0.371,1.302
			s0.561,0.865,1.026,0.646c0.466-0.219,1.026-1.786,0.57-3.744c-0.447-1.957-0.96-8.666-1.064-15.926
			c-0.104-7.26,1.663-15.204,1.663-15.983c0-0.779,0.257-3.05-1.824-2.727C27.149,453.952,27.073,454.598,27.073,454.598z"/>
		<path d="M28.032,492.779c-1.425,0-2.3-2.176-3.307-5.93c-1.786-6.642-1.729-19.062,0.124-26.578
			c0.124-0.513,0.247-1.074,0.371-1.644c0.599-2.765,1.169-5.369,2.689-5.369c0.551,0,0.988,0.181,1.292,0.523
			c0.694,0.798,0.608,2.309,0.171,5.388c-0.475,3.316-1.891,15.128-0.361,27.709l0.057,0.504c0.295,2.347,0.523,4.191-0.152,4.989
			c-0.209,0.247-0.504,0.39-0.836,0.409C28.079,492.779,28.051,492.779,28.032,492.779z M27.918,454.208
			c-0.751,0-1.387,2.889-1.767,4.618c-0.124,0.58-0.247,1.14-0.38,1.672c-1.824,7.383-1.881,19.584-0.133,26.103
			c0.352,1.292,1.406,5.226,2.395,5.226c0.01,0,0.01,0,0.019,0c0.086,0,0.114-0.029,0.152-0.067c0.409-0.485,0.161-2.49-0.057-4.267
			l-0.057-0.504c-1.549-12.695-0.114-24.611,0.361-27.956c0.304-2.119,0.532-4.067,0.047-4.628
			C28.422,454.313,28.279,454.208,27.918,454.208z"/>
		<path d="M235.024,171.359l-0.703-0.646c4.352-4.552,10.291-10.776,11.393-27.12c1.102-16.382-1.891-49.432-4.856-61.224
			c-2.718-10.814-1.739-17.798-1.501-19.128c-10.101-12.657-25.229-25.552-26.322-26.483c-49.052-18.34-71.781-17.646-72.009-17.637
			l-0.038-0.95c0.228-0.01,23.148-0.722,72.456,17.732l0.143,0.086c0.162,0.133,16.164,13.636,26.654,26.844l0.143,0.171
			l-0.048,0.219c-0.019,0.076-1.454,7.355,1.454,18.929c2.974,11.859,5.987,45.061,4.884,61.519
			C245.543,160.355,239.471,166.712,235.024,171.359z"/>
		<path fill="#1D1D1B" d="M141.017,3.28c0,0,49.109-0.371,58.706,23.053c0,0-25.466-12.23-40.946-12.819
			c-2.176-0.086-2.946-0.998-3.43-2.357c-0.475-1.359-3.221-4.533-14.339-4.533"/>
		<path d="M200.627,27.302l-1.112-0.532c-0.257-0.124-25.552-12.192-40.756-12.771c-2.604-0.095-3.411-1.406-3.858-2.67
			c-0.152-0.428-1.834-4.219-13.893-4.219V6.16c12.144,0,14.387,3.715,14.786,4.856c0.437,1.235,1.064,1.967,2.993,2.043
			c13.512,0.513,34.798,9.949,39.977,12.325C188.273,3.671,141.483,3.775,141.018,3.775l-0.01-0.95
			c2.015,0,49.536-0.114,59.143,23.347L200.627,27.302z"/>
		<path fill="#B1B1B1" d="M141.008,8.544c5.977,0,10.833,1.53,10.833,3.411s-4.846,3.411-10.833,3.411"/>
		<path d="M141.008,15.833v-0.95c5.93,0,10.358-1.549,10.358-2.936s-4.438-2.927-10.358-2.927V8.07
			c5.483,0,11.308,1.359,11.308,3.886C152.316,14.483,146.482,15.833,141.008,15.833z"/>
		<path fill="#AABBE8" d="M200.303,15.034c0,0,8.239,11.621,12.98,21.304c0,0,16.012,12.591,26.588,26.778
			c0,0,6.899,9.702,8.4,12.809c1.501,3.098,3.772,9.027,5.283,9.483s1.425-7.231,0-14.672c-1.425-7.431-7.212-14.881-13.921-22.682
			C232.925,40.235,216.477,25.373,200.303,15.034z"/>
		<path d="M253.679,85.894c-0.086,0-0.171-0.009-0.266-0.038c-1.273-0.38-2.594-3.136-4.447-7.279
			c-0.399-0.893-0.779-1.748-1.121-2.452c-1.463-3.031-8.286-12.638-8.353-12.733c-10.415-13.969-26.331-26.55-26.493-26.673
			l-0.133-0.162c-4.675-9.54-12.866-21.124-12.942-21.238l-1.406-1.986l2.053,1.311C217.4,25.41,233.763,40.481,240.006,47.75
			c6.272,7.298,12.524,15.08,14.026,22.901c1.197,6.253,1.634,13.769,0.257,15.014C254.097,85.809,253.897,85.894,253.679,85.894z
			 M213.664,36.035c1.283,1.026,16.487,13.256,26.588,26.797c0.285,0.409,6.946,9.787,8.448,12.885
			c0.342,0.713,0.732,1.568,1.131,2.471c1.159,2.575,2.898,6.471,3.858,6.756c0.694-0.485,0.808-6.785-0.599-14.121
			c-1.454-7.592-7.621-15.261-13.807-22.464c-5.958-6.927-21.181-21.019-37.211-31.605
			C204.608,20.479,210.119,28.813,213.664,36.035z"/>
		<path d="M260.795,97.943c-1.159-14.282-2.898-21.932-3.421-23.481c-0.409-1.235-3.326-3.231-4.419-3.886l0.494-0.808
			c0.428,0.266,4.229,2.613,4.827,4.4c0.532,1.587,2.3,9.341,3.468,23.709L260.795,97.943z"/>
		<path d="M246.331,195.951l-0.247-1.131c-2.547-11.583-9.075-16.477-9.141-16.525l0.561-0.77c0.276,0.2,6.471,4.846,9.246,15.983
			l4.153-6.557l0.124-0.057c0.209-0.105,5.207-2.528,10.073-3.022l0.095,0.95c-4.295,0.437-8.847,2.499-9.635,2.87L246.331,195.951z
			"/>
		<path fill="#A80515" d="M248.785,578.719c0,0-3.839,19.661-10.985,28.935s-18.891,17.703-35.568,21.704
			c0,0,25.752-0.608,37.905-15.118C252.301,599.738,250.058,585.294,248.785,578.719z"/>
		<path d="M197.795,629.946l4.333-1.045c18.976-4.561,29.667-14.225,35.302-21.532c6.994-9.075,10.852-28.536,10.89-28.735
			l0.466-2.395l0.466,2.404c1.72,8.885,2.68,22.283-8.742,35.919c-12.154,14.501-38,15.28-38.257,15.28L197.795,629.946z
			 M248.737,581.208c-1.264,5.549-4.837,19.309-10.557,26.74c-5.207,6.756-14.653,15.489-30.788,20.497
			c8.115-1.007,23.794-4.248,32.394-14.501C249.973,601.781,250.077,589.817,248.737,581.208z"/>
		<path d="M141.036,638.945l-0.038-0.95c0.257-0.01,25.59-0.941,35.397-2.224c9.113-1.197,9.512-3.601,9.512-3.63v-0.399
			l15.831-2.841c14.757-1.463,21.761-4.2,23.186-4.818c-0.095-2.87,0.152-5.112,2.357-13.493c0.456-1.72,0.931-3.373,1.416-5.046
			c1.986-6.899,4.048-14.026,4.428-26.056c0.456-14.558-8.533-20.858-8.628-20.915l0.532-0.789
			c0.095,0.067,9.512,6.661,9.037,21.732c-0.38,12.144-2.452,19.337-4.457,26.284c-0.485,1.663-0.96,3.316-1.406,5.027
			c-2.376,8.999-2.423,10.833-2.319,13.541l0.01,0.304l-0.276,0.133c-0.276,0.133-6.975,3.364-23.756,5.027l-15.099,2.718
			c-0.342,0.931-2.024,3.088-10.253,4.162C166.673,638.004,141.292,638.935,141.036,638.945z"/>
		<path fill="#7F7F7F" d="M141.018,628.91c0,0,6.224-0.295,8.267,2.281c0,0,21.247-0.561,31.159-0.323
			c4.02,0.095,5.939,1.273,5.939,1.273s-2.499,1.644-5.797,1.644s-31.187,1.055-31.187,1.055s-2.404,1.454-8.391,1.454"/>
		<path d="M141.008,636.769v-0.95c5.739,0,8.115-1.378,8.144-1.387l0.105-0.067l0.124-0.01c0.276-0.01,27.937-1.055,31.206-1.055
			c2.034,0,3.773-0.665,4.732-1.121c-0.893-0.333-2.509-0.779-4.884-0.836c-9.778-0.238-30.921,0.323-31.13,0.323l-0.238,0.01
			l-0.152-0.19c-1.862-2.357-7.811-2.1-7.868-2.1l-0.047-0.95c0.257-0.019,6.205-0.266,8.505,2.281
			c2.328-0.057,21.694-0.542,30.949-0.323c4.105,0.095,6.091,1.292,6.177,1.34l0.637,0.39l-0.627,0.409
			c-0.104,0.067-2.661,1.72-6.063,1.72c-3.145,0-29.115,0.979-31.063,1.055C148.962,635.6,146.406,636.769,141.008,636.769z"/>
		<path fill="#231F20" d="M210.87,466.333l-0.95-0.029c0.01-0.475,1.292-48.32,2.471-103.348
			c1.178-55.076,9.189-97.571,9.265-97.989l0.931,0.181c-0.076,0.418-8.068,42.846-9.246,97.837
			C212.162,418.004,210.88,465.849,210.87,466.333z"/>
		<path d="M247.3,346.508c-0.58,0-0.922-0.029-0.988-0.038l0.095-0.95c0.076,0.009,7.545,0.656,15.375-5.131l0.57,0.76
			C255.815,345.985,249.648,346.508,247.3,346.508z"/>
		<path d="M253.849,500.732c-0.228,0-0.447-0.01-0.656-0.038c-3.905-0.456-7.203-4.675-7.203-7.089h0.95
			c0,2.043,2.974,5.758,6.357,6.148c3.573,0.399,6.376-3.05,7.953-9.759l0.922,0.219C260.092,499.136,256.3,500.732,253.849,500.732
			z"/>
		<path d="M46.991,171.368c-4.447-4.656-10.529-11.023-11.659-27.719c-1.112-16.458,1.91-49.669,4.884-61.519
			c2.908-11.574,1.463-18.862,1.454-18.929l-0.048-0.219l0.143-0.171c10.491-13.208,26.493-26.702,26.654-26.844l0.143-0.086
			c49.317-18.454,72.228-17.741,72.455-17.732l-0.038,0.95c-0.219-0.01-22.967-0.694-72.009,17.637
			c-1.093,0.931-16.23,13.826-26.322,26.483c0.228,1.33,1.207,8.315-1.501,19.128c-2.965,11.793-5.958,44.842-4.856,61.224
			c1.102,16.354,7.041,22.568,11.384,27.11L46.991,171.368z"/>
		<path fill="#1D1D1B" d="M140.997,3.28c0,0-49.109-0.371-58.706,23.053c0,0,25.466-12.23,40.946-12.819
			c2.176-0.086,2.946-0.998,3.43-2.357c0.475-1.359,3.221-4.533,14.339-4.533"/>
		<path d="M81.389,27.302l0.466-1.14c9.607-23.461,57.119-23.366,59.143-23.347l-0.01,0.95c-0.485,0-47.256-0.105-57.746,21.609
			c5.169-2.376,26.455-11.812,39.977-12.325c1.929-0.076,2.566-0.808,2.993-2.043c0.399-1.14,2.651-4.856,14.786-4.856V7.1
			c-12.059,0-13.74,3.791-13.893,4.219c-0.447,1.264-1.254,2.575-3.858,2.67c-15.204,0.58-40.499,12.648-40.756,12.771
			L81.389,27.302z"/>
		<path fill="#B1B1B1" d="M141.007,8.544c-5.977,0-10.833,1.53-10.833,3.411s4.846,3.411,10.833,3.411"/>
		<path d="M141.007,15.833c-5.483,0-11.308-1.359-11.308-3.886c0-2.527,5.825-3.886,11.308-3.886v0.95
			c-5.93,0-10.358,1.549-10.358,2.936s4.428,2.936,10.358,2.936V15.833z"/>
		<path fill="#FFFFF8" d="M81.702,15.034c0,0-8.239,11.621-12.98,21.304c0,0-16.012,12.591-26.588,26.778
			c0,0-6.899,9.702-8.4,12.809c-1.501,3.098-3.772,9.027-5.283,9.483s-1.425-7.231,0-14.672c1.425-7.431,7.212-14.881,13.921-22.682
			C49.08,40.254,65.529,25.373,81.702,15.034z"/>
		<path d="M28.327,85.894c-0.219,0-0.418-0.086-0.599-0.238c-1.378-1.245-0.941-8.761,0.257-15.014
			c1.501-7.82,7.754-15.603,14.026-22.901c6.243-7.269,22.606-22.34,39.435-33.106l2.052-1.311l-1.406,1.986
			c-0.086,0.114-8.277,11.697-12.942,21.238l-0.133,0.162c-0.161,0.124-16.078,12.714-26.502,26.683
			c-0.067,0.086-6.88,9.702-8.353,12.733c-0.342,0.703-0.722,1.549-1.121,2.442c-1.862,4.153-3.174,6.899-4.457,7.279
			C28.499,85.875,28.413,85.894,28.327,85.894z M79.945,16.745C63.924,27.34,48.692,41.423,42.734,48.36
			c-6.186,7.203-12.353,14.871-13.807,22.464c-1.406,7.336-1.302,13.636-0.542,14.13c0.903-0.295,2.642-4.191,3.801-6.775
			c0.409-0.903,0.789-1.758,1.131-2.471c1.501-3.098,8.153-12.477,8.438-12.876c10.101-13.55,25.314-25.78,26.597-26.806
			C71.887,28.813,77.398,20.479,79.945,16.745z"/>
		<path d="M21.21,97.943l-0.95-0.076c1.169-14.358,2.936-22.122,3.468-23.709c0.599-1.786,4.4-4.143,4.827-4.4l0.494,0.808
			c-1.093,0.665-4.01,2.651-4.419,3.886C24.108,76.012,22.369,83.671,21.21,97.943z"/>
		<path d="M35.674,195.951l-5.226-8.258c-0.789-0.371-5.34-2.433-9.635-2.87l0.095-0.95c4.865,0.494,9.864,2.917,10.073,3.022
			l0.124,0.057l4.153,6.557c2.775-11.127,8.97-15.784,9.246-15.983l0.561,0.77c-0.066,0.048-6.604,4.97-9.141,16.525L35.674,195.951
			z"/>
		<path fill="#F2162C" d="M33.222,578.719c0,0,3.839,19.661,10.985,28.935s18.891,17.703,35.568,21.704
			c0,0-25.752-0.608-37.905-15.118C29.706,599.738,31.949,585.294,33.222,578.719z"/>
		<path d="M84.212,629.946l-4.457-0.105c-0.257-0.01-26.103-0.779-38.257-15.28c-11.431-13.636-10.462-27.034-8.742-35.919
			l0.466-2.404l0.466,2.404c0.038,0.2,3.896,19.661,10.89,28.735c5.635,7.307,16.325,16.971,35.302,21.532L84.212,629.946z
			 M33.27,581.208c-1.34,8.609-1.226,20.582,8.961,32.736c8.59,10.253,24.279,13.493,32.394,14.501
			c-16.135-5.008-25.59-13.741-30.788-20.497C38.107,600.517,34.534,586.758,33.27,581.208z"/>
		<path d="M140.97,638.945c-0.257-0.009-25.638-0.941-35.482-2.233c-8.229-1.074-9.911-3.231-10.253-4.162l-15.137-2.718
			c-16.734-1.663-23.433-4.894-23.718-5.027l-0.276-0.133l0.009-0.304c0.105-2.708,0.057-4.542-2.319-13.541
			c-0.447-1.71-0.931-3.364-1.406-5.027c-2.005-6.956-4.077-14.14-4.466-26.293c-0.475-15.071,8.942-21.666,9.037-21.732
			l0.532,0.789c-0.095,0.067-9.084,6.395-8.628,20.915c0.38,12.03,2.433,19.157,4.428,26.056c0.485,1.672,0.96,3.326,1.416,5.046
			c2.205,8.381,2.452,10.633,2.357,13.493c1.425,0.618,8.429,3.354,23.148,4.818l15.869,2.851v0.399c0,0,0.352,2.433,9.512,3.63
			c9.807,1.283,35.14,2.214,35.397,2.224L140.97,638.945z"/>
		<path fill="#7F7F7F" d="M140.989,628.91c0,0-6.224-0.295-8.267,2.281c0,0-21.247-0.561-31.158-0.323
			c-4.02,0.095-5.939,1.273-5.939,1.273s2.499,1.644,5.797,1.644c3.297,0,31.187,1.055,31.187,1.055s2.404,1.454,8.391,1.454"/>
		<path d="M141.007,636.769c-5.397,0-7.963-1.169-8.514-1.463c-1.948-0.076-27.918-1.055-31.063-1.055
			c-3.402,0-5.948-1.644-6.063-1.72l-0.627-0.409l0.637-0.39c0.086-0.047,2.072-1.245,6.177-1.34
			c9.255-0.219,28.631,0.257,30.949,0.323c2.3-2.547,8.248-2.29,8.505-2.281l-0.047,0.95c-0.057,0-6.006-0.257-7.868,2.1
			l-0.152,0.19l-0.238-0.01c-0.209-0.01-21.352-0.561-31.13-0.323c-2.376,0.057-3.991,0.504-4.884,0.836
			c0.96,0.466,2.699,1.121,4.732,1.121c3.269,0,30.93,1.045,31.206,1.055h0.124l0.104,0.067c0.019,0.01,2.404,1.387,8.144,1.387
			v0.96h0.008V636.769z"/>
		<path fill="#231F20" d="M71.137,466.333c-0.01-0.475-1.292-48.32-2.471-103.358c-1.178-54.991-9.17-97.409-9.246-97.837
			l0.931-0.181c0.076,0.418,8.087,42.922,9.265,97.989c1.178,55.029,2.461,102.873,2.471,103.348L71.137,466.333z"/>
		<path d="M34.704,346.508c-2.347,0-8.514-0.523-15.052-5.35l0.561-0.76c7.849,5.806,15.299,5.141,15.375,5.131l0.095,0.941
			C35.625,346.47,35.283,346.508,34.704,346.508z"/>
		<path d="M28.167,500.732c-2.452,0-6.234-1.606-8.343-10.519l0.922-0.219c1.577,6.709,4.409,10.168,7.963,9.759
			c3.383-0.39,6.348-4.105,6.348-6.148h0.95c0,2.414-3.288,6.642-7.184,7.089C28.623,500.723,28.405,500.732,28.167,500.732z"/>
		<path d="M31.284,544.538h-4.542c-1.929,0-3.326-1.397-3.326-3.326c0-0.219-0.057-0.874-0.124-1.786
			c-0.209-2.547-0.589-7.279-0.589-12.021c0-6.718,0.551-11.251,0.741-12.306c0.504-2.775,2.062-3.706,3.288-3.991l4.466-0.827
			c0.019,0,0.038,0,0.047,0c1.501,0,3.364,0.371,3.364,3.316c0,0.39-0.067,1.226-0.162,2.499c-0.219,2.775-0.57,7.421-0.57,11.869
			c0,4.713,0.399,9.208,0.608,11.612c0.076,0.874,0.124,1.406,0.124,1.634C34.61,543.046,33.118,544.538,31.284,544.538z
			 M31.284,511.223l-4.352,0.817c-1.682,0.399-2.319,1.977-2.547,3.231c-0.238,1.302-0.732,5.987-0.732,12.135
			c0,4.704,0.38,9.407,0.589,11.945c0.076,0.969,0.133,1.606,0.133,1.862c0,1.397,0.979,2.376,2.376,2.376h4.542
			c1.311,0,2.376-1.064,2.376-2.376c0-0.181-0.057-0.789-0.124-1.549c-0.219-2.423-0.618-6.937-0.618-11.698
			c0-4.485,0.361-9.151,0.58-11.945c0.095-1.207,0.162-2.072,0.162-2.423C33.659,511.612,32.785,511.223,31.284,511.223z"/>
		<path fill="#636870" d="M237.116,236.384c-6.671,31.89-12.144,68.674-12.03,95.385c0.086,18.159,0.703,44.5,1.672,65.025
			c0.912,19.043,3.772,35.653,7.706,52.263C237.477,352.779,237.277,264.521,237.116,236.384z"/>
		<path fill="#1D1D1B" d="M246.257,198.355c-3.031,10.871-6.205,23.975-9.141,38.029c0.162,28.146,0.361,116.395-2.651,212.683
			c3.383,14.311,7.564,28.64,12.011,44.538L246.257,198.355z"/>
		<path fill="#0B0B0B" d="M245.981,216.704l0.133-9.835l-0.133-7.516c-2.48,9.483-6.538,25.923-8.942,37.345
			c3.155-4.96,4.77-7.811,6.414-8.913l2.661-0.703L245.981,216.704z"/>
		<path fill="#080909" d="M233.361,444.297c0,0,8.514-2.632,13.113-4.428l-0.038,2.518c0,0-6.053,2.528-12.562,4.172
			L233.361,444.297z"/>
		<path fill="#080909" d="M246.333,333.147c0,0-8.97,9.398-21.095,13.465l0.266,14.33c12.657-1.292,20.848-4.903,20.848-4.903
			L246.333,333.147z"/>
		<path d="M225.455,353.92l-0.209-0.931c10.519-2.328,20.801-7.374,20.905-7.421l0.418,0.855
			C246.475,346.47,236.079,351.563,225.455,353.92z"/>
		<path d="M246.951,497.074l-0.931-3.345c-0.836-3.003-1.672-5.939-2.49-8.837c-8.419-29.866-15.698-55.665-17.247-88.078
			c-0.912-19.309-1.587-45.45-1.672-65.044c-0.152-37.259,10.538-95.385,21.19-133.547l0.931-3.335L246.951,497.074z
			 M245.782,201.871c-10.31,38.086-20.373,93.817-20.221,129.898c0.086,19.585,0.76,45.707,1.672,65.006
			c1.549,32.299,8.809,58.05,17.218,87.859c0.513,1.815,1.026,3.649,1.549,5.502L245.782,201.871z"/>
		<path fill="#878B91" d="M44.977,236.384c6.671,31.89,12.144,68.674,12.03,95.385c-0.086,18.159-0.703,44.5-1.672,65.025
			c-0.912,19.043-3.772,35.653-7.706,52.263C44.616,352.779,44.815,264.521,44.977,236.384z"/>
		<path fill="#323435" d="M35.836,198.355c3.031,10.871,6.205,23.975,9.141,38.029c-0.162,28.146-0.361,116.395,2.651,212.683
			c-3.383,14.311-7.564,28.64-12.011,44.538L35.836,198.355z"/>
		<path fill="#1D1D1E" d="M36.102,216.704l-0.133-9.835l0.133-7.516c2.48,9.483,6.538,25.923,8.942,37.345
			c-3.155-4.96-4.77-7.811-6.414-8.913l-2.661-0.703L36.102,216.704z"/>
		<path fill="#141516" d="M48.73,444.297c0,0-8.514-2.632-13.113-4.428l0.038,2.518c0,0,6.053,2.528,12.562,4.172L48.73,444.297z"/>
		<path fill="#141516" d="M35.751,333.147c0,0,8.97,9.398,21.095,13.465l-0.266,14.33c-12.657-1.292-20.848-4.903-20.848-4.903
			L35.751,333.147z"/>
		<path d="M56.628,353.92c-10.624-2.357-21.01-7.45-21.114-7.497l0.418-0.855c0.104,0.048,10.386,5.093,20.905,7.421L56.628,353.92z
			"/>
		<path d="M35.143,497.074l0.219-302.177l0.931,3.335c10.652,38.162,21.342,96.288,21.19,133.547
			c-0.086,19.594-0.76,45.735-1.672,65.044c-1.549,32.413-8.828,58.202-17.247,88.078c-0.817,2.898-1.644,5.844-2.49,8.837
			L35.143,497.074z M36.302,201.871l-0.209,288.275c0.523-1.853,1.036-3.687,1.549-5.502c8.41-29.819,15.669-55.561,17.209-87.859
			c0.912-19.299,1.587-45.422,1.672-65.006C56.685,295.689,46.622,239.957,36.302,201.871z"/>
		<path fill="#121313" d="M141.017,574.167c0,0-49.916,1.558-75.155-10.747c-14.434-7.032-13.817-11.175-12.98-24.839
			c0.589-9.531,0.808-42.4,4.419-58.563c3.611-16.05,13.465-13.978,27.234-13.389l44.291,1.948l24.184,0.01l44.462-1.948
			c13.769-0.589,23.652-2.67,27.234,13.389c3.611,16.164,3.829,49.023,4.419,58.563c0.836,13.655,1.454,17.808-12.98,24.839
			C190.933,575.735,141.017,574.167,141.017,574.167z"/>
		<path fill="#1D1D1B" d="M229.123,538.59c-0.589-9.531-0.808-42.4-4.419-58.563c-3.582-16.05-13.465-13.978-27.234-13.389
			l-44.462,1.948l-24.184-0.01l-44.291-1.938c-13.76-0.589-23.623-2.67-27.234,13.389c-3.611,16.164-3.82,49.023-4.419,58.563
			c-0.836,13.655-1.454,17.808,12.98,24.839c25.238,12.306,75.155,10.747,75.155,10.747s49.916,1.558,75.126-10.747
			C230.577,556.388,229.96,552.245,229.123,538.59z M214.262,559.581c-23.956,11.697-72.627,10.329-73.112,10.32h-0.133h-0.133
			c-0.494,0.01-49.137,1.397-73.15-10.32c-11.526-5.607-11.422-7.222-10.643-19.765l0.057-0.96c0.143-2.233,0.257-5.587,0.399-9.826
			c0.456-13.455,1.226-35.986,3.924-48.063c1.977-8.809,5.473-10.481,12.743-10.481c1.919,0,4.105,0.114,6.595,0.247
			c1.15,0.057,2.328,0.124,3.535,0.181l44.291,1.938l24.374,0.01l44.652-1.958c1.207-0.047,2.395-0.114,3.535-0.181
			c11.926-0.637,16.848-0.903,19.337,10.225c2.699,12.087,3.468,34.608,3.924,48.063c0.143,4.238,0.257,7.583,0.399,9.816
			l0.057,0.96C225.693,552.359,225.788,553.965,214.262,559.581z"/>
		<path opacity="0.47" fill="#CFDFF9" enable-background="new    " d="M65.862,512.667c25.238,12.306,75.155,10.747,75.155,10.747
			s49.916,1.558,75.126-10.747c6.224-3.031,9.645-5.53,11.46-8.476c-0.599-9.008-1.492-17.855-2.898-24.155
			c-3.582-16.05-13.465-13.978-27.234-13.389l-44.462,1.948l-24.184-0.01l-44.291-1.938c-13.76-0.589-23.623-2.67-27.234,13.389
			c-1.406,6.3-2.3,15.147-2.898,24.155C56.217,507.137,59.638,509.636,65.862,512.667z"/>
		<path d="M146.167,574.699c-3.079,0-4.951-0.047-5.15-0.057c-1.102,0.038-50.458,1.349-75.364-10.795
			c-14.377-7.003-14.111-11.365-13.303-24.336l0.057-0.96c0.133-2.176,0.247-5.492,0.39-9.692
			c0.466-13.627,1.245-36.423,4.039-48.938c3.383-15.052,12.125-14.586,24.222-13.931c1.131,0.057,2.3,0.124,3.487,0.171
			l44.291,1.938l24.163,0.011l44.443-1.948c1.188-0.047,2.357-0.114,3.487-0.171c12.116-0.646,20.867-1.121,24.231,13.931
			c2.794,12.515,3.573,35.32,4.039,48.938c0.143,4.2,0.257,7.516,0.39,9.692l0.057,0.96c0.798,12.961,1.074,17.332-13.313,24.336
			C196.102,573.739,159.632,574.699,146.167,574.699z M74.367,466.694c-8.372,0-14.026,1.977-16.601,13.436
			c-2.775,12.429-3.554,35.178-4.01,48.766c-0.143,4.21-0.257,7.535-0.39,9.721l-0.057,0.96
			c-0.789,12.828-1.036,16.696,12.771,23.424c24.849,12.116,74.432,10.719,74.927,10.7h0.029c0.504,0.019,50.087,1.416,74.898-10.7
			c13.807-6.728,13.569-10.595,12.781-23.424l-0.057-0.96c-0.133-2.186-0.247-5.511-0.39-9.721
			c-0.466-13.588-1.235-36.337-4.02-48.766c-3.183-14.273-11.165-13.845-23.252-13.189c-1.14,0.057-2.3,0.124-3.497,0.171
			l-44.462,1.948l-24.212-0.01l-44.31-1.938c-1.197-0.048-2.366-0.114-3.497-0.171C78.633,466.808,76.419,466.694,74.367,466.694z"
			/>
		<path fill="#121313" d="M189.917,291.698c10.044,0.456,12.695,9.768,12.695,14.624v38.399l-0.01,0.095
			c-0.741,10.5-9.132,14.235-16.734,14.235c-0.304,0-0.532-0.009-0.656-0.009H96.801c-0.124,0.009-0.342,0.009-0.656,0.009
			c-7.621,0-16.021-3.744-16.762-14.235l-0.01-0.095v-38.399c0-4.856,2.651-14.168,12.695-14.624h0.057H189.917z"/>
		<path fill="#1D1D1B" d="M189.918,291.698H92.146H92.09c-10.044,0.456-12.695,9.768-12.695,14.624v38.399l0.01,0.095
			c0.741,10.5,9.141,14.235,16.762,14.235c0.304,0,0.532-0.009,0.656-0.009h88.42c0.124,0.009,0.342,0.009,0.656,0.009
			c7.602,0,15.993-3.744,16.734-14.235l0.01-0.095v-38.399C202.623,301.457,199.972,292.144,189.918,291.698z M197.292,343.676
			c0,5.682-4.609,10.282-10.282,10.282H94.998c-5.682,0-10.282-4.609-10.282-10.282v-36.613c0-5.682,4.609-10.282,10.282-10.282
			h92.012c5.682,0,10.282,4.609,10.282,10.282V343.676z"/>
		<path opacity="0.33" fill="#F3FAFF" enable-background="new    " d="M202.623,318.352c-1.473-10.51-8.286-22.131-45.735-13.864
			c0,0,19.898,3.487,19.337,18.786c-0.561,15.308-18.549,20.668-34.817,21.124c-16.268,0.447-33.601-4.542-35.948-12.277
			c-2.347-7.735,1.901-18.235,12.078-22.654c0,0-43.065,15.622-20.725,49.565c0,0-4.162,0.105-7.507-1.083
			c-3.354-1.197-9.255-4.799-9.911-11.678v-40.499c0,0,0.114-5.245,2.357-8.058c2.243-2.813,4.533-6.034,9.816-6.034
			c5.283,0,98.018,0,98.018,0s5.369,0.162,8.97,3.601c3.601,3.44,4.067,13.018,4.067,13.018V318.352z"/>
		<path d="M185.879,359.517c-0.323,0-0.551-0.009-0.675-0.019H96.812c-0.095,0.01-0.333,0.01-0.656,0.01
			c-7.83,0-16.468-3.858-17.237-14.681l-0.009-0.095v-38.428c0-5.017,2.746-14.624,13.151-15.099h97.866h0.01
			c10.405,0.475,13.151,10.082,13.151,15.099l-0.01,38.523C202.327,355.668,193.699,359.517,185.879,359.517z M185.233,358.557
			c0.143,0.01,0.352,0.01,0.656,0.01c7.393,0,15.546-3.62,16.259-13.798l0.009-38.456c0-4.704-2.556-13.703-12.239-14.149H92.157
			c-9.73,0.437-12.287,9.445-12.287,14.149v38.399c0.722,10.234,8.885,13.855,16.287,13.855c0.295,0,0.513-0.01,0.627-0.01H185.233z
			"/>
		<path fill="#121313" d="M141.019,142.196c-26.293,0-57.908,3.963-79.516,16.268c-14.491,8.239-18.805,16.268-17.104,33.781
			c2.423,25.267,7.811,47.246,15.489,72.808c0,0,66.051-4.875,81.132-4.096c15.061-0.779,81.103,4.096,81.103,4.096
			c7.678-25.562,13.066-47.541,15.489-72.808c1.701-17.513-2.613-25.533-17.104-33.781
			C198.908,146.158,167.284,142.196,141.019,142.196z"/>
		<path fill="#050606" d="M66.88,205.767h32.137c1.805,0,3.269,1.463,3.269,3.269l-4,29.572c0,1.805-1.463,7.944-3.269,7.944
			c0,0-5.264,1.824-11.726,1.824c-6.462,0-11.678-1.824-11.678-1.824c-1.805,0-3.269-6.139-3.269-7.944l-4.742-29.572
			C63.611,207.231,65.074,205.767,66.88,205.767z"/>
		<path fill="#0B0B0B" d="M82.958,254.277c-13.132,0-23.034-5.331-23.034-12.41c0-7.079,9.902-12.41,23.034-12.41
			s23.034,5.331,23.034,12.41C105.992,248.946,96.081,254.277,82.958,254.277z M82.958,235.168c-10.576,0-17.332,3.972-17.332,6.709
			s6.747,6.709,17.332,6.709c10.576,0,17.332-3.972,17.332-6.709C100.281,239.14,93.534,235.168,82.958,235.168z"/>
		<path fill="#262828" d="M141.019,146.472c-45.042-0.713-86.567,12.401-93.475,31.244c-4.286,11.688-1.235,16.325-1.235,16.325
			c-1.254,8.229,4.675,29.448,4.675,29.448c3.145,0.01,4.922-0.019,4.922-0.019s21.799,3.487,28.621,3.487
			c6.823,0,30.18-3.487,30.18-3.487s26.331-0.19,26.331-0.2h-0.124c41.05,1.055,70.917,0.447,89.323,0.143
			c0,0,5.692-19.49,4.428-27.719c0,0,2.642-11.042,0-18.197C230.864,154.711,184.749,147.413,141.019,146.472z"/>
		<path fill="#262828" d="M141.008,235.662c0,0-19.699,0.399-22.141-2.566c-2.442-2.965-7.573-31.605-3.468-36.537
			c4.105-4.941,19.375-7.507,25.6-7.507c6.224,0,21.504,2.566,25.609,7.507c4.105,4.941-1.026,33.582-3.468,36.537
			C160.697,236.051,141.008,235.662,141.008,235.662z"/>
		<path fill="#121313" d="M143.679,236.165c-1.311,0-2.271-0.019-2.67-0.019c-2.081,0.038-19.993,0.304-22.502-2.737
			c-2.746-3.335-7.735-32.004-3.459-37.145c4.134-4.97,19.318-7.678,25.97-7.678c6.652,0,21.837,2.708,25.97,7.678
			c4.276,5.141-0.722,33.81-3.468,37.145C161.487,235.871,149.314,236.165,143.679,236.165z M141.009,235.187
			c7.839,0.152,20.088-0.352,21.77-2.395c2.262-2.756,7.374-31.234,3.468-35.938c-3.782-4.552-18.492-7.336-25.238-7.336
			c-6.747,0-21.456,2.784-25.238,7.336c-3.905,4.704,1.197,33.182,3.468,35.938C120.921,234.835,133.17,235.348,141.009,235.187z"/>
		<path fill="#313334" d="M69.008,225.656c0,0-2.376-18.273,2.1-37.611c0,0-13.531,8.951-13.864,35.663L69.008,225.656z"/>
		<path fill="#1F2020" d="M98.391,225.656c0,0,4.134-18.824-1.463-37.611c0,0,11.783,10.063,16.62,35.549L98.391,225.656z"/>
		<path fill="#1D1D1B" d="M220.507,158.464c-21.599-12.306-53.223-16.268-79.488-16.268c-26.293,0-57.908,3.963-79.516,16.268
			c-14.491,8.239-18.805,16.268-17.104,33.781c2.423,25.267,7.811,47.246,15.489,72.808c0,0,66.051-4.875,81.132-4.096
			c15.061-0.779,81.103,4.096,81.103,4.096c7.678-25.562,13.066-47.541,15.489-72.808
			C239.312,174.732,234.998,166.712,220.507,158.464z M233.354,191.837c-2.338,24.412-7.421,45.317-14.349,68.703
			c-12.686-0.912-56.216-3.944-73.881-3.944c-1.596,0-2.984,0.029-4.115,0.076c-13.683-0.646-64.189,2.87-78.015,3.858
			c-6.927-23.385-12.002-44.291-14.349-68.703c-1.52-15.727,1.691-22.103,14.966-29.648c23.984-13.664,58.792-15.708,77.397-15.708
			c18.596,0,53.385,2.043,77.378,15.708C231.662,169.734,234.884,176.101,233.354,191.837z"/>
		<path opacity="0.56" fill="#F3FAFF" enable-background="new    " d="M222.122,265.053c7.535-23.585,11.507-45.213,11.507-45.213
			c-2.376-3.963-9.17-9.341-15.242-12.79c-23.994-13.674-58.773-15.708-77.378-15.708c-18.606,0-53.413,2.043-77.397,15.708
			c-8.372,4.761-12.743,9.056-14.444,15.517c0,0,3.696,20.867,10.709,42.485c0,0,46.267-4.096,81.132-4.096
			C175.874,260.957,222.122,265.053,222.122,265.053z"/>
		<path d="M222.463,265.556l-0.38-0.029c-0.656-0.047-66.203-4.865-81.046-4.096c-14.947-0.77-80.457,4.048-81.122,4.096
			l-0.38,0.029l-0.114-0.361c-7.507-25.001-13.018-46.961-15.508-72.903c-1.691-17.484,2.518-25.809,17.342-34.237
			c24.934-14.206,60.673-16.335,79.754-16.335c19.071,0,54.781,2.119,79.725,16.335c14.824,8.429,19.033,16.753,17.342,34.237
			c-2.49,25.942-8.001,47.902-15.508,72.903L222.463,265.556z M145.151,260.397c19.28,0,71.629,3.782,76.628,4.153
			c7.431-24.792,12.895-46.619,15.356-72.352c1.653-17.019-2.452-25.124-16.867-33.316c-24.744-14.102-60.274-16.211-79.25-16.211
			c-18.986,0-54.534,2.11-79.279,16.211c-14.415,8.201-18.52,16.297-16.867,33.316c2.471,25.733,7.925,47.56,15.365,72.352
			c5.416-0.399,66.469-4.808,80.809-4.067C142.149,260.425,143.536,260.397,145.151,260.397z"/>
		<path fill="#151516" d="M250.998,216.942c-0.58-0.855-6.034-1.463-7.127-1.15c-1.093,0.313-3.563,9.493-3.06,10.168
			c0.504,0.675,8.467,0.466,9.094-0.295C250.532,224.905,251.72,218.006,250.998,216.942z"/>
		<path d="M243.995,226.825c-0.371,0-0.599,0-0.608,0c-2.575-0.067-2.832-0.399-2.965-0.58c-0.703-0.931,1.387-7.355,1.406-7.412
			c1.093-3.259,1.634-3.421,1.9-3.487c1.026-0.295,6.851,0.162,7.649,1.34c0.865,1.273-0.342,8.362-1.121,9.293
			C249.62,226.749,245.553,226.825,243.995,226.825z M241.21,225.656c1.121,0.456,7.63,0.228,8.353-0.323
			c0.57-0.732,1.587-7.307,1.036-8.125c-0.513-0.618-5.587-1.254-6.604-0.96C243.13,216.847,241.087,224.392,241.21,225.656z"/>
		<path fill="#151616" d="M250.675,215.916c-2.138,0.684-4.01,13.893-4.2,15.489c-0.19,1.596-0.048,2.347,1.045,3.098
			c1.093,0.751,25.828,12.496,26.749,12.41c0.922-0.086,2.176,0.086,2.936-1.007c0.751-1.093,1.682-2.604,1.672-4.447
			c-0.01-1.843-23.224-24.402-24.564-24.982C252.974,215.897,251.654,215.602,250.675,215.916z"/>
		<path fill="#75787A" d="M246.959,228.06c-0.741-0.741-1.159,5.616,1.102,6.747c2.262,1.131,25.419,12.182,26.55,12.087
			c1.131-0.095,3.316-0.817,3.326-2.157C277.956,243.397,249.82,230.901,246.959,228.06z"/>
		<path fill="#404142" d="M253.802,216.448c-0.808-0.874-3.136-1.15-3.744-0.01s-2.632,10.586-2.803,11.754
			c-0.171,1.169,29.344,16.259,30.351,16.154c1.007-0.114,0.722-1.064,0.722-1.454s-22.245-17.437-23.034-19.233
			C254.534,221.874,254.477,217.18,253.802,216.448z"/>
		<path d="M274.288,247.388c-1.568,0-26.844-12.363-27.034-12.496c-1.302-0.903-1.444-1.9-1.245-3.544
			c0.019-0.152,1.862-15.033,4.533-15.888c1.017-0.323,2.347-0.133,3.972,0.58c0.912,0.399,8.248,7.469,12.923,12.125
			c11.916,11.859,11.916,12.942,11.916,13.294c0.01,1.91-0.884,3.459-1.758,4.713c-0.76,1.093-1.938,1.15-2.803,1.178
			c-0.162,0.009-0.323,0.009-0.475,0.029C274.298,247.388,274.288,247.388,274.288,247.388z M251.568,216.258
			c-0.276,0-0.532,0.038-0.751,0.104c-1.425,0.456-3.278,10.063-3.877,15.09c-0.181,1.539-0.019,2.062,0.846,2.651
			c1.026,0.703,25.01,12.106,26.493,12.325c0.104-0.019,0.276-0.019,0.466-0.029c0.808-0.038,1.577-0.067,2.062-0.77
			c0.789-1.14,1.596-2.528,1.587-4.172c-0.456-1.976-22.758-23.775-24.288-24.554C253.126,216.486,252.262,216.258,251.568,216.258z
			"/>
		<path fill="#1D1D1E" d="M28.251,216.942c0.58-0.855,6.034-1.463,7.127-1.15c1.093,0.314,3.563,9.493,3.06,10.168
			c-0.504,0.675-8.467,0.466-9.094-0.295C28.716,224.905,27.528,218.006,28.251,216.942z"/>
		<path d="M35.255,226.825c-1.539,0-5.625-0.076-6.281-0.865c-0.77-0.931-1.986-8.011-1.121-9.293
			c0.798-1.178,6.623-1.634,7.649-1.34c0.266,0.076,0.808,0.238,1.9,3.478c0.019,0.067,2.119,6.5,1.416,7.431
			c-0.133,0.181-0.39,0.523-2.974,0.589C35.834,226.825,35.616,226.825,35.255,226.825z M28.651,217.208
			c-0.542,0.817,0.466,7.393,1.064,8.144c0.703,0.523,7.212,0.751,8.324,0.295c0.124-1.264-1.919-8.809-2.832-9.426
			C34.228,215.954,29.164,216.59,28.651,217.208z"/>
		<path fill="#272828" d="M28.575,215.916c2.138,0.684,4.01,13.893,4.2,15.489c0.19,1.596,0.048,2.347-1.045,3.098
			c-1.093,0.751-25.828,12.496-26.749,12.41c-0.922-0.086-2.176,0.086-2.936-1.007c-0.751-1.093-1.682-2.604-1.672-4.447
			c0.009-1.843,23.224-24.402,24.564-24.982C26.284,215.897,27.596,215.602,28.575,215.916z"/>
		<path fill="#B1B1B1" d="M32.291,228.06c0.741-0.741,1.159,5.616-1.102,6.747c-2.262,1.131-25.419,12.182-26.55,12.087
			s-3.316-0.817-3.326-2.157C1.304,243.397,29.431,230.901,32.291,228.06z"/>
		<path fill="#868686" d="M25.448,216.448c0.808-0.874,3.136-1.15,3.744-0.01s2.632,10.586,2.803,11.754
			c0.171,1.169-29.344,16.259-30.351,16.154c-1.007-0.105-0.722-1.064-0.722-1.454s22.245-17.437,23.034-19.233
			C24.745,221.864,24.774,217.18,25.448,216.448z"/>
		<path d="M4.961,247.388c-0.01,0-0.019,0-0.019,0c-0.152-0.009-0.314-0.019-0.475-0.029c-0.865-0.038-2.043-0.086-2.803-1.178
			c-0.874-1.264-1.767-2.803-1.758-4.713c0-0.361,0.009-1.444,11.916-13.294c4.675-4.656,12.021-11.726,12.923-12.125
			c1.625-0.713,2.955-0.903,3.972-0.58c2.661,0.855,4.514,15.736,4.533,15.888c0.2,1.644,0.057,2.651-1.245,3.544
			C31.815,235.025,6.538,247.388,4.961,247.388z M27.681,216.258c-0.694,0-1.558,0.219-2.547,0.656
			c-1.52,0.779-23.823,22.578-24.279,24.583c0,1.615,0.798,3.003,1.587,4.134c0.494,0.713,1.254,0.741,2.062,0.77
			c0.181,0.01,0.361,0.019,0.523,0.029c1.425-0.228,25.409-11.621,26.436-12.325c0.865-0.599,1.026-1.121,0.846-2.651
			c-0.599-5.027-2.461-14.643-3.877-15.09C28.213,216.296,27.957,216.258,27.681,216.258z"/>
	</g>
</g>
</svg>
