<?xml version="1.0" encoding="utf-8"?>
<!-- Generator: Adobe Illustrator 17.0.0, SVG Export Plug-In . SVG Version: 6.00 Build 0)  -->
<!DOCTYPE svg PUBLIC "-//W3C//DTD SVG 1.1//EN" "http://www.w3.org/Graphics/SVG/1.1/DTD/svg11.dtd">
<svg version="1.1" id="Слой_1" xmlns="http://www.w3.org/2000/svg" xmlns:xlink="http://www.w3.org/1999/xlink" x="0px" y="0px"
	 width="292px" height="712px" viewBox="0 0 292 712" enable-background="new 0 0 292 712" xml:space="preserve">
<g>
	<defs>
		<rect id="SVGID_1_" width="292" height="712"/>
	</defs>
	<clipPath id="SVGID_2_">
		<use xlink:href="#SVGID_1_"  overflow="visible"/>
	</clipPath>
	<g clip-path="url(#SVGID_2_)">
		<path fill="currentColor" d="M146.007,696.778c118.571,0,119.084-2.965,119.056-28.165c0-16.857-0.361-45.754,0-50.581
			c11.517-7.298,12.515-94.274,5.369-128.929c-0.836-4.039-3.126-9.816-3.392-14.092c-0.77-12.524-1.739-25.533-2.917-39.026
			c0.751-80.714,1.501-156.61,2.262-237.323c-0.038-6.747,6.718-13.55,7.412-20.335c1.72-35.976,1.872-74.204-2.708-99.757
			c-0.589-3.269-3.801-7.488-4.314-10.928c-1.539-10.225-3.706-18.957-6.671-25.847C245.375,15.169,207.118,2.94,146.008,2.94
			c-61.11,0-99.376,12.23-114.077,38.874c-2.965,6.889-5.141,15.622-6.671,25.847c-0.513,3.43-3.734,7.649-4.314,10.928
			c-4.59,25.552-4.428,63.78-2.708,99.756c0.694,6.785,7.45,13.588,7.412,20.335c0.751,80.714,1.501,156.61,2.262,237.323
			c-1.178,13.503-2.148,26.502-2.917,39.026c-0.266,4.276-2.556,10.054-3.392,14.092c-7.155,34.655-6.148,121.631,5.369,128.929
			c0.361,4.827,0,33.715,0,50.581C26.913,693.813,27.426,696.778,146.007,696.778z"/>
		<path opacity="0.33" fill="#FFFFEE" enable-background="new    " d="M193.321,310.77h2.699c1.017,0,1.872,0.846,2.081,1.977
			l0.912-4.21c-0.513-1.159-1.188-2.072-1.929-2.072h-5.027c-0.846,0-1.596,1.169-2.129,2.537c0.2,0.95,1.207,2.138,1.406,3.392
			C191.639,311.454,192.409,310.77,193.321,310.77z"/>
		<path opacity="0.5" fill="#FFFFFF" enable-background="new    " d="M191.192,428.98V313.288c0-0.314,0.057-0.608,0.143-0.884
			c-0.2-1.245-1.216-2.442-1.406-3.392c-0.466,1.216-0.751,2.604-0.751,3.487v117.279c0,0.96,0.333,2.499,0.874,3.782
			c0.143-1.368,1.093-2.708,1.235-3.887C191.23,429.446,191.192,429.218,191.192,428.98z"/>
		<path opacity="0.4" fill="#3C3C3B" enable-background="new    " d="M196.019,431.499h-2.699c-0.969,0-1.786-0.77-2.034-1.824
			c-0.152,1.178-1.093,2.518-1.235,3.887c0.523,1.235,1.226,2.224,2.005,2.224h5.027c0.789,0,1.511-1.026,2.024-2.281
			c-0.152-1.33-0.893-2.642-1.055-3.81C197.786,430.729,196.988,431.499,196.019,431.499z"/>
		<path opacity="0.4" fill="#1D1D1B" enable-background="new    " d="M199.963,312.5c0-0.998-0.371-2.642-0.95-3.953l-0.912,4.21
			c0.029,0.171,0.047,0.352,0.047,0.532V428.98c0,0.247-0.038,0.485-0.095,0.703c0.162,1.169,0.903,2.48,1.055,3.81
			c0.523-1.273,0.855-2.784,0.855-3.725V312.5L199.963,312.5z"/>
		<path opacity="0.33" fill="#FFFFEE" enable-background="new    " d="M161.088,310.77h2.699c1.017,0,1.872,0.846,2.081,1.977
			l0.912-4.21c-0.513-1.159-1.188-2.072-1.929-2.072h-5.027c-0.846,0-1.596,1.169-2.129,2.537c0.2,0.95,1.207,2.138,1.406,3.392
			C159.406,311.454,160.175,310.77,161.088,310.77z"/>
		<path opacity="0.5" fill="#FFFFFF" enable-background="new    " d="M158.959,428.98V313.288c0-0.314,0.057-0.608,0.143-0.884
			c-0.2-1.245-1.216-2.442-1.406-3.392c-0.466,1.216-0.751,2.604-0.751,3.487v117.279c0,0.96,0.333,2.499,0.874,3.782
			c0.143-1.368,1.093-2.708,1.235-3.887C158.997,429.446,158.959,429.218,158.959,428.98z"/>
		<path opacity="0.4" fill="#3C3C3B" enable-background="new    " d="M163.777,431.499h-2.699c-0.969,0-1.786-0.77-2.034-1.824
			c-0.152,1.178-1.093,2.518-1.235,3.887c0.523,1.235,1.226,2.224,2.005,2.224h5.027c0.789,0,1.511-1.026,2.024-2.281
			c-0.152-1.33-0.893-2.642-1.055-3.81C165.554,430.729,164.746,431.499,163.777,431.499z"/>
		<path opacity="0.4" fill="#1D1D1B" enable-background="new    " d="M167.721,312.5c0-0.998-0.371-2.642-0.95-3.953l-0.912,4.21
			c0.029,0.171,0.047,0.352,0.047,0.532V428.98c0,0.247-0.038,0.485-0.095,0.703c0.162,1.169,0.903,2.48,1.055,3.81
			c0.523-1.273,0.855-2.784,0.855-3.725V312.5z"/>
		<path opacity="0.33" fill="#FFFFEE" enable-background="new    " d="M128.715,310.77h2.699c1.017,0,1.872,0.846,2.081,1.977
			l0.912-4.21c-0.513-1.159-1.188-2.072-1.929-2.072h-5.027c-0.846,0-1.596,1.169-2.129,2.537c0.2,0.95,1.207,2.138,1.406,3.392
			C127.033,311.454,127.803,310.77,128.715,310.77z"/>
		<path opacity="0.5" fill="#FFFFFF" enable-background="new    " d="M126.576,428.98V313.288c0-0.314,0.057-0.608,0.143-0.884
			c-0.2-1.245-1.216-2.442-1.406-3.392c-0.466,1.216-0.751,2.604-0.751,3.487v117.279c0,0.96,0.333,2.499,0.874,3.782
			c0.143-1.368,1.094-2.708,1.236-3.887C126.615,429.446,126.576,429.218,126.576,428.98z"/>
		<path opacity="0.4" fill="#3C3C3B" enable-background="new    " d="M131.404,431.499h-2.699c-0.969,0-1.786-0.77-2.034-1.824
			c-0.152,1.178-1.093,2.518-1.235,3.887c0.523,1.235,1.226,2.224,2.005,2.224h5.027c0.789,0,1.511-1.026,2.024-2.281
			c-0.152-1.33-0.893-2.642-1.055-3.81C133.181,430.729,132.373,431.499,131.404,431.499z"/>
		<path opacity="0.4" fill="#1D1D1B" enable-background="new    " d="M135.347,312.5c0-0.998-0.371-2.642-0.95-3.953l-0.912,4.21
			c0.029,0.171,0.047,0.352,0.047,0.532V428.98c0,0.247-0.037,0.485-0.094,0.703c0.162,1.169,0.902,2.48,1.054,3.81
			c0.523-1.273,0.855-2.784,0.855-3.725V312.5L135.347,312.5z"/>
		<path opacity="0.33" fill="#FFFFEE" enable-background="new    " d="M96.33,310.77h2.699c1.016,0,1.871,0.846,2.08,1.977
			l0.912-4.21c-0.513-1.159-1.187-2.072-1.928-2.072h-5.028c-0.846,0-1.596,1.169-2.129,2.537c0.2,0.95,1.207,2.138,1.406,3.392
			C94.648,311.454,95.427,310.77,96.33,310.77z"/>
		<path opacity="0.5" fill="#FFFFFF" enable-background="new    " d="M94.201,428.98V313.288c0-0.314,0.057-0.608,0.143-0.884
			c-0.2-1.245-1.216-2.442-1.406-3.392c-0.466,1.216-0.751,2.604-0.751,3.487v117.279c0,0.96,0.333,2.499,0.874,3.782
			c0.143-1.368,1.093-2.708,1.235-3.887C94.24,429.446,94.201,429.218,94.201,428.98z"/>
		<path opacity="0.4" fill="#3C3C3B" enable-background="new    " d="M99.029,431.499h-2.699c-0.969,0-1.786-0.77-2.034-1.824
			c-0.152,1.178-1.093,2.518-1.235,3.887c0.523,1.235,1.226,2.224,2.005,2.224h5.027c0.789,0,1.511-1.026,2.024-2.281
			c-0.152-1.33-0.893-2.642-1.055-3.81C100.806,430.729,99.999,431.499,99.029,431.499z"/>
		<path opacity="0.4" fill="#1D1D1B" enable-background="new    " d="M102.972,312.5c0-0.998-0.371-2.642-0.95-3.953l-0.912,4.21
			c0.029,0.171,0.047,0.352,0.047,0.532V428.98c0,0.247-0.037,0.485-0.095,0.703c0.163,1.169,0.903,2.48,1.055,3.81
			c0.523-1.273,0.855-2.784,0.855-3.725V312.5z"/>
		<path opacity="0.4" fill="#000D23" enable-background="new    " d="M237.061,19.673c0,0,10.358,18.938,10.016,46.096
			c-0.342,27.158-3.734,82.823-8.41,92.554c-4.675,9.73-15.85,65.396-15.85,65.396l2.794,26.493c0,0-5.198,67.914-5.53,116.88
			c-0.333,48.966,0.836,74.737-1.843,80.438c-2.68,5.701-126.439,2.575-134.82,3.573c-8.381,0.998-14.672,1.34-21.59,5.369
			c-6.918,4.029-21.694,7.545-26.208,11.821c-4.523,4.276,4.457,8.97,4.457,8.97l196.719,28.631l10.301,30.731
			c0,0,7.659-1.007,9.531,4.029c1.872,5.036,4.476,136.407-0.846,143.924c-5.321,7.516-14.415,9.284-14.415,9.284
			s-132.749,5.511-168.991,1.834c-36.242-3.677-40.224-8.077-40.224-8.077s10.491,16.81,41.782,22.901h60.559h79.155l25.59-1.777
			c0,0,14.178,1.036,20.734-11.755c6.557-12.8,3.411-13.294,3.411-13.294s2.319-8.78,1.996-14.425
			c-0.323-5.644-0.314-51.228-0.314-51.228l3.468-5.245l4.542-22.882l1.796-31.158V524.88l-3.544-32.071
			c0,0-4.352-16.734-4.248-17.256c0.104-0.523-2.129-30.702-2.129-30.702l-0.836-9.056l2.186-200.891l0.475-37.991l6.614-16.525
			l1.549-51.351l-1.397-32.869l-1.758-13.142l-1.055-5.673l-3.963-9.531l-3.753-17.703l-3.81-10.31l-7.26-9.236l-8.4-6.443
			L237.061,19.673z"/>
		<path opacity="0.4" fill="#000D23" enable-background="new    " d="M169.45,65.836c0,0,1.739,7.459-4.134,11.992
			c0,0,1.178,13.018-7.298,35.729l3.155-0.238l2.68-3.231c0,0,5.815-14.52,7.203-27.709S171.74,67.85,169.45,65.836z"/>
		<path opacity="0.4" fill="#000D23" enable-background="new    " d="M203.517,33.736c0,0,18.625,81.075,21.532,125.974l4.476,3.326
			c0,0,2.024-51.104-14.083-126.62c0,0-0.238-14.358-12.344-22.521c0,0-3.126-2.319-26.977-4.552c0,0,13.664,2.68,17.741,6.709
			s8.999,14.814,8.999,14.814L203.517,33.736z"/>
		<path opacity="0.4" fill="#000D23" enable-background="new    " d="M147.29,9.344c0,0,9.978,0.656,11.65,9.037
			c1.672,8.381-12.942,7.222-12.942,7.222S162.969,17.668,147.29,9.344z"/>
		<path opacity="0.25" fill="#FFFFF8" enable-background="new    " d="M217.437,158.769c2.908-9.388,3.573-46.885-12.078-69.833
			c0,0-6.708,25.343-18.776,30.712c-12.078,5.369-0.448-34.665,7.373-43.151s-0.608-33.534-18.862-31.966
			c0,0-6.861,17.247-16.021,19.784c0,0,8.134-0.475,10.377,1.539c2.233,2.015,3.327,5.454,2.073,13.246
			c-1.254,7.801-4.865,29.933-9.141,33.373c0,0,0.503,1.53-10.064,1.102c-10.567-0.428-20.972-0.048-20.972-0.048
			s-6.784-0.703-10.091-28.916c-0.931-7.982-3.668-16.192,2.822-19.47c0,0-1.331-13.341,6.157-23.176c0,0-19.851-5.806-36.973,9.227
			c-17.123,15.033-7.954-16.183,36.984-19.87c44.937-3.687,72.607,2.281,72.607,2.281S157.524,20.252,88.49,31.322
			c0,0-5.093-7.592,2.29-19.223c0,0,58.877-8.989,108.175,0.447c0,0,7.583,1.986,11.346,8.229l2.87,3.345l15.347,4.561
			c0,0-7.803-18.387-39.901-23.271c-32.099-4.884-64.38-1.891-64.38-1.891s-21.379-0.58-53.299,9.084
			C39.02,22.267,31.303,42.156,27.844,54.347c-3.468,12.192-2.623,14.425-2.623,14.425l-4,8.695c0,0-7.241,41.963-2.993,100.868
			l2.68,7.687l4.59,10.88l2.338,232.772l-2.832,46.21c0,0-5.473,20.098-6.49,36.394c-1.017,16.296-2.119,57.689,0.057,73.995
			c2.176,16.306,3.525,25.856,5.949,28.811c2.423,2.955,3.687,4.884,3.687,4.884L27,674.134c0,0-0.171,13.275,14.026,17.285
			l7.935,1.995l-5.93-6.984l1.891-208.455c0,0-12.097,0.627-12.809-8.087c-0.713-8.714,33.182-17.608,37.069-20.544
			c3.887-2.936,8.391-2.822,11.07-8.524c2.68-5.701,4.362-71.515,3.022-122.895c-1.34-51.389-1.34-55.19,1.007-58.098
			s77.749-5.587,117.497-2.072c39.739,3.525,18.948-29.344,18.948-29.344L217.437,158.769z"/>
		<path opacity="0.44" fill="#FFFFF8" enable-background="new    " d="M127.249,64.534c0,0-5.996-0.238-6.68,4.352
			c-0.684,4.59,2.879,37.487,10.234,44.433l3.183,0.076c0,0-5.473-15.156-5.73-32.897c-0.01-0.76,15.118,1.311,35.577-2.29
			c0.675-0.114-35.957,0.086-35.986-0.447c0,0-3.069-0.836-3.953-2.974c-0.884-2.138-2.015-6.414,0.38-7.925
			c2.385-1.511,2.68-1.007,2.68-1.007L127.249,64.534z"/>
		<path opacity="0.51" fill="#FFFFF8" enable-background="new    " d="M24.025,72.687c0,0-4.685,13.417-6.243,52.767
			c-1.568,39.35,0.238,57.176,5.15,65.367c0,0-0.675-10.918-1.349-19.756c-0.675-8.837,0.865-73.558,2.442-82.947
			C25.602,78.73,24.025,72.687,24.025,72.687z"/>
		<path opacity="0.51" fill="#FFFFF8" enable-background="new    " d="M55.563,52.114c0,0-17.466,24.906-12.752,75.506
			c4.713,50.6,6.737,43.892,6.737,43.892s3.982-8.619,12.154-11.802C61.702,159.71,43.714,119.866,55.563,52.114z"/>
		<path opacity="0.51" fill="#FFFFF8" enable-background="new    " d="M144.61,9.344c0,0-11.907,2.243-11.317,8.866
			c0.589,6.623,10.899,5.911,10.899,5.911S128.428,19.511,144.61,9.344z"/>
		<path opacity="0.51" fill="#FFFFF8" enable-background="new    " d="M87.093,15.34c0,0-7.716,14.197-2.461,19.566l-7.935,1.121
			C76.698,36.017,78.037,21.488,87.093,15.34z"/>
		<path opacity="0.51" fill="#FFFFF8" enable-background="new    " d="M146.569,3.595c0,0-33.515-3.905-67.04,6.405
			C46.004,20.31,40.968,27.827,36.787,34.231c-4.181,6.405-9.911,22.15-11.336,30.303c0,0,9.493-29.182,31.463-40.224
			S107.609,4.155,146.569,3.595z"/>
		<path opacity="0.51" fill="#FFFFF8" enable-background="new    " d="M34.146,144.459c0,0,0.532,23.414-8.923,46.362
			c0,0,7.374,3.544,7.459,50.144c0.076,46.59,2.414,49.318,2.927,61.481c0.513,12.163,2.974,124.178,2.974,124.178
			s1.995,28.754-0.675,32.27c0,0,4.922-2.974,4.029-20.411s-2.271-109.687-2.271-109.687l-3.829-132.901
			c0,0,5.977-30.769,1.682-68.265C33.205,90.124,34.146,144.459,34.146,144.459z"/>
		<path opacity="0.51" fill="#FFFFF8" enable-background="new    " d="M47.724,180.425c0,0-8.334,6.101-4.162,16.477
			c4.172,10.386,14.206,43.284,18.245,79.716c4.039,36.423,8.277,75.744,8.277,75.744s0.428-57.157-8.277-118.106
			C53.102,173.299,47.724,180.425,47.724,180.425z"/>
		<path opacity="0.51" fill="#FFFFF8" enable-background="new    " d="M25.003,479.277c0,0-5.635,12.41-7.212,49.08
			s0.57,70.926,7.212,87.555l2.395,1.207l0.922-4.694c0,0-2.024-22.635-3.316-54.667c-1.292-32.033,0.741-62.421,2.737-68.94
			C29.736,482.299,25.003,479.277,25.003,479.277z"/>
		<path opacity="0.51" fill="#FFFFF8" enable-background="new    " d="M35.809,475.884c0,0,2.993,3.06,2.993,16.249
			s-0.447,184.908-0.447,184.908s0.551,9.835,3.069,11.85c2.518,2.014-7.545,1.568-6.87-14.976s1.055-185.136,1.055-185.136
			L35.809,475.884z"/>
		<path opacity="0.51" fill="#FFFFF8" enable-background="new    " d="M250.582,553.747c0,0,0.095,0.266,0.247,0.798
			c1.045,3.535,5.046,18.672,4.846,43.455c-0.228,28.507-0.903,80.847-0.903,80.847s1.254,11.907-9.094,12.562
			c-10.358,0.656,1.387-2.195,3.563-4.704c2.176-2.518,1.34-12.743,1.34-12.743"/>
		<path opacity="0.51" fill="#FFFFF8" enable-background="new    " d="M76.622,36.416c-16.107,75.516-14.083,126.62-14.083,126.62
			l4.476-3.326C69.856,115.799,87.74,37.271,88.519,33.869c-2.423,0.323-7.611,1.121-11.888,2.528
			C76.622,36.407,76.622,36.416,76.622,36.416z"/>
		<path fill="#1D1D1B" d="M248.292,692.616c-15.555,3.478-45.279,4.162-102.104,4.162c-56.815,0-86.567-0.684-102.151-4.162
			c-9.341-2.091-13.588-5.188-15.508-9.74c0,8.087,2.404,17.009,14.33,22.815c11.26,5.369,29.401,5.397,103.291,5.426
			c73.891-0.029,92.012-0.057,103.272-5.426c11.935-5.806,14.339-14.738,14.33-22.834c-1.91,4.561-6.12,7.659-15.422,9.75
			L248.292,692.616z"/>
		<path fill="#D9D9D9" stroke="#000000" stroke-miterlimit="22.9256" d="M146.008,21.488c4.413,0,7.992-1.821,7.992-4.067
			s-3.579-4.067-7.992-4.067c-4.414,0-7.992,1.821-7.992,4.067S141.594,21.488,146.008,21.488z"/>
		<path d="M252.397,461.469c-6.3,0-12.676-1.34-19.09-4.01c-4.941-2.024-5.74-6.129-6.101-20.212
			c-0.504-29.448-0.504-60.892,0-96.117c1.881-80.305,3.06-84.553,17.503-136.559c2.917-9.141,4.761-10.833,10.538-12.733
			c4.257-0.95,8.03-1.435,11.574-1.492l0.019,0.95c-3.478,0.057-7.184,0.532-11.336,1.454c-5.445,1.796-7.013,3.126-9.883,12.097
			c-14.415,51.874-15.594,56.121-17.465,136.303c-0.504,35.216-0.504,66.641,0,96.079c0.371,14.529,1.245,17.599,5.511,19.347
			c11.023,4.599,21.96,5.169,32.508,1.701l0.295,0.903C261.852,460.7,257.149,461.469,252.397,461.469z"/>
		<path d="M227.777,341.606l-0.152-0.941c12.429-2.015,24.602-3.944,36.869-5.34c0.39,0.019,0.694,0.038,0.998,0.076l-0.104,0.941
			c-0.285-0.029-0.58-0.057-0.865-0.076C252.359,337.672,240.196,339.591,227.777,341.606z"/>
		<path d="M252.235,346.075l0.378-19.4l-0.475-0.009l-0.378,19.4L252.235,346.075z"/>
		<path d="M230.436,352.362l-0.475-0.01c0.047-3.829,0.095-7.659,0.143-11.488c0.038-4.21,0.086-8.229,0.143-12.078l0.475,0.01
			c-0.057,3.848-0.095,7.868-0.143,12.078C230.522,344.703,230.474,348.533,230.436,352.362z"/>
		<path fill="#BCDAED" d="M215.433,36.416c-0.371-1.52-0.75-3.041-1.139-4.533c-0.57-2.205-1.169-4.39-1.786-6.547
			c-0.2-0.703,0.447-1.359,1.159-1.169c22.787,6.091,37.421,12.714,45.64,27.605c2.072,3.858,3.857,11.745,2.764,17.066
			c-1.463,7.155-1.709,10.206-2.821,9.208c-3.554-9.826-7.298-17.285-11.517-22.074c-7.925-8.524-19.708-15.014-32.28-19.537
			C215.453,36.416,215.443,36.416,215.433,36.416z"/>
		<path d="M259.629,78.692c-0.19,0-0.428-0.076-0.694-0.304l-0.086-0.076l-0.038-0.114c-3.687-10.206-7.421-17.37-11.422-21.922
			c-7.165-7.716-18.264-14.434-32.08-19.404l-0.276-0.067l-0.047-0.266c-0.371-1.52-0.751-3.031-1.131-4.533
			c-0.58-2.224-1.178-4.428-1.777-6.538c-0.143-0.494-0.01-1.017,0.352-1.387c0.361-0.371,0.884-0.513,1.378-0.38
			c22.711,6.072,37.506,12.581,45.935,27.833c2.233,4.153,3.896,12.135,2.813,17.389c-0.304,1.482-0.551,2.784-0.77,3.915
			c-0.779,4.029-1.064,5.54-1.891,5.815C259.809,78.673,259.724,78.692,259.629,78.692z M215.842,36.055
			c13.893,5.027,25.02,11.793,32.251,19.575c4.067,4.628,7.839,11.831,11.545,22.046c0.342-0.494,0.741-2.613,1.207-5.027
			c0.219-1.131,0.466-2.442,0.77-3.925c1.036-5.055-0.57-12.743-2.718-16.743c-8.258-14.957-22.882-21.361-45.346-27.367
			c-0.238-0.067-0.399,0.067-0.456,0.124c-0.057,0.057-0.181,0.219-0.114,0.456c0.608,2.119,1.207,4.333,1.786,6.566
			C215.129,33.176,215.49,34.611,215.842,36.055z"/>
		<path fill="#1E2525" d="M146.007,25.602c19.138,0,38.409,1.9,57.509,5.72c-1.235-3.145-2.604-5.749-4.105-7.735
			c-11.84-2.157-25.2-3.449-40.081-3.915c-0.779,2.509-6.509,4.457-13.332,4.457"/>
		<path d="M204.277,31.959l-0.855-0.171c-18.938-3.782-38.228-5.711-57.347-5.711c-0.029,0-0.047,0-0.067,0v-0.95
			c0.019,0,0.047,0,0.067,0c18.891,0,37.953,1.872,56.672,5.549c-1.121-2.708-2.328-4.951-3.601-6.661
			c-11.545-2.091-24.83-3.392-39.492-3.867c-1.216,2.594-6.823,4.447-13.646,4.447v-0.95c7.26,0,12.249-2.1,12.876-4.124
			l0.105-0.342l0.361,0.01c14.919,0.475,28.431,1.796,40.148,3.924l0.181,0.029l0.114,0.152c1.482,1.967,2.889,4.609,4.162,7.849
			L204.277,31.959z"/>
		<path d="M237.773,168.452l-0.752-0.589c0.171-0.219,0.362-0.447,0.552-0.684c1.539-1.9,3.468-4.257,4.029-8.866
			c4.761-38.836,7.458-62.621,7.648-99.871h0.951c-0.19,37.297-2.889,61.11-7.649,99.975c-0.599,4.884-2.613,7.355-4.238,9.35
			C238.125,168.015,237.944,168.234,237.773,168.452z"/>
		<path d="M215.347,36.882c-24.45-5.93-47.094-8.809-69.206-8.809c-0.047,0-0.095,0-0.143,0v-0.95c0.047,0,0.095,0,0.133,0
			c22.188,0,44.899,2.889,69.425,8.837L215.347,36.882z"/>
		<path d="M266.414,189.766c-0.257-0.314-0.447-0.722-0.589-1.235c-3.278-11.393-4.837-30.522-4.751-58.468
			c0.076-23.69,1.121-41.545,3.193-54.601c0.57-3.573,1.245-6.87,1.986-9.816l0.922,0.238c-0.741,2.917-1.406,6.186-1.967,9.73
			c-2.062,12.999-3.107,30.816-3.183,54.449c-0.086,27.861,1.454,46.904,4.713,58.212c0.104,0.39,0.247,0.684,0.418,0.893
			L266.414,189.766z"/>
		<path d="M273.084,104.282c-2.385-24.887-10.985-37.459-11.07-37.592l0.779-0.542c0.086,0.124,8.828,12.885,11.241,38.038
			L273.084,104.282z"/>
		<path d="M247.969,196.96c-1.501-13.208-9.759-22.559-9.844-22.644l0.703-0.637c0.086,0.095,8.552,9.673,10.082,23.176
			L247.969,196.96z"/>
		<path fill="#1D1D1B" d="M216.44,457.041c0,0-1.901-4.257-2.129-9.844c-0.228-5.587-2.908-68.76,4.248-191.892
			c0,0,1.292,0.143,2.119,0.086c0.827-0.057,2.129-0.086,2.129-0.086c-7.155,123.142-4.476,186.305-4.248,191.892
			c0.228,5.587,2.129,9.844,2.129,9.844H216.44z"/>
		<path d="M221.42,457.516h-5.283l-0.124-0.285c-0.076-0.181-1.938-4.4-2.167-10.016l-0.01-0.209
			c-0.665-16.411-2.309-78.737,4.257-191.731l0.029-0.504l0.494,0.057c0.01,0,1.254,0.133,2.034,0.086
			c0.836-0.057,2.148-0.086,2.148-0.086l0.513-0.009l-0.029,0.513c-6.566,112.955-4.913,175.234-4.257,191.635l0.01,0.209
			c0.219,5.435,2.062,9.626,2.081,9.673L221.42,457.516z M216.763,456.566h3.221c-0.542-1.425-1.72-4.96-1.891-9.35l-0.01-0.209
			c-0.656-16.382-2.3-78.547,4.229-191.217c-0.447,0.009-1.102,0.038-1.587,0.066c-0.532,0.038-1.235,0-1.701-0.038
			c-6.528,112.642-4.884,174.769-4.229,191.151l0.009,0.209C214.977,451.805,216.345,455.54,216.763,456.566z"/>
		<path fill="#1E2525" d="M196.844,20.024c0,0-1.891-3.316-3.896-4.742c0,0-18.568-2.851-37.563-3.183c0,0,2.433,1.72,3.316,3.963
			C158.692,16.062,178.685,16.043,196.844,20.024z"/>
		<path d="M197.786,20.718l-1.045-0.228c-17.836-3.915-37.715-3.953-38.048-3.953h-0.323l-0.123-0.304
			c-0.817-2.081-3.117-3.734-3.145-3.744l-1.254-0.893l1.539,0.029c18.805,0.333,37.44,3.164,37.63,3.193l0.114,0.019l0.095,0.067
			c2.071,1.473,3.963,4.751,4.039,4.894L197.786,20.718z M159.007,15.587c2.575,0.019,20.383,0.285,36.841,3.734
			c-0.675-1.036-1.862-2.68-3.088-3.582c-1.549-0.228-18.52-2.718-36.024-3.136C157.486,13.297,158.446,14.351,159.007,15.587z"/>
		<path d="M212.468,24.567c-0.057-0.095-5.968-9.16-11.232-11.042c-5.54-1.977-33.639-5.245-55.238-5.245V7.33
			c21.685,0,49.964,3.307,55.551,5.302c5.568,1.986,11.46,11.042,11.707,11.422L212.468,24.567z"/>
		<path d="M242.21,472.435c-6.262-3.83-16.078-7.383-16.183-7.421l0.323-0.893c0.095,0.038,10.016,3.63,16.354,7.507L242.21,472.435
			z"/>
		<path d="M264.123,618.126c-5.787-34.342-5.492-116.69,2.433-142.375l0.912,0.276c-7.896,25.59-8.182,107.691-2.404,141.938
			L264.123,618.126z"/>
		<path fill="#3A3A3A" d="M245.898,687.627c0,0-0.333,2.442-0.418,5.796L245.898,687.627z"/>
		<path d="M246.183,693.433l-1.425-0.038c0.086-3.354,0.409-5.768,0.428-5.872l1.416,0.19
			C246.591,687.741,246.268,690.164,246.183,693.433z"/>
		<path d="M39.61,461.469c-4.751,0-9.445-0.76-14.083-2.281l0.295-0.903c10.548,3.468,21.485,2.889,32.508-1.701
			c4.267-1.748,5.141-4.827,5.511-19.356c0.504-29.419,0.504-60.844,0-96.079c-1.881-80.181-3.05-84.42-17.475-136.312
			c-2.86-8.951-4.438-10.282-9.921-12.087c-4.105-0.912-7.811-1.387-11.289-1.444l0.019-0.95c3.544,0.057,7.307,0.542,11.526,1.482
			c5.825,1.91,7.668,3.611,10.576,12.733C61.73,256.587,62.908,260.835,64.79,341.14c0.504,35.245,0.504,66.688,0,96.117
			c-0.361,14.083-1.159,18.188-6.101,20.212C52.286,460.129,45.9,461.469,39.61,461.469z"/>
		<path d="M64.23,341.606c-12.42-2.014-24.583-3.934-36.822-5.331c-0.209,0.019-0.494,0.048-0.779,0.076l-0.104-0.941
			c0.304-0.038,0.608-0.057,0.912-0.076c12.344,1.397,24.516,3.326,36.955,5.34L64.23,341.606z"/>
		<path d="M39.756,346.099l0.475-0.01l-0.394-19.4l-0.475,0.01L39.756,346.099z"/>
		<path d="M61.569,352.362c-0.047-3.829-0.095-7.659-0.143-11.488c-0.038-4.21-0.086-8.229-0.143-12.078l0.475-0.01
			c0.057,3.848,0.095,7.868,0.143,12.078c0.048,3.829,0.095,7.659,0.143,11.488L61.569,352.362z"/>
		<path fill="#FFFFF8" d="M76.573,36.416c0.371-1.52,0.751-3.041,1.14-4.533c0.57-2.205,1.169-4.39,1.786-6.547
			c0.2-0.703-0.447-1.359-1.159-1.169C55.553,30.258,40.919,36.881,32.7,51.772c-2.072,3.858-3.858,11.745-2.765,17.066
			c1.463,7.155,1.71,10.206,2.822,9.208c3.554-9.826,7.298-17.285,11.517-22.074c7.925-8.524,19.708-15.014,32.28-19.537
			C76.554,36.416,76.564,36.416,76.573,36.416z"/>
		<path d="M32.378,78.692c-0.095,0-0.181-0.019-0.257-0.038c-0.827-0.276-1.112-1.786-1.891-5.815
			c-0.219-1.131-0.466-2.433-0.77-3.915c-1.074-5.255,0.589-13.227,2.813-17.38c8.419-15.261,23.224-21.761,45.935-27.842
			c0.504-0.133,1.017,0.01,1.387,0.38c0.361,0.371,0.494,0.884,0.352,1.378c-0.608,2.11-1.207,4.314-1.777,6.538
			c-0.39,1.501-0.77,3.012-1.131,4.533l-0.067,0.276l-0.304,0.076C62.899,41.843,51.8,48.552,44.626,56.277
			c-3.991,4.542-7.735,11.716-11.412,21.913l-0.038,0.114L33.09,78.38C32.806,78.616,32.568,78.692,32.378,78.692z M78.589,24.595
			c-0.038,0-0.086,0.01-0.124,0.019C55.992,30.62,41.368,37.024,33.11,51.991c-2.148,4.001-3.753,11.678-2.718,16.734
			c0.304,1.482,0.551,2.794,0.77,3.925c0.466,2.414,0.865,4.523,1.207,5.017c3.706-10.215,7.478-17.418,11.536-22.036
			c7.25-7.811,18.397-14.577,32.261-19.585c0.352-1.444,0.713-2.87,1.074-4.295c0.58-2.233,1.178-4.438,1.786-6.566
			c0.067-0.238-0.057-0.399-0.114-0.456C78.874,24.69,78.76,24.595,78.589,24.595z"/>
		<path fill="#1E2525" d="M145.999,25.602c-19.138,0-38.409,1.9-57.509,5.72c1.235-3.145,2.604-5.749,4.105-7.735
			c11.84-2.157,25.2-3.449,40.081-3.915c0.779,2.509,6.509,4.457,13.332,4.457"/>
		<path d="M87.73,31.959l0.323-0.808c1.273-3.24,2.68-5.882,4.162-7.849l0.114-0.152l0.181-0.029
			c11.715-2.129,25.229-3.449,40.148-3.924l0.36-0.01l0.104,0.342c0.627,2.024,5.617,4.124,12.877,4.124v0.95
			c-6.823,0-12.44-1.853-13.646-4.447c-14.662,0.475-27.947,1.777-39.492,3.867c-1.273,1.71-2.48,3.953-3.601,6.661
			c18.72-3.687,37.782-5.549,56.672-5.549c0.029,0,0.047,0,0.067,0v0.95c-0.019,0-0.048,0-0.067,0
			c-19.119,0-38.409,1.919-57.346,5.711L87.73,31.959z"/>
		<path d="M54.234,168.452c-0.171-0.219-0.352-0.437-0.542-0.675c-1.615-1.996-3.639-4.466-4.238-9.35
			c-4.761-38.874-7.469-62.678-7.649-99.975h0.95c0.19,37.25,2.889,61.034,7.649,99.871c0.561,4.609,2.49,6.965,4.029,8.866
			c0.19,0.238,0.371,0.456,0.551,0.684L54.234,168.452z"/>
		<path d="M76.66,36.882l-0.228-0.922c24.526-5.949,47.237-8.837,69.425-8.837c0.047,0,0.095,0,0.133,0v0.95
			c-0.048,0-0.095,0-0.143,0C123.754,28.073,101.119,30.952,76.66,36.882z"/>
		<path d="M25.593,189.766l-0.741-0.599c0.171-0.209,0.314-0.513,0.409-0.893c3.259-11.317,4.799-30.36,4.713-58.221
			c-0.076-23.642-1.112-41.45-3.183-54.449c-0.57-3.544-1.235-6.823-1.967-9.73l0.922-0.238c0.741,2.936,1.416,6.243,1.986,9.816
			c2.072,13.047,3.117,30.911,3.193,54.601c0.086,27.956-1.463,47.085-4.751,58.478C26.039,189.044,25.849,189.453,25.593,189.766z"
			/>
		<path d="M18.923,104.282l-0.95-0.095c2.414-25.153,11.146-37.915,11.232-38.038l0.779,0.542
			C29.908,66.824,21.308,79.405,18.923,104.282z"/>
		<path d="M44.037,196.96l-0.941-0.105c1.53-13.503,9.997-23.081,10.082-23.176l0.703,0.637
			C53.796,174.401,45.529,183.761,44.037,196.96z"/>
		<path fill="#1D1D1B" d="M75.566,457.041c0,0,1.901-4.257,2.129-9.844c0.228-5.587,2.908-68.76-4.248-191.892
			c0,0-1.292,0.143-2.119,0.086c-0.827-0.057-2.129-0.086-2.129-0.086c7.155,123.142,4.476,186.305,4.248,191.892
			c-0.228,5.587-2.129,9.844-2.129,9.844H75.566z"/>
		<path d="M75.87,457.516h-5.283l0.295-0.665c0.019-0.038,1.862-4.248,2.081-9.673l0.01-0.209
			c0.665-16.401,2.309-78.69-4.257-191.635l-0.029-0.513l0.513,0.009c0,0,1.311,0.029,2.148,0.086
			c0.77,0.057,2.024-0.086,2.034-0.086l0.494-0.057l0.029,0.504c6.566,112.993,4.922,175.32,4.257,191.731l-0.01,0.209
			c-0.228,5.616-2.081,9.845-2.167,10.016L75.87,457.516z M72.032,456.566h3.221c0.409-1.026,1.777-4.77,1.967-9.388l0.01-0.209
			c0.656-16.373,2.3-78.509-4.229-191.151c-0.466,0.038-1.169,0.076-1.701,0.038c-0.485-0.029-1.14-0.057-1.587-0.066
			c6.528,112.67,4.884,174.826,4.229,191.217l-0.01,0.209C73.742,451.606,72.574,455.141,72.032,456.566z"/>
		<path fill="#1E2525" d="M95.16,20.024c0,0,1.891-3.316,3.896-4.742c0,0,18.568-2.851,37.563-3.183c0,0-2.433,1.72-3.316,3.963
			C133.312,16.062,113.309,16.043,95.16,20.024z"/>
		<path d="M94.219,20.718l0.532-0.931c0.076-0.143,1.958-3.421,4.039-4.894l0.095-0.067l0.114-0.018
			c0.19-0.029,18.824-2.86,37.63-3.193l1.539-0.029l-1.254,0.893c-0.019,0.019-2.328,1.663-3.145,3.744l-0.114,0.304h-0.323
			c-0.323,0-20.212,0.038-38.048,3.953L94.219,20.718z M99.246,15.739c-1.226,0.903-2.414,2.547-3.088,3.582
			c16.458-3.449,34.266-3.715,36.841-3.734c0.561-1.235,1.53-2.29,2.281-2.984C117.766,13.021,100.795,15.511,99.246,15.739z"/>
		<path d="M79.538,24.567l-0.798-0.513c0.247-0.38,6.139-9.436,11.707-11.422c5.597-1.996,33.876-5.302,55.551-5.302v0.95
			c-21.59,0-49.698,3.269-55.238,5.245C85.505,15.406,79.595,24.481,79.538,24.567z"/>
		<path d="M49.795,472.435l-0.494-0.808c6.338-3.877,16.249-7.469,16.354-7.507l0.323,0.893
			C65.873,465.042,56.057,468.606,49.795,472.435z"/>
		<path d="M27.884,618.126l-0.941-0.161c5.777-34.256,5.492-116.348-2.404-141.938l0.912-0.276
			C33.376,501.436,33.671,583.785,27.884,618.126z"/>
		<path fill="#3A3A3A" d="M46.107,687.627c0,0,0.333,2.442,0.418,5.796L46.107,687.627z"/>
		<path d="M45.823,693.433c-0.086-3.269-0.409-5.692-0.409-5.711l1.416-0.19c0.009,0.105,0.342,2.518,0.428,5.872L45.823,693.433z"
			/>
		<path fill="#EC2029" d="M264.865,678.856c-4.181,0.456-7.44,1.539-8.875,4.352c-0.646,5.302-3.297,8.324-7.64,9.407
			c9.303-2.091,13.512-5.188,15.422-9.75C264.285,681.631,264.627,680.301,264.865,678.856z"/>
		<path d="M248.453,693.072l-0.219-0.922c4.295-1.074,6.68-4.019,7.288-8.999l0.047-0.161c1.72-3.373,5.844-4.238,9.246-4.609
			l0.618-0.067l-0.095,0.618c-0.257,1.568-0.618,2.917-1.121,4.115C262.108,688.064,257.395,691.057,248.453,693.072z
			 M256.444,683.341c-0.418,3.326-1.634,5.854-3.63,7.554c5.692-1.872,8.923-4.438,10.51-8.229c0.409-0.969,0.722-2.052,0.95-3.278
			C260.027,679.949,257.594,681.175,256.444,683.341z"/>
		<path fill="#EC2029" d="M27.467,678.856c4.181,0.456,7.44,1.539,8.875,4.352c0.646,5.302,3.297,8.324,7.64,9.407
			c-9.303-2.091-13.512-5.188-15.422-9.75C28.046,681.631,27.695,680.301,27.467,678.856z"/>
		<path d="M43.868,693.072c-8.942-2.015-13.655-5.008-15.755-10.025c-0.504-1.207-0.874-2.547-1.121-4.115l-0.095-0.618l0.618,0.067
			c3.402,0.371,7.526,1.235,9.246,4.609l0.048,0.161c0.608,4.989,2.993,7.925,7.279,8.999L43.868,693.072z M28.045,679.398
			c0.228,1.226,0.542,2.309,0.95,3.278c1.587,3.782,4.818,6.357,10.51,8.229c-1.995-1.71-3.212-4.238-3.63-7.554
			C34.736,681.175,32.303,679.949,28.045,679.398z"/>
		<path d="M160.281,114.032h-28.555c0,0,0,0-0.01,0c-1.055,0-2.119-0.779-3.155-2.319c-5.806-8.552-10.405-38.599-8.4-43.626
			c1.283-3.212,4.314-3.963,8.78-4.143c1.977-0.076,6.661-0.105,10.253-0.114c3.259-0.009,5.131-0.019,6.224,0
			c0.029,0,0.219,0,0.589,0c0.371,0,0.561,0,0.589,0c1.083-0.019,2.965-0.009,6.215,0c3.582,0.009,8.277,0.038,10.253,0.114
			c4.466,0.171,7.497,0.931,8.78,4.143c2.005,5.027-2.594,35.064-8.4,43.626C162.4,113.253,161.336,114.032,160.281,114.032z
			 M145.913,113.082h14.368c0.713,0,1.53-0.656,2.376-1.9c5.606-8.248,10.168-38.076,8.305-42.742
			c-1.102-2.746-3.744-3.383-7.935-3.544c-3.069-0.124-12.99-0.133-16.43-0.124c-0.019,0-0.057,0-0.124,0
			c-0.238,0.009-0.694,0.009-0.931,0c-0.057,0-0.104,0-0.124,0c-3.44-0.009-13.37,0-16.439,0.124
			c-4.191,0.162-6.842,0.798-7.935,3.544c-1.862,4.666,2.699,34.484,8.305,42.742c0.846,1.245,1.663,1.9,2.376,1.9H145.913z"/>
		<path fill="#3C3C3B" d="M145.942,76.488h-16.677c-2.575,0-4.732-1.957-4.979-4.533l-0.19-2.043
			c-0.152-1.644,1.14-3.069,2.794-3.069h19.109h19.109c1.653,0,2.946,1.425,2.794,3.069l-0.19,2.043
			c-0.247,2.566-2.404,4.533-4.979,4.533h-16.677H145.942z"/>
		<path d="M162.733,76.963h-33.457c-2.841,0-5.189-2.129-5.455-4.96l-0.19-2.043c-0.086-0.912,0.219-1.834,0.836-2.518
			c0.618-0.684,1.502-1.074,2.424-1.074h38.227c0.922,0,1.806,0.39,2.424,1.074c0.618,0.684,0.922,1.596,0.836,2.518l-0.2,2.043
			C167.912,74.825,165.574,76.963,162.733,76.963z M126.889,67.318c-0.665,0-1.272,0.266-1.719,0.76
			c-0.447,0.494-0.656,1.121-0.599,1.786l0.19,2.043c0.219,2.338,2.156,4.096,4.503,4.096h33.458c2.347,0,4.287-1.758,4.505-4.096
			l0.2-2.043c0.067-0.665-0.152-1.292-0.599-1.786c-0.447-0.494-1.056-0.76-1.721-0.76H126.889z"/>
		<path fill="#3A3A3A" d="M250.582,474.393c0-1.311-1.064-2.366-2.366-2.366H146.007H43.79c-1.311,0-2.366,1.064-2.366,2.366V680.51
			c0,3.088,0.39,6.025,3.696,6.861c4.504,1.007,9.217,1.568,13.807,1.995c6.889,0.646,13.845,0.998,20.763,1.245
			c22.055,0.808,44.253,0.798,66.317,0.798s44.3,0.019,66.355-0.798c6.908-0.257,13.855-0.599,20.744-1.245
			c4.571-0.428,9.255-0.988,13.741-1.986l0.095-0.019c3.269-0.855,3.649-3.791,3.649-6.851V474.393H250.582z"/>
		<path fill="#575756" d="M229.648,618.041h20.943V480.065h-20.943c-8.837,0-16.002,7.165-16.002,16.002v105.981
			C213.646,610.876,220.81,618.041,229.648,618.041z"/>
		<path d="M251.058,618.516h-21.419c-9.084,0-16.477-7.393-16.477-16.477V496.058c0-9.084,7.393-16.477,16.477-16.477h21.419
			V618.516z M229.639,480.541c-8.562,0-15.527,6.965-15.527,15.527v105.981c0,8.562,6.965,15.527,15.527,15.527h20.468V480.541
			H229.639z"/>
		<path fill="#575756" d="M62.357,618.041H41.414V480.065h20.943c8.837,0,16.002,7.165,16.002,16.002v105.981
			C78.359,610.876,71.195,618.041,62.357,618.041z"/>
		<path d="M62.357,618.516H40.939V479.59h21.418c9.084,0,16.477,7.393,16.477,16.477v105.981
			C78.836,611.133,71.442,618.516,62.357,618.516z M41.889,617.566h20.468c8.562,0,15.527-6.965,15.527-15.527V496.058
			c0-8.562-6.965-15.527-15.527-15.527H41.889V617.566z"/>
		<path opacity="0.32" fill="#FFFFF3" enable-background="new    " d="M250.126,480.493h-20.411
			c-8.609,0-15.594,6.984-15.594,15.593v0.969h36.014v-16.563h-0.009V480.493z"/>
		<path opacity="0.36" fill="#01071C" enable-background="new    " d="M216.041,602.048c0,8.837,6.699,16.002,14.957,16.002h19.584
			v-19.366h-34.541V602.048L216.041,602.048z"/>
		<path opacity="0.22" fill="#01071C" enable-background="new    " d="M250.582,577.541h-34.541v21.133h34.541V577.541z"/>
		<path opacity="0.22" fill="#FFFFF3" enable-background="new    " d="M250.125,497.056h-36.014v24.146h36.014V497.056z"/>
		<path opacity="0.32" fill="#FFFFF3" enable-background="new    " d="M76.517,496.096c0-8.571-6.357-15.518-14.206-15.518H43.715
			v16.477h32.802V496.096z"/>
		<path opacity="0.36" fill="#01071C" enable-background="new    " d="M41.928,617.566h20.345c8.581,0,15.546-6.984,15.546-15.603
			l0.086-106.37c-0.162-3.288-1.273-5.664-1.273-5.664l-0.665,108.746H41.929v18.891H41.928z"/>
		<path opacity="0.22" fill="#01071C" enable-background="new    " d="M75.966,577.541H41.928v21.133h34.038V577.541z"/>
		<path opacity="0.22" fill="#FFFFF3" enable-background="new    " d="M76.517,497.056H43.715v24.146h32.802V497.056z"/>
		<path opacity="0.4" fill="#000D23" enable-background="new    " d="M99.425,482.555h-3.088c-1.881,0-3.402,1.52-3.402,3.402
			v11.099v16.591v7.554v56.34v21.133v67.192c0,1.178,0.608,2.224,1.52,2.832l2.167-1.14c-1.245-0.152-2.224-1.197-2.224-2.49
			v-66.403v-21.133v-56.34v-6.452v-17.694v-10.31c0-1.387,1.131-2.518,2.518-2.518h1.929l1.854-1.425
			C100.301,482.641,99.872,482.555,99.425,482.555z"/>
		<path opacity="0.36" fill="#FFFFF8" enable-background="new    " d="M100.699,482.802l-1.853,1.425
			c1.387,0,2.518,1.131,2.518,2.518v10.31v22.939v1.207v56.34v21.133v66.403c0,1.387-1.131,2.518-2.518,2.518h-1.929
			c-0.105,0-0.2-0.019-0.295-0.029l-2.167,1.14c0.542,0.361,1.188,0.57,1.881,0.57h3.088c1.881,0,3.402-1.52,3.402-3.402v-67.192
			v-21.133v-56.34v-0.104v-24.041v-11.099C102.827,484.522,101.944,483.306,100.699,482.802z"/>
		<path opacity="0.4" fill="#000D23" enable-background="new    " d="M196.039,482.555h-3.088c-1.882,0-3.402,1.52-3.402,3.402
			v11.099v24.146v56.34v21.133v67.192c0,1.178,0.608,2.224,1.52,2.832l2.167-1.14c-1.245-0.152-2.224-1.197-2.224-2.49v-66.403
			v-21.133v-56.34v-24.146v-10.31c0-1.387,1.131-2.518,2.518-2.518h1.929l1.853-1.425
			C196.922,482.641,196.495,482.555,196.039,482.555z"/>
		<path opacity="0.36" fill="#FFFFF8" enable-background="new    " d="M197.312,482.802l-1.853,1.425
			c1.387,0,2.518,1.131,2.518,2.518v10.31v24.146v56.34v21.133v66.403c0,1.387-1.131,2.518-2.518,2.518h-1.929
			c-0.104,0-0.2-0.019-0.295-0.029l-2.167,1.14c0.542,0.361,1.188,0.57,1.882,0.57h3.088c1.881,0,3.402-1.52,3.402-3.402v-67.192
			v-21.133v-56.34v-24.146v-11.099C199.44,484.522,198.557,483.306,197.312,482.802z"/>
		<path opacity="0.4" fill="#000D23" enable-background="new    " d="M166.095,482.555h-3.088c-1.882,0-3.402,1.52-3.402,3.402
			v11.099v24.146v56.34v21.133v67.192c0,1.178,0.608,2.224,1.52,2.832l2.167-1.14c-1.245-0.152-2.224-1.197-2.224-2.49v-66.403
			v-21.133v-56.34v-24.146v-10.31c0-1.387,1.131-2.518,2.518-2.518h1.929l1.853-1.425
			C166.97,482.641,166.542,482.555,166.095,482.555z"/>
		<path opacity="0.36" fill="#FFFFF8" enable-background="new    " d="M167.369,482.802l-1.853,1.425
			c1.387,0,2.518,1.131,2.518,2.518v10.31v24.146v56.34v21.133v66.403c0,1.387-1.131,2.518-2.518,2.518h-1.929
			c-0.104,0-0.2-0.019-0.295-0.029l-2.167,1.14c0.542,0.361,1.188,0.57,1.882,0.57h3.088c1.881,0,3.402-1.52,3.402-3.402v-67.192
			v-21.133v-56.34v-24.146v-11.099C169.497,484.522,168.614,483.306,167.369,482.802z"/>
		<path opacity="0.4" fill="#000D23" enable-background="new    " d="M129.017,482.555h-3.088c-1.882,0-3.402,1.52-3.402,3.402
			v11.099v24.146v56.34v21.133v67.192c0,1.178,0.608,2.224,1.52,2.832l2.167-1.14c-1.245-0.152-2.224-1.197-2.224-2.49v-66.403
			v-21.133v-56.34v-24.146v-10.31c0-1.387,1.131-2.518,2.518-2.518h1.929l1.853-1.425
			C129.901,482.641,129.473,482.555,129.017,482.555z"/>
		<path opacity="0.36" fill="#FFFFF8" enable-background="new    " d="M130.291,482.802l-1.853,1.425
			c1.387,0,2.518,1.131,2.518,2.518v10.31v24.146v56.34v21.133v66.403c0,1.387-1.131,2.518-2.518,2.518h-1.929
			c-0.104,0-0.2-0.019-0.295-0.029l-2.167,1.14c0.542,0.361,1.188,0.57,1.882,0.57h3.088c1.881,0,3.402-1.52,3.402-3.402v-67.192
			v-21.133v-56.34v-24.146v-11.099C132.42,484.522,131.536,483.306,130.291,482.802z"/>
		<path opacity="0.4" fill="#000D23" enable-background="new    " d="M69.199,601.982l-2.813-4.818
			c-2.452-4.2-3.696-9.008-3.582-13.874l1.901-84.572l13.664,12.41v78.813c0,0,0.874,15.432-1.919,20.582l-0.038,21.675
			c15.166-1.672,24.963-54.668,24.963-54.668l0.057-40.556c1.435,1.216,3.25,1.881,5.122,1.872l107.102-0.219l0.105-24.146
			l36.831,0.447v-40.547c0-1.311-1.064-2.366-2.366-2.366H146.007H43.79c-1.311,0-2.366,1.064-2.366,2.366V680.5
			c0,3.088,0.39,6.025,3.696,6.861c4.504,1.007,9.217,1.568,13.807,1.995c6.205,0.589,10.804,0.846,17.038,1.093l0.475-79.934
			L69.199,601.982z"/>
		<path opacity="0.4" fill="#000D23" enable-background="new    " d="M217.258,612.168c0,0,11.365,19.594,33.335,20.041v-14.168
			h-17.275C233.317,618.041,222.474,619.077,217.258,612.168z"/>
		<path d="M148.145,691.894c-0.352,0-0.694,0-1.036,0h-2.195c-21.371,0-43.54,0-65.234-0.798
			c-5.739-0.209-13.284-0.542-20.782-1.245c-3.915-0.371-9.027-0.931-13.874-2.005c-3.573-0.903-4.067-4.058-4.067-7.326V474.393
			c0-1.568,1.273-2.841,2.841-2.841h204.426c1.568,0,2.841,1.273,2.841,2.841V680.51c0,3.25-0.494,6.395-4.01,7.307l-0.104,0.029
			c-4.827,1.074-9.911,1.634-13.807,1.995c-7.497,0.703-15.042,1.036-20.772,1.245C191.03,691.884,169.241,691.894,148.145,691.894z
			 M144.905,690.943h2.195c21.438-0.029,43.559,0,65.234-0.798c5.72-0.209,13.246-0.542,20.715-1.245
			c3.867-0.361,8.913-0.922,13.683-1.977l0.086-0.019c2.727-0.713,3.278-2.974,3.278-6.386V474.393c0-1.045-0.846-1.891-1.891-1.891
			H43.79c-1.045,0-1.891,0.846-1.891,1.891V680.51c0,3.43,0.561,5.692,3.335,6.405c4.78,1.064,9.854,1.625,13.74,1.986
			c7.478,0.703,15.004,1.036,20.734,1.245C101.384,690.943,123.506,690.981,144.905,690.943z"/>
		<path opacity="0.51" enable-background="new    " d="M258.375,304.974c-1.33,1.606-2.309,6.889-2.309,13.18
			c0,6.49,1.045,11.916,2.442,13.322C260.551,321.489,258.584,306.504,258.375,304.974z"/>
		<path opacity="0.19" fill="#EBF3FF" enable-background="new    " d="M260.094,303.14c0,0-0.2,0.656,0,2.537
			c0.2,1.882,0.998,3.544,1.169,13.009c0.171,9.464-1.482,12.8-1.444,13.151c0.038,0.352,0.295,1.045,0.295,1.045
			s-0.456,0.694-0.827,0.523s-0.817-1.435-0.456-3.003s0.77-6.956,0.855-12.79c0.086-5.835-1.34-12.201-1.34-12.828
			c0-0.627-0.209-2.452,1.463-2.186C260.037,302.627,260.094,303.14,260.094,303.14z"/>
		<path d="M259.335,333.88c-0.019,0-0.038,0-0.057,0c-0.295-0.01-0.551-0.143-0.741-0.361c-0.57-0.675-0.39-2.1-0.143-4.077
			l0.047-0.409c1.235-10.092,0.095-19.556-0.285-22.217c-0.361-2.499-0.418-3.725,0.161-4.4c0.257-0.304,0.637-0.456,1.102-0.456
			c1.292,0,1.758,2.129,2.252,4.381c0.095,0.456,0.2,0.903,0.295,1.311c1.492,6.044,1.539,16.04,0.095,21.38
			C261.255,332.103,260.542,333.88,259.335,333.88z M259.421,302.921c-0.276,0-0.361,0.086-0.39,0.124
			c-0.361,0.418-0.171,2.024,0.057,3.639c0.38,2.689,1.539,12.268,0.285,22.473l-0.047,0.409c-0.162,1.33-0.371,2.993-0.067,3.345
			c0.01,0,0.019,0,0.029,0c0.532,0,1.14-1.387,1.872-4.105c1.406-5.217,1.359-14.995-0.104-20.905
			c-0.104-0.418-0.2-0.874-0.304-1.34C260.495,305.373,259.953,302.921,259.421,302.921z"/>
		<path opacity="0.51" enable-background="new    " d="M256.313,426.614c-1.33,1.606-2.309,6.889-2.309,13.18
			c0,6.49,1.045,11.916,2.442,13.322C258.489,443.139,256.522,428.144,256.313,426.614z"/>
		<path opacity="0.19" fill="#EBF3FF" enable-background="new    " d="M258.032,424.79c0,0-0.2,0.656,0,2.537
			c0.2,1.882,0.998,3.544,1.169,13.009c0.171,9.464-1.482,12.8-1.444,13.151c0.047,0.352,0.295,1.045,0.295,1.045
			s-0.456,0.694-0.827,0.523c-0.371-0.171-0.817-1.435-0.456-3.003c0.361-1.568,0.77-6.956,0.855-12.79
			c0.085-5.834-1.34-12.201-1.34-12.828c0-0.627-0.209-2.452,1.463-2.186C257.975,424.267,258.032,424.79,258.032,424.79z"/>
		<path d="M257.263,455.53c-0.019,0-0.038,0-0.057,0c-0.295-0.009-0.551-0.133-0.741-0.361c-0.57-0.675-0.39-2.1-0.143-4.077
			l0.047-0.399c1.235-10.092,0.095-19.556-0.285-22.217c-0.352-2.499-0.418-3.734,0.162-4.4c0.257-0.304,0.637-0.456,1.102-0.456
			c1.292,0,1.758,2.129,2.252,4.381c0.095,0.456,0.2,0.903,0.304,1.321c1.492,6.044,1.539,16.04,0.095,21.38
			C259.182,453.753,258.47,455.53,257.263,455.53z M257.358,424.562c-0.276,0-0.361,0.086-0.39,0.124
			c-0.361,0.418-0.171,2.024,0.057,3.639c0.38,2.689,1.539,12.268,0.285,22.473l-0.048,0.399c-0.162,1.34-0.371,2.993-0.067,3.354
			c0.01,0,0.019,0,0.029,0c0.523,0,1.14-1.387,1.872-4.105c1.406-5.217,1.359-14.985-0.104-20.905
			c-0.105-0.428-0.209-0.884-0.304-1.349C258.422,427.023,257.89,424.562,257.358,424.562z"/>
		<path opacity="0.51" enable-background="new    " d="M33.518,304.974c1.33,1.606,2.309,6.889,2.309,13.18
			c0,6.49-1.045,11.916-2.442,13.322C31.341,321.489,33.309,306.504,33.518,304.974z"/>
		<path opacity="0.19" fill="#EBF3FF" enable-background="new    " d="M31.799,303.14c0,0,0.2,0.656,0,2.537
			c-0.2,1.882-0.998,3.544-1.169,13.009c-0.171,9.465,1.482,12.8,1.444,13.151c-0.047,0.352-0.295,1.045-0.295,1.045
			s0.456,0.694,0.827,0.523c0.371-0.171,0.817-1.435,0.456-3.003s-0.77-6.956-0.855-12.79c-0.086-5.835,1.34-12.201,1.34-12.828
			c0-0.627,0.209-2.452-1.463-2.186C31.856,302.627,31.799,303.14,31.799,303.14z"/>
		<path d="M32.559,333.88c-1.207,0-1.919-1.777-2.746-4.827c-1.435-5.35-1.387-15.337,0.095-21.38
			c0.104-0.418,0.2-0.865,0.295-1.321c0.494-2.252,0.96-4.381,2.252-4.381c0.475,0,0.846,0.152,1.102,0.456
			c0.58,0.665,0.513,1.9,0.161,4.4c-0.38,2.661-1.52,12.135-0.285,22.217l0.047,0.399c0.247,1.977,0.418,3.402-0.143,4.077
			c-0.19,0.219-0.437,0.342-0.741,0.361C32.597,333.88,32.578,333.88,32.559,333.88z M32.473,302.921
			c-0.532,0-1.064,2.452-1.321,3.639c-0.105,0.466-0.2,0.922-0.304,1.34c-1.463,5.92-1.511,15.689-0.105,20.905
			c0.741,2.756,1.34,4.115,1.834,4.124c0.352-0.38,0.152-2.034-0.019-3.373l-0.047-0.399c-1.245-10.206-0.095-19.775,0.285-22.473
			c0.228-1.615,0.428-3.221,0.057-3.639C32.825,303.007,32.749,302.921,32.473,302.921z"/>
		<path opacity="0.51" enable-background="new    " d="M35.58,426.614c1.33,1.606,2.309,6.889,2.309,13.18
			c0,6.49-1.045,11.916-2.442,13.322C33.404,443.139,35.371,428.144,35.58,426.614z"/>
		<path opacity="0.19" fill="#EBF3FF" enable-background="new    " d="M33.859,424.79c0,0,0.2,0.656,0,2.537
			c-0.2,1.882-0.998,3.544-1.169,13.009c-0.171,9.464,1.482,12.8,1.444,13.151c-0.048,0.352-0.295,1.045-0.295,1.045
			s0.456,0.694,0.827,0.523c0.371-0.171,0.817-1.435,0.456-3.003s-0.77-6.956-0.855-12.79c-0.086-5.835,1.34-12.201,1.34-12.828
			c0-0.627,0.209-2.452-1.463-2.186C33.916,424.267,33.859,424.79,33.859,424.79z"/>
		<path d="M34.629,455.53c-1.207,0-1.919-1.777-2.746-4.827c-1.435-5.35-1.387-15.337,0.095-21.38
			c0.104-0.418,0.2-0.865,0.295-1.311c0.494-2.252,0.96-4.381,2.252-4.381c0.475,0,0.846,0.152,1.102,0.456
			c0.58,0.665,0.523,1.9,0.161,4.4c-0.38,2.661-1.52,12.135-0.285,22.217l0.047,0.399c0.247,1.977,0.418,3.411-0.143,4.077
			c-0.19,0.219-0.447,0.342-0.741,0.361C34.667,455.53,34.648,455.53,34.629,455.53z M34.534,424.562
			c-0.532,0-1.064,2.452-1.321,3.639c-0.105,0.466-0.2,0.922-0.304,1.34c-1.463,5.92-1.511,15.689-0.105,20.905
			c0.732,2.737,1.349,4.124,1.824,4.124h0.01c0.352-0.38,0.152-2.043-0.019-3.373l-0.047-0.399
			c-1.245-10.206-0.095-19.775,0.285-22.473c0.228-1.615,0.428-3.221,0.057-3.639C34.895,424.657,34.819,424.562,34.534,424.562z"/>
		<path fill="#101111" d="M243.941,220.212c0.19-0.637,0.38-1.283,0.57-1.939c6.718-20.478,10.263-22.863,10.025-3.582
			c-0.01,1.007-0.038,2.072-0.067,3.193l-2.072,108.803l-20.459,6.585c-1.036,0.361-1.501-1.159-1.454-4.485
			C231.18,277.949,233.242,256.91,243.941,220.212z"/>
		<path fill="#101111" d="M250.668,411.734c-0.342,20.202-1.739,30.256-6.566,31.035c-3.668,0.542-7.326,0.466-10.994-0.295
			c-2.281-0.608-2.832-4.97-2.974-13.959c-0.39-25.543-0.238-51.085,0.067-76.628c0.047-2.889,0.513-4.485,1.482-4.523l20.316-1.264
			L250.668,411.734z"/>
		<path opacity="0.56" fill="#848484" enable-background="new    " d="M243.646,221.248c-10.443,36.062-12.477,57.195-13.17,107.539
			c-0.047,3.335,0.428,4.846,1.454,4.485l12.021-3.877C244.786,275.944,244.026,236.243,243.646,221.248z"/>
		<path opacity="0.56" fill="#848484" enable-background="new    " d="M231.692,347.345c-0.969,0.038-1.435,1.634-1.482,4.523
			c-0.304,25.543-0.456,51.085-0.067,76.628c0.143,8.989,0.684,13.351,2.974,13.959c2.319,0.475,4.628,0.684,6.946,0.637
			c1.872-34.56,2.974-67.239,3.592-96.497L231.692,347.345z"/>
		<path d="M231.655,333.804c-0.285,0-0.504-0.104-0.656-0.209c-0.732-0.523-1.036-2.014-0.998-4.808
			c0.684-50.002,2.632-71.525,13.484-108.698l0.57-1.939c5.084-15.498,7.212-17.351,8.638-17.104
			c1.226,0.2,2.461,1.986,2.319,13.665c-0.01,1.007-0.038,2.081-0.067,3.202l-2.081,109.135l-20.782,6.69
			C231.93,333.785,231.788,333.804,231.655,333.804z M244.397,220.345c-10.814,37.078-12.762,58.544-13.446,108.451
			c-0.047,3.297,0.456,3.915,0.608,4.029c0.029,0.019,0.076,0.057,0.219,0.009l20.145-6.49l2.072-108.461
			c0.038-1.131,0.057-2.186,0.067-3.193c0.143-11.536-1.131-12.648-1.52-12.714c-0.466-0.086-2.461,0.874-7.573,16.449
			L244.397,220.345z"/>
		<path d="M239.39,443.586c-2.148,0-4.286-0.219-6.376-0.646c-2.68-0.713-3.212-5.217-3.354-14.425
			c-0.418-27.405-0.2-54.126,0.067-76.647c0.038-2.11,0.276-4.922,1.938-4.998l20.82-1.292l-1.349,66.165
			c-0.323,19.29-1.577,30.626-6.965,31.491C242.573,443.462,240.977,443.586,239.39,443.586z M251.515,346.594l-19.794,1.235
			c-0.238,0.01-0.979,0.333-1.036,4.058c-0.266,22.511-0.485,49.223-0.067,76.618c0.124,8.153,0.599,12.971,2.623,13.512
			c3.506,0.722,7.146,0.817,10.795,0.276c4.713-0.751,5.854-12.258,6.158-30.569L251.515,346.594z"/>
		<path fill="#3C3C3B" d="M253.804,215.071l-8.761,4.571l-1.102,0.57c0.19-0.637,0.38-1.283,0.57-1.939
			c6.718-20.478,10.263-22.863,10.025-3.582L253.804,215.071z"/>
		<path d="M243.172,221.153l0.884-3.012c5.084-15.498,7.212-17.351,8.638-17.104c1.226,0.2,2.461,1.986,2.319,13.664v0.285
			L243.172,221.153z M252.484,201.967c-0.561,0-2.575,1.378-7.526,16.458l-0.247,0.855l9.35-4.875
			c0.124-11.27-1.131-12.363-1.53-12.429C252.522,201.967,252.503,201.967,252.484,201.967z"/>
		<path fill="#101111" d="M48.114,220.355c-0.19-0.637-0.38-1.283-0.57-1.939c-6.718-20.478-10.263-22.863-10.025-3.582
			c0.01,1.007,0.038,2.072,0.067,3.193l2.072,108.803l20.459,6.585c1.036,0.361,1.501-1.159,1.454-4.485
			C60.876,278.091,58.814,257.053,48.114,220.355z"/>
		<path fill="#101111" d="M41.388,411.867c0.342,20.202,1.739,30.256,6.566,31.035c3.668,0.542,7.326,0.466,10.994-0.295
			c2.281-0.608,2.832-4.97,2.974-13.959c0.39-25.543,0.238-51.085-0.067-76.628c-0.048-2.889-0.513-4.485-1.482-4.523l-20.316-1.264
			L41.388,411.867z"/>
		<path opacity="0.56" fill="#848484" enable-background="new    " d="M48.41,221.381c10.443,36.062,12.477,57.195,13.17,107.539
			c0.048,3.335-0.428,4.846-1.454,4.485l-12.021-3.877C47.27,276.086,48.03,236.385,48.41,221.381z"/>
		<path opacity="0.56" fill="#848484" enable-background="new    " d="M60.363,347.488c0.969,0.038,1.435,1.634,1.482,4.523
			c0.304,25.543,0.456,51.085,0.067,76.628c-0.143,8.989-0.684,13.351-2.974,13.959c-2.319,0.475-4.628,0.684-6.946,0.637
			c-1.872-34.56-2.974-67.239-3.592-96.497L60.363,347.488z"/>
		<path d="M60.402,333.947c-0.133,0-0.276-0.019-0.437-0.076l-20.772-6.69l-2.081-109.135c-0.038-1.121-0.057-2.195-0.067-3.202
			c-0.143-11.678,1.093-13.455,2.319-13.664c1.416-0.247,3.554,1.615,8.638,17.095l0.57,1.948
			c10.852,37.183,12.8,58.697,13.484,108.698c0.038,2.803-0.276,4.286-0.998,4.808C60.905,333.842,60.687,333.947,60.402,333.947z
			 M40.132,326.478l20.136,6.49c0.152,0.048,0.2,0.019,0.228,0c0.152-0.114,0.646-0.732,0.608-4.029
			c-0.684-49.907-2.632-71.373-13.446-108.451l-0.57-1.939c-5.103-15.565-7.079-16.534-7.573-16.439
			c-0.39,0.067-1.663,1.178-1.52,12.714c0.009,1.007,0.038,2.062,0.067,3.193L40.132,326.478z"/>
		<path d="M52.656,443.719c-1.587,0-3.174-0.114-4.761-0.352c-5.397-0.865-6.642-12.201-6.975-31.491l-1.34-66.165l20.829,1.292
			c1.653,0.066,1.901,2.879,1.929,4.989c0.266,22.511,0.485,49.223,0.067,76.647c-0.143,9.208-0.675,13.712-3.326,14.415
			C56.952,443.5,54.813,443.719,52.656,443.719z M40.541,346.727l1.321,65.13c0.314,18.311,1.454,29.819,6.167,30.569
			c3.639,0.542,7.288,0.437,10.823-0.285c1.995-0.532,2.471-5.359,2.594-13.503c0.418-27.405,0.2-54.107-0.067-76.618
			c-0.057-3.725-0.808-4.048-1.026-4.058L40.541,346.727z"/>
		<path fill="#3C3C3B" d="M38.253,215.214l8.761,4.571l1.102,0.57c-0.19-0.637-0.38-1.283-0.57-1.939
			c-6.718-20.478-10.263-22.863-10.025-3.582L38.253,215.214z"/>
		<path d="M48.885,221.286l-11.831-6.167v-0.285c-0.143-11.678,1.093-13.455,2.319-13.665c1.416-0.247,3.554,1.615,8.638,17.095
			L48.885,221.286z M38.47,214.786l8.875,4.628l-0.257-0.865c-5.103-15.565-7.079-16.534-7.573-16.439
			c-0.39,0.067-1.644,1.159-1.52,12.429L38.47,214.786z"/>
		<path fill="#131314" d="M146.008,464.567l-83.773-0.38c-1.425,0-2.784-0.675-1.729-1.844c2.471-2.765,7.82-5.074,10.12-5.293
			c18.938-0.333,56.359,0,75.383,0s56.444-0.333,75.383,0c2.309,0.219,7.659,2.528,10.12,5.293c1.045,1.178-0.304,1.844-1.729,1.844
			L146.008,464.567z"/>
		<path opacity="0.56" fill="#848484" enable-background="new    " d="M229.375,460.491c-2.67-1.881-6.215-3.278-7.982-3.44
			c-18.938-0.333-56.359,0-75.383,0s-56.444-0.333-75.383,0c-1.767,0.171-5.312,1.558-7.982,3.44l83.365,0.38
			C146.01,460.871,228.567,460.5,229.375,460.491z"/>
		<path d="M146.009,465.042l-83.783-0.38c-0.96,0-2.119-0.285-2.48-1.074c-0.152-0.342-0.209-0.884,0.39-1.558
			c2.518-2.822,7.982-5.217,10.434-5.445c13.246-0.238,35.919-0.143,54.135-0.067c8.106,0.038,15.536,0.067,21.295,0.067
			c5.758,0,13.189-0.029,21.295-0.067c18.216-0.076,40.879-0.171,54.097,0.067c2.49,0.238,7.944,2.623,10.472,5.454
			c0.599,0.675,0.551,1.216,0.399,1.558c-0.352,0.798-1.511,1.074-2.48,1.074L146.009,465.042z M94.468,457.374
			c-9.094,0-17.541,0.038-23.842,0.152c-2.214,0.209-7.44,2.509-9.778,5.131c-0.095,0.105-0.314,0.371-0.238,0.542
			c0.114,0.247,0.76,0.513,1.615,0.513l83.783,0.38l83.773-0.38c0.855,0,1.501-0.266,1.615-0.513
			c0.076-0.162-0.143-0.428-0.238-0.542c-2.338-2.623-7.564-4.922-9.816-5.131c-13.17-0.228-35.834-0.143-54.04-0.066
			c-8.106,0.038-15.546,0.066-21.304,0.066s-13.199-0.029-21.305-0.066C115.183,457.421,104.436,457.374,94.468,457.374z"/>
		<path fill="#121313" d="M146.151,159.71c33.99,0.162,62.222,3.925,84.524,11.289c5.407,1.862,8.647,5.654,7.611,13.265
			c-2.347,21.285-7.421,42.58-9.778,63.866c-1.093,7.298-4.333,7.649-14.235,6.88c-23.547-1.815-44.433-2.832-68.085-2.832
			s-44.595,1.026-68.142,2.832c-9.902,0.77-13.142,0.409-14.235-6.88c-2.347-21.285-7.383-42.58-9.73-63.866
			c-1.036-7.611,2.205-11.403,7.611-13.265C84.005,163.635,112.161,159.872,146.151,159.71z"/>
		<path fill="#121316" d="M234.076,164.404c-11.621-7.535-42.134-14.529-87.869-14.472c-45.735-0.057-76.295,6.927-87.916,14.472
			c-4.172,2.803-5.046,9.94-4.371,17.979c-0.285-6.367,2.841-9.683,7.783-11.384c22.312-7.364,50.458-11.127,84.448-11.289
			c33.99,0.162,62.222,3.925,84.524,11.289c4.941,1.701,8.068,5.017,7.782,11.393C239.131,174.344,238.247,167.208,234.076,164.404z
			"/>
		<path d="M238.933,182.43l-0.95-0.057c0.257-5.606-2.119-9.075-7.459-10.918c-22.15-7.317-50.543-11.099-84.372-11.26
			c-33.781,0.162-62.136,3.943-84.296,11.26c-5.34,1.843-7.706,5.312-7.459,10.918l-0.95,0.057
			c-0.808-9.635,0.732-15.831,4.58-18.406c10.367-6.728,39.521-14.548,87.631-14.548c0.371,0,0.751,0,1.121,0
			c48.016,0,76.704,7.507,87.555,14.548h0.01C238.191,166.599,239.74,172.795,238.933,182.43z M145.657,150.407
			c-47.911,0-76.856,7.744-87.109,14.396c-2.746,1.843-4.219,6.006-4.343,12.163c1.15-3.003,3.582-5.122,7.345-6.424
			c22.255-7.345,50.714-11.156,84.6-11.308c33.943,0.162,62.431,3.963,84.676,11.308c3.763,1.302,6.196,3.421,7.355,6.424
			c-0.124-6.158-1.606-10.32-4.352-12.173c-10.253-6.652-39.198-14.396-87.061-14.396
			C146.388,150.407,146.027,150.407,145.657,150.407z"/>
		<path fill="#050606" d="M103.484,198.147H71.347c-1.805,0-3.269,1.463-3.269,3.269l4.742,29.572c0,1.805,1.463,7.944,3.269,7.944
			c0,0,5.226,1.824,11.678,1.824c6.452,0,11.726-1.824,11.726-1.824c1.805,0,3.269-6.139,3.269-7.944l4-29.572
			C106.753,199.611,105.289,198.147,103.484,198.147z"/>
		<path fill="#050505" d="M87.417,221.847c-13.132,0-23.034,5.331-23.034,12.41c0,7.079,9.902,12.41,23.034,12.41
			c13.132,0,23.034-5.331,23.034-12.41C110.451,227.177,100.54,221.847,87.417,221.847z M87.417,240.956
			c-10.576,0-17.332-3.972-17.332-6.709s6.747-6.709,17.332-6.709s17.332,3.972,17.332,6.709
			C104.74,236.984,97.994,240.956,87.417,240.956z"/>
		<path fill="#262828" d="M230.676,170.999c-22.312-7.364-50.534-11.127-84.524-11.289c-33.99,0.162-62.136,3.925-84.448,11.289
			c-5.407,1.862-8.647,5.654-7.611,13.265c1.159,10.519,2.974,21.048,4.799,31.567c1.71,0.009,2.889,0.019,2.889,0.019
			s16.62,3.487,25.638,3.487c9.094,0,30.598-3.487,30.598-3.487s26.293-0.181,27.994-0.2c-0.009,0-0.009,0-0.019,0h0.105
			c0,0-0.029,0-0.086,0c30.674,0.903,67.448,0.589,87.441,0.285c1.844-10.557,3.677-21.105,4.837-31.662
			C239.323,176.653,236.083,172.862,230.676,170.999z"/>
		<path fill="#262828" d="M146.273,181.433c-6.614,0-22.825,2.176-27.186,6.367c-4.361,4.191,1.093,28.507,3.677,31.025
			c2.585,2.518,23.5,2.176,23.5,2.176s20.924,0.333,23.509-2.176c2.585-2.518,8.039-26.835,3.677-31.025
			C169.108,183.609,152.887,181.433,146.273,181.433z"/>
		<path fill="#121313" d="M149.115,221.504c-1.406,0-2.433-0.01-2.841-0.019c-2.148,0.038-21.171,0.266-23.832-2.319
			c-2.129-2.062-5.483-15.812-5.454-24.516c0.01-3.639,0.608-6.063,1.777-7.184c4.381-4.21,20.468-6.5,27.51-6.5
			c7.042,0,23.138,2.3,27.519,6.5c1.169,1.131,1.767,3.544,1.777,7.193c0.019,8.704-3.335,22.454-5.454,24.516
			C167.967,221.257,155.092,221.504,149.115,221.504z M146.273,220.526c8.353,0.133,21.39-0.304,23.186-2.043
			c1.767-1.72,5.188-15.194,5.169-23.832c-0.009-3.326-0.523-5.578-1.492-6.509c-4.029-3.868-19.68-6.234-26.863-6.234
			s-22.825,2.366-26.854,6.234c-0.969,0.931-1.482,3.174-1.492,6.509c-0.019,8.638,3.402,22.112,5.169,23.832
			C124.902,220.231,137.94,220.668,146.273,220.526z"/>
		<path fill="#313334" d="M61.703,216.088l11.764,1.948c0,0-2.376-18.273,2.1-37.611C75.567,180.425,62.035,189.377,61.703,216.088z
			"/>
		<path fill="#1F2020" d="M101.385,180.425c5.587,18.777,1.463,37.611,1.463,37.611l15.166-2.062
			C113.168,190.489,101.385,180.425,101.385,180.425z"/>
		<path fill="#1D1D1B" d="M230.676,170.999c-22.312-7.364-50.534-11.127-84.524-11.289c-33.99,0.162-62.136,3.925-84.448,11.289
			c-5.407,1.862-8.647,5.654-7.611,13.265c2.347,21.285,7.383,42.58,9.731,63.866c1.093,7.298,4.333,7.649,14.235,6.88
			c23.547-1.815,44.49-2.832,68.142-2.832s44.538,1.026,68.085,2.832c9.902,0.77,13.142,0.409,14.235-6.88
			c2.347-21.285,7.421-42.58,9.778-63.866C239.323,176.653,236.083,172.862,230.676,170.999z M234.981,183.903
			c-1.159,10.548-3.041,21.314-4.856,31.738c-1.834,10.491-3.725,21.342-4.913,32.071c-0.618,4.134-0.76,4.77-10.681,3.991
			c-25.913-1.996-46.353-2.841-68.341-2.841c-22.027,0-42.485,0.855-68.398,2.841c-9.911,0.77-10.054,0.143-10.671-3.991
			c-1.188-10.728-3.069-21.58-4.884-32.071c-1.805-10.415-3.677-21.19-4.846-31.814c-0.722-5.302,0.846-8.106,5.359-9.664
			c21.865-7.222,49.926-10.966,83.403-11.118c33.525,0.162,61.623,3.896,83.441,11.108
			C234.144,175.712,235.712,178.515,234.981,183.903z"/>
		<path opacity="0.56" fill="#848484" enable-background="new    " d="M78.055,255.02c23.547-1.815,44.49-2.832,68.142-2.832
			s44.538,1.026,68.085,2.832c9.902,0.77,13.142,0.409,14.235-6.88c1.302-11.802,3.44-23.595,5.492-35.397
			c-20.012-9.056-48.614-13.541-86.406-13.607c-38.893,0-68.36,4.789-89.076,14.539c1.986,11.488,4.039,22.967,5.302,34.456
			C64.914,255.428,68.154,255.789,78.055,255.02z"/>
		<path d="M72.544,255.77c-5.872,0-8.296-1.539-9.198-7.564c-1.178-10.652-3.05-21.466-4.865-31.919
			c-1.815-10.472-3.696-21.304-4.875-31.966c-0.96-7.089,1.634-11.593,7.925-13.769c22.255-7.345,50.714-11.156,84.6-11.308
			c33.933,0.162,62.431,3.963,84.676,11.308c6.3,2.176,8.894,6.68,7.935,13.779c-1.178,10.652-3.06,21.485-4.894,31.957
			c-1.824,10.453-3.706,21.276-4.884,31.9c-1.15,7.668-4.751,8.077-14.738,7.307c-25.809-1.986-46.163-2.832-68.047-2.832
			c-21.922,0-42.295,0.846-68.104,2.832C75.965,255.656,74.131,255.77,72.544,255.77z M146.15,160.185
			c-33.781,0.162-62.146,3.943-84.296,11.26c-5.872,2.024-8.191,6.082-7.288,12.752c1.178,10.643,3.05,21.456,4.865,31.919
			c1.815,10.472,3.696,21.304,4.875,31.957c1.007,6.709,3.668,7.25,13.722,6.462c25.837-1.986,46.229-2.832,68.18-2.832
			c21.913,0,42.276,0.846,68.123,2.832c10.054,0.779,12.724,0.247,13.721-6.481c1.178-10.643,3.06-21.466,4.884-31.938
			c1.825-10.462,3.715-21.276,4.884-31.909c0.912-6.68-1.406-10.738-7.288-12.771C208.372,164.129,179.978,160.347,146.15,160.185z"
			/>
		<path d="M146.161,712.067c-74.499-0.029-92.193-0.038-103.7-5.521c-13.341-6.49-14.881-16.62-14.871-23.671v-4.685l1.824,4.324
			c1.919,4.542,6.357,7.288,14.843,9.189c15.66,3.497,46.619,4.143,101.942,4.143c55.295,0,86.244-0.637,101.885-4.134l0.038-0.01
			c8.467-1.9,12.876-4.647,14.776-9.189l1.824-4.362v4.723c0.01,7.06-1.53,17.19-14.871,23.69
			C238.335,712.039,220.641,712.039,146.161,712.067z M29.671,686.572c0.656,6.063,3.421,13.303,13.617,18.264
			c11.108,5.302,30.55,5.302,102.873,5.331c72.313-0.029,91.746-0.038,102.864-5.34c10.187-4.96,12.952-12.201,13.607-18.264
			c-2.68,3.231-7.127,5.397-14.073,6.956l-0.047,0.01c-15.812,3.535-46.857,4.191-102.313,4.191
			c-55.466,0-86.52-0.646-102.351-4.191C36.845,691.979,32.37,689.813,29.671,686.572z"/>
		<path d="M146.008,697.728c-81.588,0-106.646-1.349-115.54-10.244c-4.485-4.485-4.476-10.833-4.466-18.862
			c0-5.625,0.038-12.581,0.076-19.537c0.076-13.113,0.152-26.645-0.047-30.531c-7.478-5.901-9.284-40.072-9.711-54.686
			c-0.836-28.222,0.912-58.345,4.333-74.946c0.323-1.549,0.836-3.307,1.387-5.16c0.903-3.06,1.834-6.224,1.986-8.79
			c0.77-12.505,1.748-25.647,2.927-39.055c-0.38-40.67-0.76-80.201-1.14-119.74c-0.371-38.76-0.741-77.53-1.121-117.488
			c0.019-3.335-1.748-6.718-3.62-10.282c-1.691-3.231-3.44-6.576-3.782-9.968c-2.129-44.481-1.207-78.119,2.718-100.023
			c0.304-1.71,1.254-3.62,2.176-5.464c0.931-1.872,1.891-3.81,2.138-5.435c1.596-10.624,3.867-19.404,6.737-26.084
			C45.721,14.864,83.303,1.988,146.01,1.988c62.707,0,100.289,12.876,114.903,39.359c2.917,6.766,5.188,15.536,6.785,26.16
			c0.247,1.625,1.207,3.563,2.138,5.435c0.922,1.843,1.862,3.753,2.176,5.464c3.934,21.903,4.846,55.532,2.727,99.966
			c-0.352,3.44-2.1,6.785-3.791,10.016c-1.872,3.573-3.639,6.946-3.62,10.272c-0.38,40.376-0.751,79.526-1.131,118.676
			s-0.751,78.3-1.131,118.657c1.169,13.313,2.148,26.445,2.917,38.96c0.162,2.566,1.093,5.73,1.986,8.79
			c0.551,1.862,1.064,3.62,1.387,5.16c3.43,16.601,5.169,46.714,4.333,74.946c-0.428,14.615-2.243,48.776-9.711,54.687
			c-0.2,3.886-0.124,17.418-0.047,30.531c0.038,6.956,0.076,13.921,0.076,19.537c0.01,8.03,0.019,14.377-4.466,18.862
			C252.654,696.388,227.587,697.728,146.008,697.728z M146.008,3.889c-61.946,0-98.987,12.553-113.24,38.38
			c-2.775,6.443-4.998,15.061-6.566,25.524c-0.285,1.919-1.321,3.991-2.319,5.996c-0.893,1.805-1.748,3.506-2.005,4.951
			c-3.905,21.761-4.818,55.257-2.699,99.547c0.304,2.974,1.967,6.148,3.573,9.227c1.891,3.62,3.858,7.364,3.839,11.165
			c0.371,39.939,0.741,78.709,1.121,117.479c0.38,39.54,0.76,79.07,1.14,119.835c-1.169,13.484-2.157,26.607-2.927,39.093
			c-0.171,2.784-1.131,6.053-2.062,9.208c-0.532,1.824-1.045,3.544-1.349,5.008c-7.45,36.081-5.654,121.213,4.941,127.931
			l0.399,0.257l0.038,0.475c0.247,3.259,0.162,16.791,0.086,31.12c-0.038,6.956-0.076,13.912-0.076,19.527
			c-0.01,7.887-0.019,13.589,3.915,17.523c8.343,8.353,34.494,9.692,114.2,9.692c79.697,0,105.848-1.34,114.2-9.692
			c3.924-3.934,3.924-9.626,3.915-17.523c0-5.616-0.038-12.572-0.076-19.527c-0.086-14.33-0.162-27.861,0.086-31.12l0.038-0.475
			l0.399-0.257c10.595-6.718,12.391-91.85,4.941-127.931c-0.304-1.473-0.808-3.193-1.349-5.008
			c-0.931-3.164-1.891-6.433-2.062-9.208c-0.77-12.496-1.748-25.619-2.917-39.007c0.371-40.442,0.751-79.592,1.121-118.742
			c0.38-39.15,0.751-78.31,1.131-118.666c-0.019-3.782,1.938-7.526,3.839-11.146c1.606-3.069,3.269-6.253,3.582-9.274
			c2.11-44.243,1.207-77.73-2.699-99.49c-0.257-1.444-1.112-3.145-2.005-4.951c-0.998-2.005-2.024-4.077-2.319-5.996
			c-1.568-10.462-3.791-19.081-6.604-25.609C244.995,16.452,207.945,3.889,146.008,3.889z"/>
		<path fill="#181919" d="M264.475,203.944c-5.445-1.72-12.98-0.722-12.98-0.722s-0.542,0.561-0.884,1.235
			c-0.333,0.675-0.684,6.063-0.104,7.06c0.58,1.007,1.52,0.95,1.52,0.95l8.429-1.615
			C260.446,210.852,260.817,207.954,264.475,203.944z"/>
		<path d="M252.008,212.933c-0.323,0-1.302-0.095-1.919-1.178c-0.675-1.169-0.295-6.747,0.095-7.516
			c0.361-0.732,0.941-1.33,0.969-1.349l0.114-0.124l0.162-0.019c0.314-0.038,7.706-0.988,13.189,0.741l0.713,0.228l-0.504,0.551
			c-3.516,3.858-3.906,6.623-3.906,6.642l-0.047,0.342l-8.761,1.682C252.093,212.933,252.065,212.933,252.008,212.933z
			 M251.723,203.668c-0.162,0.19-0.475,0.57-0.694,0.998c-0.323,0.684-0.58,5.815-0.124,6.614c0.418,0.732,1.064,0.713,1.074,0.713
			l8.049-1.549c0.2-0.855,0.95-3.202,3.582-6.253C258.869,202.927,252.806,203.545,251.723,203.668z"/>
		<path fill="#4A4C4F" d="M290.767,219.794c-1.425-2.765-19.708-13.161-25.172-15.441c-0.361-0.152-0.741-0.285-1.131-0.409
			c-5.663,4.609-4.894,14.159-4.894,14.159c0.333,2.414,2.262,4.286,3.82,5.046c1.558,0.76,22.502,6.709,23.68,7.212
			c1.178,0.504,3.772-0.171,4.447-3.098C292.193,224.327,292.193,222.569,290.767,219.794z"/>
		<path fill="#9D9FA3" d="M265.197,205.882c-0.675-0.836-1.882-1.15-2.737,0.247c-0.855,1.397-4.162,9.046-2.879,11.983
			c1.283,2.927,4.314,5.283,6.956,6.091s19.613,6.015,20.544,6.167c0.931,0.143,3.525-0.627,3.982-1.862
			c0.456-1.235,0.456-1.986-0.931-1.739c-1.378,0.247-22.169-5.283-23.68-6.794c-1.511-1.511-0.361-12.41-0.855-13.75
			L265.197,205.882z"/>
		<path d="M287.908,230.988c-0.371,0-0.713-0.057-1.007-0.19c-0.466-0.2-4.647-1.435-9.065-2.737
			c-6.414-1.891-13.693-4.029-14.634-4.485c-1.786-0.865-3.734-2.87-4.086-5.407c-0.038-0.428-0.722-9.892,5.065-14.596l0.2-0.162
			l0.247,0.076c0.399,0.124,0.789,0.266,1.169,0.418c5.236,2.186,23.889,12.724,25.409,15.669c1.52,2.946,1.463,4.856,0.798,7.783
			c-0.333,1.454-1.169,2.594-2.347,3.193C289.086,230.845,288.469,230.988,287.908,230.988z M264.58,204.476
			c-5.188,4.457-4.533,13.503-4.523,13.588c0.295,2.157,2.052,3.924,3.554,4.656c0.865,0.418,8.419,2.642,14.482,4.428
			c5.359,1.577,8.676,2.556,9.17,2.775c0.409,0.181,1.169,0.181,1.939-0.209c0.656-0.333,1.511-1.045,1.853-2.556
			c0.627-2.756,0.675-4.438-0.713-7.136c-1.33-2.585-19.252-12.857-24.925-15.223C265.15,204.676,264.865,204.571,264.58,204.476z"
			/>
		<path fill="#181919" d="M27.494,203.944c5.445-1.72,12.98-0.722,12.98-0.722s0.542,0.561,0.884,1.235
			c0.333,0.675,0.684,6.063,0.105,7.06c-0.58,1.007-1.52,0.95-1.52,0.95l-8.429-1.615C31.523,210.852,31.152,207.954,27.494,203.944
			z"/>
		<path d="M39.972,212.943c-0.029,0-0.048,0-0.057,0l-8.818-1.682l-0.048-0.342c0-0.029-0.418-2.822-3.906-6.652l-0.504-0.551
			l0.713-0.228c5.483-1.739,12.876-0.789,13.189-0.741l0.162,0.019l0.114,0.114c0.029,0.029,0.599,0.627,0.969,1.349
			c0.38,0.77,0.77,6.338,0.095,7.516C41.235,212.867,40.219,212.943,39.972,212.943z M31.923,210.444l8.115,1.549
			c-0.038-0.01,0.599,0,1.017-0.713c0.456-0.798,0.2-5.93-0.124-6.614c-0.209-0.428-0.523-0.808-0.684-0.998
			c-1.083-0.124-7.146-0.741-11.897,0.523C30.973,207.241,31.724,209.588,31.923,210.444z"/>
		<path fill="#4A4C4F" d="M1.203,219.794c1.425-2.765,19.708-13.161,25.172-15.441c0.361-0.152,0.741-0.285,1.131-0.409
			c5.663,4.609,4.894,14.159,4.894,14.159c-0.333,2.414-2.262,4.286-3.82,5.046c-1.558,0.76-22.502,6.709-23.68,7.212
			c-1.178,0.504-3.772-0.171-4.447-3.098C-0.223,224.327-0.223,222.569,1.203,219.794z"/>
		<path fill="#9D9FA3" d="M26.772,205.882c0.675-0.836,1.881-1.15,2.737,0.247c0.855,1.397,4.162,9.046,2.879,11.983
			c-1.283,2.927-4.314,5.283-6.956,6.091S5.82,230.218,4.889,230.37c-0.931,0.143-3.525-0.627-3.982-1.862
			c-0.456-1.235-0.456-1.986,0.931-1.739c1.387,0.247,22.169-5.283,23.68-6.794c1.511-1.511,0.361-12.41,0.855-13.75L26.772,205.882
			z"/>
		<path d="M4.062,230.988c-0.561,0-1.178-0.143-1.729-0.428c-1.178-0.599-2.014-1.739-2.347-3.193
			c-0.675-2.927-0.722-4.846,0.798-7.783c1.52-2.946,20.174-13.484,25.41-15.669c0.371-0.152,0.77-0.295,1.169-0.418l0.247-0.076
			l0.2,0.162c5.797,4.713,5.103,14.168,5.065,14.567c-0.352,2.566-2.309,4.571-4.096,5.435c-0.941,0.456-8.21,2.594-14.634,4.485
			c-4.419,1.302-8.6,2.537-9.065,2.737C4.775,230.931,4.433,230.988,4.062,230.988z M27.39,204.476
			c-0.285,0.095-0.57,0.2-0.836,0.314c-5.673,2.366-23.595,12.638-24.934,15.223c-1.387,2.699-1.34,4.381-0.713,7.136
			c0.342,1.511,1.197,2.224,1.853,2.556c0.77,0.39,1.53,0.39,1.939,0.209c0.494-0.209,3.81-1.188,9.17-2.775
			c6.063-1.786,13.617-4.01,14.482-4.428c1.501-0.722,3.259-2.499,3.563-4.685C31.923,217.979,32.579,208.933,27.39,204.476z"/>
	</g>
</g>
</svg>
