<?xml version="1.0" encoding="utf-8"?>
<!-- Generator: Adobe Illustrator 17.0.0, SVG Export Plug-In . SVG Version: 6.00 Build 0)  -->
<!DOCTYPE svg PUBLIC "-//W3C//DTD SVG 1.1//EN" "http://www.w3.org/Graphics/SVG/1.1/DTD/svg11.dtd">
<svg version="1.1" id="Слой_1" xmlns="http://www.w3.org/2000/svg" xmlns:xlink="http://www.w3.org/1999/xlink" x="0px" y="0px"
	 width="262.5px" height="1038.75px" viewBox="0 0 262.5 1038.75" enable-background="new 0 0 262.5 1038.75" xml:space="preserve">
<g enable-background="new    ">
	<g>
		<defs>
			<rect id="SVGID_1_" width="262.5" height="1038.129"/>
		</defs>
		<clipPath id="SVGID_2_">
			<use xlink:href="#SVGID_1_"  overflow="visible"/>
		</clipPath>
		<g clip-path="url(#SVGID_2_)" enable-background="new    ">
			<g>
				<defs>
					<rect id="SVGID_3_" width="263" height="1039"/>
				</defs>
				<clipPath id="SVGID_4_">
					<use xlink:href="#SVGID_3_"  overflow="visible"/>
				</clipPath>
				<path clip-path="url(#SVGID_4_)" fill="currentColor" d="M41.762,462.75c3.461,17.832,3.773,23.363,22.097,31.574
					c26.34,11.781,67.196,10.934,67.196,10.934s40.84,0.84,67.179-10.934c18.317-8.211,18.637-13.734,22.102-31.574
					c3.336-17.164,7.176-45.105,5.004-76.066c0,0,2.887-25.895,1.746-40.504c-1.078-13.715-2.301-230.469-1.875-265.293
					c0.254-20.11,1.793-34.235-13.656-51.813c-9.664-10.976-25.641-20.156-51.895-25.242c-19.476-3.773-32.566-4.141-52.066-0.93
					C78.258,7.734,60.82,17.398,50.547,29.07c-15.449,17.582-13.91,31.703-13.656,51.817c0.445,34.82-0.782,251.578-1.856,265.293
					c-1.16,14.609,1.75,40.504,1.75,40.504C34.59,417.652,38.434,445.594,41.762,462.75z"/>
				<path clip-path="url(#SVGID_4_)" fill="#ADADAD" d="M239.352,633.715h-6.153c-0.863,0-1.562,0.699-1.562,1.562v0.934H30.473
					v-0.934c0-0.863-0.703-1.562-1.563-1.562h-6.152c-0.863,0-1.563,0.699-1.563,1.562v393.211c0,0.879,0.707,1.586,1.578,1.586
					h6.137c0.871,0,1.578-0.707,1.578-1.586v-2.203h201.164v2.203c0,0.879,0.707,1.586,1.578,1.586h6.137
					c0.871,0,1.578-0.707,1.578-1.586V635.277C240.914,634.414,240.215,633.715,239.352,633.715z"/>
				<g opacity="0.25" clip-path="url(#SVGID_4_)" enable-background="new    ">
					<g>
						<defs>
							<rect id="SVGID_5_" width="263" height="1039"/>
						</defs>
						<clipPath id="SVGID_6_">
							<use xlink:href="#SVGID_5_"  overflow="visible"/>
						</clipPath>
						<polygon clip-path="url(#SVGID_6_)" fill="#FFFEF8" points="240.98,706.109 231.633,705.945 231.633,707.508 30.469,707.508 
							30.469,705.848 21.379,705.93 21.379,634.199 30.469,634.191 30.469,636.469 231.633,636.469 231.633,634.199 240.98,634.285 
													"/>
					</g>
				</g>
				<g opacity="0.25" clip-path="url(#SVGID_4_)" enable-background="new    ">
					<g>
						<defs>
							<rect id="SVGID_7_" width="263" height="1039"/>
						</defs>
						<clipPath id="SVGID_8_">
							<use xlink:href="#SVGID_7_"  overflow="visible"/>
						</clipPath>
						<polygon clip-path="url(#SVGID_8_)" fill="#FFFEF8" points="240.98,663.453 231.633,663.289 231.633,664.852 30.469,664.852 
							30.469,663.184 21.379,663.273 21.379,634.199 30.469,634.191 30.469,636.469 231.633,636.469 231.633,634.199 
							240.98,634.285 						"/>
					</g>
				</g>
				<g opacity="0.18" clip-path="url(#SVGID_4_)" enable-background="new    ">
					<g>
						<defs>
							<rect id="SVGID_9_" width="263" height="1039"/>
						</defs>
						<clipPath id="SVGID_10_">
							<use xlink:href="#SVGID_9_"  overflow="visible"/>
						</clipPath>
						<polygon clip-path="url(#SVGID_10_)" fill="#01061C" points="240.41,971.484 231.059,971.762 231.059,970.59 29.895,970.59 
							29.895,971.934 22.406,971.805 21.473,1029.496 30.164,1029.613 30.164,1027.605 231.059,1027.418 232.168,1029.676 
							240.484,1029.609 						"/>
					</g>
				</g>
				<g opacity="0.17" clip-path="url(#SVGID_4_)" enable-background="new    ">
					<g>
						<defs>
							<rect id="SVGID_11_" width="263" height="1039"/>
						</defs>
						<clipPath id="SVGID_12_">
							<use xlink:href="#SVGID_11_"  overflow="visible"/>
						</clipPath>
						<polygon clip-path="url(#SVGID_12_)" fill="#01061C" points="240.41,1005.09 231.059,1005.277 231.059,1004.504 
							29.895,1004.504 29.895,1005.391 22.406,1005.309 22.309,1029.984 29.895,1029.984 29.895,1026.285 231.895,1026.172 
							231.895,1029.676 240.41,1029.938 						"/>
					</g>
				</g>
				<g opacity="0.42" clip-path="url(#SVGID_4_)" enable-background="new    ">
					<g>
						<defs>
							<rect id="SVGID_13_" width="263" height="1039"/>
						</defs>
						<clipPath id="SVGID_14_">
							<use xlink:href="#SVGID_13_"  overflow="visible"/>
						</clipPath>
						<polygon clip-path="url(#SVGID_14_)" fill="#01061C" points="30.473,636.559 32.941,638.578 32.941,1026.391 30.473,1026.285 
													"/>
					</g>
				</g>
				<g opacity="0.46" clip-path="url(#SVGID_4_)" enable-background="new    ">
					<g>
						<defs>
							<rect id="SVGID_15_" width="263" height="1039"/>
						</defs>
						<clipPath id="SVGID_16_">
							<use xlink:href="#SVGID_15_"  overflow="visible"/>
						</clipPath>
						<path clip-path="url(#SVGID_16_)" fill="#FAFBFF" d="M30.164,634.285h-8.406v394.512l0.937-0.606l0.278-390.507
							c0,0-0.164-0.985,0.422-1.485c0.589-0.488,5.777-0.953,5.777-0.953S29.672,635.293,30.164,634.285z"/>
					</g>
				</g>
				<g opacity="0.46" clip-path="url(#SVGID_4_)" enable-background="new    ">
					<g>
						<defs>
							<rect id="SVGID_17_" width="263" height="1039"/>
						</defs>
						<clipPath id="SVGID_18_">
							<use xlink:href="#SVGID_17_"  overflow="visible"/>
						</clipPath>
						<path clip-path="url(#SVGID_18_)" fill="#FAFBFF" d="M240.301,634.285h-8.406v394.82l0.937-0.617l0.277-390.812
							c0,0-0.164-0.985,0.426-1.481c0.586-0.492,5.777-0.953,5.777-0.953S239.809,635.293,240.301,634.285z"/>
					</g>
				</g>
				<g opacity="0.54" clip-path="url(#SVGID_4_)" enable-background="new    ">
					<g>
						<defs>
							<rect id="SVGID_19_" width="263" height="1039"/>
						</defs>
						<clipPath id="SVGID_20_">
							<use xlink:href="#SVGID_19_"  overflow="visible"/>
						</clipPath>
						<path clip-path="url(#SVGID_20_)" fill="#FDFEFF" d="M32.941,640.801l197.352,1.183c0,0-4.066,2.02-12.156,3.418
							c-8.094,1.403-185.196,8.145-185.196,8.145V640.801z"/>
					</g>
				</g>
				<g opacity="0.16" clip-path="url(#SVGID_4_)" enable-background="new    ">
					<g>
						<defs>
							<rect id="SVGID_21_" width="263" height="1039"/>
						</defs>
						<clipPath id="SVGID_22_">
							<use xlink:href="#SVGID_21_"  overflow="visible"/>
						</clipPath>
						<path clip-path="url(#SVGID_22_)" fill="#FAFAFF" d="M22.875,642.352v387.636c0,0,2.934-0.156,7.59-0.621V636.559
							C27.328,638.203,24.691,640.258,22.875,642.352z"/>
					</g>
				</g>
				<g opacity="0.16" clip-path="url(#SVGID_4_)" enable-background="new    ">
					<g>
						<defs>
							<rect id="SVGID_23_" width="263" height="1039"/>
						</defs>
						<clipPath id="SVGID_24_">
							<use xlink:href="#SVGID_23_"  overflow="visible"/>
						</clipPath>
						<path clip-path="url(#SVGID_24_)" fill="#FAFAFF" d="M177.914,751.434c3.156-10.868-4.207-23.606-40.996-19.782
							c-36.789,3.828-69.898,1.352-81.988-3.445c-7.383-2.926-15.528-2.324-22.078-0.312v207.789
							c10.64-0.832,12.136-4.348,25.226-8.016c20.496-5.754-9.465-41.992,26.625-52.207s-12.226,42.57,39.281,38.894
							c51.063-3.652,91.762-14.207,47.614-35.917c-65.446-32.184-49.309-65.34-19.969-47.2
							c38.367,23.723,73.059-9.914,50.453-36.718c-22.598-26.813-132.09,18.152-93.023-15.051
							C127.941,763.449,172.227,771.016,177.914,751.434z"/>
					</g>
				</g>
				<g opacity="0.39" clip-path="url(#SVGID_4_)" enable-background="new    ">
					<g>
						<defs>
							<rect id="SVGID_25_" width="263" height="1039"/>
						</defs>
						<clipPath id="SVGID_26_">
							<use xlink:href="#SVGID_25_"  overflow="visible"/>
						</clipPath>
						<path clip-path="url(#SVGID_26_)" fill="#00071C" d="M165.336,798.367c0,0,5.555,1.192,6.73,6.637
							c1.184,5.453,0.676,66.488,0.676,66.488s0.172,5.031-3.633,9.211c-4.14,4.559-12.648,5.039-12.648,5.039l-52.098-0.031
							c0,0-10.051-0.848-12.121-12.41c0,0,2.188,7.14,7.332,8.324c5.145,1.176,10.313,0.961,10.313,0.961l49.097-0.129
							c0,0,6.262-0.578,8.282-4.027c2.019-3.457,2.672-6.938,2.672-6.938l-0.172-65.25c0,0-0.981-4.379-2.309-5.656
							c-1.324-1.266-2.121-2.18-2.121-2.18V798.367z"/>
					</g>
				</g>
				<path clip-path="url(#SVGID_4_)" fill="#121313" d="M153.867,873.121h-45.633c-3.414,0-6.175-2.762-6.175-6.172v-55.164
					c0-3.414,2.761-6.172,6.175-6.172h45.633c3.41,0,6.172,2.758,6.172,6.172v55.164
					C160.043,870.352,157.281,873.121,153.867,873.121z"/>
				<g opacity="0.4" clip-path="url(#SVGID_4_)" enable-background="new    ">
					<g>
						<defs>
							<rect id="SVGID_27_" width="263" height="1039"/>
						</defs>
						<clipPath id="SVGID_28_">
							<use xlink:href="#SVGID_27_"  overflow="visible"/>
						</clipPath>
						<path clip-path="url(#SVGID_28_)" d="M164.836,802.719c1.281,1.625,2.047,3.672,2.047,5.91v61.469
							c0,5.293-4.297,9.593-9.59,9.593h-52.469c-2.918,0-5.531-1.312-7.289-3.375c-1.551-0.742-3.441-1.875-5.176-3.504
							c0.961,5.497,5.743,9.676,11.512,9.676h54.395c6.457,0,11.699-5.234,11.699-11.699v-62.867c0-0.059-0.008-0.121-0.008-0.18
							C168.668,806.047,167,804.285,164.836,802.719z"/>
					</g>
				</g>
				<g opacity="0.25" clip-path="url(#SVGID_4_)" enable-background="new    ">
					<g>
						<defs>
							<rect id="SVGID_29_" width="263" height="1039"/>
						</defs>
						<clipPath id="SVGID_30_">
							<use xlink:href="#SVGID_29_"  overflow="visible"/>
						</clipPath>
						<path clip-path="url(#SVGID_30_)" fill="#FCFCF5" d="M95.227,870.098v-61.469c0-5.297,4.296-9.594,9.589-9.594h52.469
							c3.067,0,5.793,1.449,7.543,3.684c2.168,1.566,3.832,3.336,5.098,5.039c-0.098-6.375-5.285-11.512-11.68-11.512h-54.398
							c-6.457,0-11.696,5.234-11.696,11.692v62.871c0,0.699,0.075,1.367,0.184,2.019c1.734,1.625,3.637,2.758,5.176,3.5
							C96.09,874.637,95.227,872.477,95.227,870.098z"/>
					</g>
				</g>
				<path clip-path="url(#SVGID_4_)" d="M108.234,805.973c-3.203,0-5.8,2.609-5.8,5.804v55.157c0,3.203,2.605,5.796,5.8,5.796
					h45.633c3.203,0,5.801-2.601,5.801-5.796v-55.157c0-3.203-2.606-5.804-5.801-5.804H108.234z M153.867,873.496h-45.633
					c-3.613,0-6.543-2.949-6.543-6.547v-55.156c0-3.617,2.942-6.547,6.543-6.547h45.633c3.613,0,6.543,2.945,6.543,6.547v55.156
					C160.418,870.547,157.477,873.496,153.867,873.496z"/>
				<path clip-path="url(#SVGID_4_)" d="M103.855,796.605c-6.238,0-11.324,5.079-11.324,11.317v62.875
					c0,6.238,5.078,11.324,11.324,11.324h54.399c6.238,0,11.324-5.078,11.324-11.324v-62.875c0-6.231-5.078-11.317-11.324-11.317
					H103.855z M158.254,882.863h-54.399c-6.656,0-12.07-5.414-12.07-12.074v-62.875c0-6.652,5.414-12.066,12.07-12.066h54.399
					c6.656,0,12.066,5.414,12.066,12.066v62.875C170.312,877.453,164.902,882.863,158.254,882.863z"/>
				<g opacity="0.38" clip-path="url(#SVGID_4_)" enable-background="new    ">
					<g>
						<defs>
							<rect id="SVGID_31_" width="263" height="1039"/>
						</defs>
						<clipPath id="SVGID_32_">
							<use xlink:href="#SVGID_31_"  overflow="visible"/>
						</clipPath>
						<path clip-path="url(#SVGID_32_)" fill="#FFFEF8" d="M157.945,821.699v39.504c0,0,0.879,4.625-1.75,7.305
							c-2.625,2.683-10.207,2.273-10.207,2.273l-20.035-0.308c0,0,11.235-0.317,17.801-1.352c6.57-1.035,7.445-1.281,8.758-1.949
							c1.308-0.676,2.89-4.633,3.328-9.141C156.277,853.516,157.945,821.699,157.945,821.699z"/>
					</g>
				</g>
				<g opacity="0.5" clip-path="url(#SVGID_4_)" enable-background="new    ">
					<g>
						<defs>
							<rect id="SVGID_33_" width="263" height="1039"/>
						</defs>
						<clipPath id="SVGID_34_">
							<use xlink:href="#SVGID_33_"  overflow="visible"/>
						</clipPath>
						<path clip-path="url(#SVGID_34_)" fill="#F5F5F5" d="M158.996,823.621v-12.047c0,0,0-1.558-1.84-2.871
							c-1.836-1.32-8.406-1.172-8.406-1.172l-40.465-0.008c0,0-1.312-0.304-3.418,1.321c-2.101,1.636-1.582,3.422-1.582,3.422
							v54.246c0,0,0,2.019,2.629,3.578c2.629,1.551,13.402,1.394,13.402,1.394s-9.328-2.406-9.722-9.172
							c-0.395-6.757,4.207-15.57,4.207-15.57s3.156,9.332,13.66,11.82c10.516,2.485,18.398-5.496,21.727-13.363
							c3.328-7.883,3.679-21.765-9.985-24.047C125.535,818.887,150.41,812.301,158.996,823.621z"/>
					</g>
				</g>
				<g opacity="0.71" clip-path="url(#SVGID_4_)" enable-background="new    ">
					<g>
						<defs>
							<rect id="SVGID_35_" width="263" height="1039"/>
						</defs>
						<clipPath id="SVGID_36_">
							<use xlink:href="#SVGID_35_"  overflow="visible"/>
						</clipPath>
						<path clip-path="url(#SVGID_36_)" fill="#F5F5F5" d="M147.785,809.34h-34.859c0,0-4.336-0.735-7.008,1.109
							c-2.672,1.848-1.578,47.16-1.578,47.16s1.75-21.359,2.277-28.941c0.531-7.574,1.051-14.609,3.86-16.367
							C113.273,810.547,130.965,809.812,147.785,809.34z"/>
					</g>
				</g>
				<path clip-path="url(#SVGID_4_)" fill="#202326" d="M192.277,636.207l0.532,28.629c0,11.25-9.121,20.367-20.364,20.367H89.664
					c-11.25,0-20.363-9.121-20.363-20.367l0.535-28.629H192.277z"/>
				<polygon clip-path="url(#SVGID_4_)" fill="#707A82" points="192.277,636.207 69.836,636.207 69.699,643.289 192.41,643.289 				
					"/>
				<path clip-path="url(#SVGID_4_)" d="M70.082,642.918h121.949l-0.117-6.336H70.199L70.082,642.918z M192.785,643.66H69.324
					l0.149-7.824h123.179L192.785,643.66z"/>
				<g opacity="0.5" clip-path="url(#SVGID_4_)" enable-background="new    ">
					<g>
						<defs>
							<rect id="SVGID_37_" width="263" height="1039"/>
						</defs>
						<clipPath id="SVGID_38_">
							<use xlink:href="#SVGID_37_"  overflow="visible"/>
						</clipPath>
						<path clip-path="url(#SVGID_38_)" fill="#F5FAFF" d="M89.664,685.207h82.77c11.25,0,20.363-9.121,20.363-20.363l-0.035-1.906
							c-15.004-3.313-37.086-5.415-61.719-5.415c-24.629,0-46.711,2.094-61.723,5.415l-0.035,1.906
							C69.293,676.086,78.414,685.207,89.664,685.207z"/>
					</g>
				</g>
				<path clip-path="url(#SVGID_4_)" d="M70.199,636.582l-0.527,28.262c0,11.019,8.973,19.984,19.992,19.984h82.77
					c11.027,0,19.992-8.973,19.992-19.992l-0.52-28.254H70.199z M172.438,685.582H89.664c-11.437,0-20.734-9.301-20.734-20.738
					l0.543-29h123.179l0.528,29C193.18,676.273,183.871,685.582,172.438,685.582z"/>
				<path clip-path="url(#SVGID_4_)" fill="#111314" d="M175.086,1026.48l0.383-22.011c0-8.649-6.563-15.66-14.649-15.66h-59.527
					c-8.086,0-14.645,7.003-14.645,15.66l0.387,22.011H175.086z"/>
				<polygon clip-path="url(#SVGID_4_)" fill="#464D51" points="175.086,1026.48 87.027,1026.48 86.934,1021.035 175.176,1021.035 
									"/>
				<path clip-path="url(#SVGID_4_)" d="M87.391,1026.105h87.332l0.082-4.703H87.309L87.391,1026.105z M175.453,1026.848H86.656
					l-0.113-6.188h89.004L175.453,1026.848z"/>
				<g opacity="0.35" clip-path="url(#SVGID_4_)" enable-background="new    ">
					<g>
						<defs>
							<rect id="SVGID_39_" width="263" height="1039"/>
						</defs>
						<clipPath id="SVGID_40_">
							<use xlink:href="#SVGID_39_"  overflow="visible"/>
						</clipPath>
						<path clip-path="url(#SVGID_40_)" fill="#F5FAFF" d="M101.285,988.809h59.527c8.086,0,14.645,7.003,14.645,15.66l-0.019,1.461
							c-10.79,2.55-26.68,4.164-44.383,4.164c-17.715,0-33.598-1.606-44.391-4.164l-0.023-1.453
							C86.641,995.82,93.195,988.809,101.285,988.809z"/>
					</g>
				</g>
				<path clip-path="url(#SVGID_4_)" d="M87.395,1026.105h87.328l0.371-21.644c0-8.422-6.403-15.277-14.27-15.277h-59.535
					c-7.871,0-14.273,6.855-14.273,15.285L87.395,1026.105z M175.453,1026.848H86.656l-0.394-22.371
					c0-8.852,6.738-16.036,15.019-16.036h59.531c8.282,0,15.02,7.192,15.02,16.028L175.453,1026.848z"/>
				<polygon clip-path="url(#SVGID_4_)" fill="#3C3C3B" points="133.117,604.246 131.621,608.461 209.637,636.211 222.969,636.211 
									"/>
				<path clip-path="url(#SVGID_4_)" d="M209.703,635.836h11.106l-87.461-31.113l-1.25,3.504L209.703,635.836z M225.121,636.582
					l-15.613-0.023l-78.363-27.875l1.75-4.914L225.121,636.582z"/>
				<polygon clip-path="url(#SVGID_4_)" fill="#3C3C3B" points="130.453,608.461 128.953,604.246 39.109,636.211 52.438,636.211 
									"/>
				<path clip-path="url(#SVGID_4_)" d="M41.266,635.836h11.109l77.605-27.609l-1.25-3.508L41.266,635.836z M52.504,636.582H36.949
					l92.231-32.805l1.746,4.914l-0.348,0.125L52.504,636.582z"/>
				<rect x="128.82" y="511.125" clip-path="url(#SVGID_4_)" fill="#3C3C3B" width="4.469" height="125.086"/>
				<path clip-path="url(#SVGID_4_)" d="M129.191,635.836h3.723v-124.34h-3.723V635.836z M133.66,636.582h-5.215V510.75h5.215
					V636.582z"/>
				<path clip-path="url(#SVGID_4_)" fill="#3C3C3B" d="M131.055,516.172c2.785,0,5.047-2.262,5.047-5.047
					c0-2.789-2.262-5.051-5.047-5.051c-2.789,0-5.051,2.262-5.051,5.051C126.004,513.91,128.266,516.172,131.055,516.172z"/>
				<path clip-path="url(#SVGID_4_)" d="M131.055,506.445c-2.578,0-4.676,2.102-4.676,4.68c0,2.574,2.098,4.676,4.676,4.676
					c2.574,0,4.675-2.102,4.675-4.676C135.73,508.547,133.629,506.445,131.055,506.445z M131.055,516.543
					c-2.989,0-5.422-2.426-5.422-5.418c0-2.988,2.426-5.422,5.422-5.422c2.984,0,5.418,2.426,5.418,5.422
					C136.465,514.109,134.039,516.543,131.055,516.543z"/>
				<path clip-path="url(#SVGID_4_)" fill="#B1B1B1" d="M131.965,544.039h-1.805c-1.012,0-1.828-0.816-1.828-1.832l-0.91-23.406
					c0-1.016,0.82-1.836,1.832-1.836h3.613c1.012,0,1.832,0.82,1.832,1.836l-0.902,23.406
					C133.785,543.223,132.969,544.039,131.965,544.039z"/>
				<path clip-path="url(#SVGID_4_)" d="M129.246,517.348c-0.805,0-1.461,0.656-1.461,1.461l0.91,23.394
					c0,0.817,0.657,1.473,1.457,1.473h1.801c0.805,0,1.461-0.656,1.461-1.457l0.902-23.426c0-0.789-0.656-1.445-1.461-1.445H129.246
					z M131.965,544.414h-1.805c-1.211,0-2.203-0.992-2.203-2.207l-0.91-23.395c0-1.226,0.992-2.218,2.207-2.218h3.609
					c1.215,0,2.203,0.992,2.203,2.207l-0.898,23.422C134.16,543.43,133.176,544.414,131.965,544.414z"/>
				<path clip-path="url(#SVGID_4_)" fill="#9C9B9B" d="M126.004,557.727c2.789,0,5.051-2.262,5.051-5.047
					c0-2.789-2.262-5.051-5.051-5.051c-2.785,0-5.047,2.262-5.047,5.051C120.957,555.465,123.219,557.727,126.004,557.727z"/>
				<path clip-path="url(#SVGID_4_)" d="M126.008,548c-2.578,0-4.68,2.102-4.68,4.676c0,2.578,2.102,4.676,4.68,4.676
					c2.574,0,4.676-2.098,4.676-4.676C130.684,550.102,128.582,548,126.008,548z M126.008,558.09c-2.988,0-5.422-2.426-5.422-5.422
					c0-2.984,2.426-5.418,5.422-5.418c2.984,0,5.418,2.426,5.418,5.418C131.426,555.664,128.992,558.09,126.008,558.09z"/>
				<path clip-path="url(#SVGID_4_)" fill="#9C9B9B" d="M107.316,570.965l18.473-19.738c0.305-0.329,0.813-0.344,1.141-0.039
					l0.691,0.656c0.328,0.304,0.344,0.812,0.039,1.14l-18.472,19.739c-0.305,0.324-0.813,0.339-1.141,0.035l-0.692-0.656
					C107.035,571.797,107.016,571.285,107.316,570.965z"/>
				<path clip-path="url(#SVGID_4_)" d="M126.379,551.344c-0.121,0-0.231,0.047-0.313,0.133l-18.472,19.738
					c-0.164,0.172-0.156,0.449,0.023,0.613l0.699,0.656c0.172,0.161,0.446,0.157,0.61-0.023l18.472-19.738
					c0.082-0.082,0.122-0.196,0.122-0.313c0-0.121-0.055-0.222-0.137-0.305l-0.692-0.656
					C126.594,551.379,126.492,551.344,126.379,551.344z M108.598,573.34c-0.289,0-0.575-0.106-0.805-0.313l-0.699-0.656
					c-0.477-0.449-0.5-1.191-0.051-1.66l18.473-19.738c0.214-0.231,0.504-0.368,0.816-0.371c0.32,0,0.613,0.101,0.844,0.32
					l0.691,0.656c0.477,0.445,0.5,1.188,0.051,1.66l-18.473,19.735C109.23,573.211,108.918,573.34,108.598,573.34z"/>
				<path clip-path="url(#SVGID_4_)" fill="#E20613" d="M108.934,574.707c1.847,0,3.347-1.5,3.347-3.352
					c0-1.847-1.5-3.347-3.347-3.347c-1.852,0-3.352,1.5-3.352,3.347C105.582,573.207,107.082,574.707,108.934,574.707z"/>
				<path clip-path="url(#SVGID_4_)" d="M108.934,568.371c-1.645,0-2.981,1.332-2.981,2.981c0,1.644,1.332,2.976,2.981,2.976
					c1.644,0,2.976-1.332,2.976-2.976C111.91,569.703,110.578,568.371,108.934,568.371z M108.934,575.074
					c-2.055,0-3.723-1.668-3.723-3.722c0-2.055,1.668-3.723,3.723-3.723c2.054,0,3.722,1.668,3.722,3.723
					C112.656,573.406,110.988,575.074,108.934,575.074z"/>
				<path clip-path="url(#SVGID_4_)" fill="#E20613" d="M190,1026.48c0,2.559,2.078,4.641,4.645,4.641h26.804
					c2.563,0,4.645-2.074,4.645-4.641H190z"/>
				<path clip-path="url(#SVGID_4_)" d="M190.395,1026.848c0.187,2.183,2.023,3.89,4.25,3.89h26.804c2.227,0,4.067-1.715,4.254-3.89
					H190.395z M221.449,1031.488h-26.804c-2.762,0-5.016-2.25-5.016-5.015v-0.368h36.832v0.368
					C226.461,1029.238,224.211,1031.488,221.449,1031.488z"/>
				<path clip-path="url(#SVGID_4_)" fill="#E20613" d="M35.941,1026.48c0,2.559,2.079,4.641,4.649,4.641h26.805
					c2.558,0,4.644-2.074,4.644-4.641H35.941z"/>
				<path clip-path="url(#SVGID_4_)" d="M36.332,1026.848c0.184,2.183,2.023,3.89,4.25,3.89h26.805c2.226,0,4.066-1.715,4.25-3.89
					H36.332z M67.387,1031.488H40.582c-2.762,0-5.02-2.25-5.02-5.015v-0.368h36.836v0.368
					C72.406,1029.238,70.156,1031.488,67.387,1031.488z"/>
				<path clip-path="url(#SVGID_4_)" fill="#111111" d="M240.914,911.203h16.707c2.129,0,3.856-1.723,3.856-3.851v-5.786h-20.563
					V911.203z"/>
				<rect x="240.914" y="892.637" clip-path="url(#SVGID_4_)" fill="#282828" width="20.562" height="8.93"/>
				<path clip-path="url(#SVGID_4_)" fill="#707070" d="M261.477,843.359c0-2.129-1.727-3.855-3.856-3.855h-16.707v9.676
					c5.664,0,14.539,0,20.563,0V843.359z"/>
				<rect x="240.914" y="859.344" clip-path="url(#SVGID_4_)" fill="#3C3C3B" width="20.562" height="33.293"/>
				<path clip-path="url(#SVGID_4_)" fill="#545454" d="M261.477,849.18c-6.024,0-14.899,0-20.563,0v10.164h20.563V849.18z"/>
				<path clip-path="url(#SVGID_4_)" d="M241.285,910.828h16.336c1.922,0,3.484-1.558,3.484-3.476v-63.993
					c0-1.918-1.562-3.488-3.484-3.488h-16.336V910.828z M257.629,911.574h-17.078v-72.437h17.078c2.332,0,4.23,1.898,4.23,4.23
					v63.985C261.852,909.676,259.957,911.574,257.629,911.574z"/>
				<path clip-path="url(#SVGID_4_)" fill="#111111" d="M21.188,911.203H4.477c-2.129,0-3.856-1.723-3.856-3.851v-5.786h20.567
					V911.203z"/>
				<rect x="0.621" y="892.637" clip-path="url(#SVGID_4_)" fill="#282828" width="20.566" height="8.93"/>
				<path clip-path="url(#SVGID_4_)" fill="#707070" d="M0.621,843.359c0-2.129,1.727-3.855,3.856-3.855h16.711v9.676
					c-5.668,0-14.543,0-20.567,0V843.359z"/>
				<rect x="0.621" y="859.344" clip-path="url(#SVGID_4_)" fill="#3C3C3B" width="20.566" height="33.293"/>
				<path clip-path="url(#SVGID_4_)" fill="#545454" d="M0.621,849.18c6.024,0,14.899,0,20.567,0v10.164H0.621V849.18z"/>
				<g opacity="0.21" clip-path="url(#SVGID_4_)" enable-background="new    ">
					<g>
						<defs>
							<rect id="SVGID_41_" width="263" height="1039"/>
						</defs>
						<clipPath id="SVGID_42_">
							<use xlink:href="#SVGID_41_"  overflow="visible"/>
						</clipPath>
						<path clip-path="url(#SVGID_42_)" fill="#FFFFFF" d="M21.188,839.504H4.477c-2.129,0-3.856,1.726-3.856,3.855v63.993
							c0,2.121,1.727,3.851,3.856,3.851h16.711V839.504z"/>
					</g>
				</g>
				<path clip-path="url(#SVGID_4_)" d="M4.473,839.871c-1.922,0-3.489,1.57-3.489,3.488v63.993c0,1.918,1.567,3.476,3.489,3.476
					h16.332v-70.949H4.473V839.871z M21.559,911.574H4.48c-2.332,0-4.23-1.898-4.23-4.222v-63.993c0-2.332,1.898-4.23,4.23-4.23
					h17.079V911.574z"/>
				<g opacity="0.36" clip-path="url(#SVGID_4_)" enable-background="new    ">
					<g>
						<defs>
							<rect id="SVGID_43_" width="263" height="1039"/>
						</defs>
						<clipPath id="SVGID_44_">
							<use xlink:href="#SVGID_43_"  overflow="visible"/>
						</clipPath>
						<path clip-path="url(#SVGID_44_)" fill="#00092B" d="M70.328,904.547c5.227,0,9.465-4.238,9.465-9.461
							c0-5.227-4.238-9.465-9.465-9.465c-5.226,0-9.461,4.238-9.461,9.465C60.867,900.309,65.102,904.547,70.328,904.547z"/>
					</g>
				</g>
				<path clip-path="url(#SVGID_4_)" fill="#C0C5C9" d="M214.988,762.195h-25.496c-3.699,0-6.699-3-6.699-6.707v-22.593
					c0-3.7,3-6.7,6.699-6.7h25.496c3.7,0,6.7,3,6.7,6.7v22.593C221.688,759.195,218.688,762.195,214.988,762.195z"/>
				<g opacity="0.26" clip-path="url(#SVGID_4_)" enable-background="new    ">
					<g>
						<defs>
							<rect id="SVGID_45_" width="263" height="1039"/>
						</defs>
						<clipPath id="SVGID_46_">
							<use xlink:href="#SVGID_45_"  overflow="visible"/>
						</clipPath>
						<path clip-path="url(#SVGID_46_)" fill="#000214" d="M218.973,734.043v20.32c0,2.828-2.293,5.125-5.121,5.125h-23.215
							c-0.43,0-0.848-0.062-1.25-0.16c1.242,0.945,2.957,1.93,5.316,2.875h20.289c3.699,0,6.699-3,6.699-6.699v-21.438
							c-1.242-1.175-2.472-2.105-3.543-2.816C218.668,732.047,218.973,733.008,218.973,734.043z"/>
					</g>
				</g>
				<g opacity="0.35" clip-path="url(#SVGID_4_)" enable-background="new    ">
					<g>
						<defs>
							<rect id="SVGID_47_" width="263" height="1039"/>
						</defs>
						<clipPath id="SVGID_48_">
							<use xlink:href="#SVGID_47_"  overflow="visible"/>
						</clipPath>
						<path clip-path="url(#SVGID_48_)" fill="#FFFFFA" d="M214.988,726.203h-25.496c-3.699,0-6.699,3-6.699,6.703v22.598
							c0,3.699,3,6.699,6.699,6.699h5.207c-2.355-0.953-4.066-1.937-5.316-2.875c-2.227-0.562-3.871-2.57-3.871-4.965v-20.32
							c0-2.828,2.293-5.121,5.121-5.121h23.215c1.8,0,3.379,0.93,4.297,2.328c1.07,0.707,2.308,1.633,3.543,2.816v-1.156
							C221.688,729.203,218.688,726.203,214.988,726.203z"/>
					</g>
				</g>
				<path clip-path="url(#SVGID_4_)" d="M189.504,726.574c-3.492,0-6.332,2.84-6.332,6.328v22.602c0,3.488,2.84,6.324,6.332,6.324
					h25.492c3.492,0,6.328-2.836,6.328-6.324v-22.602c0-3.488-2.836-6.328-6.328-6.328H189.504z M214.988,762.57h-25.492
					c-3.902,0-7.074-3.172-7.074-7.074v-22.598c0-3.902,3.172-7.074,7.074-7.074h25.492c3.903,0,7.074,3.172,7.074,7.074v22.598
					C222.062,759.398,218.891,762.57,214.988,762.57z"/>
				<path clip-path="url(#SVGID_4_)" fill="#C0C5C9" d="M190.246,963.234H71.863c-3.699,0-6.703-3-6.703-6.699v-19.191
					c0-3.699,3.004-6.699,6.703-6.699h118.383c3.699,0,6.703,3,6.703,6.699v19.191C196.949,960.234,193.949,963.234,190.246,963.234
					z"/>
				<g opacity="0.26" clip-path="url(#SVGID_4_)" enable-background="new    ">
					<g>
						<defs>
							<rect id="SVGID_49_" width="263" height="1039"/>
						</defs>
						<clipPath id="SVGID_50_">
							<use xlink:href="#SVGID_49_"  overflow="visible"/>
						</clipPath>
						<path clip-path="url(#SVGID_50_)" fill="#000214" d="M194.23,938.484v16.911c0,2.828-2.292,5.121-5.121,5.121H72.996
							c-0.434,0-0.848-0.059-1.25-0.157c1.242,0.946,2.953,1.93,5.313,2.875h113.179c3.703,0,6.703-3,6.703-6.707v-18.031
							c-1.242-1.176-2.472-2.105-3.543-2.812C193.926,936.496,194.23,937.449,194.23,938.484z"/>
					</g>
				</g>
				<g opacity="0.35" clip-path="url(#SVGID_4_)" enable-background="new    ">
					<g>
						<defs>
							<rect id="SVGID_51_" width="263" height="1039"/>
						</defs>
						<clipPath id="SVGID_52_">
							<use xlink:href="#SVGID_51_"  overflow="visible"/>
						</clipPath>
						<path clip-path="url(#SVGID_52_)" fill="#FFFFFA" d="M190.246,930.645H71.863c-3.699,0-6.703,3-6.703,6.699v19.191
							c0,3.699,3.004,6.699,6.703,6.699h5.203c-2.351-0.953-4.066-1.937-5.316-2.875c-2.227-0.554-3.871-2.562-3.871-4.964v-16.911
							c0-2.828,2.293-5.125,5.121-5.125h116.105c1.805,0,3.383,0.93,4.297,2.332c1.075,0.707,2.309,1.629,3.547,2.813v-1.152
							C196.949,933.645,193.949,930.645,190.246,930.645z"/>
					</g>
				</g>
				<path clip-path="url(#SVGID_4_)" d="M71.863,931.02c-3.492,0-6.332,2.835-6.332,6.324v19.191c0,3.488,2.84,6.328,6.332,6.328
					h118.383c3.492,0,6.328-2.84,6.328-6.328v-19.191c0-3.489-2.836-6.324-6.328-6.324H71.863z M190.246,963.609H71.859
					c-3.902,0-7.07-3.175-7.07-7.074v-19.191c0-3.903,3.172-7.074,7.07-7.074h118.387c3.902,0,7.074,3.171,7.074,7.074v19.191
					C197.32,960.434,194.148,963.609,190.246,963.609z"/>
				<path clip-path="url(#SVGID_4_)" fill="#C0C5C9" d="M65.164,900.164c5.996,0,10.859-4.867,10.859-10.867
					s-4.863-10.859-10.859-10.859c-6,0-10.863,4.859-10.863,10.859S59.164,900.164,65.164,900.164z"/>
				<g opacity="0.26" clip-path="url(#SVGID_4_)" enable-background="new    ">
					<g>
						<defs>
							<rect id="SVGID_53_" width="263" height="1039"/>
						</defs>
						<clipPath id="SVGID_54_">
							<use xlink:href="#SVGID_53_"  overflow="visible"/>
						</clipPath>
						<path clip-path="url(#SVGID_54_)" fill="#000214" d="M76.02,889.297c0-0.067-0.012-0.141-0.012-0.211
							c-1.219-1.664-2.508-3.043-3.653-4.125c0.766,1.269,1.211,2.754,1.211,4.336c0,4.652-3.765,8.406-8.406,8.406
							c-1.183,0-2.312-0.246-3.336-0.687c0.91,0.953,2.094,2.015,3.621,3.125C71.305,900,76.02,895.207,76.02,889.297z"/>
					</g>
				</g>
				<g opacity="0.35" clip-path="url(#SVGID_4_)" enable-background="new    ">
					<g>
						<defs>
							<rect id="SVGID_55_" width="263" height="1039"/>
						</defs>
						<clipPath id="SVGID_56_">
							<use xlink:href="#SVGID_55_"  overflow="visible"/>
						</clipPath>
						<path clip-path="url(#SVGID_56_)" fill="#FFFFFA" d="M61.816,897.023c-2.984-1.289-5.07-4.261-5.07-7.726
							c0-4.641,3.77-8.406,8.406-8.406c3.063,0,5.727,1.64,7.2,4.07c1.148,1.082,2.437,2.461,3.656,4.125
							c-0.113-5.902-4.922-10.648-10.848-10.648c-6,0-10.863,4.859-10.863,10.859s4.863,10.867,10.863,10.867
							c0.098,0,0.188-0.016,0.278-0.016C63.918,899.039,62.734,897.977,61.816,897.023z"/>
					</g>
				</g>
				<path clip-path="url(#SVGID_4_)" d="M65.16,878.812c-5.785,0-10.488,4.711-10.488,10.493c0,5.789,4.703,10.492,10.488,10.492
					c5.789,0,10.492-4.703,10.492-10.492C75.652,883.523,70.941,878.812,65.16,878.812z M65.16,900.531
					c-6.191,0-11.234-5.039-11.234-11.234s5.039-11.235,11.234-11.235c6.199,0,11.238,5.04,11.238,11.235
					C76.391,895.492,71.348,900.531,65.16,900.531z"/>
				<rect x="231.262" y="636.211" clip-path="url(#SVGID_4_)" width="0.742" height="390.066"/>
				<polygon clip-path="url(#SVGID_4_)" points="30.84,1026.277 30.098,1026.277 30.098,635.836 231.297,635.836 231.297,636.582 
					30.84,636.582 				"/>
				<path clip-path="url(#SVGID_4_)" d="M29.727,1025.527h202.652v2.961c0,0.461,0.375,0.836,0.836,0.836h6.125
					c0.465,0,0.836-0.375,0.836-0.836V635.277c0-0.453-0.367-0.82-0.821-0.82h-6.156c-0.457,0-0.82,0.367-0.82,0.82v1.676H29.727
					v-1.676c0-0.453-0.368-0.82-0.821-0.82h-6.148c-0.453,0-0.82,0.367-0.82,0.82v393.211c0,0.465,0.371,0.84,0.835,0.84h6.133
					c0.461,0,0.836-0.375,0.836-0.84v-2.961H29.727z M239.34,1030.809h-6.125c-1.281,0-2.324-1.043-2.324-2.321v-1.468H31.215v1.468
					c0,1.278-1.043,2.321-2.324,2.321h-6.133c-1.281,0-2.324-1.043-2.324-2.321V635.277c0-1.273,1.035-2.308,2.308-2.308h6.149
					c1.273,0,2.308,1.035,2.308,2.308v0.188h199.676v-0.188c0-1.273,1.035-2.308,2.309-2.308h6.156c1.273,0,2.308,1.035,2.308,2.308
					v393.211C241.656,1029.773,240.613,1030.809,239.34,1030.809z"/>
				<g opacity="0.4" clip-path="url(#SVGID_4_)" enable-background="new    ">
					<g>
						<defs>
							<rect id="SVGID_57_" width="263" height="1039"/>
						</defs>
						<clipPath id="SVGID_58_">
							<use xlink:href="#SVGID_57_"  overflow="visible"/>
						</clipPath>
						<path clip-path="url(#SVGID_58_)" d="M189.852,13.273c0,0,7.769,17.735,8.949,41.391c1.176,23.656,5.078,32.004,2.863,47.539
							c-2.211,15.539-7.363,35.324-5.574,46.188c1.785,10.871-3.992,51.644-4.781,58.976c-0.789,7.34-6.598,59.024-7.797,99.75
							c-0.805,27.375-1.778,41.383-1.399,48.203c0.149,2.664-0.425,5.868-3.082,6.11c-51.406,4.683-88.812-3.535-98.722,3.558
							c-7.223,5.176-8.235,58.977-8.235,58.977s-12.547,5.488-11.594,11.566c0.946,6.074,26.129,19.805,70.555,17.606
							c44.422-2.188,60.297-3.059,63.57,0c3.278,3.062,5.547,24.468,0,30.386c-5.546,5.918-50.398,7.625-63.57,7.625
							s-49.265-2.367-65.976-8.281c-16.707-5.91-21.071-19.351-19.676-4.617c0,0,2.957,9.738,19.039,16.309
							c16.082,6.562,41.59,10.683,66.629,10.683s55-3.082,71.953-12.793c16.945-9.707,16.187-23.765,16.969-27.859
							c0.781-4.098,4.89-24.817,5.445-41.766c0.551-16.945,0-36.906,0-36.906s1.449-20.484,1.934-28.25
							c0.484-7.766-0.649-24.051-0.649-24.051l-0.644-51.64l-0.786-118.782l-0.148-65.429l0.156-33.11
							C225.281,64.664,227.547,30.609,189.852,13.273z"/>
					</g>
				</g>
				<g opacity="0.25" clip-path="url(#SVGID_4_)" enable-background="new    ">
					<g>
						<defs>
							<rect id="SVGID_59_" width="263" height="1039"/>
						</defs>
						<clipPath id="SVGID_60_">
							<use xlink:href="#SVGID_59_"  overflow="visible"/>
						</clipPath>
						<path clip-path="url(#SVGID_60_)" fill="#FFFEF5" d="M196.934,126.082c-2.332-5.316-16.918-25.152-13.231-45.648
							c3.676-20.496,1.836-38.106-16.558-38.629c-18.399-0.528-12.114,19.179-27.61,20.238
							c-15.496,1.051-20.996-28.113-12.723-37.047c0,0-13.937-4.996-26.089,16.027C88.57,62.051,79.105,48.91,81.215,41.285
							c2.105-7.621,16.262-23.332,49.847-26.973c0,0,25.516,1.219,54.055,12.918c0,0-3.656-5.394-19.156-10.121
							c-15.504-4.726-25.391-6.836-34.899-6.836c-9.507,0-41.57,7.625-53.39,14.848c0,0,0.707-8.012,7.387-14.453
							c0,0-18.625,3.863-34.711,22.203c-6.567,7.492-11.125,17.082-10.36,23.262c0,0,5.907-4.996,5.176,6.566
							c-0.73,11.563-2.293,44.805,0,60.442c2.293,15.636,0.395,22.8,0.625,25.062c0.223,2.262-0.898,59.176-0.898,59.176
							l0.273,138.996l0.574,38.105c0,0-2.078,19.708-0.574,31.012c1.504,11.301-0.992,28.977,0,34.688
							c0.992,5.711,1.504,22.613,12.738,28.785c11.239,6.164,24.371,2.094,26.344-1.711c1.973-3.813,12.219-14.715,18.004-7.625
							c5.785,7.09,5.121,13.008,3.812,14.453c0,0,18.524-4.723,15.376-15.562c0,0,12.218-2.043,15.632,6.23
							c0,0,8.438,0.137,11.774-4.602l12.926,8.54l7.882-11.821c0,0,12.129,7.563,8.282,14.711c0,0,15.769-8.144,11.695-18.793
							c-4.07-10.648-22.27-8.933-22.27-8.933s-44.078,0.855-50.914,0.527c-19.504-0.945-34.738-3.664-36.133-3.938
							c-3.937-0.796-14.414-5.109-18.57-9.269c-3.265-3.277-5.871-5.926-0.742-15.031c4.652-8.274,20.633-53.743,19.711-57.028
							c-0.926-3.281-3.285-88.691-3.285-88.691s-1.446-37.184-3.543-51.242c-2.102-14.055-2.629-18.395-0.137-19.313
							c2.496-0.926,31.703-3.285,56.973-3.285c25.269,0,57.84,2.371,59.32,0.813C191.5,205.816,196.934,126.082,196.934,126.082z"/>
					</g>
				</g>
				<g opacity="0.5" clip-path="url(#SVGID_4_)" enable-background="new    ">
					<g>
						<defs>
							<rect id="SVGID_61_" width="263" height="1039"/>
						</defs>
						<clipPath id="SVGID_62_">
							<use xlink:href="#SVGID_61_"  overflow="visible"/>
						</clipPath>
						<path clip-path="url(#SVGID_62_)" fill="#FFFEFA" d="M67.098,128.441c0,0-11.371-5.605-7.164-76.382
							c0,0-15.77,60.964,0.878,81.992C77.461,155.074,67.098,128.441,67.098,128.441z"/>
					</g>
				</g>
				<g opacity="0.5" clip-path="url(#SVGID_4_)" enable-background="new    ">
					<g>
						<defs>
							<rect id="SVGID_63_" width="263" height="1039"/>
						</defs>
						<clipPath id="SVGID_64_">
							<use xlink:href="#SVGID_63_"  overflow="visible"/>
						</clipPath>
						<path clip-path="url(#SVGID_64_)" fill="#FFFEFA" d="M39.973,57.164c0,0,3.558-26.883,30.304-39.543
							c0,0-20.879,12.473-27.148,37.043L39.973,57.164z"/>
					</g>
				</g>
				<g opacity="0.5" clip-path="url(#SVGID_4_)" enable-background="new    ">
					<g>
						<defs>
							<rect id="SVGID_65_" width="263" height="1039"/>
						</defs>
						<clipPath id="SVGID_66_">
							<use xlink:href="#SVGID_65_"  overflow="visible"/>
						</clipPath>
						<path clip-path="url(#SVGID_66_)" fill="#FFFEFA" d="M38.801,60.91c0,0,0.402,9.531,1.168,16.106
							c0.769,6.574,0.769,61.621,0.633,67.144c-0.133,5.516-2.813,32.352-2.813,32.352l-0.887-26.887l-0.097-72.207L38.801,60.91z"
							/>
					</g>
				</g>
				<g opacity="0.5" clip-path="url(#SVGID_4_)" enable-background="new    ">
					<g>
						<defs>
							<rect id="SVGID_67_" width="263" height="1039"/>
						</defs>
						<clipPath id="SVGID_68_">
							<use xlink:href="#SVGID_67_"  overflow="visible"/>
						</clipPath>
						<path clip-path="url(#SVGID_68_)" fill="#FFFEFA" d="M48.75,119.672c0,0,2.883,10.164,1.988,16.64
							c-0.886,6.485-1.98,13.141-0.91,17.52c0,0,0.902-2.449,2.473-3.156c1.578-0.703,0.125,8.554,5.586,29.246
							c5.449,20.683,15.121,67.523,15.828,80.805c0,0-2.496-36.668-5.301-56.891c-2.801-20.223-9.891-43.242-9.324-49.953
							C59.656,147.176,52.203,128.426,48.75,119.672z"/>
					</g>
				</g>
				<g opacity="0.5" clip-path="url(#SVGID_4_)" enable-background="new    ">
					<g>
						<defs>
							<rect id="SVGID_69_" width="263" height="1039"/>
						</defs>
						<clipPath id="SVGID_70_">
							<use xlink:href="#SVGID_69_"  overflow="visible"/>
						</clipPath>
						<path clip-path="url(#SVGID_70_)" fill="#FFFEFA" d="M74.527,276.641c0,0-4.304,67.097-18.785,97.23
							c-14.48,30.133-7.222,45.551-7,55.707c0,0,5.992-10.004,4.863-19.715c-1.132-9.718-2.793-16.328,2.418-26.687
							C61.238,372.82,76.551,333.629,74.527,276.641z"/>
					</g>
				</g>
				<g opacity="0.5" clip-path="url(#SVGID_4_)" enable-background="new    ">
					<g>
						<defs>
							<rect id="SVGID_71_" width="263" height="1039"/>
						</defs>
						<clipPath id="SVGID_72_">
							<use xlink:href="#SVGID_71_"  overflow="visible"/>
						</clipPath>
						<path clip-path="url(#SVGID_72_)" fill="#FFFEFA" d="M48.477,439.391c-0.114-0.258-1.747,16.293,7.421,34.511
							c4.551,9.039,27.176,11.735,27.176,11.735s-18.672-2.711-23.23-12.66C55.281,463.047,52.176,456.562,48.477,439.391z"/>
					</g>
				</g>
				<g opacity="0.5" clip-path="url(#SVGID_4_)" enable-background="new    ">
					<g>
						<defs>
							<rect id="SVGID_73_" width="263" height="1039"/>
						</defs>
						<clipPath id="SVGID_74_">
							<use xlink:href="#SVGID_73_"  overflow="visible"/>
						</clipPath>
						<path clip-path="url(#SVGID_74_)" fill="#FFFEFA" d="M36.465,343.211c0,0,2.523,10.336,1.996,15.769
							c-0.527,5.426,2.227,37.489,2.168,51.86c-0.059,14.363-1.117,38.793-1.117,38.793l-2.821-26.711l-0.226-21.106l0.812-15.363
							l-2.039-18.113l-0.453-16.785l0.496-12.024L36.465,343.211z"/>
					</g>
				</g>
				<g opacity="0.5" clip-path="url(#SVGID_4_)" enable-background="new    ">
					<g>
						<defs>
							<rect id="SVGID_75_" width="263" height="1039"/>
						</defs>
						<clipPath id="SVGID_76_">
							<use xlink:href="#SVGID_75_"  overflow="visible"/>
						</clipPath>
						<path clip-path="url(#SVGID_76_)" fill="#FFFEFA" d="M45.121,194.309c0,0,1.477,33.921,1.609,79.414
							c0.133,45.492,0,87.015,0,87.015s-1.699-71.558-1.734-90.172C44.957,251.941,45.121,194.309,45.121,194.309z"/>
					</g>
				</g>
				<g opacity="0.13" clip-path="url(#SVGID_4_)" enable-background="new    ">
					<g>
						<defs>
							<rect id="SVGID_77_" width="263" height="1039"/>
						</defs>
						<clipPath id="SVGID_78_">
							<use xlink:href="#SVGID_77_"  overflow="visible"/>
						</clipPath>
						<path clip-path="url(#SVGID_78_)" fill="#FFFFF8" d="M144.277,297.227c-2.734,4.398,7.996,42.062-9.449,45.484
							c-15.801,3.098-26.769-6.789-33.64-0.262c-5.047,4.805-2.262,12.985-5.778,14.192c-4.453,1.527-8.965,0.125-13.551-10.051
							c-8.636-19.188-5.777-41.582-7.336-69.945c-2.441-44.411-13.886-62.676-4.117-75.063
							c10.535-13.367,40.422-10.387,86.223-5.176c24.988,2.844,29.387,3.977,31.531,7.02c7.906,11.234-26.015,55.851-13.914,86.996
							C178.695,301.863,149.84,288.254,144.277,297.227z"/>
					</g>
				</g>
				<path clip-path="url(#SVGID_4_)" d="M131.328,1.473c-7.43,0-14.898,0.73-23.617,2.16c-26.215,4.32-45.262,13.043-56.609,25.926
					C37.016,45.598,37.246,58.516,37.559,76.406c0.023,1.457,0.05,2.949,0.074,4.469c0.469,36.617-0.813,251.973-1.86,265.367
					c-1.14,14.363,1.719,40.102,1.747,40.363l0.007,0.067l-0.007,0.066c-2.157,30.461,1.511,58.071,4.968,75.871l0.43,2.219
					c3.121,16.223,4.059,21.117,21.242,28.813c25.883,11.57,66.469,10.879,66.887,10.871c0.43,0.008,41.008,0.703,66.891-10.871
					c17.183-7.696,18.121-12.598,21.242-28.821l0.425-2.218c3.454-17.793,7.129-45.395,4.989-75.872l-0.008-0.066l0.008-0.066
					c0.027-0.262,2.871-25.993,1.746-40.364c-1.028-13.129-2.328-228.543-1.883-265.359c0.023-1.52,0.047-3.008,0.074-4.469
					c0.321-17.89,0.551-30.816-13.543-46.847C200.254,17.363,183.41,9.188,159.512,4.555C148.84,2.492,140.113,1.473,131.328,1.473z
					 M129.473,506.016c-7.774,0-42.653-0.61-65.914-11.004c-17.891-8.02-18.95-13.532-22.098-29.895l-0.426-2.219
					c-3.469-17.878-7.156-45.597-4.996-76.191c-0.164-1.496-2.875-26.434-1.75-40.578c1.051-13.371,2.324-228.625,1.856-265.227
					c-0.024-1.519-0.047-3.007-0.075-4.461c-0.312-17.535-0.558-31.39,13.914-47.851C61.727,15.254,80.535,6.609,107.473,2.172
					c19.226-3.164,32.425-2.926,52.328,0.93c24.234,4.699,41.344,13.031,52.312,25.48c14.473,16.469,14.227,30.324,13.914,47.859
					c-0.023,1.454-0.05,2.942-0.074,4.454c-0.445,36.808,0.848,252.121,1.875,265.226c1.102,14.137-1.582,39.09-1.746,40.578
					c2.145,30.61-1.551,58.321-5.02,76.192l-0.425,2.211c-3.141,16.363-4.207,21.871-22.098,29.894
					c-26.187,11.711-67.094,11.004-67.504,10.996C131,506,130.449,506.016,129.473,506.016z"/>
				<g opacity="0.51" clip-path="url(#SVGID_4_)" enable-background="new    ">
					<g>
						<defs>
							<rect id="SVGID_79_" width="263" height="1039"/>
						</defs>
						<clipPath id="SVGID_80_">
							<use xlink:href="#SVGID_79_"  overflow="visible"/>
						</clipPath>
						<path clip-path="url(#SVGID_80_)" d="M219.551,239.777c-1.305,1.571-2.254,6.723-2.254,12.868
							c0,6.332,1.019,11.628,2.379,13.003C221.672,255.902,219.75,241.273,219.551,239.777z"/>
					</g>
				</g>
				<g opacity="0.19" clip-path="url(#SVGID_4_)" enable-background="new    ">
					<g>
						<defs>
							<rect id="SVGID_81_" width="263" height="1039"/>
						</defs>
						<clipPath id="SVGID_82_">
							<use xlink:href="#SVGID_81_"  overflow="visible"/>
						</clipPath>
						<path clip-path="url(#SVGID_82_)" fill="#EBF3FF" d="M221.227,237.988c0,0-0.196,0.641,0,2.473
							c0.195,1.84,0.972,3.465,1.144,12.703s-1.449,12.492-1.406,12.836c0.047,0.344,0.289,1.02,0.289,1.02
							s-0.438,0.679-0.805,0.507c-0.363-0.172-0.804-1.402-0.445-2.937c0.348-1.531,0.75-6.789,0.832-12.477
							c0.09-5.695-1.301-11.914-1.301-12.523c0-0.61-0.203-2.391,1.43-2.137C221.172,237.484,221.227,237.988,221.227,237.988z"/>
					</g>
				</g>
				<path clip-path="url(#SVGID_4_)" d="M220.57,237.684c-0.281,0-0.394,0.089-0.445,0.156c-0.383,0.441-0.199,1.965,0.035,3.629
					c0.371,2.621,1.496,11.957,0.285,21.91l-0.047,0.394c-0.171,1.395-0.363,2.965-0.05,3.344c0.031,0.031,0.05,0.051,0.117,0.051
					c0.008,0,0.008,0,0.015,0c0.774,0,1.602-3.074,1.875-4.094c1.379-5.105,1.325-14.668-0.101-20.453
					c-0.106-0.406-0.203-0.855-0.301-1.301C221.656,239.957,221.16,237.684,220.57,237.684z M220.484,267.906
					c-0.015,0-0.039,0-0.054,0c-0.262-0.015-0.489-0.121-0.657-0.32c-0.527-0.625-0.347-2.078-0.117-3.918l0.043-0.387
					c1.207-9.859,0.09-19.113-0.281-21.711c-0.344-2.414-0.402-3.597,0.137-4.222c0.238-0.274,0.574-0.407,1.011-0.407
					c1.192,0,1.637,2.047,2.106,4.207c0.098,0.446,0.195,0.875,0.293,1.286c1.449,5.89,1.496,15.621,0.094,20.828
					C222.277,266.195,221.598,267.906,220.484,267.906z"/>
				<g opacity="0.51" clip-path="url(#SVGID_4_)" enable-background="new    ">
					<g>
						<defs>
							<rect id="SVGID_83_" width="263" height="1039"/>
						</defs>
						<clipPath id="SVGID_84_">
							<use xlink:href="#SVGID_83_"  overflow="visible"/>
						</clipPath>
						<path clip-path="url(#SVGID_84_)" d="M218.703,357.676c-1.305,1.57-2.254,6.722-2.254,12.867
							c0,6.336,1.02,11.629,2.379,13.008C220.824,373.805,218.906,359.172,218.703,357.676z"/>
					</g>
				</g>
				<g opacity="0.19" clip-path="url(#SVGID_4_)" enable-background="new    ">
					<g>
						<defs>
							<rect id="SVGID_85_" width="263" height="1039"/>
						</defs>
						<clipPath id="SVGID_86_">
							<use xlink:href="#SVGID_85_"  overflow="visible"/>
						</clipPath>
						<path clip-path="url(#SVGID_86_)" fill="#EBF3FF" d="M220.379,355.891c0,0-0.195,0.64,0,2.472
							c0.195,1.832,0.973,3.461,1.144,12.699c0.172,9.243-1.449,12.497-1.406,12.836c0.047,0.344,0.289,1.02,0.289,1.02
							s-0.437,0.68-0.804,0.508c-0.364-0.172-0.805-1.399-0.446-2.934c0.356-1.535,0.75-6.789,0.832-12.476
							c0.09-5.696-1.3-11.914-1.3-12.524c0-0.613-0.204-2.39,1.429-2.137C220.324,355.383,220.379,355.891,220.379,355.891z"/>
					</g>
				</g>
				<path clip-path="url(#SVGID_4_)" d="M219.727,355.586c-0.286,0-0.395,0.09-0.45,0.156c-0.379,0.438-0.199,1.965,0.039,3.625
					c0.372,2.621,1.496,11.957,0.282,21.914l-0.043,0.395c-0.172,1.39-0.367,2.961-0.055,3.344c0.031,0.027,0.059,0.05,0.121,0.05
					c0.008,0,0.008,0,0.012,0c0.777,0,1.601-3.074,1.879-4.093c1.367-5.11,1.324-14.668-0.106-20.454
					c-0.105-0.41-0.199-0.855-0.297-1.308C220.812,357.848,220.312,355.586,219.727,355.586z M219.637,385.805
					c-0.016,0-0.039,0-0.055,0c-0.262-0.012-0.488-0.117-0.656-0.321c-0.528-0.625-0.348-2.074-0.117-3.914l0.046-0.39
					c1.204-9.856,0.086-19.11-0.285-21.711c-0.343-2.41-0.402-3.594,0.137-4.219c0.238-0.277,0.574-0.41,1.012-0.41
					c1.191,0,1.636,2.043,2.105,4.207c0.098,0.449,0.196,0.887,0.293,1.289c1.449,5.891,1.496,15.621,0.094,20.824
					C221.43,384.094,220.754,385.805,219.637,385.805z"/>
				<g opacity="0.51" clip-path="url(#SVGID_4_)" enable-background="new    ">
					<g>
						<defs>
							<rect id="SVGID_87_" width="263" height="1039"/>
						</defs>
						<clipPath id="SVGID_88_">
							<use xlink:href="#SVGID_87_"  overflow="visible"/>
						</clipPath>
						<path clip-path="url(#SVGID_88_)" d="M42.613,239.777c1.305,1.571,2.258,6.723,2.258,12.864
							c0,6.336-1.019,11.632-2.383,13.007C40.484,255.902,42.406,241.273,42.613,239.777z"/>
					</g>
				</g>
				<g opacity="0.19" clip-path="url(#SVGID_4_)" enable-background="new    ">
					<g>
						<defs>
							<rect id="SVGID_89_" width="263" height="1039"/>
						</defs>
						<clipPath id="SVGID_90_">
							<use xlink:href="#SVGID_89_"  overflow="visible"/>
						</clipPath>
						<path clip-path="url(#SVGID_90_)" fill="#EBF3FF" d="M40.934,237.988c0,0,0.195,0.641,0,2.473
							c-0.196,1.84-0.977,3.465-1.149,12.703c-0.168,9.238,1.453,12.492,1.41,12.836c-0.047,0.344-0.293,1.02-0.293,1.02
							s0.442,0.679,0.805,0.507c0.367-0.172,0.805-1.402,0.449-2.937c-0.359-1.531-0.754-6.789-0.832-12.477
							c-0.09-5.695,1.301-11.914,1.301-12.523c0-0.61,0.199-2.391-1.43-2.137C40.992,237.484,40.934,237.988,40.934,237.988z"/>
					</g>
				</g>
				<path clip-path="url(#SVGID_4_)" d="M41.598,237.684c-0.59,0-1.09,2.265-1.387,3.617c-0.098,0.453-0.195,0.894-0.297,1.312
					c-1.43,5.785-1.476,15.344-0.105,20.453c0.277,1.02,1.117,4.161,1.882,4.094c0.067,0,0.098-0.023,0.121-0.055
					c0.321-0.378,0.126-1.949-0.046-3.335l-0.051-0.395c-1.215-9.945-0.09-19.281,0.281-21.91c0.238-1.66,0.418-3.188,0.035-3.629
					C41.984,237.773,41.879,237.684,41.598,237.684z M41.688,267.906c-1.118,0-1.805-1.707-2.594-4.648
					c-1.399-5.203-1.356-14.934,0.097-20.824c0.098-0.403,0.196-0.84,0.289-1.289c0.469-2.168,0.918-4.207,2.11-4.207
					c0.43,0,0.773,0.14,1.012,0.41c0.543,0.625,0.484,1.808,0.132,4.222c-0.371,2.598-1.48,11.852-0.281,21.711l0.051,0.391
					c0.23,1.836,0.41,3.285-0.117,3.91c-0.164,0.195-0.395,0.305-0.657,0.32C41.715,267.906,41.699,267.906,41.688,267.906z"/>
				<g opacity="0.51" clip-path="url(#SVGID_4_)" enable-background="new    ">
					<g>
						<defs>
							<rect id="SVGID_91_" width="263" height="1039"/>
						</defs>
						<clipPath id="SVGID_92_">
							<use xlink:href="#SVGID_91_"  overflow="visible"/>
						</clipPath>
						<path clip-path="url(#SVGID_92_)" d="M43.461,357.676c1.305,1.57,2.258,6.722,2.258,12.867c0,6.336-1.02,11.629-2.383,13.008
							C41.332,373.805,43.254,359.172,43.461,357.676z"/>
					</g>
				</g>
				<g opacity="0.19" clip-path="url(#SVGID_4_)" enable-background="new    ">
					<g>
						<defs>
							<rect id="SVGID_93_" width="263" height="1039"/>
						</defs>
						<clipPath id="SVGID_94_">
							<use xlink:href="#SVGID_93_"  overflow="visible"/>
						</clipPath>
						<path clip-path="url(#SVGID_94_)" fill="#EBF3FF" d="M41.781,355.891c0,0,0.192,0.64,0,2.472
							c-0.195,1.836-0.976,3.461-1.148,12.699c-0.172,9.243,1.453,12.497,1.41,12.836c-0.047,0.344-0.293,1.02-0.293,1.02
							s0.441,0.68,0.805,0.508c0.367-0.172,0.804-1.399,0.449-2.934c-0.352-1.535-0.754-6.789-0.836-12.476
							c-0.09-5.696,1.305-11.914,1.305-12.524c0-0.613,0.199-2.39-1.43-2.137C41.84,355.383,41.781,355.891,41.781,355.891z"/>
					</g>
				</g>
				<path clip-path="url(#SVGID_4_)" d="M42.445,355.586c-0.59,0-1.09,2.269-1.386,3.625c-0.098,0.445-0.196,0.891-0.297,1.305
					c-1.43,5.785-1.477,15.343-0.106,20.453c0.274,1.015,1.086,4.121,1.883,4.093c0.066,0,0.09-0.023,0.121-0.054
					c0.32-0.379,0.125-1.949-0.047-3.34l-0.043-0.395c-1.215-9.949-0.09-19.285,0.282-21.914c0.238-1.66,0.418-3.187,0.039-3.625
					C42.832,355.676,42.727,355.586,42.445,355.586z M42.531,385.809c-1.117,0-1.801-1.707-2.59-4.649
					c-1.398-5.203-1.355-14.937,0.098-20.824c0.098-0.402,0.195-0.844,0.289-1.289c0.469-2.168,0.918-4.207,2.106-4.207
					c0.433,0,0.777,0.14,1.015,0.406c0.543,0.629,0.485,1.813,0.133,4.223c-0.371,2.597-1.48,11.855-0.281,21.711l0.043,0.394
					c0.234,1.84,0.41,3.285-0.117,3.91c-0.165,0.192-0.395,0.305-0.657,0.321C42.562,385.809,42.547,385.809,42.531,385.809z"/>
				<path clip-path="url(#SVGID_4_)" d="M204.723,133.961l-0.547-0.508c3.41-3.566,8.066-8.437,8.929-21.25
					c0.864-12.836-1.484-38.73-3.804-47.973c-2.129-8.472-1.363-13.945-1.176-14.984c-7.914-9.918-19.77-20.023-20.625-20.754
					c-38.426-14.367-56.242-13.824-56.422-13.816l-0.031-0.746c0.176-0.008,18.137-0.567,56.773,13.894l0.11,0.067
					c0.129,0.105,12.668,10.687,20.886,21.035l0.114,0.136l-0.039,0.172c-0.012,0.059-1.141,5.762,1.14,14.832
					c2.332,9.289,4.692,35.305,3.828,48.2C212.965,125.336,208.199,130.328,204.723,133.961z"/>
				<path clip-path="url(#SVGID_4_)" fill="#1D1D1B" d="M131.055,2.27c0,0,38.48-0.29,45.996,18.062c0,0-19.953-9.582-32.082-10.043
					c-1.703-0.066-2.309-0.781-2.688-1.848c-0.371-1.062-2.523-3.55-11.234-3.55"/>
				<path clip-path="url(#SVGID_4_)" d="M177.766,21.086l-0.868-0.418c-0.203-0.098-20.023-9.555-31.933-10.008
					c-2.043-0.074-2.676-1.101-3.024-2.09c-0.121-0.336-1.437-3.308-10.886-3.308V4.52c9.515,0,11.273,2.91,11.586,3.804
					c0.343,0.969,0.832,1.539,2.343,1.602c10.59,0.402,27.274,7.797,31.325,9.656c-8.223-17.012-44.883-16.937-45.247-16.93
					l-0.007-0.746c1.586-0.019,38.812-0.082,46.34,18.293L177.766,21.086z"/>
				<path clip-path="url(#SVGID_4_)" fill="#B1B1B1" d="M131.047,6.387c4.683,0,8.488,1.199,8.488,2.672
					c0,1.476-3.797,2.671-8.488,2.671"/>
				<path clip-path="url(#SVGID_4_)" d="M131.047,12.098v-0.743c4.644,0,8.113-1.214,8.113-2.3c0-1.09-3.469-2.301-8.113-2.301
					V6.008c4.297,0,8.859,1.066,8.859,3.047C139.906,11.035,135.344,12.098,131.047,12.098z"/>
				<path clip-path="url(#SVGID_4_)" fill="#AABBE8" d="M177.516,11.473c0,0,6.457,9.105,10.172,16.691
					c0,0,12.546,9.867,20.832,20.984c0,0,5.406,7.602,6.582,10.036c1.175,2.429,2.957,7.074,4.14,7.429
					c1.184,0.36,1.117-5.664,0-11.496c-1.117-5.828-5.652-11.656-10.91-17.769C203.078,31.219,190.188,19.574,177.516,11.473z"/>
				<path clip-path="url(#SVGID_4_)" d="M187.984,27.93c1.004,0.804,12.918,10.386,20.832,20.996
					c0.223,0.32,5.442,7.66,6.618,10.094c0.269,0.558,0.574,1.23,0.886,1.937c0.91,2.02,2.274,5.07,3.028,5.293
					c0.543-0.387,0.632-5.316-0.473-11.062c-1.141-5.95-5.973-11.961-10.816-17.602c-4.668-5.43-16.606-16.473-29.157-24.774
					C180.891,15.738,185.207,22.27,187.984,27.93z M219.336,66.996c-0.066,0-0.133-0.008-0.207-0.031
					c-1.004-0.297-2.031-2.457-3.492-5.703c-0.313-0.703-0.61-1.371-0.879-1.914c-1.145-2.375-6.492-9.903-6.543-9.981
					c-8.16-10.937-20.633-20.801-20.758-20.898l-0.105-0.125c-3.664-7.477-10.082-16.555-10.141-16.641l-1.102-1.558l1.61,1.027
					c13.183,8.437,26.008,20.246,30.898,25.941c4.914,5.719,9.813,11.817,10.988,17.946c0.938,4.898,1.282,10.785,0.2,11.761
					C219.664,66.926,219.508,66.996,219.336,66.996z"/>
				<path clip-path="url(#SVGID_4_)" d="M224.914,76.434c-0.91-11.172-2.273-17.176-2.68-18.395
					c-0.328-0.977-2.605-2.531-3.464-3.047l0.39-0.633c0.332,0.207,3.313,2.047,3.781,3.446c0.418,1.246,1.801,7.328,2.711,18.578
					L224.914,76.434z"/>
				<path clip-path="url(#SVGID_4_)" d="M213.582,153.23l-0.195-0.886c-1.989-9.055-7.11-12.91-7.164-12.949l0.441-0.602
					c0.215,0.156,5.07,3.797,7.246,12.523l3.254-5.14l0.094-0.043c0.164-0.082,4.082-1.981,7.894-2.367l0.075,0.742
					c-3.368,0.344-6.934,1.957-7.551,2.25L213.582,153.23z"/>
				<path clip-path="url(#SVGID_4_)" fill="#A80515" d="M215.5,453.145c0,0-3.008,15.402-8.605,22.671
					c-5.602,7.266-14.801,13.872-27.868,17.004c0,0,20.176-0.476,29.7-11.843C218.258,469.621,216.5,458.297,215.5,453.145z"/>
				<path clip-path="url(#SVGID_4_)" d="M215.465,455.094c-0.992,4.347-3.789,15.129-8.274,20.953
					c-4.082,5.293-11.48,12.137-24.125,16.058c6.36-0.789,18.645-3.328,25.383-11.359
					C216.422,471.223,216.516,461.84,215.465,455.094z M175.547,493.285l3.394-0.82c14.871-3.574,23.247-11.145,27.661-16.871
					c5.48-7.11,8.503-22.36,8.535-22.516l0.367-1.883l0.363,1.883c1.348,6.961,2.102,17.461-6.851,28.145
					c-9.52,11.359-29.774,11.972-29.977,11.98L175.547,493.285z"/>
				<path clip-path="url(#SVGID_4_)" d="M131.078,500.336l-0.031-0.746c0.199-0.008,20.051-0.738,27.734-1.742
					c7.141-0.938,7.453-2.821,7.453-2.844v-0.313l12.411-2.226c11.566-1.149,17.05-3.297,18.167-3.774
					c-0.074-2.25,0.118-4.015,1.848-10.574c0.356-1.347,0.731-2.644,1.11-3.953c1.554-5.406,3.171-10.988,3.468-20.418
					c0.356-11.383-6.687-16.34-6.761-16.387l0.418-0.617c0.074,0.051,7.46,5.219,7.089,17.028c-0.3,9.515-1.929,15.152-3.5,20.597
					c-0.375,1.301-0.754,2.598-1.101,3.938c-1.856,7.043-1.899,8.48-1.817,10.601l0.008,0.239l-0.219,0.105
					c-0.214,0.105-5.464,2.637-18.605,3.945l-11.828,2.133c-0.27,0.727-1.586,2.418-8.035,3.258
					C151.156,499.598,131.277,500.328,131.078,500.336z"/>
				<path clip-path="url(#SVGID_4_)" fill="#7F7F7F" d="M131.062,492.473c0,0,4.879-0.231,6.477,1.785
					c0,0,16.652-0.438,24.414-0.254c3.152,0.074,4.656,1,4.656,1s-1.957,1.285-4.543,1.285c-2.582,0-24.433,0.828-24.433,0.828
					s-1.887,1.141-6.578,1.141"/>
				<path clip-path="url(#SVGID_4_)" d="M131.047,498.629v-0.742c4.496,0,6.359-1.082,6.379-1.09l0.082-0.043l0.097-0.008
					c0.215-0.008,21.891-0.828,24.45-0.828c1.593,0,2.957-0.52,3.707-0.887c-0.7-0.261-1.965-0.609-3.824-0.656
					c-7.672-0.184-24.227,0.254-24.391,0.254l-0.188,0.008l-0.117-0.149c-1.461-1.851-6.121-1.644-6.168-1.644l-0.035-0.746
					c0.199-0.012,4.867-0.207,6.664,1.789c1.824-0.043,16.996-0.426,24.25-0.254c3.215,0.074,4.774,1.015,4.84,1.051l0.5,0.304
					l-0.492,0.321c-0.082,0.05-2.086,1.347-4.75,1.347c-2.465,0-22.813,0.766-24.34,0.828
					C137.285,497.715,135.285,498.629,131.047,498.629z"/>
				<path clip-path="url(#SVGID_4_)" fill="#231F20" d="M185.793,365.086l-0.742-0.024c0.008-0.371,1.011-37.859,1.933-80.976
					c0.926-43.156,7.2-76.453,7.262-76.781l0.727,0.14c-0.059,0.328-6.321,33.575-7.243,76.66
					C186.805,327.223,185.801,364.715,185.793,365.086z"/>
				<path clip-path="url(#SVGID_4_)" d="M214.34,271.195c-0.453,0-0.723-0.019-0.774-0.027l0.075-0.746
					c0.058,0.008,5.914,0.516,12.047-4.02l0.449,0.598C221.012,270.785,216.172,271.195,214.34,271.195z"/>
				<path clip-path="url(#SVGID_4_)" d="M219.469,392.039c-0.176,0-0.348-0.016-0.512-0.031c-3.062-0.356-5.645-3.664-5.645-5.555
					h0.743c0,1.602,2.332,4.512,4.98,4.817c2.793,0.328,4.996-2.391,6.235-7.645l0.722,0.172
					C224.359,390.789,221.391,392.039,219.469,392.039z"/>
				<path clip-path="url(#SVGID_4_)" d="M57.387,133.977c-3.485-3.649-8.25-8.641-9.137-21.719
					c-0.871-12.895,1.5-38.91,3.828-48.203c2.277-9.071,1.145-14.782,1.141-14.832l-0.039-0.172l0.113-0.133
					c8.219-10.352,20.758-20.926,20.887-21.035l0.109-0.067c38.637-14.453,56.594-13.902,56.781-13.894l-0.031,0.742
					c-0.176-0.008-17.996-0.543-56.422,13.82c-0.855,0.731-12.719,10.832-20.625,20.75c0.18,1.043,0.946,6.516-1.176,14.989
					c-2.324,9.238-4.668,35.132-3.804,47.968c0.863,12.817,5.519,17.684,8.922,21.247L57.387,133.977z"/>
				<path clip-path="url(#SVGID_4_)" fill="#1D1D1B" d="M131.047,2.27c0,0-38.477-0.29-45.996,18.062
					c0,0,19.953-9.582,32.082-10.043c1.707-0.066,2.308-0.781,2.687-1.848c0.375-1.062,2.528-3.55,11.239-3.55"/>
				<path clip-path="url(#SVGID_4_)" d="M84.332,21.086l0.367-0.895c7.528-18.382,44.758-18.308,46.34-18.293l-0.008,0.743
					c-0.371,0.007-37.027-0.082-45.246,16.933c4.051-1.863,20.731-9.258,31.324-9.66c1.512-0.059,2.012-0.633,2.344-1.602
					c0.313-0.89,2.078-3.8,11.586-3.8v0.742c-9.453,0-10.766,2.973-10.883,3.305c-0.351,0.992-0.984,2.019-3.023,2.093
					c-11.914,0.453-31.735,9.91-31.934,10.008L84.332,21.086z"/>
				<path clip-path="url(#SVGID_4_)" fill="#B1B1B1" d="M131.047,6.387c-4.684,0-8.488,1.199-8.488,2.672
					c0,1.476,3.796,2.671,8.488,2.671"/>
				<path clip-path="url(#SVGID_4_)" d="M131.047,12.098c-4.297,0-8.859-1.067-8.859-3.047c0-1.981,4.562-3.047,8.859-3.047V6.75
					c-4.645,0-8.113,1.215-8.113,2.301c0,1.086,3.468,2.301,8.113,2.301V12.098z"/>
				<path clip-path="url(#SVGID_4_)" fill="#FFFFF8" d="M84.586,11.473c0,0-6.457,9.105-10.168,16.691
					c0,0-12.547,9.867-20.836,20.984c0,0-5.402,7.602-6.582,10.036c-1.176,2.425-2.953,7.074-4.137,7.429
					c-1.183,0.36-1.117-5.664,0-11.496c1.117-5.828,5.649-11.656,10.907-17.769C59.027,31.234,71.914,19.574,84.586,11.473z"/>
				<path clip-path="url(#SVGID_4_)" d="M83.211,12.812c-12.555,8.301-24.492,19.336-29.16,24.77
					c-4.848,5.645-9.68,11.656-10.817,17.602c-1.101,5.75-1.019,10.683-0.425,11.07c0.707-0.231,2.07-3.281,2.98-5.305
					c0.32-0.707,0.617-1.379,0.887-1.937c1.176-2.426,6.386-9.778,6.609-10.09c7.914-10.617,19.836-20.199,20.84-21.004
					C76.895,22.27,81.215,15.738,83.211,12.812z M42.766,66.996c-0.172,0-0.328-0.07-0.469-0.187
					c-1.082-0.977-0.738-6.864,0.199-11.766c1.176-6.125,6.074-12.223,10.988-17.941c4.891-5.696,17.715-17.504,30.899-25.942
					l1.609-1.027l-1.101,1.558c-0.067,0.09-6.485,9.164-10.141,16.641l-0.105,0.125c-0.125,0.098-12.598,9.961-20.766,20.906
					c-0.051,0.071-5.391,7.602-6.543,9.981c-0.27,0.551-0.566,1.211-0.879,1.914c-1.457,3.254-2.488,5.402-3.492,5.707
					C42.898,66.98,42.832,66.996,42.766,66.996z"/>
				<path clip-path="url(#SVGID_4_)" d="M37.188,76.434l-0.747-0.059c0.918-11.25,2.301-17.332,2.719-18.574
					c0.469-1.403,3.445-3.25,3.781-3.449l0.387,0.632c-0.855,0.524-3.14,2.078-3.461,3.047
					C39.457,59.258,38.094,65.258,37.188,76.434z"/>
				<path clip-path="url(#SVGID_4_)" d="M48.52,153.23l-4.094-6.472c-0.617-0.289-4.184-1.906-7.551-2.25l0.074-0.742
					c3.813,0.386,7.727,2.285,7.891,2.367l0.098,0.047l3.253,5.136c2.176-8.718,7.028-12.367,7.247-12.523l0.437,0.602
					c-0.051,0.039-5.176,3.894-7.164,12.949L48.52,153.23z"/>
				<path clip-path="url(#SVGID_4_)" fill="#F2162C" d="M46.598,453.145c0,0,3.007,15.402,8.605,22.671
					c5.602,7.266,14.805,13.872,27.871,17.004c0,0-20.179-0.476-29.703-11.843C43.84,469.621,45.602,458.297,46.598,453.145z"/>
				<path clip-path="url(#SVGID_4_)" d="M46.637,455.094c-1.051,6.746-0.961,16.129,7.019,25.652
					c6.731,8.031,19.024,10.57,25.383,11.359c-12.644-3.921-20.051-10.765-24.125-16.058
					C50.418,470.223,47.625,459.445,46.637,455.094z M86.551,493.285l-3.492-0.082c-0.2-0.008-20.454-0.613-29.977-11.98
					c-8.957-10.684-8.199-21.184-6.848-28.145l0.364-1.883l0.367,1.883c0.027,0.156,3.051,15.402,8.531,22.516
					c4.406,5.726,12.793,13.297,27.66,16.871L86.551,493.285z"/>
				<path clip-path="url(#SVGID_4_)" d="M131.023,500.336c-0.199-0.008-20.085-0.738-27.8-1.75
					c-6.446-0.844-7.766-2.531-8.032-3.262l-11.863-2.129c-13.109-1.304-18.359-3.836-18.586-3.937l-0.215-0.106l0.008-0.238
					c0.082-2.121,0.039-3.559-1.816-10.602c-0.348-1.339-0.731-2.636-1.102-3.941c-1.57-5.449-3.191-11.078-3.5-20.594
					c-0.371-11.808,7.008-16.976,7.082-17.027l0.418,0.617c-0.074,0.051-7.117,5.012-6.762,16.387
					c0.297,9.426,1.907,15.008,3.469,20.414c0.379,1.312,0.754,2.609,1.11,3.953c1.726,6.567,1.921,8.324,1.847,10.574
					c1.117,0.485,6.606,2.625,18.137,3.774l12.434,2.234v0.313c0,0,0.277,1.906,7.453,2.843c7.683,1.004,27.535,1.735,27.734,1.743
					L131.023,500.336z"/>
				<path clip-path="url(#SVGID_4_)" fill="#7F7F7F" d="M131.039,492.473c0,0-4.875-0.235-6.477,1.785
					c0,0-16.648-0.438-24.414-0.254c-3.148,0.074-4.652,1-4.652,1s1.957,1.285,4.543,1.285c2.582,0,24.434,0.828,24.434,0.828
					s1.882,1.141,6.574,1.141"/>
				<path clip-path="url(#SVGID_4_)" d="M131.047,498.629c-4.231,0-6.238-0.914-6.672-1.145c-1.523-0.062-21.875-0.828-24.34-0.828
					c-2.664,0-4.66-1.289-4.75-1.347l-0.492-0.321l0.5-0.304c0.066-0.039,1.625-0.977,4.84-1.051
					c7.254-0.172,22.433,0.199,24.25,0.254c1.793-1.996,6.461-1.797,6.664-1.789l-0.035,0.742c-0.051,0-4.707-0.199-6.168,1.648
					l-0.117,0.149l-0.188-0.008c-0.164-0.008-16.73-0.441-24.391-0.254c-1.859,0.043-3.128,0.395-3.828,0.656
					c0.754,0.364,2.118,0.887,3.711,0.887c2.559,0,24.235,0.816,24.449,0.824h0.098l0.082,0.055
					c0.012,0.008,1.883,1.086,6.379,1.086v0.746H131.047z"/>
				<path clip-path="url(#SVGID_4_)" fill="#231F20" d="M76.305,365.086c-0.008-0.371-1.012-37.863-1.938-80.988
					c-0.922-43.086-7.183-76.325-7.242-76.657l0.73-0.144c0.059,0.328,6.333,33.633,7.258,76.781
					c0.922,43.117,1.93,80.606,1.938,80.977L76.305,365.086z"/>
				<path clip-path="url(#SVGID_4_)" d="M47.758,271.195c-1.836,0-6.668-0.406-11.793-4.191l0.441-0.594
					c6.149,4.547,11.989,4.028,12.047,4.02l0.074,0.742C48.484,271.176,48.215,271.195,47.758,271.195z"/>
				<path clip-path="url(#SVGID_4_)" d="M42.637,392.039c-1.922,0-4.883-1.262-6.539-8.242l0.726-0.172
					c1.242,5.258,3.461,7.973,6.238,7.645c2.649-0.305,4.973-3.215,4.973-4.817h0.746c0,1.891-2.578,5.203-5.629,5.555
					C42.996,392.031,42.816,392.039,42.637,392.039z"/>
				<path clip-path="url(#SVGID_4_)" d="M45.078,400.258l-3.41,0.64c-1.316,0.313-1.816,1.547-1.992,2.532
					c-0.188,1.019-0.574,4.691-0.574,9.508c0,3.687,0.296,7.371,0.46,9.359c0.059,0.758,0.106,1.258,0.106,1.457
					c0,1.098,0.766,1.863,1.859,1.863h3.559c1.027,0,1.863-0.836,1.863-1.863c0-0.141-0.047-0.617-0.097-1.211
					c-0.172-1.898-0.485-5.438-0.485-9.168c0-3.512,0.285-7.168,0.453-9.359c0.075-0.946,0.129-1.621,0.129-1.895
					C46.941,400.562,46.258,400.258,45.078,400.258z M45.078,426.363H41.52c-1.512,0-2.606-1.097-2.606-2.609
					c0-0.168-0.043-0.684-0.098-1.399c-0.164-1.996-0.461-5.703-0.461-9.417c0-5.266,0.434-8.817,0.583-9.641
					c0.394-2.184,1.613-2.906,2.574-3.129l3.5-0.648c0.015,0,0.031,0,0.039,0c1.176,0,2.633,0.289,2.633,2.597
					c0,0.301-0.051,0.961-0.125,1.957c-0.172,2.176-0.45,5.817-0.45,9.301c0,3.695,0.313,7.207,0.477,9.102
					c0.062,0.683,0.098,1.097,0.098,1.277C47.688,425.191,46.516,426.363,45.078,426.363z"/>
				<path clip-path="url(#SVGID_4_)" fill="#636870" d="M206.355,184.91c-5.226,24.988-9.515,53.809-9.425,74.738
					c0.066,14.231,0.55,34.868,1.312,50.95c0.715,14.922,2.953,27.937,6.035,40.949C206.641,276.109,206.484,206.965,206.355,184.91
					z"/>
				<path clip-path="url(#SVGID_4_)" fill="#1D1D1B" d="M213.52,155.113c-2.375,8.516-4.864,18.785-7.165,29.797
					c0.129,22.055,0.286,91.199-2.078,166.645c2.653,11.215,5.93,22.441,9.414,34.898L213.52,155.113z"/>
				<path clip-path="url(#SVGID_4_)" fill="#0B0B0B" d="M213.305,169.492l0.105-7.707l-0.105-5.89
					c-1.942,7.429-5.121,20.312-7.008,29.261c2.473-3.886,3.742-6.121,5.027-6.984l2.086-0.551L213.305,169.492z"/>
				<path clip-path="url(#SVGID_4_)" fill="#080909" d="M203.418,347.82c0,0,6.668-2.062,10.273-3.468l-0.031,1.972
					c0,0-4.742,1.981-9.844,3.27L203.418,347.82z"/>
				<path clip-path="url(#SVGID_4_)" fill="#080909" d="M213.578,260.727c0,0-7.027,7.367-16.527,10.55l0.207,11.231
					c9.918-1.016,16.336-3.844,16.336-3.844L213.578,260.727z"/>
				<path clip-path="url(#SVGID_4_)" d="M197.223,277.004l-0.164-0.731c8.234-1.82,16.296-5.777,16.379-5.812l0.328,0.672
					C213.684,271.168,205.547,275.16,197.223,277.004z"/>
				<path clip-path="url(#SVGID_4_)" d="M213.148,157.867c-8.078,29.844-15.964,73.512-15.843,101.781
					c0.066,15.348,0.593,35.817,1.308,50.938c1.215,25.309,6.903,45.484,13.492,68.84c0.403,1.422,0.805,2.859,1.215,4.312
					L213.148,157.867z M214.062,389.172l-0.73-2.621c-0.652-2.356-1.309-4.653-1.949-6.926
					c-6.598-23.402-12.301-43.613-13.516-69.012c-0.715-15.129-1.242-35.609-1.308-50.965c-0.118-29.191,8.257-74.738,16.605-104.64
					l0.727-2.613L214.062,389.172z"/>
				<path clip-path="url(#SVGID_4_)" fill="#878B91" d="M55.809,184.91c5.226,24.988,9.515,53.809,9.425,74.738
					c-0.066,14.231-0.55,34.868-1.308,50.95c-0.715,14.922-2.957,27.937-6.039,40.949C55.527,276.109,55.672,206.965,55.809,184.91z
					"/>
				<path clip-path="url(#SVGID_4_)" fill="#323435" d="M48.637,155.113c2.375,8.516,4.863,18.785,7.164,29.797
					c-0.129,22.055-0.281,91.199,2.078,166.645c-2.652,11.215-5.93,22.441-9.414,34.898L48.637,155.113z"/>
				<path clip-path="url(#SVGID_4_)" fill="#1D1D1E" d="M48.852,169.492l-0.102-7.707l0.102-5.89
					c1.945,7.429,5.125,20.312,7.007,29.261c-2.472-3.886-3.738-6.121-5.027-6.984l-2.082-0.551L48.852,169.492z"/>
				<path clip-path="url(#SVGID_4_)" fill="#141516" d="M58.75,347.82c0,0-6.672-2.062-10.273-3.468l0.031,1.972
					c0,0,4.742,1.981,9.84,3.27L58.75,347.82z"/>
				<path clip-path="url(#SVGID_4_)" fill="#141516" d="M48.578,260.727c0,0,7.027,7.367,16.531,10.55l-0.211,11.231
					c-9.914-1.016-16.336-3.844-16.336-3.844L48.578,260.727z"/>
				<path clip-path="url(#SVGID_4_)" d="M64.938,277.004c-8.325-1.848-16.461-5.836-16.543-5.871l0.324-0.672
					c0.082,0.035,8.14,3.992,16.383,5.812L64.938,277.004z"/>
				<path clip-path="url(#SVGID_4_)" d="M49.012,157.867l-0.164,225.879c0.41-1.453,0.812-2.891,1.214-4.312
					c6.586-23.364,12.278-43.536,13.485-68.844c0.715-15.121,1.242-35.586,1.308-50.934
					C64.973,231.379,57.098,187.711,49.012,157.867z M48.102,389.172l0.171-236.77l0.731,2.614
					c8.344,29.902,16.723,75.445,16.601,104.64c-0.066,15.352-0.593,35.836-1.308,50.965c-1.215,25.395-6.918,45.602-13.516,69.012
					c-0.636,2.269-1.285,4.578-1.949,6.922L48.102,389.172z"/>
				<path clip-path="url(#SVGID_4_)" fill="#121313" d="M131.059,449.578c0,0-39.11,1.223-58.887-8.422
					c-11.309-5.508-10.824-8.754-10.168-19.461c0.461-7.468,0.633-33.222,3.461-45.89c2.832-12.575,10.551-10.95,21.34-10.489
					l34.703,1.52l18.949,0.004l34.84-1.524c10.789-0.461,18.531-2.093,21.336,10.489c2.832,12.668,3.004,38.414,3.465,45.89
					c0.656,10.7,1.136,13.953-10.172,19.461C170.164,450.805,131.059,449.578,131.059,449.578z"/>
				<path clip-path="url(#SVGID_4_)" fill="#1D1D1B" d="M188.453,438.148c-18.773,9.164-56.91,8.094-57.289,8.086h-0.207
					c-0.387,0.008-38.5,1.098-57.316-8.086c-9.032-4.39-8.95-5.656-8.34-15.484l0.047-0.754c0.113-1.75,0.199-4.375,0.312-7.695
					c0.356-10.547,0.961-28.199,3.074-37.66c1.547-6.903,4.289-8.215,9.985-8.215c1.504,0,3.215,0.09,5.168,0.195
					c0.898,0.043,1.824,0.094,2.769,0.141l34.703,1.519l19.098,0.008l34.988-1.535c0.946-0.039,1.875-0.09,2.77-0.141
					c9.344-0.5,13.199-0.707,15.148,8.012c2.117,9.469,2.719,27.113,3.078,37.656c0.11,3.321,0.2,5.946,0.313,7.696l0.043,0.75
					C197.41,432.492,197.484,433.75,188.453,438.148z M200.098,421.703c-0.461-7.469-0.633-33.223-3.465-45.887
					c-2.805-12.578-10.547-10.953-21.336-10.492l-34.84,1.528l-18.949-0.012l-34.703-1.516c-10.782-0.461-18.508-2.094-21.34,10.492
					c-2.828,12.664-2.992,38.411-3.461,45.887c-0.656,10.699-1.141,13.953,10.168,19.461c19.777,9.645,58.887,8.422,58.887,8.422
					s39.113,1.223,58.867-8.422C201.234,435.656,200.754,432.402,200.098,421.703z"/>
				<g opacity="0.47" clip-path="url(#SVGID_4_)" enable-background="new    ">
					<g>
						<defs>
							<rect id="SVGID_95_" width="263" height="1039"/>
						</defs>
						<clipPath id="SVGID_96_">
							<use xlink:href="#SVGID_95_"  overflow="visible"/>
						</clipPath>
						<path clip-path="url(#SVGID_96_)" fill="#CFDFF9" d="M72.172,401.391c19.777,9.64,58.887,8.421,58.887,8.421
							s39.113,1.219,58.867-8.421c4.875-2.375,7.554-4.332,8.976-6.641c-0.468-7.059-1.168-13.992-2.269-18.93
							c-2.809-12.574-10.551-10.949-21.34-10.488l-34.836,1.523l-18.949-0.003l-34.703-1.52
							c-10.782-0.461-18.512-2.094-21.34,10.488c-1.102,4.938-1.801,11.871-2.274,18.93
							C64.613,397.062,67.297,399.016,72.172,401.391z"/>
					</g>
				</g>
				<path clip-path="url(#SVGID_4_)" d="M78.836,365.367c-6.559,0-10.988,1.551-13.008,10.528c-2.172,9.742-2.785,27.566-3.14,38.21
					c-0.114,3.297-0.204,5.907-0.305,7.618l-0.047,0.75c-0.617,10.054-0.809,13.082,10.008,18.355
					c19.468,9.492,58.32,8.399,58.707,8.383h0.031c0.395,0.016,39.246,1.109,58.688-8.383c10.816-5.269,10.628-8.301,10.011-18.355
					l-0.043-0.75c-0.105-1.711-0.195-4.321-0.304-7.618c-0.368-10.648-0.969-28.468-3.149-38.21
					c-2.496-11.18-8.75-10.848-18.223-10.333c-0.89,0.043-1.8,0.094-2.738,0.133l-34.84,1.528l-18.968-0.008l-34.719-1.527
					c-0.938-0.036-1.852-0.09-2.738-0.133C82.18,365.465,80.445,365.367,78.836,365.367z M135.094,449.996
					c-2.41,0-3.879-0.039-4.035-0.047c-0.864,0.024-39.536,1.059-59.051-8.457c-11.262-5.488-11.055-8.906-10.422-19.066
					l0.047-0.754c0.101-1.703,0.191-4.305,0.305-7.594c0.363-10.676,0.972-28.539,3.164-38.344
					c2.648-11.793,9.5-11.429,18.984-10.918c0.887,0.047,1.801,0.098,2.73,0.137l34.707,1.527l18.934,0.008l34.82-1.527
					c0.934-0.039,1.848-0.09,2.735-0.133c9.5-0.516,16.351-0.879,18.984,10.914c2.192,9.805,2.801,27.672,3.168,38.344
					c0.109,3.293,0.199,5.891,0.301,7.594l0.047,0.754c0.625,10.156,0.84,13.582-10.43,19.066
					C174.223,449.242,145.645,449.996,135.094,449.996z"/>
				<path clip-path="url(#SVGID_4_)" fill="#121313" d="M131.059,111.109c-20.602,0-45.371,3.106-62.305,12.746
					c-11.352,6.457-14.734,12.747-13.399,26.469c1.895,19.797,6.118,37.02,12.137,57.047c0,0,51.754-3.82,63.567-3.207
					c11.8-0.613,63.55,3.207,63.55,3.207c6.016-20.027,10.235-37.25,12.133-57.047c1.332-13.722-2.047-20.008-13.402-26.469
					C176.418,114.215,151.641,111.109,131.059,111.109z"/>
				<path clip-path="url(#SVGID_4_)" fill="#050606" d="M72.973,160.922h25.179c1.414,0,2.563,1.144,2.563,2.558l-3.133,23.172
					c0,1.414-1.148,6.227-2.562,6.227c0,0-4.125,1.43-9.188,1.43c-5.062,0-9.152-1.43-9.152-1.43c-1.41,0-2.559-4.809-2.559-6.227
					l-3.719-23.172C70.41,162.066,71.559,160.922,72.973,160.922z"/>
				<path clip-path="url(#SVGID_4_)" fill="#0B0B0B" d="M85.562,183.957c-8.289,0-13.582,3.113-13.582,5.258
					c0,2.144,5.286,5.254,13.582,5.254c8.286,0,13.579-3.11,13.579-5.254C99.141,187.07,93.855,183.957,85.562,183.957z
					 M85.562,198.938c-10.292,0-18.05-4.18-18.05-9.727s7.761-9.723,18.05-9.723c10.29,0,18.047,4.176,18.047,9.723
					C103.609,194.762,95.852,198.938,85.562,198.938z"/>
				<path clip-path="url(#SVGID_4_)" fill="#262828" d="M131.062,114.461c-35.292-0.559-67.828,9.715-73.242,24.48
					c-3.359,9.157-0.968,12.789-0.968,12.789c-0.981,6.45,3.664,23.075,3.664,23.075c2.464,0.007,3.855-0.016,3.855-0.016
					s17.082,2.734,22.43,2.734c5.344,0,23.644-2.734,23.644-2.734s20.633-0.148,20.633-0.156h-0.098
					c32.168,0.828,55.571,0.351,69.993,0.113c0,0,4.457-15.269,3.468-21.719c0,0,2.067-8.652,0-14.257
					C201.461,120.914,165.324,115.195,131.062,114.461z"/>
				<path clip-path="url(#SVGID_4_)" fill="#262828" d="M131.055,184.344c0,0-15.438,0.312-17.352-2.012
					c-1.914-2.32-5.933-24.762-2.715-28.629c3.215-3.871,15.18-5.879,20.059-5.879c4.875,0,16.848,2.008,20.066,5.879
					c3.215,3.875-0.804,26.317-2.718,28.629C146.48,184.648,131.055,184.344,131.055,184.344z"/>
				<path clip-path="url(#SVGID_4_)" fill="#121313" d="M131.055,183.973c6.14,0.125,15.746-0.278,17.062-1.875
					c1.774-2.16,5.778-24.477,2.719-28.16c-2.965-3.567-14.488-5.75-19.777-5.75c-5.286,0-16.809,2.183-19.774,5.75
					c-3.062,3.683,0.938,26,2.715,28.16C115.312,183.695,124.91,184.098,131.055,183.973z M133.137,184.738
					c-1.028,0-1.778-0.015-2.082-0.015c-1.633,0.031-15.668,0.238-17.633-2.145c-2.152-2.613-6.063-25.078-2.711-29.105
					c3.238-3.891,15.137-6.016,20.348-6.016c5.214,0,17.113,2.125,20.351,6.016c3.348,4.031-0.566,26.492-2.719,29.105
					C147.098,184.508,137.559,184.738,133.137,184.738z"/>
				<path clip-path="url(#SVGID_4_)" fill="#313334" d="M74.641,176.504c0,0-1.864-14.316,1.644-29.469
					c0,0-10.605,7.012-10.863,27.942L74.641,176.504z"/>
				<path clip-path="url(#SVGID_4_)" fill="#1F2020" d="M97.66,176.504c0,0,3.238-14.75-1.144-29.469c0,0,9.23,7.883,13.019,27.856
					L97.66,176.504z"/>
				<path clip-path="url(#SVGID_4_)" fill="#1D1D1B" d="M203.41,150.004c-1.832,19.129-5.812,35.508-11.242,53.832
					c-9.941-0.715-44.051-3.09-57.891-3.09c-1.25,0-2.336,0.024-3.222,0.059c-10.723-0.504-50.297,2.25-61.129,3.023
					c-5.43-18.324-9.403-34.703-11.242-53.828c-1.192-12.324,1.324-17.32,11.726-23.23c18.793-10.711,46.067-12.309,60.645-12.309
					c14.57,0,41.828,1.601,60.629,12.309C202.086,132.688,204.602,137.676,203.41,150.004z M193.344,123.855
					c-16.926-9.64-41.703-12.746-62.285-12.746c-20.602,0-45.371,3.106-62.305,12.746c-11.352,6.457-14.734,12.747-13.399,26.469
					c1.895,19.801,6.118,37.02,12.137,57.051c0,0,51.754-3.82,63.567-3.211c11.8-0.609,63.55,3.211,63.55,3.211
					c6.016-20.031,10.235-37.25,12.133-57.051C208.07,136.602,204.699,130.32,193.344,123.855z"/>
				<g opacity="0.56" clip-path="url(#SVGID_4_)" enable-background="new    ">
					<g>
						<defs>
							<rect id="SVGID_97_" width="263" height="1039"/>
						</defs>
						<clipPath id="SVGID_98_">
							<use xlink:href="#SVGID_97_"  overflow="visible"/>
						</clipPath>
						<path clip-path="url(#SVGID_98_)" fill="#F3FAFF" d="M194.609,207.375c5.907-18.48,9.016-35.426,9.016-35.426
							c-1.859-3.105-7.184-7.32-11.941-10.023c-18.801-10.711-46.051-12.305-60.629-12.305c-14.582,0-41.852,1.602-60.645,12.305
							c-6.562,3.73-9.984,7.097-11.32,12.16c0,0,2.898,16.348,8.39,33.289c0,0,36.254-3.211,63.571-3.211
							C158.367,204.164,194.609,207.375,194.609,207.375z"/>
					</g>
				</g>
				<path clip-path="url(#SVGID_4_)" d="M134.289,203.727c15.109,0,56.125,2.961,60.043,3.253
					c5.824-19.425,10.106-36.531,12.031-56.691c1.297-13.336-1.922-19.68-13.215-26.105c-19.39-11.047-47.226-12.7-62.097-12.7
					c-14.875,0-42.731,1.653-62.117,12.7c-11.297,6.425-14.512,12.769-13.219,26.105c1.937,20.16,6.211,37.266,12.039,56.691
					c4.246-0.312,52.09-3.769,63.316-3.187C131.938,203.746,133.027,203.727,134.289,203.727z M194.875,207.77l-0.297-0.024
					c-0.516-0.039-51.867-3.812-63.504-3.211c-11.703-0.601-63.043,3.172-63.562,3.211l-0.301,0.024l-0.09-0.286
					c-5.879-19.589-10.199-36.793-12.148-57.121c-1.328-13.699,1.972-20.222,13.586-26.828
					c19.539-11.129,47.539-12.797,62.492-12.797c14.941,0,42.929,1.66,62.469,12.797c11.613,6.606,14.914,13.129,13.585,26.828
					c-1.949,20.328-6.269,37.535-12.152,57.121L194.875,207.77z"/>
				<path clip-path="url(#SVGID_4_)" fill="#151516" d="M217.238,169.676c-0.457-0.668-4.73-1.145-5.586-0.899
					c-0.855,0.243-2.793,7.438-2.398,7.965c0.394,0.531,6.633,0.367,7.125-0.23C216.871,175.918,217.801,170.512,217.238,169.676z"
					/>
				<path clip-path="url(#SVGID_4_)" d="M209.566,176.504c0.872,0.359,5.981,0.18,6.547-0.254c0.446-0.574,1.242-5.727,0.817-6.363
					c-0.399-0.485-4.368-0.985-5.172-0.762C211.07,169.602,209.469,175.512,209.566,176.504z M211.75,177.426
					c-0.281,0-0.453,0-0.461,0c-2.027-0.051-2.227-0.309-2.332-0.461c-0.551-0.727,1.086-5.77,1.109-5.82
					c0.848-2.547,1.282-2.668,1.489-2.727c0.804-0.23,5.371,0.129,5.996,1.051c0.676,0.996-0.27,6.551-0.879,7.281
					C216.148,177.367,212.957,177.426,211.75,177.426z"/>
				<path clip-path="url(#SVGID_4_)" fill="#151616" d="M216.984,168.871c-1.675,0.535-3.14,10.887-3.289,12.137
					c-0.148,1.25-0.039,1.84,0.817,2.426c0.859,0.589,20.238,9.793,20.961,9.726c0.722-0.066,1.707,0.067,2.3-0.789
					c0.586-0.855,1.317-2.043,1.309-3.484c-0.008-1.446-18.195-19.121-19.246-19.575
					C218.785,168.859,217.742,168.629,216.984,168.871z"/>
				<path clip-path="url(#SVGID_4_)" fill="#75787A" d="M214.074,178.395c-0.582-0.579-0.91,4.402,0.864,5.289
					c1.773,0.882,19.917,9.543,20.804,9.468c0.887-0.074,2.598-0.64,2.606-1.687C238.352,190.406,216.312,180.613,214.074,178.395z"
					/>
				<path clip-path="url(#SVGID_4_)" fill="#404142" d="M219.434,169.297c-0.633-0.684-2.457-0.902-2.934-0.008
					c-0.477,0.895-2.062,8.293-2.195,9.211c-0.137,0.914,22.992,12.738,23.781,12.656c0.785-0.09,0.562-0.832,0.562-1.14
					c0-0.305-17.429-13.661-18.046-15.067C220.004,173.539,219.961,169.863,219.434,169.297z"/>
				<path clip-path="url(#SVGID_4_)" d="M217.094,169.23c-1.11,0.356-2.567,7.883-3.035,11.825c-0.145,1.203-0.016,1.613,0.66,2.074
					c0.804,0.555,19.597,9.488,20.758,9.66c0.082-0.016,0.218-0.016,0.367-0.023c0.633-0.032,1.226-0.055,1.617-0.606
					c0.617-0.89,1.25-1.976,1.242-3.265c-0.359-1.551-17.832-18.629-19.031-19.239C218.594,169.184,217.695,169.035,217.094,169.23z
					 M235.484,193.531c-1.226,0-21.039-9.683-21.187-9.789c-1.02-0.707-1.133-1.488-0.977-2.777
					c0.016-0.117,1.461-11.777,3.551-12.449c0.797-0.254,1.84-0.094,3.113,0.453c0.715,0.312,6.461,5.855,10.125,9.5
					c9.336,9.293,9.336,10.14,9.336,10.418c0.008,1.496-0.691,2.703-1.375,3.695c-0.597,0.856-1.519,0.898-2.195,0.922
					c-0.129,0.008-0.254,0.008-0.375,0.023C235.492,193.531,235.484,193.531,235.484,193.531z"/>
				<path clip-path="url(#SVGID_4_)" fill="#1D1D1E" d="M42.703,169.676c0.453-0.668,4.731-1.145,5.586-0.899
					c0.856,0.243,2.793,7.438,2.399,7.965c-0.395,0.531-6.637,0.367-7.129-0.23C43.066,175.914,42.137,170.512,42.703,169.676z"/>
				<path clip-path="url(#SVGID_4_)" d="M43.012,169.883c-0.426,0.64,0.363,5.793,0.832,6.383c0.551,0.41,5.652,0.589,6.523,0.23
					c0.094-0.988-1.504-6.902-2.219-7.387C47.387,168.902,43.422,169.402,43.012,169.883z M48.191,177.426
					c-1.203,0-4.406-0.059-4.921-0.676c-0.602-0.73-1.555-6.277-0.875-7.281c0.625-0.926,5.187-1.289,5.992-1.051
					c0.207,0.059,0.633,0.187,1.488,2.727c0.016,0.05,1.652,5.082,1.102,5.812c-0.102,0.141-0.305,0.41-2.332,0.465
					C48.645,177.422,48.477,177.426,48.191,177.426z"/>
				<path clip-path="url(#SVGID_4_)" fill="#272828" d="M42.957,168.871c1.676,0.535,3.145,10.887,3.293,12.137
					s0.035,1.84-0.82,2.426c-0.856,0.589-20.239,9.793-20.961,9.726c-0.719-0.066-1.703,0.067-2.297-0.789
					c-0.59-0.855-1.32-2.043-1.313-3.484c0.008-1.446,18.2-19.121,19.246-19.575C41.164,168.855,42.191,168.629,42.957,168.871z"/>
				<path clip-path="url(#SVGID_4_)" fill="#B1B1B1" d="M45.867,178.395c0.582-0.579,0.91,4.402-0.863,5.289
					c-1.774,0.882-19.918,9.543-20.801,9.468c-0.887-0.074-2.601-0.64-2.609-1.687C21.582,190.406,43.629,180.613,45.867,178.395z"
					/>
				<path clip-path="url(#SVGID_4_)" fill="#868686" d="M40.508,169.297c0.633-0.684,2.457-0.902,2.933-0.008
					c0.477,0.895,2.063,8.293,2.196,9.211c0.136,0.914-22.992,12.738-23.782,12.656c-0.785-0.082-0.562-0.832-0.562-1.14
					c0-0.305,17.43-13.664,18.047-15.067C39.934,173.539,39.98,169.863,40.508,169.297z"/>
				<path clip-path="url(#SVGID_4_)" d="M42.258,169.148c-0.543,0-1.223,0.172-1.996,0.512
					c-1.192,0.613-18.668,17.692-19.024,19.262c0,1.266,0.625,2.355,1.242,3.238c0.391,0.559,0.985,0.582,1.618,0.602
					c0.14,0.008,0.281,0.015,0.41,0.023c1.117-0.176,19.906-9.105,20.711-9.656c0.679-0.469,0.804-0.879,0.664-2.078
					c-0.469-3.938-1.93-11.473-3.039-11.824C42.676,169.172,42.473,169.148,42.258,169.148z M24.453,193.531
					c-0.008,0-0.012,0-0.012,0c-0.121-0.008-0.246-0.011-0.375-0.023c-0.675-0.028-1.601-0.067-2.195-0.922
					c-0.683-0.988-1.383-2.195-1.375-3.691c0-0.286,0.008-1.133,9.336-10.418c3.664-3.649,9.418-9.188,10.125-9.5
					c1.273-0.559,2.316-0.707,3.113-0.454c2.09,0.668,3.535,12.329,3.551,12.45c0.156,1.289,0.043,2.078-0.976,2.777
					C45.496,183.852,25.691,193.531,24.453,193.531z"/>
			</g>
		</g>
	</g>
</g>
</svg>
