<?xml version="1.0" encoding="utf-8"?>
<!-- Generator: Adobe Illustrator 17.0.0, SVG Export Plug-In . SVG Version: 6.00 Build 0)  -->
<!DOCTYPE svg PUBLIC "-//W3C//DTD SVG 1.1//EN" "http://www.w3.org/Graphics/SVG/1.1/DTD/svg11.dtd">
<svg version="1.1" id="Слой_1" xmlns="http://www.w3.org/2000/svg" xmlns:xlink="http://www.w3.org/1999/xlink" x="0px" y="0px"
	 width="239.918px" height="493.748px" viewBox="0 0 239.918 493.748" enable-background="new 0 0 239.918 493.748"
	 xml:space="preserve">
<g enable-background="new    ">
	<path fill="currentColor" d="M120.75,0.75h10.094c26.73,0.645,86.25,2.535,84.945,49.086c0,0,5.785,4.613,6.445,11.355
		c0.657,6.743,0.957,49.313,1.145,74.559c0.039,4.852-4.543,17.754-4.543,17.754s-0.293,125.09-1.402,187.605
		c2.121,5.055,3.39,9.164,3.515,15.051c0.43,20.199,0.75,43.356-0.113,64.043c-0.344,8.137-2.609,18-5.617,24.606
		c-0.219,9-0.446,18-0.672,27c0.59,15.121-3.75,22.027-22.035,21.062l-3.453-2.16l-3.457,0.914
		c-22.036,0.922-42.875,0.922-64.852,1.246c-22.035-0.324-44.664-0.324-66.691-1.297l-3.457-0.918l-3.457,2.25
		c-18.254,0.918-22.629-6-22.036-21.058c-0.222-8.844-0.66-26.551-0.66-26.551s-4.898-14.586-5.039-20.559
		c-0.519-22.234,0.156-47.25-0.269-69.539c-0.121-6.32,3.105-13.582,3.105-13.582l-1.383-188.844c0,0-4.265-12.75-4.215-19.125
		c0.204-23.457,0.481-67.199,1.043-71.707c0.563-4.507,6.219-12.156,6.219-12.156c-1.297-46.5,60.043-48.39,86.774-49.035
		L120.75,0.75L120.75,0.75z"/>
	<g opacity="0.39" enable-background="new    ">
		<g>
			<g>
				<defs>
					<rect id="SVGID_1_" x="0" y="0" width="240" height="494"/>
				</defs>
				<clipPath id="SVGID_2_">
					<use xlink:href="#SVGID_1_"  overflow="visible"/>
				</clipPath>
				<path clip-path="url(#SVGID_2_)" fill="#111019" d="M222.27,61.5c-0.27-6.359-5.415-10.801-6.27-11.672
					c1.004-30.133-27.668-39.996-27.668-39.996s22.352,15.668,19.059,73.066c-0.75,13.641-10.981,42.457-17.403,54.457
					c3.969,39.504,1.668,277.543,2.535,314.954c0.09,3.75-1.019,10.336-6.539,10.336c-0.531,0-134.175-1.5-139.664-0.098
					c-2.144,0.539-14.199,18.594-15.449,20.875c-0.262,0.476-5.73-0.586-3.609,2.023c0.922,2.91,5.777,8.203,19.672,7.672
					c1.375-0.051,2.132-2.543,3.652-2.422c1.32,0.098,2.664,1.051,3.453,1.102c38.938,2.312,129.277,0.18,131.25,0.152
					c1.129-0.465,2.297-0.836,3.484-1.121c1.118,0.57,3.18,2.133,4.098,2.168c15,0.586,21.313-4.777,21.68-16.266
					c0.258-8.16,0.445-22.066,0.668-30.929c0,0,4.726-11.965,5.035-15.406c1.062-11.79,0.75-74.071,0.434-78.219
					c-0.411-4.199-1.59-8.293-3.481-12.067l1.898-62.023l-0.179-124.387l4.109-14.711C223.035,138.988,224.398,115.051,222.27,61.5z
					"/>
			</g>
		</g>
	</g>
	<g opacity="0.33" enable-background="new    ">
		<g>
			<g>
				<defs>
					<rect id="SVGID_3_" x="0" y="0" width="240" height="494"/>
				</defs>
				<clipPath id="SVGID_4_">
					<use xlink:href="#SVGID_3_"  overflow="visible"/>
				</clipPath>
				<path clip-path="url(#SVGID_4_)" fill="#FFFFEE" d="M181.156,145.59h3.75c0.934,0,1.742,0.648,1.942,1.558l0.316-3.32
					c-0.473-0.914-1.105-1.637-1.801-1.637h-4.687c-0.789,0-1.5,0.922-1.988,2.012c0.187,0.75,0.406,1.688,0.585,2.676
					C179.566,146.098,180.32,145.582,181.156,145.59z"/>
			</g>
		</g>
	</g>
	<g opacity="0.5" enable-background="new    ">
		<g>
			<g>
				<defs>
					<rect id="SVGID_5_" x="0" y="0" width="240" height="494"/>
				</defs>
				<clipPath id="SVGID_6_">
					<use xlink:href="#SVGID_5_"  overflow="visible"/>
				</clipPath>
				<path clip-path="url(#SVGID_6_)" fill="#FFFFFF" d="M179.168,449.543V147.578c0-0.238,0.043-0.476,0.129-0.699
					c-0.184-0.988-0.399-1.934-0.586-2.676c-0.406,0.863-0.641,1.793-0.699,2.746v303.215c0.062,1.047,0.343,2.066,0.816,3
					c0.137-1.078,0.285-2.144,0.422-3.074C179.195,449.914,179.168,449.727,179.168,449.543z"/>
			</g>
		</g>
	</g>
	<g opacity="0.4" enable-background="new    ">
		<g>
			<g>
				<defs>
					<rect id="SVGID_7_" x="0" y="0" width="240" height="494"/>
				</defs>
				<clipPath id="SVGID_8_">
					<use xlink:href="#SVGID_7_"  overflow="visible"/>
				</clipPath>
				<path clip-path="url(#SVGID_8_)" fill="#3C3C3B" d="M184.926,451.5h-3.75c-0.887-0.004-1.664-0.594-1.903-1.449
					c-0.136,0.933-0.285,1.996-0.421,3.078c0.48,0.965,1.14,1.754,1.867,1.754h4.687c0.75,0,1.41-0.809,1.891-1.809
					c-0.141-1.051-0.301-2.078-0.449-3C186.598,450.926,185.812,451.508,184.926,451.5z"/>
			</g>
		</g>
	</g>
	<g opacity="0.4" enable-background="new    ">
		<g>
			<g>
				<defs>
					<rect id="SVGID_9_" x="0" y="0" width="240" height="494"/>
				</defs>
				<clipPath id="SVGID_10_">
					<use xlink:href="#SVGID_9_"  overflow="visible"/>
				</clipPath>
				<path clip-path="url(#SVGID_10_)" fill="#1D1D1B" d="M188.07,146.949c-0.074-1.094-0.375-2.156-0.886-3.121l-0.313,3.32
					c0.027,0.141,0.043,0.286,0.043,0.43v301.965c-0.004,0.187-0.031,0.375-0.09,0.555c0.153,0.929,0.309,1.957,0.449,3
					c0.465-0.914,0.735-1.918,0.797-2.942V146.949z"/>
			</g>
		</g>
	</g>
	<g opacity="0.31" enable-background="new    ">
		<g>
			<g>
				<defs>
					<rect id="SVGID_11_" x="0" y="0" width="240" height="494"/>
				</defs>
				<clipPath id="SVGID_12_">
					<use xlink:href="#SVGID_11_"  overflow="visible"/>
				</clipPath>
				<path clip-path="url(#SVGID_12_)" fill="#FFFFF8" d="M55.125,145.59h3.75c0.934,0,1.742,0.648,1.941,1.558l0.317-3.32
					c-0.473-0.914-1.102-1.637-1.801-1.637h-4.664c-0.75,0-1.5,0.922-1.988,2.012c0.187,0.75,0.406,1.688,0.593,2.676
					C53.559,146.105,54.297,145.59,55.125,145.59z"/>
			</g>
		</g>
	</g>
	<g opacity="0.51" enable-background="new    ">
		<g>
			<g>
				<defs>
					<rect id="SVGID_13_" x="0" y="0" width="240" height="494"/>
				</defs>
				<clipPath id="SVGID_14_">
					<use xlink:href="#SVGID_13_"  overflow="visible"/>
				</clipPath>
				<path clip-path="url(#SVGID_14_)" fill="#FFFFFF" d="M53.137,449.543V147.578c0.004-0.238,0.047-0.476,0.136-0.699
					c-0.187-0.988-0.406-1.934-0.593-2.676c-0.407,0.863-0.641,1.793-0.696,2.746v303.215c0.067,1.047,0.344,2.066,0.817,3
					c0.133-1.078,0.285-2.144,0.418-3.074C53.164,449.914,53.137,449.727,53.137,449.543z"/>
			</g>
		</g>
	</g>
	<g opacity="0.4" enable-background="new    ">
		<g>
			<g>
				<defs>
					<rect id="SVGID_15_" x="0" y="0" width="240" height="494"/>
				</defs>
				<clipPath id="SVGID_16_">
					<use xlink:href="#SVGID_15_"  overflow="visible"/>
				</clipPath>
				<path clip-path="url(#SVGID_16_)" fill="#3C3C3B" d="M58.898,451.5h-3.75c-0.875-0.004-1.648-0.578-1.898-1.418
					c-0.137,0.93-0.285,1.996-0.422,3.074c0.481,0.969,1.141,1.758,1.871,1.758h4.688c0.75,0,1.41-0.812,1.886-1.809
					c-0.14-1.05-0.296-2.078-0.449-3C60.566,450.945,59.777,451.516,58.898,451.5z"/>
			</g>
		</g>
	</g>
	<g opacity="0.4" enable-background="new    ">
		<g>
			<g>
				<defs>
					<rect id="SVGID_17_" x="0" y="0" width="240" height="494"/>
				</defs>
				<clipPath id="SVGID_18_">
					<use xlink:href="#SVGID_17_"  overflow="visible"/>
				</clipPath>
				<path clip-path="url(#SVGID_18_)" fill="#1D1D1B" d="M62.039,146.949c-0.074-1.094-0.375-2.156-0.883-3.121l-0.316,3.32
					c0.031,0.141,0.047,0.286,0.047,0.43v301.965c-0.004,0.187-0.035,0.375-0.09,0.555c0.148,0.929,0.305,1.957,0.449,3
					c0.461-0.914,0.734-1.918,0.793-2.942V146.949z"/>
			</g>
		</g>
	</g>
	<g opacity="0.24" enable-background="new    ">
		<g>
			<g>
				<defs>
					<rect id="SVGID_19_" x="0" y="0" width="240" height="494"/>
				</defs>
				<clipPath id="SVGID_20_">
					<use xlink:href="#SVGID_19_"  overflow="visible"/>
				</clipPath>
				<path clip-path="url(#SVGID_20_)" d="M130.551,429.855V164.031c0-1.097,0.89-1.984,1.988-1.984h3.75l1.465-1.125
					c-0.32-0.133-0.66-0.199-1.008-0.195h-4.687c-1.481-0.004-2.684,1.195-2.684,2.675V430.5c-0.008,0.902,0.441,1.75,1.191,2.25
					l1.711-0.898C131.277,431.723,130.531,430.863,130.551,429.855z"/>
			</g>
		</g>
	</g>
	<g opacity="0.36" enable-background="new    ">
		<g>
			<g>
				<defs>
					<rect id="SVGID_21_" x="0" y="0" width="240" height="494"/>
				</defs>
				<clipPath id="SVGID_22_">
					<use xlink:href="#SVGID_21_"  overflow="visible"/>
				</clipPath>
				<path clip-path="url(#SVGID_22_)" fill="#FFFFF8" d="M137.773,160.922l-1.461,1.125c1.098,0,1.989,0.887,1.989,1.984v265.824
					c0,1.098-0.891,1.989-1.989,1.989h-3.75c-0.078,0.008-0.16,0.008-0.238,0l-1.711,0.898c0.442,0.297,0.965,0.453,1.5,0.449h4.688
					c1.48,0,2.683-1.199,2.683-2.683V163.402C139.48,162.301,138.801,161.316,137.773,160.922z"/>
			</g>
		</g>
	</g>
	<g opacity="0.24" enable-background="new    ">
		<g>
			<g>
				<defs>
					<rect id="SVGID_23_" x="0" y="0" width="240" height="494"/>
				</defs>
				<clipPath id="SVGID_24_">
					<use xlink:href="#SVGID_23_"  overflow="visible"/>
				</clipPath>
				<path clip-path="url(#SVGID_24_)" d="M154.914,429.855V164.031c0-1.093,0.883-1.98,1.977-1.984h3.75l1.5-1.125
					c-0.317-0.133-0.661-0.199-1.004-0.195h-4.696c-1.48,0-2.679,1.195-2.683,2.675V430.5c-0.008,0.906,0.445,1.75,1.199,2.25
					l1.711-0.898C155.656,431.738,154.895,430.875,154.914,429.855z"/>
			</g>
		</g>
	</g>
	<g opacity="0.36" enable-background="new    ">
		<g>
			<g>
				<defs>
					<rect id="SVGID_25_" x="0" y="0" width="240" height="494"/>
				</defs>
				<clipPath id="SVGID_26_">
					<use xlink:href="#SVGID_25_"  overflow="visible"/>
				</clipPath>
				<path clip-path="url(#SVGID_26_)" fill="#FFFFF8" d="M162.137,160.922l-1.5,1.125c1.097,0,1.984,0.887,1.984,1.984v265.824
					c0,1.098-0.887,1.989-1.984,1.989h-3.75c-0.078,0.004-0.157,0.004-0.235,0l-1.703,0.906c0.446,0.297,0.969,0.453,1.5,0.449
					h4.696c1.484,0,2.683-1.203,2.683-2.683V163.402C163.828,162.305,163.156,161.324,162.137,160.922z"/>
			</g>
		</g>
	</g>
	<g opacity="0.24" enable-background="new    ">
		<g>
			<g>
				<defs>
					<rect id="SVGID_27_" x="0" y="0" width="240" height="494"/>
				</defs>
				<clipPath id="SVGID_28_">
					<use xlink:href="#SVGID_27_"  overflow="visible"/>
				</clipPath>
				<path clip-path="url(#SVGID_28_)" d="M101.836,429.855V164.031c0-1.097,0.891-1.984,1.988-1.984h3.75l1.453-1.125
					c-0.316-0.133-0.656-0.199-0.996-0.195h-4.695c-1.484-0.004-2.688,1.195-2.688,2.675V430.5c-0.003,0.906,0.446,1.75,1.204,2.25
					l1.707-0.898C102.559,431.723,101.816,430.863,101.836,429.855z"/>
			</g>
		</g>
	</g>
	<g opacity="0.36" enable-background="new    ">
		<g>
			<g>
				<defs>
					<rect id="SVGID_29_" x="0" y="0" width="240" height="494"/>
				</defs>
				<clipPath id="SVGID_30_">
					<use xlink:href="#SVGID_29_"  overflow="visible"/>
				</clipPath>
				<path clip-path="url(#SVGID_30_)" fill="#FFFFF8" d="M109.059,160.922l-1.457,1.125c1.093,0.004,1.98,0.891,1.98,1.984v265.824
					c0,1.094-0.887,1.985-1.98,1.989h-3.75c-0.079,0.008-0.153,0.008-0.231,0l-1.711,0.898c0.445,0.297,0.965,0.453,1.5,0.449h4.695
					c1.481,0,2.68-1.203,2.676-2.683V163.402C110.777,162.297,110.09,161.312,109.059,160.922z"/>
			</g>
		</g>
	</g>
	<g opacity="0.24" enable-background="new    ">
		<g>
			<g>
				<defs>
					<rect id="SVGID_31_" x="0" y="0" width="240" height="494"/>
				</defs>
				<clipPath id="SVGID_32_">
					<use xlink:href="#SVGID_31_"  overflow="visible"/>
				</clipPath>
				<path clip-path="url(#SVGID_32_)" d="M77.371,429.855V164.031c0-1.097,0.891-1.984,1.988-1.984h3.75l1.453-1.125
					c-0.316-0.133-0.656-0.199-0.996-0.195h-4.668c-1.48-0.004-2.683,1.195-2.683,2.675V430.5c-0.004,0.906,0.445,1.75,1.199,2.25
					l1.711-0.898C78.113,431.738,77.352,430.875,77.371,429.855z"/>
			</g>
		</g>
	</g>
	<g opacity="0.36" enable-background="new    ">
		<g>
			<g>
				<defs>
					<rect id="SVGID_33_" x="0" y="0" width="240" height="494"/>
				</defs>
				<clipPath id="SVGID_34_">
					<use xlink:href="#SVGID_33_"  overflow="visible"/>
				</clipPath>
				<path clip-path="url(#SVGID_34_)" fill="#FFFFF8" d="M84.594,160.922l-1.457,1.125c1.093,0.004,1.98,0.891,1.98,1.984v265.824
					c0,1.094-0.887,1.985-1.98,1.989h-3.75c-0.078,0.008-0.157,0.008-0.231,0l-1.711,0.898c0.446,0.297,0.965,0.453,1.5,0.449h4.696
					c1.457-0.035,2.617-1.234,2.609-2.691V163.402C86.254,162.316,85.598,161.332,84.594,160.922z"/>
			</g>
		</g>
	</g>
	<g opacity="0.22" enable-background="new    ">
		<g>
			<g>
				<defs>
					<rect id="SVGID_35_" x="0" y="0" width="240" height="494"/>
				</defs>
				<clipPath id="SVGID_36_">
					<use xlink:href="#SVGID_35_"  overflow="visible"/>
				</clipPath>
				<path clip-path="url(#SVGID_36_)" fill="#FFFFFF" d="M198.414,70.148c-0.285-7.441-1.082-24-9.414-35.632
					c0,0,3.262,13.41,0,24.089c0,0,0.398-16.148-3.84-20.121c-4.238-3.976-17.871-2.91-20.387,0.27
					c-2.511,3.18-12.043-8.34-16.941-12.445c-4.898-4.102-26.863,1.988-34.148,6.617c-7.282,4.625-8.731-4.762-7.012-6.617
					c1.719-1.852-12.84,1.589-13.363,7.277c-0.528,5.684-30.481-0.438-24.161-6.789c6.325-6.352-23.668-4.063-30.75,6.351
					c-7.078,10.418-3.523-6.531,1.411-8.824c4.937-2.297,45.488-19.133,97.261-13.742c51.774,5.395,54.317,5.094,54.317,5.094
					c-6.559-3.426-13.586-5.871-20.852-7.262c-11.582-2.09-55.941-3.855-81.234-2.617c-25.289,1.238-33.141,2.371-42.367,7.41
					c-9.223,5.039-15.547,9-17.93,16.082c-2.387,7.078-4.434,13.543-5.418,22.789l-0.906-0.539
					c-3.504,3.668-5.375,8.598-5.184,13.664c0.367,8.492-1.109,37.344-0.848,37.141c0.266-0.203,0.579,36.347,0.579,36.347
					l3.16,12.59L21,156.676l0.801,185.16l-1.039,3.75l-1.5,6.578c0,0-1,39.109,0.508,78.18l2.593,9.539l2.043,5.398l0.75,32.102
					c0,0,0.449,2.48,1.606,2.48c1.152,0,3.793-3.832,8.031-8.465c4.238-4.636,11.566-14.648,12.141-14.648
					c0.578,0,0.832-1.973,0.832-3.562c0-1.59-0.434-277.094,1.246-308.485c0.261-4.941,8.941-5.609,13.027-6
					c4.09-0.387,40.195-2.66,58.098-2.66c17.902,0,63.312,2.934,66.687,3.328c3.375,0.399,4.156-5.445,3.629-8.625
					C189.93,127.566,198.414,70.148,198.414,70.148z"/>
			</g>
		</g>
	</g>
	<g opacity="0.53" enable-background="new    ">
		<g>
			<g>
				<defs>
					<rect id="SVGID_37_" x="0" y="0" width="240" height="494"/>
				</defs>
				<clipPath id="SVGID_38_">
					<use xlink:href="#SVGID_37_"  overflow="visible"/>
				</clipPath>
				<path clip-path="url(#SVGID_38_)" fill="#FFFFFF" d="M46.934,28.297c0,0-16.934,19.187-14.25,50.687
					c2.437,28.274,15.668,59.309,15.668,59.309s30-11.789,71.484-9.414c41.48,2.379,70.152,8.476,70.152,8.476l-5.031,1.297
					c-21.582-2.918-43.344-4.324-65.121-4.207c-35.25,0.262-65.168,3.301-71.484,6.082c-1.5,0.668-0.907,3.75-0.973,5.625
					c-0.07,1.875-0.234,71.739-0.445,74.551c-0.207,2.813-0.68,7.445-0.68,7.445l-0.504-67.226c0,0-1.574-17.844-2.766-22.231
					c-1.195-4.39-8.461-21-14.011-45.812C28.539,58.379,28.5,46.695,46.934,28.297z"/>
			</g>
		</g>
	</g>
	<g opacity="0.53" enable-background="new    ">
		<g>
			<g>
				<defs>
					<rect id="SVGID_39_" x="0" y="0" width="240" height="494"/>
				</defs>
				<clipPath id="SVGID_40_">
					<use xlink:href="#SVGID_39_"  overflow="visible"/>
				</clipPath>
				<path clip-path="url(#SVGID_40_)" fill="#FFFFFF" d="M24.75,49.5l2.512,3.375c0,0-3.114,24.156-2.25,34.809l2.648,13.371
					l0.219,2.867l-0.219,10.781h-1.785c0,0-0.797-10.543-0.531-12.59c0.261-2.047-1.5-10.851-1.922-13.172
					c-0.418-2.316-0.442-17.007,2.894-35.804L24.75,49.5z"/>
			</g>
		</g>
	</g>
	<g opacity="0.53" enable-background="new    ">
		<g>
			<g>
				<defs>
					<rect id="SVGID_41_" x="0" y="0" width="240" height="494"/>
				</defs>
				<clipPath id="SVGID_42_">
					<use xlink:href="#SVGID_41_"  overflow="visible"/>
				</clipPath>
				<path clip-path="url(#SVGID_42_)" fill="#FFFFFF" d="M21.922,52.363c-2.094,1.957-3.449,4.578-3.84,7.418
					c-0.598,4.688-1.828,73.582-0.922,77.926s3.227,12,3.227,12s-1.637-8.473-1.907-12.973c-0.269-4.5,0.571-50.613,1.329-76.32
					C19.898,57.414,21.922,52.363,21.922,52.363z"/>
			</g>
		</g>
	</g>
	<g opacity="0.5" enable-background="new    ">
		<g>
			<g>
				<defs>
					<rect id="SVGID_43_" x="0" y="0" width="240" height="494"/>
				</defs>
				<clipPath id="SVGID_44_">
					<use xlink:href="#SVGID_43_"  overflow="visible"/>
				</clipPath>
				<path clip-path="url(#SVGID_44_)" fill="#FFFFF5" d="M22.164,342c0,0-3.219,8.602-3.176,17.477c0.047,8.871,0,51.75,0,51.75
					l0.895,19.648l4.035,11.316c0,0-2.25-7.804-2.469-12.238c-0.215-4.433-1.5-18.512-0.652-70.898v-0.114
					C20.871,356.199,22.164,342,22.164,342z"/>
			</g>
		</g>
	</g>
	<g opacity="0.53" enable-background="new    ">
		<g>
			<g>
				<defs>
					<rect id="SVGID_45_" x="0" y="0" width="240" height="494"/>
				</defs>
				<clipPath id="SVGID_46_">
					<use xlink:href="#SVGID_45_"  overflow="visible"/>
				</clipPath>
				<polygon clip-path="url(#SVGID_46_)" fill="#FFFFF5" points="24.996,135.234 24.887,417.586 23.16,397.297 23.16,140.797 				
					"/>
			</g>
		</g>
	</g>
	<path fill="none" stroke="#000000" stroke-width="1.5" stroke-miterlimit="10" d="M217.441,339.855
		c1.723,4.18,2.84,8.583,3.321,13.079c0.668,7.019,1.004,73.05-0.953,80.043c-1.317,4.597-2.875,9.125-4.672,13.558"/>
	<path fill="none" stroke="#000000" stroke-width="1.5" stroke-miterlimit="10" d="M218.828,155.566c0,0,1.649-6.406,3.516-13.418
		c1.867-7.011,0.75-73.035,0-80.046c-0.75-7.016-6.434-12.977-6.434-12.977l1.754,14.25c0,0,0.609,17.895,0.414,21.801"/>
	<path fill="none" stroke="#000000" stroke-width="1.5" stroke-miterlimit="10" d="M120.75,0.75h10.094
		c26.73,0.645,86.25,2.535,84.945,49.086l1.891,13.5c2.859,135.543,0.324,273-3.133,408.512c0.59,15.121-3.75,22.027-22.035,21.058
		l-3.453-2.16l-3.457,0.918c-22.036,0.922-42.875,0.922-64.852,1.242c-22.035-0.32-44.664-0.32-66.691-1.297l-3.457-0.914
		l-3.457,2.25c-18.254,0.914-22.629-6-22.036-21.058c-3.449-135.543-5.937-273-3.074-408.512l1.891-13.551
		C22.613,3.285,83.953,1.395,110.684,0.75H120.75z"/>
	<path fill="none" stroke="#000000" stroke-width="1.5" stroke-miterlimit="10" d="M120.75,8.414l10.094,0.063
		c26.73,0.644,86.25,1.234,84.945,41.359l1.891,13.5c2.859,135.543,0.324,273-3.133,408.512c0.59,15.121-3.75,16.738-22.035,15.816
		c-6,0.113-141,0.164-145.367-0.051c-18.254,0.973-22.629-0.699-22.036-15.75c-3.449-135.539-5.937-273-3.074-408.511l1.891-13.551
		c-1.297-42,60.043-40.719,86.773-41.371L120.75,8.414z"/>
	<path fill="none" stroke="#000000" stroke-width="1.5" stroke-miterlimit="10" d="M22.574,339.855
		c-1.719,4.18-2.836,8.586-3.312,13.079c-0.668,7.019-1.008,73.066,0.988,80.043c1.316,4.597,2.875,9.125,4.672,13.558"/>
	<path fill="none" stroke="#000000" stroke-width="1.5" stroke-miterlimit="10" d="M21.195,155.566c0,0-1.648-6.406-3.519-13.418
		c-1.867-7.011-0.75-73.035,0-80.046c0.75-7.016,6.437-12.977,6.437-12.977l-1.754,14.25c0,0-0.75,17.543-0.75,21.953"/>
	<path fill="#1C1D1E" d="M197.578,227.203c-0.758,0.086-1.426-0.5-1.437-1.265l0.597-61.5c0.055-2.376,0.285-4.747,0.692-7.086
		c2.047-9.258,12.246-31.946,12.246-31.946l1.008,0.188l-0.262,98.207c-0.004,1.008-0.774,1.847-1.781,1.941L197.578,227.203z"/>
	<path fill="#606060" d="M203.738,139.359c-2.484,6.68-5.332,13.582-6.308,18c-0.407,2.34-0.637,4.711-0.692,7.086l-0.597,61.5
		c0.011,0.766,0.679,1.352,1.437,1.266l6-0.75C204.277,192.797,204,150.961,203.738,139.359z"/>
	<path fill="none" stroke="#000000" stroke-width="0.75" stroke-miterlimit="10" d="M197.578,227.203
		c-0.758,0.086-1.426-0.5-1.437-1.265l0.597-61.5c0.055-2.376,0.285-4.747,0.692-7.086c2.047-9.258,12.246-31.946,12.246-31.946
		l1.008,0.188l-0.262,98.207c-0.004,1.008-0.774,1.847-1.781,1.941L197.578,227.203z"/>
	<path fill="#1D1D1B" d="M120.105,8.414l10.102,0.063c10.582,0.269,26.297,0.539,41.414,3.238l9.399,9.797
		c-16.762-2.696-43.364-3.715-60.915-3.676"/>
	<path fill="none" stroke="#000000" stroke-width="0.75" stroke-miterlimit="10" d="M120.105,8.414l10.102,0.063
		c10.582,0.269,26.297,0.539,41.414,3.238l9.399,9.797c-16.762-2.696-43.364-3.715-60.915-3.676"/>
	<path fill="#91CFE2" d="M172.035,10.582c-1.055,0-1.781,1.055-1.402,2.039l1.402,3.668c0.11,0.313,0.32,0.578,0.602,0.75
		l7.777,4.914c0.164,0.106,0.352,0.18,0.547,0.211c9.703,1.648,17.031,4.754,22.402,9.477c4.883,4.312,8.285,10.015,10.703,17.941
		c0.192,0.629,0.774,1.059,1.43,1.059c0.078,0.007,0.152,0.007,0.227,0c0.738-0.114,1.285-0.754,1.273-1.5
		c-0.043-11.422-4.738-20.582-13.949-27.227c-7.379-5.332-17.445-9-30.75-11.293c-0.082-0.008-0.164-0.008-0.246,0"/>
	<path d="M172.035,10.582c-1.055,0-1.781,1.055-1.402,2.039l1.402,3.668c0.11,0.313,0.32,0.578,0.602,0.75l7.777,4.914
		c0.164,0.106,0.352,0.18,0.547,0.211c9.703,1.648,17.031,4.754,22.402,9.477c4.883,4.312,8.285,10.015,10.703,17.941
		c0.192,0.629,0.774,1.059,1.43,1.059c0.078,0.007,0.152,0.007,0.227,0c0.738-0.114,1.285-0.754,1.273-1.5
		c-0.043-11.422-4.738-20.582-13.949-27.227c-7.379-5.332-17.445-9-30.75-11.293c-0.082-0.008-0.164-0.008-0.246,0 M172.035,12.082
		c22.5,3.832,43.356,13.23,43.461,37.043c-4.641-15.227-13.656-24.945-34.281-28.453l-7.777-4.922L172.035,12.082z"/>
	
		<line fill="none" stroke="#000000" stroke-width="0.75" stroke-miterlimit="10" x1="214.695" y1="115.148" x2="214.695" y2="465.316"/>
	<path fill="none" stroke="#000000" stroke-width="0.75" stroke-miterlimit="10" d="M214.695,114.676h-2.761
		c0,0-17.922,38.363-17.922,48.75l-0.106,66.246L216,226.828l1.012-9l1.5-0.207l0.144-80.715
		C217.094,134.129,216.059,127.613,214.695,114.676z"/>
	<path fill="#0B0B0B" d="M213.516,114.676c0,0-5.954,14.738-8.383,21.293l9.562,0.058v-21.351
		C214.695,114.676,213.516,114.676,213.516,114.676z"/>
	<path fill="none" stroke="#000000" stroke-width="0.75" stroke-miterlimit="10" d="M207.391,82.898c0,0,5.382,11.618,4.543,31.778"
		/>
	<path fill="none" stroke="#000000" stroke-width="0.75" stroke-miterlimit="10" d="M192.75,138.293c0,0,1.41,6.953,1.305,23.918"/>
	<path fill="none" stroke="#000000" stroke-width="0.75" stroke-miterlimit="10" d="M211.809,103.891l2.886-15.157
		c0.082-12.066-0.648-24.121-2.183-36.086l2.422-3.523"/>
	<path fill="#525452" d="M120.105,53.445c0,0,34.875-0.531,55.657,6.481c20.785,7.012,27.75,12.703,31.8,19.988
		c4.051,7.281,4.461,22.836,4.461,22.836s-1.582-9.922-2.316-12.637s-1.629-6.269-3.359-8.41c-1.735-2.137-10.778-13.781-33-19.422
		c-22.223-5.64-37.11-5.25-53.25-5.785"/>
	<path fill="none" stroke="#000000" stroke-width="0.75" stroke-miterlimit="10" d="M120.105,53.445c0,0,34.875-0.531,55.657,6.481
		c20.785,7.012,27.75,12.703,31.8,19.988c4.051,7.281,4.461,22.836,4.461,22.836s-1.582-9.922-2.316-12.637s-1.629-6.269-3.359-8.41
		c-1.735-2.137-10.778-13.781-33-19.422c-22.223-5.64-37.11-5.25-53.25-5.785"/>
	<path fill="none" stroke="#000000" stroke-width="0.75" stroke-miterlimit="10" d="M207.406,487.559l0.426-2.25
		c-2.828-5.149-5.969-10.125-9.398-14.903c-3.075-4.5-4.797-6.375-10.633-6.269h-67.696"/>
	<path fill="#1C1D1E" d="M120.105,483.352h70.934c1.063,0.05,2.125-0.118,3.121-0.493c-0.351-3.925-2.535-7.898-6.84-12.48
		c-0.269-0.27-1.156-0.918-3.414-0.918c-20.828-0.082-42.269-0.156-63.801-0.18C120.105,469.281,120.105,483.352,120.105,483.352z"
		/>
	<path fill="#606060" d="M191.918,476.316c-1.41-2.07-2.949-4.054-4.598-5.937c-0.269-0.27-1.156-0.918-3.414-0.918
		c-20.828-0.082-42.269-0.156-63.801-0.18v7.035C120.105,476.316,176.168,477.254,191.918,476.316z"/>
	<path fill="none" stroke="#000000" stroke-width="0.75" stroke-miterlimit="10" d="M120.105,483.352h70.934
		c1.063,0.05,2.125-0.118,3.121-0.493c-0.351-3.925-2.535-7.898-6.84-12.48c-0.269-0.27-1.156-0.918-3.414-0.918
		c-20.828-0.082-42.269-0.156-63.801-0.18"/>
	<path fill="none" stroke="#000000" stroke-width="0.75" stroke-miterlimit="10" d="M193.906,229.703V450
		c0,0,0.367,11.25,1.328,16.5"/>
	
		<line fill="none" stroke="#000000" stroke-width="0.75" stroke-miterlimit="10" x1="216.023" y1="226.828" x2="218.836" y2="226.566"/>
	<g opacity="0.47" enable-background="new    ">
		<g>
			<g>
				<defs>
					<rect id="SVGID_47_" x="0" y="0" width="240" height="494"/>
				</defs>
				<clipPath id="SVGID_48_">
					<use xlink:href="#SVGID_47_"  overflow="visible"/>
				</clipPath>
				<path clip-path="url(#SVGID_48_)" fill="#1D1D1B" d="M213.855,210.996c0,5.684-0.609,10.293-1.359,10.293
					s-1.355-4.609-1.355-10.293c0-5.68,0.605-10.289,1.355-10.289S213.855,205.316,213.855,210.996z"/>
			</g>
		</g>
	</g>
	<path fill="#3C3C3B" d="M212.949,201.301c-0.715,0.156-0.797,2.25-0.355,2.953c0.445,0.707,1.5,0.578,2.117,1.898
		c0.613,1.321,0.539,8.317,0.098,9.286c-0.446,0.968-2.125,2.101-2.25,2.714c-0.11,0.825-0.079,1.66,0.089,2.477
		c0.172,0.523,4.582-1.77,4.934-3.535c0.352-1.762,0.621-12.043-0.172-13.364C216.613,202.41,213.75,201.129,212.949,201.301z"/>
	<path fill="none" stroke="#000000" stroke-width="0.75" stroke-miterlimit="10" d="M212.949,201.301
		c-0.715,0.156-0.797,2.25-0.355,2.953c0.445,0.707,1.5,0.578,2.117,1.898c0.613,1.321,0.539,8.317,0.098,9.286
		c-0.446,0.968-2.125,2.101-2.25,2.714c-0.11,0.825-0.079,1.66,0.089,2.477c0.172,0.523,4.582-1.77,4.934-3.535
		c0.352-1.762,0.621-12.043-0.172-13.364C216.613,202.41,213.75,201.129,212.949,201.301z"/>
	<path fill="#1C1D1E" d="M209.355,230.477l-5.421,0.671v233.805l5.773,8.703c0.293,0.434,0.973,0.231,0.977-0.293V231.645
		C210.684,230.934,210.059,230.383,209.355,230.477z"/>
	<path fill="#606060" d="M197.25,231.984c-0.617,0.078-1.082,0.606-1.078,1.227v217.777c0.117,2.032,0.887,3.973,2.187,5.535
		l5.602,8.43V231.148L197.25,231.984z"/>
	<g opacity="0.47" enable-background="new    ">
		<g>
			<g>
				<defs>
					<rect id="SVGID_49_" x="0" y="0" width="240" height="494"/>
				</defs>
				<clipPath id="SVGID_50_">
					<use xlink:href="#SVGID_49_"  overflow="visible"/>
				</clipPath>
				<ellipse clip-path="url(#SVGID_50_)" fill="#1D1D1B" cx="212.639" cy="241.875" rx="1.357" ry="10.289"/>
			</g>
		</g>
	</g>
	<path fill="#3C3C3B" d="M213.238,232.5c-0.687,0.148-0.75,2.176-0.336,2.859c0.414,0.68,1.45,0.555,2.047,1.836
		c0.602,1.282,0.528,8.055,0.098,9c-0.426,0.946-2.063,2.032-2.145,2.633c-0.105,0.797-0.078,1.606,0.082,2.391
		c0.172,0.511,4.442-1.707,4.786-3.418c0.343-1.711,0.601-11.664-0.172-12.946C216.824,233.574,214.012,232.32,213.238,232.5z"/>
	<path fill="none" stroke="#000000" stroke-width="0.75" stroke-miterlimit="10" d="M213.238,232.5
		c-0.687,0.148-0.75,2.176-0.336,2.859c0.414,0.68,1.45,0.555,2.047,1.836c0.602,1.282,0.528,8.055,0.098,9
		c-0.426,0.946-2.063,2.032-2.145,2.633c-0.105,0.797-0.078,1.606,0.082,2.391c0.172,0.511,4.442-1.707,4.786-3.418
		c0.343-1.711,0.601-11.664-0.172-12.946C216.824,233.574,214.012,232.32,213.238,232.5z"/>
	<path fill="#080909" d="M209.355,230.477l-12.136,1.5c-0.617,0.078-1.078,0.605-1.078,1.226v217.785
		c0.121,2.032,0.886,3.973,2.187,5.535l9.535,14.356l-8.25-16.305c-1.004-1.636-1.566-3.504-1.636-5.422v-213.75
		c-0.039-0.523,0.277-1.007,0.773-1.175l9.074-1.5c0.535-0.09,1,0.449,1,1.144v237.234c0,0.375-0.277,0.586-0.512,0.497l1.364,2.054
		c0.293,0.434,0.972,0.231,0.976-0.293V231.645C210.652,230.949,210.047,230.402,209.355,230.477z"/>
	<rect x="196.141" y="337.117" fill="#080909" width="14.543" height="5.469"/>
	<path fill="none" stroke="#000000" stroke-width="0.75" stroke-miterlimit="10" d="M210.684,473.363
		c-0.004,0.524-0.684,0.727-0.977,0.293l-11.379-17.133c-1.301-1.562-2.066-3.503-2.187-5.535V233.25
		c0-0.625,0.461-1.152,1.078-1.23l12.136-1.5c0.704-0.09,1.329,0.46,1.329,1.171V473.363z"/>
	
		<line fill="none" stroke="#000000" stroke-width="0.75" stroke-miterlimit="10" x1="193.906" y1="339.855" x2="216.758" y2="339.855"/>
	<path fill="#2D3033" d="M42.105,227.203c0.758,0.086,1.426-0.5,1.442-1.265l-0.602-61.5c-0.05-2.376-0.281-4.747-0.691-7.086
		C40.207,148.117,30,125.43,30,125.43l-1.004,0.187l0.254,98.207c0.012,1.008,0.789,1.84,1.793,1.926L42.105,227.203z"/>
	<path fill="#6B7077" d="M36.164,138.691c2.484,6.688,5.117,14.25,6.09,18.68c0.41,2.344,0.641,4.711,0.691,7.09l0.602,61.5
		c-0.016,0.762-0.684,1.351-1.442,1.266l-6-0.75C35.406,192.797,35.918,150.301,36.164,138.691z"/>
	<path fill="#1D1D1B" d="M120.105,17.82c-17.543-0.039-44.843,1.02-61.605,3.703l9.945-10.273
		c15.121-2.699,30.981-2.496,41.567-2.766l10.093-0.054"/>
	<path fill="none" stroke="#000000" stroke-width="0.75" stroke-miterlimit="10" d="M120.105,17.82
		c-17.543-0.039-44.843,1.02-61.605,3.703l9.945-10.273c15.121-2.699,30.981-2.496,41.567-2.766l10.093-0.054"/>
	<path fill="none" stroke="#000000" stroke-width="0.75" stroke-miterlimit="10" d="M42.105,227.203
		c0.758,0.086,1.426-0.5,1.442-1.265l-0.602-61.5c-0.05-2.376-0.281-4.747-0.691-7.086C40.207,148.117,30,125.43,30,125.43
		l-1.004,0.187l0.254,98.207c0.012,1.008,0.789,1.84,1.793,1.926L42.105,227.203z"/>
	<path fill="#F8FDFF" d="M67.648,10.582c-0.082-0.008-0.164-0.008-0.246,0c-13.32,2.25-23.386,6-30.75,11.297
		c-9.226,6.668-13.918,15.824-13.972,27.246c-0.008,0.746,0.535,1.387,1.273,1.5c0.078,0.008,0.156,0.008,0.235,0
		c0.656,0,1.238-0.43,1.433-1.059c2.414-7.925,5.82-13.625,10.703-17.937c5.367-4.727,12.688-7.832,22.403-9.481
		c0.195-0.031,0.378-0.105,0.546-0.21l7.778-4.915c0.277-0.171,0.492-0.437,0.597-0.75l1.403-3.664
		c0.383-0.984-0.348-2.043-1.403-2.043"/>
	<path d="M67.648,10.574c-0.082-0.008-0.164-0.008-0.246,0c-13.32,2.25-23.386,6-30.75,11.297
		c-9.226,6.676-13.918,15.832-13.972,27.254c-0.008,0.746,0.535,1.387,1.273,1.5c0.078,0.008,0.156,0.008,0.235,0
		c0.656,0,1.238-0.43,1.433-1.059c2.414-7.925,5.82-13.625,10.703-17.937c5.367-4.727,12.688-7.832,22.403-9.481
		c0.195-0.031,0.378-0.105,0.546-0.21l7.778-4.915c0.277-0.171,0.492-0.437,0.597-0.75l1.403-3.664
		c0.383-0.984-0.348-2.043-1.403-2.043 M66.246,15.75L58.5,20.672C37.844,24.18,28.828,33.898,24.18,49.125
		c0.113-23.813,20.957-33.211,43.5-37.043L66.246,15.75z"/>
	
		<line fill="none" stroke="#000000" stroke-width="0.75" stroke-miterlimit="10" x1="24.988" y1="114.676" x2="24.988" y2="465.316"/>
	<path fill="none" stroke="#000000" stroke-width="0.75" stroke-miterlimit="10" d="M21,136.891l0.141,80.714l1.5,0.211l1.015,9
		l22.094,2.887l-0.105-66.25c0-10.414-17.926-48.75-17.926-48.75h-2.731C23.625,127.613,22.59,134.129,21,136.891z"/>
	<path fill="#0B0B0B" d="M26.168,114.676c0,0,5.953,14.738,8.383,21.293l-9.563,0.058v-21.351
		C24.988,114.676,26.168,114.676,26.168,114.676z"/>
	<path fill="none" stroke="#000000" stroke-width="0.75" stroke-miterlimit="10" d="M32.297,82.898c0,0-5.387,11.602-4.547,31.778"
		/>
	<path fill="none" stroke="#000000" stroke-width="0.75" stroke-miterlimit="10" d="M46.914,138.293c0,0-1.41,6.953-1.305,23.918"/>
	<path fill="none" stroke="#000000" stroke-width="0.75" stroke-miterlimit="10" d="M27.879,103.891l-2.891-15.157
		c-0.078-12.066,0.649-24.121,2.184-36.086l-2.422-3.523"/>
	<path fill="#525452" d="M120.105,53.445c0,0-35.402-0.531-56.183,6.481s-27.75,12.703-31.801,19.988
		c-4.047,7.281-4.461,22.836-4.461,22.836s1.59-9.945,2.34-12.66c0.75-2.715,1.629-6.27,3.359-8.406
		c1.735-2.137,10.778-13.786,33-19.426c22.223-5.641,37.696-5.25,53.805-5.781"/>
	<path fill="none" stroke="#000000" stroke-width="0.75" stroke-miterlimit="10" d="M120.105,53.445c0,0-35.402-0.531-56.183,6.481
		s-27.75,12.703-31.801,19.988c-4.047,7.281-4.461,22.836-4.461,22.836s1.59-9.945,2.34-12.66c0.75-2.715,1.629-6.27,3.359-8.406
		c1.735-2.137,10.778-13.786,33-19.426c22.223-5.641,37.696-5.25,53.805-5.781"/>
	<path fill="none" stroke="#000000" stroke-width="0.75" stroke-miterlimit="10" d="M32.25,487.559l-0.426-2.25
		c2.84-5.137,5.988-10.102,9.426-14.864c3.074-4.5,4.801-6.375,10.637-6.269h68.25"/>
	<path fill="#1C1D1E" d="M120.105,483.352h-71.46c-1.063,0.05-2.125-0.118-3.122-0.493c0.356-3.925,2.536-7.898,6.84-12.48
		c0.274-0.27,1.157-0.918,3.414-0.918c20.828-0.082,42.797-0.156,64.328-0.18C120.105,469.281,120.105,483.352,120.105,483.352z"/>
	<path fill="#606060" d="M47.766,476.316c1.414-2.07,2.949-4.054,4.597-5.937c0.274-0.27,1.157-0.918,3.414-0.918
		c20.828-0.082,42.797-0.156,64.328-0.18v7.035C120.105,476.316,63.516,477.254,47.766,476.316z"/>
	<path fill="none" stroke="#000000" stroke-width="0.75" stroke-miterlimit="10" d="M120.105,483.352h-71.46
		c-1.063,0.05-2.125-0.118-3.122-0.493c0.356-3.925,2.536-7.898,6.84-12.48c0.274-0.27,1.157-0.918,3.414-0.918
		c20.828-0.082,42.797-0.156,64.328-0.18"/>
	<path fill="none" stroke="#000000" stroke-width="0.75" stroke-miterlimit="10" d="M45.75,229.703V450c0,0-0.367,11.25-1.328,16.5"
		/>
	
		<line fill="none" stroke="#000000" stroke-width="0.75" stroke-miterlimit="10" x1="23.664" y1="226.828" x2="20.852" y2="226.566"/>
	<g opacity="0.47" enable-background="new    ">
		<g>
			<g>
				<defs>
					<rect id="SVGID_51_" x="0" y="0" width="240" height="494"/>
				</defs>
				<clipPath id="SVGID_52_">
					<use xlink:href="#SVGID_51_"  overflow="visible"/>
				</clipPath>
				<path clip-path="url(#SVGID_52_)" d="M28.547,210.996c0,5.684-0.609,10.293-1.359,10.293s-1.36-4.609-1.36-10.293
					c0-5.68,0.61-10.289,1.36-10.289S28.547,205.316,28.547,210.996z"/>
			</g>
		</g>
	</g>
	<path fill="#3C3C3B" d="M26.738,201.301c0.75,0.156,0.793,2.25,0.352,2.953c-0.442,0.707-1.5,0.578-2.113,1.898
		c-0.618,1.321-0.543,8.317-0.098,9.286c0.441,0.968,2.121,2.101,2.211,2.714c0.109,0.825,0.078,1.66-0.09,2.477
		c-0.172,0.523-4.582-1.77-4.934-3.535c-0.355-1.762-0.625-12.043,0.172-13.364C23.031,202.41,25.941,201.129,26.738,201.301z"/>
	<path fill="none" stroke="#000000" stroke-width="0.75" stroke-miterlimit="10" d="M26.738,201.301
		c0.75,0.156,0.793,2.25,0.352,2.953c-0.442,0.707-1.5,0.578-2.113,1.898c-0.618,1.321-0.543,8.317-0.098,9.286
		c0.441,0.968,2.121,2.101,2.211,2.714c0.109,0.825,0.078,1.66-0.09,2.477c-0.172,0.523-4.582-1.77-4.934-3.535
		c-0.355-1.762-0.625-12.043,0.172-13.364C23.031,202.41,25.941,201.129,26.738,201.301z"/>
	<path fill="#2D3033" d="M30.328,230.477l5.426,0.671v233.805L30,473.656c-0.293,0.434-0.973,0.231-0.977-0.293V231.645
		C29.023,230.945,29.633,230.398,30.328,230.477z"/>
	<path fill="#6B7077" d="M42.465,231.984c0.633,0.078,1.101,0.629,1.082,1.266v217.738c-0.121,2.032-0.891,3.973-2.192,5.535
		l-5.601,8.43V231.148L42.465,231.984z"/>
	<g opacity="0.47" enable-background="new    ">
		<g>
			<g>
				<defs>
					<rect id="SVGID_53_" x="0" y="0" width="240" height="494"/>
				</defs>
				<clipPath id="SVGID_54_">
					<use xlink:href="#SVGID_53_"  overflow="visible"/>
				</clipPath>
				<path clip-path="url(#SVGID_54_)" d="M28.402,241.875c0,5.684-0.609,10.289-1.355,10.289c-0.75,0-1.359-4.605-1.359-10.289
					s0.609-10.289,1.359-10.289C27.793,231.586,28.402,236.191,28.402,241.875z"/>
			</g>
		</g>
	</g>
	<path fill="#3C3C3B" d="M26.445,232.5c0.692,0.148,0.75,2.176,0.336,2.859c-0.41,0.68-1.445,0.555-2.047,1.836
		c-0.597,1.282-0.523,8.055-0.097,9c0.429,0.946,2.062,2.032,2.144,2.633c0.106,0.797,0.078,1.606-0.082,2.391
		c-0.172,0.511-4.437-1.707-4.785-3.418c-0.344-1.711-0.598-11.664,0.172-12.946C22.859,233.574,25.672,232.32,26.445,232.5z"/>
	<path fill="none" stroke="#000000" stroke-width="0.75" stroke-miterlimit="10" d="M26.445,232.5
		c0.692,0.148,0.75,2.176,0.336,2.859c-0.41,0.68-1.445,0.555-2.047,1.836c-0.597,1.282-0.523,8.055-0.097,9
		c0.429,0.946,2.062,2.032,2.144,2.633c0.106,0.797,0.078,1.606-0.082,2.391c-0.172,0.511-4.437-1.707-4.785-3.418
		c-0.344-1.711-0.598-11.664,0.172-12.946C22.859,233.574,25.672,232.32,26.445,232.5z"/>
	<path fill="#080909" d="M30.328,230.477l12.137,1.5c0.637,0.078,1.105,0.632,1.082,1.273v217.738
		c-0.121,2.032-0.891,3.973-2.192,5.535l-9.531,14.356l8.25-16.305c1-1.636,1.563-3.504,1.633-5.422v-213.75
		c0.051-0.543-0.285-1.05-0.809-1.207l-9.074-1.5c-0.535-0.09-1,0.45-1,1.149v237.261c0,0.375,0.278,0.586,0.512,0.497L30,473.656
		c-0.293,0.434-0.973,0.231-0.977-0.293V231.645C29.023,230.945,29.633,230.398,30.328,230.477z"/>
	<rect x="29.004" y="337.117" fill="#080909" width="14.543" height="5.469"/>
	<path fill="none" stroke="#000000" stroke-width="0.75" stroke-miterlimit="10" d="M29.004,473.363
		c0.004,0.524,0.684,0.727,0.973,0.293l11.378-17.133c1.301-1.562,2.071-3.503,2.192-5.535V233.25c0-0.625-0.465-1.152-1.082-1.23
		l-12.137-1.5c-0.703-0.09-1.328,0.46-1.324,1.171V473.363z"/>
	
		<line fill="none" stroke="#000000" stroke-width="0.75" stroke-miterlimit="10" x1="45.781" y1="339.855" x2="22.926" y2="339.855"/>
	<path fill="#4C4C4B" d="M213.309,127.793c1.191-0.699,5.871-0.75,9.05-0.414c3.18,0.34,15.352,2.754,16.672,4.141
		c1.321,1.386-0.195,5.722-1.59,6.668c-1.394,0.945-15.839,1.933-19.25,0.277c-3.414-1.656-1.058-6.285-1.195-7.5
		c-0.133-1.215-3.344-0.524-3.687-1.125C212.961,129.238,212.664,128.168,213.309,127.793z"/>
	<path fill="#B5B4B5" d="M214.703,127.793c0.133,0.523,0.043,1.238,1.192,1.273c1.148,0.039,5.16,0.27,5.339,0.536
		c0.18,0.261-2.601,0.66-3.043,1.101c-0.445,0.442-2.027,4.149-0.218,4.41c1.808,0.262,15.511,1.899,18.261,1.313
		c2.754-0.586,0.438,1.336,0.438,1.336c-3.473,0.57-6.984,0.867-10.5,0.883c-4.824-0.09-7.5-0.508-8.703-1.012
		c-1.199-0.504-1.043-3.645-0.824-4.574c0.218-0.93,0.75-1.075,0.382-2.071c-0.367-1-3.105-0.488-3.293-0.914
		c-0.187-0.429-1.445-1.5-0.75-1.758c0.7-0.254,1.778-0.703,1.778-0.703L214.703,127.793z"/>
	<path fill="none" stroke="#000000" stroke-width="0.75" stroke-miterlimit="10" d="M213.309,127.793
		c1.191-0.699,5.871-0.75,9.05-0.414c3.18,0.34,15.352,2.754,16.672,4.141c1.321,1.386-0.195,5.722-1.59,6.668
		c-1.394,0.945-15.839,1.933-19.25,0.277c-3.414-1.656-1.058-6.285-1.195-7.5c-0.133-1.215-3.344-0.524-3.687-1.125
		C212.961,129.238,212.664,128.168,213.309,127.793z"/>
	<path fill="#4C4C4B" d="M26.609,127.793c-1.191-0.699-5.871-0.75-9.05-0.414c-3.18,0.34-15.356,2.754-16.672,4.141
		c-1.321,1.386,0.191,5.722,1.59,6.668c1.394,0.945,15.839,1.933,19.25,0.277c3.414-1.656,1.058-6.285,1.195-7.5
		c0.133-1.215,3.344-0.524,3.687-1.125C26.953,129.238,27.246,128.168,26.609,127.793z"/>
	<path fill="#B5B4B5" d="M25.215,127.793c-0.137,0.523-0.043,1.238-1.192,1.273c-1.148,0.039-5.16,0.27-5.339,0.536
		c-0.18,0.261,2.601,0.66,3.043,1.101c0.445,0.442,2.027,4.149,0.218,4.41c-1.808,0.262-15.511,1.899-18.261,1.313
		c-2.754-0.586-0.446,1.336-0.446,1.336c3.485,0.57,7.008,0.867,10.539,0.883c4.825-0.09,7.5-0.508,8.7-1.012
		c1.199-0.504,1.043-3.645,0.824-4.574c-0.215-0.93-0.75-1.075-0.379-2.071c0.367-1,3.101-0.488,3.328-0.914
		c0.227-0.429,1.449-1.5,0.75-1.758c-0.699-0.254-1.77-0.703-1.77-0.703L25.215,127.793z"/>
	<path fill="none" stroke="#000000" stroke-width="0.75" stroke-miterlimit="10" d="M26.609,127.793
		c-1.191-0.699-5.871-0.75-9.05-0.414c-3.18,0.34-15.356,2.754-16.672,4.141c-1.321,1.386,0.191,5.722,1.59,6.668
		c1.394,0.945,15.839,1.933,19.25,0.277c3.414-1.656,1.058-6.285,1.195-7.5c0.133-1.215,3.344-0.524,3.687-1.125
		C26.953,129.238,27.246,128.168,26.609,127.793z"/>
	<path fill="#121313" d="M31.996,82.328c-0.016,0.031-0.039,0.055-0.07,0.074c-0.875,0.825-0.965,6.075,1.644,18.164
		c3.907,18.129,10.5,36.75,12.586,37.672c24.153-3.902,48.582-5.843,73.047-5.804c24.633-0.032,49.231,1.929,73.547,5.859
		c2.113-0.895,8.879-20.152,12.75-38.16c2.504-11.754,2.387-16.867,1.5-17.672c-0.035-0.027-0.066-0.063-0.09-0.102
		c-12.863-17.336-41.25-25.8-86.773-25.882C74.953,56.477,46.125,64.926,31.996,82.328"/>
	<path fill="#050606" d="M51.594,90.984h25.363c1.43,0,2.586,1.157,2.582,2.586l-3.152,23.332c0,1.426-1.153,6.27-2.578,6.27
		c-2.997,0.937-6.118,1.426-9.258,1.441c-3.125-0.015-6.235-0.5-9.215-1.441c-1.434,0-2.59-4.844-2.59-6.27l-3.75-23.332
		C48.992,92.137,50.16,90.973,51.594,90.984z"/>
	<path fill="none" stroke="#0B0B0B" stroke-width="4.5" stroke-miterlimit="10" d="M80.203,119.484c0,4.164-7.129,7.543-15.93,7.543
		c-8.796,0-15.929-3.379-15.929-7.543c0-4.168,7.133-7.546,15.929-7.546C73.074,111.938,80.203,115.316,80.203,119.484z"/>
	<path fill="#262828" d="M120.137,56.477C84.586,55.914,59.828,63.09,47.43,69.781c-8.657,4.664-15.473,13.11-15.473,13.11
		c-0.988,6.496,2.879,22.019,2.879,22.019c4.5,0,7.914,0.043,7.914,0.043s17.199,2.754,22.582,2.754
		c5.387,0,23.828-2.758,23.828-2.758l30.539-0.152h-0.097c32.394,0.832,69.953,0.351,84.48,0.113c0,0,4.305-15.512,3.309-22.012
		c0,0-7.418-9.074-15-13.117c-18.055-7.777-37.598-12.57-72.114-13.304"/>
	<path fill="#2B2A2A" d="M119.836,109.027c0,0-20.313,0.27-22.832-1.718c-2.52-1.985-7.805-21.18-3.57-24.485
		c4.238-3.308,19.98-5.027,26.402-5.027c6.418,0,22.176,1.719,26.414,5.027c4.238,3.305-1.066,22.5-3.578,24.485
		C140.16,109.297,119.836,109.027,119.836,109.027z"/>
	<path fill="none" stroke="#121313" stroke-width="0.75" stroke-miterlimit="10" d="M119.836,109.027c0,0-20.313,0.27-22.832-1.718
		c-2.52-1.985-7.805-21.18-3.57-24.485c4.238-3.308,19.98-5.027,26.402-5.027c6.418,0,22.176,1.719,26.414,5.027
		c4.238,3.305-1.066,22.5-3.578,24.485C140.16,109.297,119.836,109.027,119.836,109.027z"/>
	<path fill="#313334" d="M53.25,106.688c-1.023-9.922-0.469-19.942,1.648-29.684c0,0-10.648,7.062-10.918,28.144L53.25,106.688z"/>
	<path fill="#1F2020" d="M76.453,106.688c0,0,3.266-14.864-1.144-29.684c0,0,9.3,7.941,13.117,28.055L76.453,106.688z"/>
	<g opacity="0.56" enable-background="new    ">
		<g>
			<g>
				<defs>
					<rect id="SVGID_55_" x="0" y="0" width="240" height="494"/>
				</defs>
				<clipPath id="SVGID_56_">
					<use xlink:href="#SVGID_55_"  overflow="visible"/>
				</clipPath>
				<path clip-path="url(#SVGID_56_)" fill="#848484" d="M120.75,87c-41.691,0-69.441,7.207-84.586,21.984
					c3.856,15.082,8.82,28.5,10.598,29.25c24.152-3.906,48.586-5.847,73.05-5.808c24.641-0.031,49.243,1.926,73.567,5.859
					c1.777-0.75,6.824-14.437,10.672-29.461C189.906,94.23,162.562,87.074,120.75,87z"/>
			</g>
		</g>
	</g>
	<path fill="none" stroke="#1D1D1B" stroke-width="0.75" stroke-miterlimit="10" d="M31.629,89.355
		c-0.473-4.312-0.234-6.449,0.297-6.953c0.031-0.019,0.054-0.043,0.07-0.074"/>
	<path fill="#0D0E0E" d="M31.996,82.328c14.129-17.402,42.957-25.851,88.141-25.851c45.531,0.082,73.91,8.546,86.773,25.882
		c0.024,0.039,0.055,0.075,0.09,0.102c0.504,0.465,0.75,2.394,0.391,6.234c-0.036-0.031-0.067-0.066-0.09-0.105
		c-12.863-17.34-41.242-25.809-86.778-25.891c-45.179,0-74.773,9.254-88.894,26.656"/>
	<path fill="none" stroke="#000000" stroke-width="0.75" stroke-miterlimit="10" d="M31.996,82.328
		c-0.016,0.031-0.039,0.055-0.07,0.074c-0.875,0.825-0.965,6.075,1.644,18.164c3.907,18.129,10.5,36.75,12.586,37.672
		c24.153-3.902,48.582-5.843,73.047-5.804c24.633-0.032,49.231,1.929,73.547,5.859c2.113-0.895,8.879-20.152,12.75-38.16
		c2.504-11.754,2.387-16.867,1.5-17.672c-0.035-0.027-0.066-0.063-0.09-0.102c-12.863-17.336-41.25-25.8-86.773-25.882
		C74.953,56.477,46.125,64.926,31.996,82.328"/>
</g>
</svg>
