<?xml version="1.0" encoding="utf-8"?>
<!-- Generator: Adobe Illustrator 17.0.0, SVG Export Plug-In . SVG Version: 6.00 Build 0)  -->
<!DOCTYPE svg PUBLIC "-//W3C//DTD SVG 1.1//EN" "http://www.w3.org/Graphics/SVG/1.1/DTD/svg11.dtd">
<svg version="1.1" id="Слой_1" xmlns="http://www.w3.org/2000/svg" xmlns:xlink="http://www.w3.org/1999/xlink" x="0px" y="0px"
	 width="304px" height="626px" viewBox="0 0 304 626" enable-background="new 0 0 304 626" xml:space="preserve">
<g>
	<defs>
		<rect id="SVGID_1_" width="304" height="626"/>
	</defs>
	<clipPath id="SVGID_2_">
		<use xlink:href="#SVGID_1_"  overflow="visible"/>
	</clipPath>
	<g clip-path="url(#SVGID_2_)">
		<path fill="currentColor" d="M152.797,0.884h12.79c33.867,0.817,109.259,3.212,107.625,62.193c0,0,7.326,5.844,8.163,14.387
			c0.836,8.543,1.216,62.478,1.454,94.464c0.047,6.148-5.768,22.483-5.768,22.483s-0.371,158.491-1.767,237.703
			c2.689,6.405,4.286,11.602,4.447,19.062c0.551,25.59,0.96,54.934-0.143,81.141c-0.437,10.31-3.307,22.787-7.117,31.177
			c-0.276,11.431-0.561,22.844-0.855,34.256c0.751,19.157-4.789,27.918-27.918,26.683l-4.381-2.737l-4.381,1.159
			c-27.918,1.159-54.325,1.159-82.167,1.577c-27.918-0.409-56.578-0.409-84.496-1.644l-4.381-1.159l-4.381,2.803
			c-23.129,1.159-28.669-7.592-27.918-26.683c-0.285-11.203-0.836-33.639-0.836-33.639s-6.205-18.482-6.386-26.046
			c-0.665-28.165,0.2-59.856-0.342-88.107c-0.152-8.011,3.934-17.209,3.934-17.209l-1.729-239.271c0,0-5.397-16.126-5.331-24.231
			c0.247-29.724,0.599-85.132,1.321-90.853c0.722-5.72,7.878-15.403,7.878-15.403C28.468,4.084,106.188,1.69,140.055,0.863h12.743
			v0.021H152.797z"/>
		<path opacity="0.39" fill="#111019" enable-background="new    " d="M281.449,77.892c-0.323-8.096-6.861-13.712-7.954-14.824
			c1.273-38.181-35.054-50.676-35.054-50.676s28.327,19.87,24.155,92.582c-0.988,17.285-13.92,53.784-22.045,68.988
			c5.027,50.059,2.109,351.647,3.211,399.045c0.114,4.77-1.292,13.094-8.286,13.094c-0.675,0-169.997-1.891-176.953-0.124
			c-2.718,0.684-17.988,23.557-19.575,26.455c-0.333,0.608-7.26-0.741-4.571,2.556c1.178,3.687,7.326,10.396,24.925,9.721
			c1.739-0.067,2.708-3.221,4.628-3.069c1.672,0.124,3.373,1.34,4.381,1.397c49.326,2.936,163.794,0.238,166.236,0.2
			c1.815-0.808,4.427-1.425,4.427-1.425c1.416,0.722,4.02,2.699,5.188,2.746c19.005,0.741,26.997-6.053,27.463-20.601
			c0.333-10.339,0.569-27.966,0.845-39.188c0,0,5.987-15.156,6.386-19.518c1.349-14.938,0.979-93.846,0.542-99.101
			c-0.694-8.41-4.409-15.289-4.409-15.289l2.404-78.585l-0.228-157.598l5.207-18.634
			C282.362,176.042,284.139,145.711,281.449,77.892z"/>
		<path opacity="0.33" fill="#FFFFEE" enable-background="new    " d="M229.348,184.395h4.789c1.207,0,2.214,0.846,2.461,1.976
			l0.399-4.21c-0.608-1.159-1.406-2.072-2.281-2.072h-5.949c-0.998,0-1.891,1.169-2.509,2.537c0.228,0.95,0.504,2.138,0.741,3.392
			C227.362,185.079,228.274,184.395,229.348,184.395z"/>
		<path opacity="0.5" fill="#FFFFFF" enable-background="new    " d="M226.83,569.5V186.913c0-0.314,0.067-0.608,0.171-0.884
			c-0.238-1.245-0.513-2.442-0.741-3.392c-0.551,1.216-0.893,2.604-0.893,3.487v384.174c0,0.96,0.399,2.499,1.036,3.782
			c0.171-1.368,0.361-2.708,0.542-3.887C226.878,569.975,226.83,569.737,226.83,569.5z"/>
		<path opacity="0.4" fill="#3C3C3B" enable-background="new    " d="M234.128,572.018h-4.789c-1.15,0-2.109-0.77-2.404-1.824
			c-0.171,1.178-0.361,2.518-0.542,3.887c0.608,1.235,1.444,2.224,2.366,2.224h5.949c0.931,0,1.777-1.026,2.395-2.281
			c-0.181-1.33-0.38-2.642-0.57-3.81C236.228,571.248,235.278,572.018,234.128,572.018z"/>
		<path opacity="0.4" fill="#1D1D1B" enable-background="new    " d="M238.11,186.124c0-0.998-0.437-2.642-1.121-3.953l-0.399,4.21
			c0.038,0.171,0.057,0.352,0.057,0.532V569.5c0,0.247-0.047,0.485-0.114,0.703c0.19,1.169,0.39,2.48,0.57,3.81
			c0.618-1.273,1.007-2.784,1.007-3.725V186.124z"/>
		<path opacity="0.31" fill="#FFFFF8" enable-background="new    " d="M69.67,184.395h4.789c1.207,0,2.214,0.846,2.461,1.976
			l0.399-4.21c-0.608-1.159-1.406-2.072-2.281-2.072h-5.949c-0.998,0-1.891,1.169-2.509,2.537c0.228,0.95,0.504,2.138,0.741,3.392
			C67.684,185.079,68.596,184.395,69.67,184.395z"/>
		<path opacity="0.51" fill="#FFFFFF" enable-background="new    " d="M67.15,569.5V186.913c0-0.314,0.067-0.608,0.171-0.884
			c-0.238-1.245-0.513-2.442-0.741-3.392c-0.551,1.216-0.893,2.604-0.893,3.487v384.174c0,0.96,0.399,2.499,1.036,3.782
			c0.171-1.368,0.361-2.708,0.542-3.887C67.198,569.975,67.15,569.737,67.15,569.5z"/>
		<path opacity="0.4" fill="#3C3C3B" enable-background="new    " d="M74.448,572.018h-4.789c-1.15,0-2.11-0.77-2.404-1.824
			c-0.171,1.178-0.361,2.518-0.542,3.887c0.608,1.235,1.444,2.224,2.366,2.224h5.948c0.931,0,1.777-1.026,2.395-2.281
			c-0.181-1.33-0.38-2.642-0.57-3.81C76.548,571.248,75.598,572.018,74.448,572.018z"/>
		<path opacity="0.4" fill="#1D1D1B" enable-background="new    " d="M78.43,186.124c0-0.998-0.437-2.642-1.121-3.953l-0.399,4.21
			c0.038,0.171,0.057,0.352,0.057,0.532V569.5c0,0.247-0.048,0.485-0.114,0.703c0.19,1.169,0.39,2.48,0.57,3.81
			c0.618-1.273,1.007-2.784,1.007-3.725V186.124z"/>
		<path opacity="0.24" enable-background="new    " d="M165.236,544.556V207.761c0-1.387,1.131-2.518,2.518-2.518h4.789l1.853-1.425
			c-0.39-0.162-0.818-0.247-1.274-0.247h-5.948c-1.881,0-3.403,1.52-3.403,3.402v338.382c0,1.178,0.609,2.224,1.521,2.832
			l2.166-1.14C166.204,546.894,165.236,545.848,165.236,544.556z"/>
		<path opacity="0.36" fill="#FFFFF8" enable-background="new    " d="M174.387,203.818l-1.853,1.425
			c1.387,0,2.518,1.131,2.518,2.518v336.795c0,1.387-1.131,2.518-2.518,2.518h-4.789c-0.104,0-0.2-0.019-0.295-0.029l-2.167,1.14
			c0.542,0.361,1.188,0.57,1.881,0.57h5.949c1.881,0,3.402-1.52,3.402-3.402v-338.38
			C176.515,205.547,175.641,204.322,174.387,203.818z"/>
		<path opacity="0.24" enable-background="new    " d="M196.1,544.556V207.761c0-1.387,1.131-2.518,2.518-2.518h4.789l1.853-1.425
			c-0.39-0.162-0.817-0.247-1.273-0.247h-5.948c-1.882,0-3.402,1.52-3.402,3.402v338.382c0,1.178,0.608,2.224,1.52,2.832l2.167-1.14
			C197.069,546.894,196.1,545.848,196.1,544.556z"/>
		<path opacity="0.36" fill="#FFFFF8" enable-background="new    " d="M205.249,203.818l-1.853,1.425
			c1.387,0,2.518,1.131,2.518,2.518v336.795c0,1.387-1.131,2.518-2.518,2.518h-4.789c-0.105,0-0.2-0.019-0.295-0.029l-2.167,1.14
			c0.542,0.361,1.188,0.57,1.882,0.57h5.948c1.882,0,3.402-1.52,3.402-3.402v-338.38
			C207.378,205.547,206.494,204.322,205.249,203.818z"/>
		<path opacity="0.24" enable-background="new    " d="M128.851,544.556V207.761c0-1.387,1.131-2.518,2.518-2.518h4.789l1.853-1.425
			c-0.39-0.162-0.817-0.247-1.273-0.247h-5.949c-1.881,0-3.402,1.52-3.402,3.402v338.382c0,1.178,0.608,2.224,1.52,2.832l2.167-1.14
			C129.83,546.894,128.851,545.848,128.851,544.556z"/>
		<path opacity="0.36" fill="#FFFFF8" enable-background="new    " d="M138.01,203.818l-1.853,1.425
			c1.387,0,2.518,1.131,2.518,2.518v336.795c0,1.387-1.131,2.518-2.518,2.518h-4.789c-0.104,0-0.2-0.019-0.295-0.029l-2.167,1.14
			c0.542,0.361,1.188,0.57,1.881,0.57h5.949c1.881,0,3.402-1.52,3.402-3.402v-338.38
			C140.139,205.547,139.255,204.322,138.01,203.818z"/>
		<path opacity="0.24" enable-background="new    " d="M97.854,544.556V207.761c0-1.387,1.131-2.518,2.518-2.518h4.789l1.853-1.425
			c-0.39-0.162-0.817-0.247-1.273-0.247h-5.948c-1.881,0-3.402,1.52-3.402,3.402v338.382c0,1.178,0.608,2.224,1.52,2.832l2.167-1.14
			C98.833,546.894,97.854,545.848,97.854,544.556z"/>
		<path opacity="0.36" fill="#FFFFF8" enable-background="new    " d="M107.014,203.818l-1.853,1.425
			c1.387,0,2.518,1.131,2.518,2.518v336.795c0,1.387-1.131,2.518-2.518,2.518h-4.789c-0.104,0-0.2-0.019-0.295-0.029l-2.167,1.14
			c0.542,0.361,1.188,0.57,1.881,0.57h5.949c1.881,0,3.402-1.52,3.402-3.402v-338.38
			C109.143,205.547,108.259,204.322,107.014,203.818z"/>
		<path opacity="0.22" fill="#FFFFFF" enable-background="new    " d="M251.222,88.819c-0.361-9.426-1.368-30.389-11.935-45.146
			c0,0,4.134,16.99,0,30.522c0,0,0.504-20.459-4.865-25.486s-22.635-3.687-25.828,0.333c-3.183,4.029-15.261-10.567-21.466-15.765
			c-6.205-5.198-34.038,2.518-43.265,8.381c-9.227,5.872-11.07-6.034-8.885-8.381c2.176-2.347-16.268,2.015-16.933,9.227
			c-0.675,7.212-38.618-0.561-30.598-8.609c8.02-8.049-29.99-5.141-38.931,8.049c-8.942,13.189-4.476-8.277,1.786-11.175
			c6.262-2.908,57.604-24.25,123.199-17.408c65.595,6.842,68.817,6.452,68.817,6.452s-11.754-6.538-26.426-9.189
			C201.22,7.973,145.013,5.73,112.971,7.298c-32.042,1.568-41.991,3.003-53.679,9.388c-11.698,6.386-19.699,11.355-22.711,20.373
			c-3.012,9.018-5.616,17.161-6.861,28.878l-1.15-0.675c0,0-7.032,6.566-6.566,17.313c0.466,10.747-1.406,47.313-1.074,47.056
			c0.333-0.257,0.722,46.049,0.722,46.049l4.001,15.945l0.798,6.832l1.017,234.586l-1.321,4.77l-1.872,8.343
			c0,0-1.264,49.555,0.646,99.053l3.288,12.087l2.585,6.842l0.931,40.67c0,0,0.58,3.145,2.034,3.145s4.808-4.865,10.177-10.728
			c5.369-5.872,14.634-18.615,15.365-18.615s1.055-2.499,1.064-4.523c0.01-2.024-0.561-351.077,1.568-390.844
			c0.333-6.262,11.327-7.108,16.506-7.583c5.179-0.475,50.924-3.373,73.606-3.373s80.21,3.706,84.496,4.219
			c4.276,0.504,5.264-6.899,4.599-10.918C240.456,161.551,251.222,88.819,251.222,88.819z"/>
		<path opacity="0.53" fill="#FFFFFF" enable-background="new    " d="M59.292,35.786c0,0-21.485,24.317-18.045,64.227
			c3.088,35.815,19.841,75.145,19.841,75.145s37.991-14.938,90.569-11.926c52.577,3.022,88.886,10.728,88.886,10.728l-6.376,1.644
			c0,0-37.839-5.663-82.51-5.331c-44.68,0.333-82.568,4.181-90.569,7.716c-1.9,0.836-1.15,4.78-1.226,7.127
			c-0.086,2.347-0.295,90.891-0.57,94.454c-0.276,3.563-0.855,9.436-0.855,9.436l-0.599-85.18c0,0-2.005-22.606-3.516-28.165
			c-1.511-5.559-10.719-26.626-17.751-58.041C35.992,73.91,35.916,59.096,59.292,35.786z"/>
		<path opacity="0.53" fill="#FFFFFF" enable-background="new    " d="M31.185,62.612l3.183,4.276c0,0-3.943,30.607-2.851,44.101
			l3.354,16.933l0.285,3.639l-0.285,13.665h-2.262c0,0-1.007-13.36-0.675-15.955c0.333-2.604-1.929-13.75-2.433-16.686
			c-0.504-2.936-0.561-21.551,3.658-45.365L31.185,62.612z"/>
		<path opacity="0.53" fill="#FFFFFF" enable-background="new    " d="M27.602,66.289c0,0-4.115,3.459-4.865,9.398
			c-0.751,5.939-2.319,93.228-1.169,98.73c1.15,5.502,4.086,15.204,4.086,15.204s-2.072-10.728-2.404-16.43
			c-0.333-5.701,0.722-64.132,1.672-96.697C25.037,72.675,27.602,66.289,27.602,66.289z"/>
		<path opacity="0.5" fill="#FFFFF5" enable-background="new    " d="M27.915,433.206c0,0-4.077,10.899-4.02,22.131
			c0.057,11.232-0.047,65.567-0.047,65.567l1.131,24.906l5.112,14.339c0,0-2.889-9.892-3.126-15.508
			c-0.228-5.616-1.948-23.452-0.827-89.826c0-0.047,0-0.095,0-0.143C26.281,451.242,27.915,433.206,27.915,433.206z"/>
		<path opacity="0.53" fill="#FFFFF5" enable-background="new    " d="M31.498,171.282L31.356,529.02l-2.186-25.714V178.323
			L31.498,171.282z"/>
		<path d="M273.287,566.06l-1.758-0.732c0.038-0.086,3.449-8.372,5.882-17.076c2.385-8.552,2.109-91.185,1.178-101.068
			c-0.817-8.628-4.096-16.202-4.134-16.278l1.739-0.76c0.143,0.314,3.44,7.916,4.286,16.867c0.703,7.459,1.368,92.44-1.235,101.761
			C276.784,557.584,273.315,565.974,273.287,566.06z"/>
		<path d="M278,197.28l-1.843-0.475c0.019-0.086,2.119-8.22,4.457-17.009c2.29-8.581,1.026-91.204-0.029-101.077
			c-0.589-5.502-3.725-10.538-5.863-13.398l1.824,14.757c0.038,1.007,0.779,22.863,0.532,27.795l-1.901-0.095
			c0.247-4.846-0.513-27.319-0.523-27.548l-2.566-20.763l1.986,2.072c0.304,0.314,7.44,7.887,8.41,16.99
			c0.798,7.45,2.461,92.421-0.029,101.771C280.11,189.061,278.019,197.195,278,197.28z"/>
		<path d="M247.793,625.507c-1.311,0-2.68-0.038-4.115-0.114l-0.247-0.01l-4.238-2.651l-4.181,1.083
			c-20.791,0.865-40.347,1.083-61.063,1.311c-6.984,0.076-14.007,0.152-21.133,0.257c-7.07-0.104-14.149-0.181-21.266-0.257
			c-20.848-0.228-42.4-0.466-63.286-1.387l-0.2-0.029l-3.972-1.055l-4.238,2.718l-0.257,0.01c-11.393,0.57-18.796-1.226-23.29-5.673
			c-4.324-4.276-6.053-11.061-5.625-21.998c-4.21-165.181-7.602-342.249-3.896-517.559l0.01-0.114l2.385-17.095
			c-0.39-14.491,4-26.664,13.047-36.195C65.984,1.72,116.014,0.503,140.055-0.076h25.543c23.414,0.57,72.095,1.748,95.414,26.312
			c9.122,9.616,13.55,21.989,13.151,36.774l2.395,17.133c3.677,174.018,0.266,351.618-3.972,517.626
			c0.428,10.928-1.311,17.732-5.644,21.998C263.016,623.664,256.877,625.507,247.793,625.507z M244.02,623.512
			c10.681,0.542,17.542-1.074,21.59-5.074c3.915-3.867,5.483-10.225,5.074-20.639c4.229-166.017,7.64-343.579,3.972-517.54
			l-2.395-17.123V63.06c0.399-14.301-3.848-26.246-12.629-35.492C236.855,3.574,188.706,2.406,165.567,1.845h-25.495
			c-23.766,0.58-73.264,1.777-96.478,26.236c-8.695,9.16-12.914,20.915-12.524,34.912v0.076l-2.395,17.199
			c-3.696,175.253-0.314,352.284,3.896,517.483c-0.409,10.424,1.15,16.762,5.065,20.63c4.058,4.01,10.918,5.644,21.599,5.141
			l4.514-2.898l4.685,1.245c20.829,0.912,42.324,1.15,63.125,1.378c7.108,0.076,14.197,0.152,21.238,0.257
			c7.098-0.104,14.13-0.181,21.114-0.257c20.658-0.228,40.176-0.447,60.901-1.311l4.675-1.245L244.02,623.512z"/>
		<path d="M252.362,619.017c-2.585,0-5.464-0.095-8.685-0.266c-1.273,0.029-176.451,0.276-184.129-0.067
			c-13.313,0.703-20.839,0.314-25.001-3.791c-3.107-3.06-4.229-8.039-3.867-17.18c-4.21-165.181-7.602-342.249-3.896-517.559
			l0.01-0.114l2.385-17.095c-0.352-11.964,3.278-22.027,10.785-29.923c20.82-21.884,66.698-22.749,94.112-23.262
			c2.109-0.038,4.115-0.076,5.977-0.124h12.752l14.871,0.114c26.103,0.618,74.699,1.767,95.956,24.25
			c7.345,7.763,10.88,17.522,10.529,29.011l2.395,17.133c3.677,174.018,0.266,351.618-3.972,517.626
			c0.361,9.094-0.76,14.073-3.858,17.142C265.59,618.038,260.487,619.017,252.362,619.017z M243.706,616.86
			c12.6,0.637,20.069,0.295,23.69-3.278c2.68-2.651,3.63-7.222,3.297-15.774c4.229-166.017,7.64-343.579,3.972-517.54l-2.395-17.133
			v-0.086c0.352-10.994-3.012-20.326-10.016-27.728c-20.715-21.903-68.788-23.043-94.616-23.652l-2.062-0.048l-12.771-0.067h-12.724
			c-1.843,0.048-3.848,0.086-5.968,0.124c-27.12,0.513-72.504,1.368-92.772,22.673c-7.165,7.526-10.614,17.161-10.263,28.631v0.076
			l-2.395,17.199c-3.696,175.253-0.314,352.284,3.896,517.483c-0.333,8.6,0.618,13.161,3.307,15.812
			c3.639,3.592,11.108,3.915,23.614,3.24h0.048h0.047C63.834,617.002,232.464,617.059,243.706,616.86z"/>
		<path d="M30.482,566.06c-0.038-0.086-3.497-8.476-5.958-17.294c-2.604-9.322-1.948-94.302-1.235-101.761
			c0.846-8.951,4.143-16.544,4.286-16.867l1.739,0.76c-0.029,0.076-3.316,7.649-4.134,16.278
			c-0.931,9.883-1.216,92.516,1.178,101.068c2.433,8.704,5.854,16.99,5.882,17.076L30.482,566.06z"/>
		<path d="M25.758,197.28c-0.019-0.086-2.119-8.21-4.457-16.99c-2.49-9.35-0.817-94.312-0.029-101.771
			c0.969-9.103,8.106-16.667,8.41-16.99l1.986-2.072l-2.575,20.848c0,0.143-0.931,22.198-0.95,27.709l-1.9-0.01
			c0.019-5.549,0.95-27.633,0.96-27.852l1.824-14.833c-2.138,2.87-5.283,7.906-5.863,13.408
			c-1.055,9.873-2.319,92.497-0.029,101.077c2.347,8.79,4.438,16.933,4.457,17.009L25.758,197.28z"/>
		<path fill="#1C1D1E" d="M250.158,287.81c-0.96,0.086-1.824-0.646-1.824-1.615c0-0.009,0-0.009,0-0.019l0.77-77.872
			c0-2.746,0.342-5.53,0.865-8.98c2.594-11.726,15.517-40.471,15.517-40.471l1.273,0.238l-0.333,124.415
			c0,1.283-0.979,2.347-2.252,2.461L250.158,287.81z"/>
		<path fill="#606060" d="M257.959,176.498c-3.145,8.467-6.756,17.209-7.992,22.825c-0.523,3.449-0.865,6.234-0.865,8.98
			l-0.77,77.872c0,0.01,0,0.01,0,0.019c0,0.96,0.865,1.701,1.824,1.615l7.583-0.988
			C258.653,244.203,258.273,191.208,257.959,176.498z"/>
		<path d="M250.005,288.294c-0.532,0-1.055-0.2-1.454-0.561c-0.437-0.399-0.684-0.941-0.684-1.53l0.77-77.891
			c0-2.737,0.333-5.492,0.874-9.046c2.575-11.669,15.422-40.309,15.555-40.594l0.152-0.342l2.024,0.38l-0.333,124.814
			c0,1.53-1.159,2.794-2.68,2.936l-14.016,1.834C250.138,288.285,250.071,288.294,250.005,288.294z M265.769,159.394
			c-1.463,3.278-12.933,29.182-15.337,40.034c-0.532,3.478-0.855,6.196-0.855,8.875l-0.77,77.872c0,0.333,0.133,0.627,0.371,0.846
			c0.247,0.228,0.58,0.342,0.922,0.314l14.016-1.824c1.055-0.095,1.834-0.95,1.834-1.996l0.323-124.026L265.769,159.394z"/>
		<path fill="#1D1D1B" d="M152.007,10.605l12.79,0.067c13.408,0.342,33.315,0.684,52.472,4.105l11.906,12.42
			c-21.238-3.411-54.953-4.704-77.179-4.656"/>
		<path d="M230.508,27.89l-1.397-0.228c-20.459-3.288-53.451-4.704-77.103-4.647v-0.95c23.148-0.029,55.266,1.302,75.858,4.438
			l-10.823-11.289c-18.121-3.221-36.651-3.677-50.201-4.02l-2.052-0.048l-12.781-0.067l0.01-0.95l14.852,0.124
			c13.617,0.342,32.261,0.808,50.496,4.058l0.152,0.029L230.508,27.89z"/>
		<path fill="#91CFE2" d="M217.794,13.351c-0.561,0-1.102,0.247-1.473,0.694c-0.437,0.532-0.551,1.245-0.304,1.881l1.777,4.656
			c0.143,0.38,0.409,0.713,0.76,0.931l9.854,6.224c0.209,0.133,0.447,0.228,0.694,0.266c12.296,2.091,21.58,6.025,28.374,12.011
			c6.196,5.464,10.5,12.676,13.569,22.72c0.247,0.808,0.988,1.349,1.815,1.349c0.095,0,0.19-0.009,0.285-0.019
			c0.931-0.143,1.625-0.95,1.615-1.891c-0.067-14.463-6.015-26.065-17.675-34.494c-9.35-6.756-22.103-11.431-38.979-14.311
			C218.003,13.351,217.898,13.351,217.794,13.351z"/>
		<path d="M217.794,15.252c28.526,4.856,54.943,16.762,55.076,46.932c-5.882-19.29-17.313-31.605-43.445-36.052l-9.854-6.224
			L217.794,15.252z M217.794,13.351c-0.561,0-1.102,0.247-1.473,0.694c-0.437,0.532-0.551,1.245-0.304,1.881l1.777,4.656
			c0.143,0.38,0.409,0.713,0.76,0.931l9.854,6.224c0.209,0.133,0.447,0.228,0.694,0.266c12.296,2.091,21.58,6.025,28.374,12.011
			c6.196,5.464,10.5,12.676,13.569,22.72c0.247,0.808,0.988,1.349,1.815,1.349c0.095,0,0.19-0.009,0.285-0.019
			c0.931-0.143,1.625-0.95,1.615-1.891c-0.067-14.463-6.015-26.065-17.675-34.494c-9.35-6.756-22.103-11.431-38.979-14.311
			C218.003,13.351,217.898,13.351,217.794,13.351z"/>
		<path d="M272.317,145.834h-0.95v443.649h0.95V145.834z"/>
		<path d="M245.027,291.506l0.143-84.477c0-13.151,21.827-60.008,22.758-61.994l0.124-0.276h4.219l0.047,0.428
			c1.587,14.966,2.917,24.336,5.027,27.956l0.067,0.114v0.133l-0.181,102.683l-1.986,0.266l-1.283,11.422L245.027,291.506z
			 M268.659,145.711c-1.834,3.953-22.54,48.89-22.54,61.319l-0.133,83.393l27.12-3.525l1.283-11.422l1.901-0.257l0.181-101.724
			c-1.91-3.383-3.202-10.481-5.046-27.795h-2.765v0.011H268.659z"/>
		<path fill="#0B0B0B" d="M270.351,145.235c0,0-7.535,18.672-10.624,26.968l12.106,0.086v-27.053L270.351,145.235z"/>
		<path d="M268.831,145.254l-0.95-0.038c1.045-25.115-5.644-39.891-5.711-40.043l0.865-0.399
			C263.092,104.917,269.886,119.883,268.831,145.254z"/>
		<path d="M246.205,205.462l-0.95-0.01c0.124-21.181-1.634-30.123-1.653-30.208l0.931-0.19
			C244.551,175.149,246.328,184.167,246.205,205.462z"/>
		<path d="M268.65,131.656l-0.931-0.181l3.658-19.204c0-0.124,0.437-20.193-2.765-45.574l-0.019-0.181l3.174-4.609l0.779,0.542
			l-2.974,4.314c3.183,25.371,2.746,45.412,2.746,45.612L268.65,131.656z"/>
		<path fill="#525452" d="M152.006,67.648c0,0,44.186-0.675,70.518,8.22c26.331,8.885,35.14,16.097,40.29,25.324
			s5.654,28.906,5.654,28.906s-2.005-12.572-2.936-16.002s-2.062-7.944-4.257-10.652s-13.655-17.475-41.801-24.621
			c-28.146-7.146-47.018-6.671-67.429-7.326"/>
		<path d="M267.993,130.165c-0.019-0.124-2.015-12.581-2.927-15.955l-0.152-0.551c-0.893-3.316-2.005-7.44-4.02-9.93l-0.143-0.181
			c-9.008-11.165-23.718-19.784-41.402-24.279c-24.478-6.215-42.295-6.661-59.514-7.098c-2.594-0.067-5.188-0.133-7.811-0.219
			l0.029-0.95c2.623,0.086,5.217,0.152,7.802,0.219c17.275,0.437,35.149,0.884,59.732,7.127
			c17.884,4.542,32.774,13.275,41.915,24.602l0.143,0.171c2.138,2.642,3.278,6.88,4.2,10.282l0.152,0.551
			c0.304,1.121,0.713,3.164,1.131,5.435c-0.76-6.091-2.157-13.389-4.723-17.979c-4.922-8.818-13.341-16.088-40.034-25.105
			c-25.951-8.761-69.919-8.201-70.356-8.191l-0.019-0.95c0.437-0.009,44.566-0.57,70.67,8.239
			c26.977,9.113,35.52,16.525,40.556,25.543c5.15,9.217,5.692,28.317,5.711,29.125L267.993,130.165z"/>
		<path d="M263.073,617.763l-0.931-0.181l0.513-2.632l-0.58-1.026c-2.281-4.01-5.72-10.073-11.203-17.665
			c-4.01-5.844-6.044-7.84-13.085-7.735l-85.769-0.038v-0.95l85.769,0.038c7.431-0.124,9.826,2.252,13.874,8.144
			c5.511,7.621,8.97,13.712,11.251,17.741l0.76,1.33L263.073,617.763z"/>
		<path fill="#1C1D1E" d="M152.008,612.346h89.874c2.072,0,3.487-0.371,3.953-0.627c-0.447-4.97-3.212-10.006-8.666-15.812
			c-0.352-0.352-1.463-1.159-4.324-1.159c-26.388-0.105-53.556-0.209-80.837-0.228V612.346z"/>
		<path fill="#606060" d="M242.984,603.424c0,0-3.335-4.884-5.815-7.526c-0.352-0.352-1.463-1.159-4.324-1.159
			c-26.388-0.104-53.556-0.209-80.837-0.228v8.913C152.007,603.424,223.038,604.611,242.984,603.424z"/>
		<path d="M241.871,612.821h-89.874v-0.95h89.874c1.625,0,2.851-0.247,3.449-0.456c-0.532-4.751-3.24-9.588-8.505-15.185
			c-0.228-0.228-1.226-1.007-3.982-1.007c-24.915-0.095-53.157-0.209-80.837-0.228v-0.95c27.681,0.029,55.922,0.133,80.837,0.228
			c2.927,0,4.181,0.817,4.666,1.302c5.549,5.91,8.343,11.023,8.799,16.107l0.029,0.314l-0.276,0.152
			C245.444,612.46,243.876,612.821,241.871,612.821z"/>
		<path d="M246.718,590.994c-1.207-6.595-1.691-20.791-1.691-20.934V290.965h0.95v279.077c0,0.124,0.485,14.254,1.682,20.782
			L246.718,590.994z"/>
		<path d="M273.57,287.789l3.567-0.329l-0.087-0.946l-3.567,0.329L273.57,287.789z"/>
		<path opacity="0.47" fill="#1D1D1B" enable-background="new    " d="M269.068,280.303c0.95,0,1.72-5.837,1.72-13.037
			c0-7.2-0.77-13.037-1.72-13.037c-0.95,0-1.72,5.837-1.72,13.037C267.348,274.466,268.118,280.303,269.068,280.303z"/>
		<path fill="#3C3C3B" d="M269.628,254.988c-0.903,0.2-1.007,2.851-0.447,3.744c0.561,0.893,1.901,0.722,2.68,2.404
			c0.779,1.672,0.684,10.529,0.124,11.764c-0.561,1.226-2.689,2.661-2.803,3.44c-0.114,0.779-0.114,2.461,0.114,3.126
			c0.228,0.675,5.815-2.233,6.262-4.476c0.447-2.233,0.779-15.261-0.228-16.933C274.323,256.385,270.636,254.76,269.628,254.988z"/>
		<path d="M269.514,280.037c-0.494,0-0.637-0.323-0.675-0.428c-0.257-0.77-0.247-2.528-0.133-3.345
			c0.076-0.551,0.646-1.112,1.368-1.824c0.58-0.57,1.235-1.216,1.473-1.748c0.466-1.026,0.627-9.759-0.124-11.365
			c-0.399-0.846-0.931-1.131-1.492-1.425c-0.428-0.228-0.874-0.456-1.169-0.931c-0.494-0.789-0.561-2.575-0.133-3.601
			c0.257-0.599,0.618-0.798,0.874-0.855c1.226-0.276,5.103,1.435,6.215,3.297c1.112,1.853,0.741,14.976,0.285,17.275
			c-0.447,2.214-5.055,4.865-6.433,4.951C269.562,280.037,269.533,280.037,269.514,280.037z M269.856,255.435
			c-0.047,0-0.095,0-0.124,0.009c-0.029,0.01-0.114,0.067-0.209,0.295c-0.323,0.779-0.238,2.252,0.057,2.737
			c0.162,0.257,0.447,0.409,0.798,0.589c0.618,0.323,1.378,0.722,1.91,1.862c0.817,1.758,0.77,10.738,0.124,12.163
			c-0.314,0.694-1.036,1.406-1.672,2.034c-0.428,0.418-1.064,1.045-1.093,1.273c-0.104,0.703-0.095,1.996,0.029,2.67
			c1.083-0.228,5.055-2.433,5.407-4.172c0.456-2.29,0.732-15.099-0.162-16.601C274.028,256.813,270.797,255.435,269.856,255.435z"/>
		<path fill="#1C1D1E" d="M265.077,291.943l-6.88,0.855v296.229l7.326,11.023c0.371,0.551,1.226,0.295,1.226-0.371V293.426
			C266.759,292.533,265.97,291.839,265.077,291.943z"/>
		<path fill="#606060" d="M249.712,293.853c-0.789,0.095-1.378,0.77-1.378,1.558v275.922c0,1.834,1.007,5.065,2.775,7.003
			l7.098,10.681V292.799L249.712,293.853z"/>
		<path opacity="0.47" fill="#1D1D1B" enable-background="new    " d="M269.24,319.434c0.949,0,1.72-5.837,1.72-13.037
			c0-7.2-0.771-13.037-1.72-13.037c-0.95,0-1.72,5.837-1.72,13.037C267.52,313.597,268.29,319.434,269.24,319.434z"/>
		<path fill="#3C3C3B" d="M270.007,294.5c-0.874,0.19-0.979,2.765-0.437,3.63s1.844,0.703,2.594,2.328
			c0.751,1.625,0.656,10.196,0.114,11.393c-0.542,1.188-2.613,2.575-2.718,3.335c-0.104,0.76-0.104,2.385,0.104,3.031
			c0.219,0.646,5.625-2.167,6.063-4.333c0.437-2.167,0.76-14.776-0.219-16.401C274.55,295.849,270.977,294.281,270.007,294.5z"/>
		<path d="M269.893,318.778c-0.485,0-0.627-0.314-0.665-0.418c-0.247-0.751-0.238-2.452-0.124-3.25
			c0.076-0.542,0.627-1.083,1.33-1.777c0.561-0.551,1.188-1.178,1.425-1.691c0.456-0.998,0.608-9.445-0.114-10.994
			c-0.38-0.817-0.893-1.083-1.435-1.368c-0.418-0.219-0.846-0.447-1.131-0.903c-0.485-0.77-0.542-2.509-0.124-3.506
			c0.247-0.589,0.599-0.779,0.855-0.836c1.197-0.276,4.951,1.397,6.034,3.193s0.722,14.51,0.276,16.743
			c-0.428,2.148-4.903,4.723-6.243,4.808C269.941,318.778,269.912,318.778,269.893,318.778z M270.102,294.965
			c-0.019,0-0.105,0.067-0.19,0.276c-0.314,0.751-0.238,2.167,0.057,2.632c0.152,0.247,0.428,0.39,0.77,0.57
			c0.599,0.314,1.34,0.703,1.853,1.805c0.789,1.701,0.751,10.405,0.124,11.783c-0.304,0.675-0.979,1.34-1.625,1.976
			c-0.409,0.399-1.026,1.007-1.055,1.226c-0.095,0.665-0.086,1.9,0.029,2.566c1.064-0.238,4.875-2.366,5.207-4.02
			c0.447-2.224,0.713-14.615-0.161-16.069C274.208,296.2,270.787,294.813,270.102,294.965z"/>
		<path fill="#080909" d="M265.077,291.943l-15.375,1.91c-0.789,0.095-1.378,0.77-1.378,1.558v275.922
			c0,1.834,1.007,5.065,2.775,7.003l12.087,18.188l-10.462-20.658c-1.321-1.91-2.081-5.074-2.081-6.87V298.224
			c0-0.779,0.437-1.435,1.026-1.53l11.498-1.872c0.665-0.105,1.254,0.57,1.254,1.454v300.543c0,0.475-0.342,0.741-0.637,0.637
			l1.729,2.604c0.371,0.551,1.226,0.295,1.226-0.371V293.426C266.759,292.533,265.97,291.839,265.077,291.943z"/>
		<path fill="#080909" d="M266.759,427.058h-18.425v6.927h18.425V427.058z"/>
		<path d="M266.083,600.829c-0.38,0-0.732-0.181-0.95-0.513l-14.425-21.713c-1.767-1.938-2.851-5.236-2.851-7.269V295.412
			c0-1.026,0.77-1.9,1.796-2.034l15.375-1.91c0.561-0.066,1.121,0.105,1.549,0.475s0.665,0.912,0.665,1.473V599.67
			c0,0.513-0.323,0.95-0.817,1.093C266.311,600.82,266.197,600.829,266.083,600.829z M265.266,292.409c-0.038,0-0.086,0-0.133,0.01
			l-15.365,1.91c-0.551,0.067-0.96,0.532-0.96,1.083v275.922c0,1.815,1.017,4.884,2.651,6.69l14.463,21.77
			c0.067,0.104,0.162,0.095,0.219,0.076c0.047-0.019,0.143-0.057,0.143-0.19V293.426c0-0.295-0.124-0.57-0.342-0.76
			C265.75,292.495,265.513,292.409,265.266,292.409z"/>
		<path d="M274.465,430.052h-28.963v0.95h28.963V430.052z"/>
		<path fill="#2D3033" d="M53.184,287.81c0.96,0.086,1.824-0.646,1.824-1.615c0-0.009,0-0.009,0-0.019l-0.77-77.872
			c0-2.746-0.342-5.53-0.865-8.98c-2.594-11.726-15.518-40.471-15.518-40.471l-1.273,0.238l0.333,124.415
			c0,1.283,0.979,2.347,2.252,2.461L53.184,287.81z"/>
		<path fill="#6B7077" d="M45.649,175.662c3.145,8.467,6.481,18.055,7.716,23.661c0.523,3.449,0.865,6.234,0.865,8.98L55,286.175
			c0,0.01,0,0.01,0,0.019c0,0.96-0.865,1.701-1.824,1.615l-7.583-0.988C44.689,244.203,45.335,190.362,45.649,175.662z"/>
		<path fill="#1D1D1B" d="M152.009,22.521c-22.226-0.048-56.815,1.283-78.062,4.694l12.6-13.056
			c19.157-3.421,39.255-3.164,52.662-3.506l12.79-0.067"/>
		<path d="M72.617,27.909l13.702-14.197l0.152-0.029c16.088-2.87,32.517-3.155,45.716-3.373c2.49-0.038,4.837-0.086,7.013-0.133
			L152,10.11l0.009,0.95l-12.79,0.067c-2.167,0.057-4.514,0.095-7.013,0.133c-13.123,0.219-29.458,0.494-45.422,3.335L75.267,26.53
			c20.725-3.155,54.088-4.533,76.732-4.485v0.95c-23.119-0.057-57.442,1.387-77.986,4.685L72.617,27.909z"/>
		<path d="M53.335,288.294c-0.067,0-0.133,0-0.2-0.01h-0.019L39.1,286.45c-1.511-0.143-2.661-1.397-2.661-2.936L36.107,158.7
			l2.024-0.38l0.152,0.342c0.133,0.285,12.98,28.925,15.546,40.566c0.542,3.582,0.884,6.338,0.884,9.084l0.77,77.863
			c0,0.608-0.247,1.15-0.684,1.549C54.399,288.085,53.867,288.294,53.335,288.294z M53.231,287.335
			c0.333,0.029,0.675-0.086,0.922-0.314c0.238-0.219,0.371-0.513,0.371-0.827l-0.77-77.882c0-2.689-0.333-5.407-0.865-8.913
			c-2.395-10.823-13.864-36.727-15.327-40.005l-0.513,0.095l0.323,124.026c0,1.036,0.789,1.891,1.824,1.996L53.231,287.335z"/>
		<path fill="#F8FDFF" d="M85.549,13.351c-0.104,0-0.209,0.01-0.323,0.029c-16.876,2.87-29.629,7.554-38.979,14.311
			C34.578,36.11,28.63,47.722,28.572,62.185c-0.009,0.941,0.684,1.748,1.615,1.891c0.095,0.009,0.19,0.019,0.285,0.019
			c0.827,0,1.568-0.542,1.815-1.349c3.06-10.044,7.374-17.266,13.569-22.72c6.794-5.987,16.078-9.921,28.374-12.011
			c0.247-0.048,0.485-0.133,0.694-0.266l9.854-6.224c0.342-0.219,0.618-0.542,0.76-0.931l1.777-4.656
			c0.247-0.637,0.124-1.359-0.304-1.881C86.652,13.598,86.11,13.351,85.549,13.351z"/>
		<path d="M83.772,19.898l-9.854,6.224c-26.132,4.447-37.563,16.762-43.445,36.052c0.133-30.17,26.55-42.077,55.076-46.932
			L83.772,19.898z M85.549,13.351c-0.104,0-0.209,0.01-0.323,0.029c-16.876,2.87-29.629,7.554-38.979,14.311
			C34.578,36.11,28.63,47.722,28.572,62.185c-0.009,0.941,0.684,1.748,1.615,1.891c0.095,0.009,0.19,0.019,0.285,0.019
			c0.827,0,1.568-0.542,1.815-1.349c3.06-10.044,7.374-17.266,13.569-22.72c6.794-5.987,16.078-9.921,28.374-12.011
			c0.247-0.048,0.485-0.133,0.694-0.266l9.854-6.224c0.342-0.219,0.618-0.542,0.76-0.931l1.777-4.656
			c0.247-0.637,0.124-1.359-0.304-1.881C86.652,13.598,86.11,13.351,85.549,13.351z"/>
		<path d="M31.973,145.235h-0.95v444.258h0.95V145.235z"/>
		<path d="M58.315,291.506l-28.935-3.753l-1.283-11.422l-1.986-0.266L25.93,173.258l0.067-0.114c2.11-3.611,3.44-12.99,5.027-27.956
			l0.048-0.428h4.219l0.124,0.276c0.931,1.986,22.758,48.852,22.758,62.003L58.315,291.506z M30.245,286.907l27.12,3.525
			l-0.133-83.393c0-12.429-20.715-57.376-22.54-61.319h-2.756c-1.844,17.313-3.136,24.412-5.046,27.795l0.181,101.723l1.9,0.257
			L30.245,286.907z"/>
		<path fill="#0B0B0B" d="M32.99,145.235c0,0,7.535,18.672,10.624,26.968l-12.106,0.086v-27.053L32.99,145.235z"/>
		<path d="M34.512,145.254c-1.055-25.362,5.73-40.328,5.806-40.48l0.865,0.399c-0.067,0.143-6.756,14.928-5.711,40.043
			L34.512,145.254z"/>
		<path d="M57.137,205.462c-0.124-21.295,1.653-30.313,1.663-30.408l0.931,0.19c-0.019,0.086-1.777,9.027-1.653,30.208
			L57.137,205.462z"/>
		<path d="M34.692,131.656l-3.658-19.204c-0.01-0.276-0.447-20.326,2.737-45.688l-2.974-4.314l0.779-0.542l3.174,4.609l-0.019,0.181
			c-3.202,25.381-2.765,45.45-2.756,45.65l3.649,19.128L34.692,131.656z"/>
		<path fill="#525452" d="M152.008,67.648c0,0-44.861-0.675-71.183,8.22c-26.331,8.885-35.14,16.097-40.29,25.324
			s-5.654,28.906-5.654,28.906s2.005-12.572,2.936-16.002s2.062-7.944,4.257-10.652c2.195-2.708,13.655-17.475,41.801-24.621
			c28.146-7.146,47.759-6.671,68.18-7.326"/>
		<path d="M35.338,130.165l-0.941-0.086c0.019-0.808,0.57-19.908,5.711-29.125c5.036-9.018,13.569-16.43,40.556-25.543
			c26.104-8.809,70.898-8.248,71.344-8.239l-0.02,0.95c-0.447-0.01-45.08-0.57-71.021,8.191
			C54.276,85.321,45.856,92.6,40.933,101.418c-2.566,4.59-3.963,11.897-4.723,17.988c0.418-2.271,0.827-4.324,1.131-5.445
			l0.152-0.551c0.912-3.402,2.052-7.63,4.2-10.282l0.143-0.181c9.141-11.327,24.032-20.06,41.915-24.602
			c24.535-6.224,42.741-6.68,60.34-7.127c2.642-0.067,5.283-0.133,7.935-0.219l0.029,0.95c-2.651,0.086-5.292,0.152-7.943,0.219
			c-17.551,0.437-35.702,0.893-60.132,7.098c-17.684,4.485-32.394,13.113-41.402,24.279l-0.143,0.181
			c-2.014,2.49-3.126,6.614-4.019,9.93l-0.152,0.551C37.353,117.583,35.367,130.041,35.338,130.165z"/>
		<path d="M40.269,617.763l-0.58-2.974l0.76-1.33c2.29-4.029,5.74-10.12,11.26-17.75c4.039-5.882,6.433-8.267,13.874-8.134
			l86.425-0.038v0.95l-86.434,0.038c-7.003-0.124-9.16,2.014-13.085,7.725c-5.492,7.592-8.932,13.655-11.213,17.665l-0.58,1.026
			l0.513,2.632L40.269,617.763z"/>
		<path fill="#1C1D1E" d="M152.01,612.346H61.471c-2.072,0-3.487-0.371-3.953-0.627c0.447-4.97,3.212-10.006,8.666-15.812
			c0.352-0.352,1.463-1.159,4.324-1.159c26.388-0.105,54.221-0.209,81.502-0.228V612.346z"/>
		<path fill="#606060" d="M60.357,603.424c0,0,3.335-4.884,5.815-7.526c0.352-0.352,1.463-1.159,4.324-1.159
			c26.388-0.104,54.221-0.209,81.502-0.228v8.913C152.008,603.424,80.303,604.611,60.357,603.424z"/>
		<path d="M152.008,612.821H61.469c-1.996,0-3.563-0.352-4.181-0.684l-0.276-0.152l0.029-0.314c0.456-5.084,3.25-10.196,8.79-16.097
			c0.494-0.494,1.748-1.311,4.675-1.311c28.963-0.114,55.095-0.209,81.502-0.228v0.95c-26.407,0.029-52.539,0.124-81.502,0.228
			c-2.756,0-3.753,0.779-3.991,1.017c-5.255,5.597-7.963,10.434-8.495,15.175c0.599,0.209,1.824,0.456,3.449,0.456h90.539V612.821
			L152.008,612.821z"/>
		<path d="M56.624,590.994l-0.931-0.171c1.188-6.528,1.672-20.658,1.672-20.801V290.965h0.95v279.077
			C58.306,570.203,57.821,584.409,56.624,590.994z"/>
		<path d="M29.755,287.782l0.087-0.946l-3.567-0.328l-0.087,0.946L29.755,287.782z"/>
		<path opacity="0.47" enable-background="new    " d="M34.273,280.303c0.95,0,1.72-5.837,1.72-13.037
			c0-7.2-0.77-13.037-1.72-13.037c-0.95,0-1.72,5.837-1.72,13.037C32.553,274.466,33.323,280.303,34.273,280.303z"/>
		<path fill="#3C3C3B" d="M33.704,254.988c0.903,0.2,1.007,2.851,0.447,3.744c-0.561,0.893-1.9,0.722-2.68,2.404
			c-0.779,1.672-0.684,10.529-0.124,11.764c0.561,1.226,2.689,2.661,2.803,3.44s0.114,2.461-0.114,3.126
			c-0.228,0.675-5.815-2.233-6.262-4.476c-0.447-2.233-0.779-15.261,0.228-16.933C29.01,256.385,32.706,254.76,33.704,254.988z"/>
		<path d="M33.828,280.037c-0.029,0-0.048,0-0.076,0c-1.378-0.086-5.987-2.737-6.433-4.951c-0.456-2.3-0.836-15.422,0.285-17.275
			c1.121-1.853,4.979-3.563,6.215-3.297c0.257,0.057,0.627,0.257,0.874,0.855c0.428,1.026,0.361,2.813-0.133,3.601
			c-0.295,0.475-0.741,0.703-1.169,0.931c-0.561,0.295-1.093,0.57-1.492,1.425c-0.751,1.606-0.589,10.339-0.124,11.365
			c0.247,0.532,0.903,1.178,1.473,1.748c0.722,0.713,1.292,1.273,1.368,1.824c0.114,0.827,0.124,2.575-0.133,3.345
			C34.464,279.723,34.312,280.037,33.828,280.037z M33.475,255.435c-0.931,0-4.162,1.378-5.065,2.87
			c-0.903,1.501-0.627,14.311-0.162,16.601c0.342,1.739,4.324,3.934,5.407,4.172c0.124-0.675,0.133-1.957,0.029-2.67
			c-0.029-0.228-0.675-0.865-1.093-1.273c-0.637-0.627-1.359-1.34-1.672-2.034c-0.646-1.425-0.694-10.405,0.124-12.163
			c0.532-1.14,1.292-1.539,1.91-1.862c0.361-0.19,0.646-0.333,0.798-0.589c0.304-0.485,0.39-1.948,0.057-2.737
			c-0.095-0.228-0.181-0.295-0.209-0.295C33.57,255.445,33.523,255.435,33.475,255.435z"/>
		<path fill="#2D3033" d="M38.256,291.943l6.88,0.855v296.229L37.81,600.05c-0.371,0.551-1.226,0.295-1.226-0.371V293.426
			C36.583,292.533,37.363,291.839,38.256,291.943z"/>
		<path fill="#6B7077" d="M53.63,293.853c0.789,0.095,1.378,0.77,1.378,1.558v275.922c0,1.834-1.007,5.065-2.775,7.003
			l-7.098,10.681V292.799L53.63,293.853z"/>
		<path opacity="0.47" enable-background="new    " d="M34.103,319.434c0.95,0,1.72-5.837,1.72-13.037
			c0-7.2-0.77-13.037-1.72-13.037c-0.95,0-1.72,5.837-1.72,13.037C32.383,313.597,33.153,319.434,34.103,319.434z"/>
		<path fill="#3C3C3B" d="M33.333,294.5c0.874,0.19,0.979,2.765,0.437,3.63s-1.844,0.703-2.594,2.328s-0.656,10.196-0.114,11.393
			c0.542,1.188,2.613,2.575,2.718,3.335c0.104,0.76,0.104,2.385-0.105,3.031c-0.219,0.646-5.625-2.167-6.063-4.333
			c-0.437-2.167-0.76-14.776,0.219-16.401S32.364,294.281,33.333,294.5z"/>
		<path d="M33.447,318.778c-0.019,0-0.047,0-0.076,0c-1.34-0.086-5.815-2.661-6.243-4.808c-0.447-2.224-0.808-14.938,0.276-16.743
			c1.083-1.805,4.837-3.459,6.034-3.193c0.257,0.057,0.618,0.247,0.855,0.836c0.418,0.998,0.352,2.737-0.124,3.506
			c-0.285,0.466-0.722,0.684-1.131,0.903c-0.542,0.285-1.055,0.551-1.435,1.368c-0.722,1.549-0.57,9.997-0.114,10.994
			c0.238,0.513,0.865,1.14,1.425,1.691c0.703,0.694,1.254,1.235,1.33,1.777c0.114,0.798,0.124,2.499-0.124,3.25
			C34.075,318.465,33.932,318.778,33.447,318.778z M33.105,294.956c-0.903,0-4.02,1.33-4.884,2.765
			c-0.865,1.444-0.599,13.845-0.161,16.069c0.333,1.653,4.143,3.782,5.207,4.02c0.114-0.656,0.124-1.901,0.029-2.566
			c-0.029-0.219-0.646-0.827-1.055-1.235c-0.646-0.637-1.311-1.302-1.625-1.976c-0.627-1.378-0.675-10.092,0.124-11.783
			c0.513-1.102,1.264-1.501,1.853-1.805c0.342-0.181,0.618-0.323,0.77-0.57c0.295-0.466,0.371-1.882,0.057-2.632
			c-0.086-0.209-0.171-0.276-0.19-0.276C33.2,294.956,33.153,294.956,33.105,294.956z"/>
		<path fill="#080909" d="M38.256,291.943l15.375,1.91c0.789,0.095,1.378,0.77,1.378,1.558v275.922c0,1.834-1.007,5.065-2.775,7.003
			l-12.087,18.188l10.462-20.658c1.321-1.91,2.081-5.074,2.081-6.87V298.224c0-0.779-0.437-1.435-1.026-1.53l-11.498-1.872
			c-0.665-0.105-1.254,0.57-1.254,1.454v300.543c0,0.475,0.342,0.741,0.637,0.637l-1.729,2.604
			c-0.371,0.551-1.226,0.295-1.226-0.371V293.426C36.583,292.533,37.363,291.839,38.256,291.943z"/>
		<path fill="#080909" d="M55.007,427.058H36.582v6.927h18.425V427.058z"/>
		<path d="M37.257,600.829c-0.114,0-0.228-0.019-0.333-0.047c-0.485-0.152-0.817-0.589-0.817-1.093V293.426
			c0-0.561,0.247-1.102,0.665-1.473s0.988-0.551,1.549-0.475l15.375,1.91c1.026,0.124,1.796,0.998,1.796,2.034v275.922
			c0,2.034-1.083,5.331-2.898,7.326l-14.377,21.656C37.989,600.649,37.628,600.829,37.257,600.829z M38.065,292.409
			c-0.247,0-0.485,0.086-0.675,0.257c-0.219,0.2-0.342,0.466-0.342,0.76V599.68c0,0.124,0.086,0.171,0.143,0.19
			c0.048,0.01,0.152,0.029,0.219-0.076l14.425-21.713c1.682-1.862,2.699-4.932,2.699-6.747V295.412c0-0.551-0.409-1.017-0.96-1.083
			l-15.375-1.91C38.15,292.409,38.112,292.409,38.065,292.409z"/>
		<path d="M57.84,430.052H28.877v0.95H57.84V430.052z"/>
		<path fill="#4C4C4B" d="M270.086,161.846c1.511-0.884,7.44-0.998,11.469-0.523c4.029,0.475,19.451,3.487,21.133,5.245
			c1.682,1.758-0.247,7.26-2.014,8.448c-1.758,1.197-20.079,2.452-24.402,0.352c-4.324-2.1-1.34-7.963-1.511-9.474
			c-0.171-1.511-4.238-0.675-4.675-1.425S269.278,162.321,270.086,161.846z"/>
		<path fill="#B5B4B5" d="M271.853,161.846c0.171,0.675,0.057,1.568,1.511,1.625c1.454,0.057,6.538,0.333,6.766,0.675
			c0.228,0.333-3.297,0.836-3.858,1.397s-2.566,5.255-0.276,5.587c2.29,0.333,19.651,2.395,23.138,1.653
			c3.487-0.741,0.561,1.701,0.561,1.701s-7.231,1.226-13.341,1.121c-6.11-0.114-9.512-0.646-11.032-1.283
			c-1.52-0.637-1.321-4.618-1.045-5.796s0.931-1.359,0.485-2.613c-0.447-1.254-3.934-0.618-4.172-1.159
			c-0.238-0.542-1.834-1.939-0.979-2.214c0.855-0.276,2.252-0.893,2.252-0.893v0.2h-0.01V161.846z"/>
		<path d="M286.221,176.973c-4.352,0-8.419-0.333-10.149-1.169c-3.592-1.739-2.632-5.787-2.062-8.21
			c0.162-0.694,0.323-1.349,0.285-1.644c-0.057-0.485-1.444-0.561-2.366-0.608c-1.121-0.057-1.939-0.095-2.243-0.637
			c-0.532-0.912-0.96-2.613,0.171-3.278c1.729-1.017,8.01-1.026,11.764-0.589c3.544,0.409,19.556,3.43,21.419,5.388
			c0.637,0.665,0.884,1.777,0.732,3.212c-0.257,2.366-1.549,5.093-2.822,5.958C299.686,176.261,292.625,176.973,286.221,176.973z
			 M270.323,162.254c-0.456,0.266-0.209,1.33,0.171,1.977c0.133,0.095,0.941,0.133,1.473,0.162c1.387,0.076,3.117,0.162,3.269,1.454
			c0.047,0.456-0.104,1.121-0.304,1.967c-0.713,3.012-1.131,5.835,1.549,7.136c4.115,1.996,22.331,0.76,23.927-0.323
			c1.036-0.703,2.186-3.221,2.404-5.274c0.124-1.131-0.047-2.005-0.475-2.452c-1.444-1.511-16.078-4.552-20.839-5.103
			C277.127,161.285,271.596,161.513,270.323,162.254z"/>
		<path fill="#4C4C4B" d="M33.542,161.846c-1.511-0.884-7.44-0.998-11.469-0.523c-4.029,0.475-19.451,3.487-21.133,5.245
			c-1.682,1.758,0.247,7.26,2.014,8.448c1.758,1.197,20.079,2.452,24.402,0.352c4.324-2.1,1.34-7.963,1.511-9.474
			c0.171-1.511,4.238-0.675,4.675-1.425C33.988,163.718,34.359,162.321,33.542,161.846z"/>
		<path fill="#B5B4B5" d="M31.774,161.846c-0.171,0.675-0.057,1.568-1.511,1.625c-1.454,0.057-6.538,0.333-6.766,0.675
			c-0.228,0.333,3.297,0.836,3.858,1.397c0.561,0.561,2.566,5.255,0.276,5.587c-2.29,0.333-19.651,2.395-23.138,1.653
			c-3.487-0.741-0.561,1.701-0.561,1.701s7.231,1.226,13.341,1.121c6.11-0.105,9.512-0.646,11.032-1.283
			c1.52-0.637,1.321-4.618,1.045-5.796c-0.276-1.178-0.931-1.359-0.485-2.613c0.447-1.254,3.934-0.618,4.172-1.159
			c0.238-0.542,1.834-1.939,0.979-2.214c-0.855-0.276-2.252-0.893-2.252-0.893v0.2h0.01V161.846z"/>
		<path d="M17.417,176.973c-6.414,0-13.474-0.713-14.719-1.558c-1.273-0.865-2.566-3.592-2.822-5.958
			c-0.152-1.435,0.095-2.547,0.732-3.212c1.862-1.957,17.874-4.979,21.418-5.388c3.744-0.437,10.035-0.428,11.764,0.589
			c1.131,0.665,0.703,2.357,0.171,3.278c-0.314,0.532-1.121,0.57-2.243,0.637c-0.922,0.048-2.319,0.124-2.366,0.608
			c-0.029,0.295,0.124,0.95,0.285,1.644c0.57,2.414,1.53,6.462-2.062,8.21C25.826,176.641,21.768,176.973,17.417,176.973z
			 M27.118,161.523c-1.644,0-3.392,0.086-4.989,0.276c-4.761,0.551-19.394,3.592-20.839,5.103c-0.428,0.447-0.599,1.321-0.475,2.452
			c0.219,2.053,1.368,4.571,2.414,5.274c1.596,1.083,19.813,2.319,23.927,0.323c2.689-1.302,2.271-4.115,1.549-7.136
			c-0.2-0.846-0.361-1.511-0.304-1.967c0.143-1.292,1.872-1.378,3.269-1.454c0.532-0.029,1.34-0.066,1.501-0.2
			c0.352-0.608,0.599-1.682,0.143-1.939C32.496,161.789,29.979,161.523,27.118,161.523z"/>
		<path fill="#121313" d="M40.373,104.251c-0.029,0.038-0.057,0.067-0.086,0.095c-1.112,1.045-1.235,7.687,2.071,23.015
			c4.96,22.967,13.284,46.609,15.945,47.731c29.819-4.884,60.958-7.355,92.554-7.355c31.757,0,63.115,2.499,93.209,7.421
			c2.68-1.131,11.251-25.533,16.107-48.348c3.174-14.9,3.022-21.371,1.919-22.397c-0.038-0.038-0.086-0.086-0.114-0.133
			c-16.297-21.97-52.254-32.698-109.934-32.802C94.793,71.487,58.266,82.206,40.373,104.251z"/>
		<path fill="#050606" d="M65.193,115.217H97.33c1.805,0,3.269,1.463,3.269,3.269l-4.001,29.572c0,1.805-1.463,7.944-3.269,7.944
			c0,0-5.264,1.824-11.726,1.824c-6.462,0-11.678-1.824-11.678-1.824c-1.805,0-3.269-6.139-3.269-7.944l-4.742-29.572
			C61.924,116.681,63.388,115.217,65.193,115.217z"/>
		<path fill="#0B0B0B" d="M81.262,163.737c-13.132,0-23.034-5.331-23.034-12.41c0-7.079,9.902-12.41,23.034-12.41
			s23.035,5.331,23.035,12.41C104.297,158.406,94.395,163.737,81.262,163.737z M81.262,144.618c-10.576,0-17.332,3.972-17.332,6.709
			s6.747,6.709,17.332,6.709c10.586,0,17.332-3.972,17.332-6.709S91.848,144.618,81.262,144.618z"/>
		<path fill="#262828" d="M152.044,71.487c-45.042-0.713-76.409,8.381-92.126,16.857c-10.956,5.911-19.594,16.61-19.594,16.61
			c-1.254,8.229,3.649,27.899,3.649,27.899c5.701,0.019,10.016,0.057,10.016,0.057s21.799,3.487,28.621,3.487
			c6.822,0,30.18-3.487,30.18-3.487s38.694-0.19,38.694-0.2h-0.124c41.051,1.055,88.629,0.447,107.035,0.143
			c0,0,5.454-19.651,4.191-27.88c0,0-9.398-11.498-19.014-16.629c-22.872-9.854-47.636-15.917-91.375-16.857"/>
		<path fill="#2B2A2A" d="M151.664,138.08c0,0-25.742,0.333-28.925-2.176c-3.183-2.509-9.892-26.835-4.523-31.025
			c5.369-4.191,25.315-6.367,33.458-6.367c8.143,0,28.099,2.176,33.458,6.376c5.369,4.191-1.34,28.507-4.523,31.025
			C177.406,138.413,151.664,138.08,151.664,138.08z"/>
		<path fill="#121313" d="M155.181,138.574c-1.739,0-3.003-0.01-3.516-0.019c-2.68,0.038-25.999,0.266-29.22-2.281
			c-2.613-2.062-6.747-15.822-6.718-24.535c0.009-3.668,0.751-6.11,2.195-7.241c5.359-4.191,25.105-6.471,33.743-6.471
			c8.647,0,28.393,2.281,33.753,6.471c1.444,1.131,2.186,3.563,2.195,7.231c0.019,8.714-4.105,22.473-6.718,24.535
			C178.282,138.327,162.536,138.574,155.181,138.574z M151.665,98.978c-8.533,0-27.966,2.214-33.163,6.272
			c-1.188,0.931-1.824,3.174-1.834,6.49c-0.019,8.619,4.191,22.074,6.357,23.785c2.509,1.977,21.523,2.176,28.631,2.081h0.01
			c7.117,0.095,26.132-0.095,28.631-2.081c2.176-1.72,6.386-15.166,6.357-23.785c-0.009-3.316-0.637-5.559-1.834-6.49
			C179.64,101.192,160.198,98.978,151.665,98.978z"/>
		<path fill="#313334" d="M67.323,135.106c0,0-2.376-18.273,2.1-37.611c0,0-13.531,8.951-13.864,35.663L67.323,135.106z"/>
		<path fill="#1F2020" d="M96.703,135.106c0,0,4.134-18.824-1.463-37.611c0,0,11.783,10.063,16.62,35.549L96.703,135.106z"/>
		<path opacity="0.56" fill="#848484" enable-background="new    " d="M152.814,110.171c-52.814,0-87.982,9.132-107.167,27.852
			c4.884,19.1,11.175,36.119,13.427,37.069c29.819-4.884,60.958-7.355,92.555-7.355c31.757,0,63.114,2.499,93.208,7.421
			c2.252-0.95,8.647-18.292,13.522-37.326C240.436,119.332,205.79,110.266,152.814,110.171z"/>
		<path fill="#1D1D1B" d="M39.431,113.203c-0.399-3.601-0.627-8.115,0.532-9.198l0.789,0.542c-0.047,0.057-0.086,0.105-0.143,0.152
			c-0.105,0.095-1.026,1.188-0.228,8.4L39.431,113.203z"/>
		<path fill="#0D0E0E" d="M40.373,104.251c17.893-22.046,54.42-32.764,111.673-32.764c57.68,0.105,93.646,10.833,109.934,32.802
			c0.038,0.048,0.076,0.095,0.114,0.133c0.637,0.589,0.96,3.031,0.494,7.897c-0.038-0.038-0.086-0.086-0.114-0.133
			c-16.297-21.97-52.254-32.698-109.934-32.802c-57.252,0-94.739,11.717-112.632,33.762"/>
		<path d="M244.124,175.643l-0.133-0.019c-30.066-4.922-61.405-7.412-93.133-7.412c-31.577,0-62.688,2.471-92.478,7.345
			l-0.133,0.019l-0.124-0.057c-3.069-1.292-11.564-26.445-16.23-48.073c-2.841-13.161-3.563-21.932-1.938-23.462l0.048-0.048
			c17.998-22.16,54.639-32.935,112.043-32.935c57.851,0.105,93.932,10.899,110.314,32.992c1.672,1.568,1.017,10.101-1.72,22.901
			c-4.571,21.456-13.303,47.389-16.392,48.681L244.124,175.643z M150.858,167.253c31.729,0,63.058,2.49,93.124,7.402
			c2.452-1.596,10.804-24.868,15.727-47.949c3.354-15.755,2.813-21.247,2.062-21.941c-0.067-0.057-0.124-0.124-0.181-0.2
			c-16.192-21.837-52.026-32.498-109.554-32.603c-57.091,0-93.494,10.662-111.302,32.584c-0.038,0.057-0.086,0.105-0.143,0.152
			c-0.76,0.713-1.283,6.348,2.224,22.559c5.084,23.547,13.17,45.773,15.565,47.341C88.179,169.723,119.29,167.253,150.858,167.253z"
			/>
	</g>
</g>
</svg>
